<svg width="255" height="286" viewBox="0 0 255 286" fill="none" xmlns="http://www.w3.org/2000/svg">
<path d="M227.466 97.5856C227.466 151.481 184.676 195.171 131.892 195.171C79.1081 195.171 36.3184 151.481 36.3184 97.5856C36.3184 43.6906 79.1081 0 131.892 0C184.676 0 227.466 43.6906 227.466 97.5856Z" fill="#6C63FF"/>
<ellipse cx="130.936" cy="96.6098" rx="71.6802" ry="73.1892" fill="white"/>
<path d="M98.3364 194.73L47.6996 282.062L50.6363 220.543L-0.000546056 253.227L50.6363 165.896C69.1104 182.857 79.4056 189.046 98.3364 194.73Z" fill="#6C63FF"/>
<path d="M98.3364 194.73L47.6996 282.062L50.6363 220.543L-0.000546056 253.227L50.6363 165.896C69.1104 182.857 79.4056 189.046 98.3364 194.73Z" fill="#6C63FF"/>
<path d="M207.276 169.799L255 258.824L204.681 224.857L206.375 286L158.651 196.974C182.363 189.405 192.829 183.523 207.276 169.799Z" fill="#6C63FF"/>
<path d="M207.276 169.799L255 258.824L204.681 224.857L206.375 286L158.651 196.974C182.363 189.405 192.829 183.523 207.276 169.799Z" fill="#6C63FF"/>
<path d="M131 40L148.757 72.5596L185.21 79.386L159.731 106.335L164.504 143.114L131 127.21L97.4962 143.114L102.269 106.335L76.7898 79.386L113.243 72.5596L131 40Z" fill="#6C63FF"/>
</svg>
