<svg xmlns="http://www.w3.org/2000/svg" width="120" height="100" fill="none" viewBox="0 0 120 100"><g id="triangles" clip-path="url(#clip0)"><g id="darkGroup"><path id="dark2" fill="#6C63FF" d="M44 48.268C45.3333 49.0378 45.3333 50.9623 44 51.7321L9.5 71.6506C8.16666 72.4204 6.5 71.4582 6.5 69.9186L6.5 30.0814C6.5 28.5418 8.16667 27.5796 9.5 28.3494L44 48.268Z" opacity=".75"/><path id="dark1" fill="#6C63FF" d="M66 48.268C67.3333 49.0378 67.3333 50.9623 66 51.7321L31.5 71.6506C30.1667 72.4204 28.5 71.4582 28.5 69.9186L28.5 30.0814C28.5 28.5418 30.1667 27.5796 31.5 28.3494L66 48.268Z" opacity=".75"/></g><g id="lightGroup"><path id="light1" fill="#10ABED" d="M44 48.268C45.3333 49.0378 45.3333 50.9623 44 51.7321L9.5 71.6506C8.16666 72.4204 6.5 71.4582 6.5 69.9186L6.5 30.0814C6.5 28.5418 8.16667 27.5796 9.5 28.3494L44 48.268Z" opacity=".75"/></g></g><defs><clipPath id="clip0"><rect width="120" height="100" fill="#fff"/></clipPath></defs></svg>