<svg width="257" height="286" viewBox="0 0 257 286" fill="none" xmlns="http://www.w3.org/2000/svg">
<path d="M228.466 97.5856C228.466 151.481 185.676 195.171 132.892 195.171C80.1081 195.171 37.3184 151.481 37.3184 97.5856C37.3184 43.6906 80.1081 0 132.892 0C185.676 0 228.466 43.6906 228.466 97.5856Z" fill="#1594DB"/>
<ellipse cx="131.936" cy="96.6096" rx="71.6802" ry="73.1892" fill="white"/>
<path d="M180.679 97.5858C180.679 124.533 159.284 146.379 132.892 146.379C106.5 146.379 85.1055 124.533 85.1055 97.5858C85.1055 70.6382 106.5 48.793 132.892 48.793C159.284 48.793 180.679 70.6382 180.679 97.5858Z" fill="#1594DB"/>
<path d="M99.3359 194.73L48.6991 282.062L51.6358 220.543L0.998966 253.227L51.6358 165.896C70.1099 182.857 80.4051 189.046 99.3359 194.73Z" fill="#1594DB"/>
<path d="M99.3359 194.73L48.6991 282.062L51.6358 220.543L0.998966 253.227L51.6358 165.896C70.1099 182.857 80.4051 189.046 99.3359 194.73Z" fill="#1594DB"/>
<path d="M208.277 169.799L256.001 258.824L205.682 224.857L207.376 286L159.652 196.974C183.364 189.405 193.831 183.523 208.277 169.799Z" fill="#1594DB"/>
<path d="M208.277 169.799L256.001 258.824L205.682 224.857L207.376 286L159.652 196.974C183.364 189.405 193.831 183.523 208.277 169.799Z" fill="#1594DB"/>
</svg>

