<svg width="256" height="286" viewBox="0 0 256 286" fill="none" xmlns="http://www.w3.org/2000/svg">
<path d="M228.259 97.5856C228.259 151.481 185.146 195.171 131.963 195.171C78.7809 195.171 35.668 151.481 35.668 97.5856C35.668 43.6906 78.7809 0 131.963 0C185.146 0 228.259 43.6906 228.259 97.5856Z" fill="#CE3EE6"/>
<ellipse cx="130.999" cy="96.6091" rx="72.2216" ry="73.1892" fill="white"/>
<path d="M180.11 97.5853C180.11 124.533 158.553 146.378 131.962 146.378C105.371 146.378 83.8145 124.533 83.8145 97.5853C83.8145 70.6378 105.371 48.7925 131.962 48.7925C158.553 48.7925 180.11 70.6378 180.11 97.5853Z" fill="#CE3EE6"/>
<path d="M100.078 194.73L49.0588 282.062L52.0178 220.544L0.998488 253.228L52.0178 165.896C70.6314 182.857 81.0043 189.046 100.078 194.73Z" fill="#CE3EE6"/>
<path d="M100.078 194.73L49.0588 282.062L52.0178 220.544L0.998488 253.228L52.0178 165.896C70.6314 182.857 81.0043 189.046 100.078 194.73Z" fill="#CE3EE6"/>
<path d="M207.914 169.799L255.999 258.825L205.3 224.858L207.006 286L158.922 196.975C182.813 189.406 193.358 183.523 207.914 169.799Z" fill="#CE3EE6"/>
<path d="M207.914 169.799L255.999 258.825L205.3 224.858L207.006 286L158.922 196.975C182.813 189.406 193.358 183.523 207.914 169.799Z" fill="#CE3EE6"/>
</svg>

