<svg
    width="437"
    height="284"
    viewBox="0 0 437 284"
    fill="none"
    xmlns="http://www.w3.org/2000/svg"
    >
    <g clip-path="url(#clip0_402_482)">
        <path
        d="M81.9404 283.136C110.02 283.136 132.782 260.678 132.782 232.974C132.782 205.271 110.02 182.813 81.9404 182.813C53.8613 182.813 31.0986 205.271 31.0986 232.974C31.0986 260.678 53.8613 283.136 81.9404 283.136Z"
        fill="#14213D"
        />
        <path
        d="M220.611 53.8023C220.611 80.3757 198.77 101.963 171.77 101.963C144.769 101.963 122.928 80.3757 122.928 53.8023C122.928 27.2289 144.769 5.64111 171.77 5.64111C198.77 5.64111 220.611 27.2289 220.611 53.8023Z"
        fill="white"
        stroke="#1BB978"
        stroke-width="4"
        />
        <path
        d="M204.394 283.216L22.791 104.045H204.674V104.828H24.7086L204.955 282.662L204.394 283.216Z"
        fill="#3F3D56"
        />
        <path
        d="M204.956 283.217H0V284.001H204.956V283.217Z"
        fill="#3F3D56"
        />
        <path
        d="M354.453 126.13C354.794 125.039 354.888 123.888 354.73 122.757C354.571 121.626 354.163 120.544 353.534 119.585C352.905 118.627 352.071 117.816 351.091 117.21C350.11 116.604 349.007 116.218 347.858 116.078L310.034 72.4707L301.212 81.6095L338.888 123.42C338.778 125.339 339.385 127.232 340.594 128.739C341.804 130.246 343.532 131.263 345.451 131.597C347.369 131.932 349.346 131.56 351.005 130.552C352.665 129.544 353.892 127.971 354.454 126.13H354.453Z"
        fill="#A0616A"
        />
        <path
        d="M322.34 79.2793C322.378 78.8108 322.314 78.3396 322.151 77.8978C321.988 77.456 321.731 77.0541 321.396 76.7195L309.711 65.0291C309 64.0638 308.104 63.2461 307.073 62.6226C306.042 61.999 304.896 61.582 303.702 61.3952C302.507 61.2084 301.288 61.2556 300.112 61.534C298.936 61.8124 297.827 62.3166 296.848 63.0177C295.87 63.7189 295.041 64.6033 294.409 65.6205C293.777 66.6377 293.355 67.7678 293.165 68.9462C292.976 70.1246 293.024 71.3282 293.306 72.4883C293.588 73.6485 294.099 74.7425 294.81 75.7078L302.581 90.2874C302.803 90.7034 303.113 91.0675 303.49 91.3546C303.867 91.6418 304.303 91.8455 304.767 91.9516C305.231 92.0578 305.713 92.064 306.18 91.9699C306.647 91.8757 307.087 91.6835 307.472 91.4061L320.994 81.6567C321.379 81.3792 321.698 81.0231 321.93 80.6128C322.162 80.2026 322.302 79.7477 322.34 79.2793V79.2793Z"
        fill="black"
        />
        <path
        d="M294.901 52.5229C304.896 52.5229 312.999 44.5288 312.999 34.6677C312.999 24.8065 304.896 16.8125 294.901 16.8125C284.906 16.8125 276.804 24.8065 276.804 34.6677C276.804 44.5288 284.906 52.5229 294.901 52.5229Z"
        fill="#A0616A"
        />
        <path
        d="M304.741 114.569C305.101 114.305 305.402 113.971 305.626 113.588C305.85 113.205 305.991 112.78 306.042 112.341C307.294 102.022 309.115 91.7782 311.498 81.6552C312.553 77.1063 311.898 72.3343 309.655 68.2261C307.412 64.1179 303.733 60.9529 299.303 59.3193C294.872 57.6857 289.991 57.6947 285.567 59.3445C281.143 60.9944 277.476 64.1729 275.248 68.2893C268.131 81.4681 267.588 99.5614 267.684 106.729C267.695 107.494 267.978 108.231 268.483 108.811C268.989 109.391 269.684 109.778 270.449 109.904L302.204 115.177C302.389 115.208 302.576 115.224 302.764 115.224C303.478 115.223 304.173 114.994 304.743 114.569L304.741 114.569Z"
        fill="#2F2E41"
        />
        <path
        d="M236.186 56.4313C236.277 56.8236 236.336 57.2222 236.363 57.6237L268.015 75.6396L275.709 71.2698L283.911 81.8637L271.053 90.9052C270.014 91.6357 268.763 92.014 267.488 91.9834C266.212 91.9527 264.982 91.5147 263.98 90.7352L231.341 65.3306C229.868 65.8685 228.264 65.9513 226.743 65.5679C225.221 65.1845 223.853 64.353 222.822 63.1841C221.791 62.0153 221.145 60.5643 220.97 59.0244C220.795 57.4844 221.099 55.9284 221.843 54.5632C222.586 53.1981 223.733 52.0885 225.131 51.3822C226.529 50.6758 228.111 50.4061 229.669 50.6088C231.226 50.8116 232.683 51.4773 233.848 52.5174C235.012 53.5575 235.828 54.9226 236.186 56.4313V56.4313Z"
        fill="#A0616A"
        />
        <path
        d="M269.26 75.9239L279.49 89.004C279.781 89.3761 280.15 89.682 280.572 89.9008C280.993 90.1196 281.458 90.2462 281.934 90.2719C282.409 90.2976 282.885 90.2219 283.329 90.0498C283.772 89.8778 284.173 89.6135 284.503 89.275L296.084 77.4099C297.04 76.6784 297.84 75.7683 298.438 74.7317C299.037 73.6952 299.423 72.5524 299.574 71.3687C299.725 70.185 299.639 68.9834 299.319 67.8327C299 66.682 298.454 65.6047 297.712 64.6622C296.971 63.7198 296.048 62.9306 294.998 62.3399C293.947 61.7491 292.789 61.3683 291.589 61.2192C290.389 61.0701 289.171 61.1556 288.005 61.4708C286.839 61.786 285.747 62.3248 284.791 63.0564L270.266 71.0705C269.85 71.3 269.489 71.6153 269.208 71.9949C268.927 72.3744 268.732 72.8093 268.637 73.2699C268.541 73.7305 268.547 74.2059 268.655 74.6639C268.763 75.1219 268.969 75.5517 269.26 75.9239V75.9239Z"
        fill="black"
        />
        <path
        d="M253.125 275.361H244.091L241.965 241.095L253.126 240.984L253.125 275.361Z"
        fill="#A0616A"
        />
        <path
        d="M255.429 272.451H237.639C236.15 272.451 234.676 272.74 233.3 273.302C231.925 273.864 230.675 274.688 229.622 275.727C228.569 276.766 227.734 277.999 227.165 279.356C226.595 280.713 226.302 282.168 226.302 283.637V284H255.429L255.429 272.451Z"
        fill="#2F2E41"
        />
        <path
        d="M339.336 275.361H330.302L326.005 240.984H339.339L339.336 275.361Z"
        fill="#A0616A"
        />
        <path
        d="M341.64 272.451H323.85C322.361 272.451 320.887 272.74 319.511 273.302C318.136 273.864 316.886 274.688 315.833 275.727C314.78 276.766 313.945 277.999 313.376 279.356C312.806 280.713 312.513 282.168 312.513 283.637V284H341.64L341.64 272.451Z"
        fill="#2F2E41"
        />
        <path
        d="M329.489 257.507L340.7 256.065C341.168 256.004 341.618 255.846 342.02 255.6C342.421 255.354 342.765 255.027 343.027 254.639C343.29 254.252 343.466 253.813 343.542 253.353C343.619 252.893 343.596 252.423 343.473 251.972L327.12 172.687C325.495 164.99 324.37 157.198 323.753 149.359C323.275 142.981 321.383 133.962 315.079 127.216C312.515 124.449 310.122 121.533 307.913 118.482L302.963 111.719L269.989 106.545L269.967 106.948C268.542 132.8 261.736 158.085 249.973 181.229C244.681 191.637 241.644 203.019 241.055 214.649L239.186 250.599C239.163 251.054 239.236 251.51 239.401 251.936C239.567 252.361 239.82 252.749 240.146 253.072C240.471 253.398 240.861 253.652 241.293 253.817C241.724 253.983 242.186 254.057 242.648 254.033L253.366 253.553C254.092 253.519 254.787 253.251 255.344 252.79C255.902 252.329 256.29 251.701 256.45 251.001L265.399 211.613C265.479 211.261 265.633 210.93 265.852 210.641L293.933 173.7C294.134 173.437 294.403 173.232 294.712 173.108C295.021 172.984 295.358 172.945 295.688 172.995C296.018 173.045 296.328 173.183 296.585 173.394C296.841 173.604 297.035 173.88 297.146 174.19L325.934 255.34C326.163 255.98 326.588 256.533 327.149 256.926C327.71 257.318 328.38 257.529 329.067 257.531C329.209 257.531 329.35 257.522 329.49 257.504L329.489 257.507Z"
        fill="#2F2E41"
        />
        <path
        d="M314.912 22.2751C313.475 17.9756 312.413 13.5623 311.74 9.08387C311.529 6.47674 312.206 3.67088 314.13 1.87211C317.732 -1.49473 323.849 0.109022 327.618 3.2952C333.062 7.89982 335.776 14.9768 336.802 21.9787C337.828 28.9806 337.377 36.1006 337.624 43.1706C337.871 50.2406 338.896 57.5107 342.549 63.5995C346.203 69.6884 352.983 74.3597 360.134 73.8413C363.02 73.6875 365.761 72.5416 367.881 70.6024C368.921 69.6258 369.709 68.4173 370.179 67.0783C370.648 65.7392 370.785 64.3086 370.579 62.9065C374.234 69.3636 372.381 78.1156 366.929 83.1918C361.477 88.268 353.091 89.7032 345.924 87.5357C338.756 85.3682 332.858 79.9339 329.334 73.4068C325.81 66.8797 324.519 59.3377 324.706 51.9439C324.85 46.266 325.829 40.5417 324.856 34.9429C323.883 29.3442 320.332 23.6611 314.733 22.3428L314.912 22.2751Z"
        fill="#2F2E41"
        />
        <path
        d="M289.768 29.635C288.814 32.7814 285.162 34.7219 281.877 34.1896C278.592 33.6574 275.891 30.9886 274.893 27.8553C273.99 24.6551 274.36 21.2359 275.926 18.2953C276.788 16.5329 277.994 14.9556 279.475 13.6536C280.956 12.3515 282.683 11.3504 284.557 10.7074C286.441 10.0913 288.448 9.93098 290.409 10.2401C292.369 10.5492 294.226 11.3186 295.822 12.4835C295.992 11.7766 296.35 11.1272 296.859 10.6022C297.367 10.0771 298.009 9.69528 298.717 9.49606C300.143 9.11695 301.648 9.13893 303.062 9.55953C307.136 10.7051 310.667 13.2391 313.026 16.711C315.355 20.1723 316.895 24.0905 317.542 28.1957C318.654 34.3522 318.243 41.0794 314.739 46.2899C311.234 51.5005 304.065 54.5773 298.249 52.0934C297.886 50.2641 298.745 48.4218 299.74 46.837C300.734 45.2523 301.912 43.7078 302.294 41.8804C302.676 40.0529 301.944 37.8219 300.154 37.2248C298.627 36.7152 296.999 37.5407 295.39 37.6417C294.477 37.6983 293.564 37.5169 292.744 37.1157C291.924 36.7144 291.225 36.1075 290.718 35.3558C290.211 34.604 289.913 33.7338 289.854 32.8326C289.795 31.9314 289.978 31.0307 290.383 30.221L289.768 29.635Z"
        fill="#2F2E41"
        />
        <path
        d="M199.773 31.0392C200.108 30.7086 200.507 30.4459 200.947 30.2666C201.388 30.0873 201.861 29.9949 202.339 29.9949C202.817 29.9949 203.29 30.0873 203.73 30.2666C204.171 30.4459 204.57 30.7086 204.904 31.0392C206.306 32.4114 199.288 40.0774 197.916 41.4734L168.938 74.6635C168.609 75.0135 168.21 75.2948 167.765 75.4902C167.32 75.6857 166.838 75.791 166.35 75.7999C165.861 75.8088 165.376 75.721 164.924 75.542C164.471 75.3629 164.061 75.0963 163.719 74.7584L146.086 57.4464C145.406 56.7745 145.025 55.8709 145.025 54.9299C145.025 53.9888 145.406 53.0852 146.086 52.4133C146.421 52.0827 146.82 51.82 147.26 51.6407C147.701 51.4614 148.174 51.369 148.652 51.369C149.13 51.369 149.603 51.4614 150.043 51.6407C150.484 51.82 150.883 52.0827 151.217 52.4133L166.174 67.0996L199.675 31.1437C199.706 31.107 199.738 31.0721 199.773 31.0392Z"
        fill="#1BB978"
        />
    </g>
    <defs>
        <clipPath id="clip0_402_482">
        <rect width="437" height="284" fill="white" />
        </clipPath>
    </defs>
</svg>