<svg width="204" height="203" viewBox="0 0 204 203" fill="none" xmlns="http://www.w3.org/2000/svg">
<rect width="203.753" height="203" rx="45" fill="#6C63FF"/>
<path d="M33.372 70.2332C37.3311 69.0525 41.9919 71.3398 43.4523 75.5807C44.7587 79.0612 43.401 83.2898 40.5429 85.3422C37.1086 88.0005 31.9059 87.4194 29.1277 83.9451C27.3877 81.8803 26.726 78.8263 27.4961 76.1557C28.2891 73.2254 30.6566 70.9565 33.372 70.2332Z" fill="white"/>
<path d="M149.736 50.9964C152.804 48.2991 157.95 48.3606 161.008 51.5527C163.758 54.2553 164.175 58.8451 162.272 61.9378C160.159 65.6965 155.155 67.2797 151.229 65.1726C148.014 63.5754 146.106 59.5708 146.823 56.0596C147.171 54.0517 148.235 52.2443 149.736 50.9964Z" fill="white"/>
<path d="M71.9771 42.7459C91.1893 33.0946 114.945 33.4626 133.827 43.7802C137.759 45.9249 141.448 48.5139 144.825 51.4771C148.346 54.2183 151.119 57.7844 153.706 61.4076C155.525 63.9775 157.133 66.6933 158.423 69.5741C160.056 73.4448 161.483 77.4487 162.081 81.6366C163.109 87.0429 163.016 92.6332 162.1 98.0521C160.598 107.418 156.067 116.124 149.879 123.161C146.059 127.526 141.535 131.213 136.649 134.271C124.074 142.317 107.915 144.437 93.8316 139.525C89.7374 138.104 85.8924 135.991 82.3777 133.434C81.1813 132.546 80.072 131.53 79.1186 130.375C80.8447 131.124 82.3403 132.285 83.9232 133.288C97.0347 141.499 115.262 140.338 127.053 130.166C130.58 127.076 133.471 123.269 135.652 119.093C136.812 116.885 137.696 114.544 138.619 112.228C140.22 106.758 141.024 101.047 141.03 95.3426C140.85 90.3679 140.083 85.4121 138.712 80.6341C135.821 71.0843 130.38 62.2706 122.809 55.8491C115.212 49.2626 105.74 45.1508 95.9566 43.4122C91.2828 42.5619 86.528 42.1812 81.7795 42.1368C78.5016 42.1495 75.2549 42.7396 71.9771 42.7459Z" fill="white"/>
<path d="M65.0668 49.7771C79.1255 43.1589 96.0009 43.8125 109.885 50.5957C117.862 54.4727 124.885 60.4564 129.82 67.9439C132.998 72.7601 135.348 78.1409 136.731 83.7693C137.971 88.5917 138.326 93.5855 138.501 98.5476C137.872 94.1439 136.899 89.7656 135.161 85.6665C131.366 76.3833 123.906 68.7815 114.908 64.6824C103.828 59.5363 90.3612 59.9868 79.7486 66.1165C72.0338 70.5328 65.9267 77.5064 61.764 85.4C58.0437 92.2911 55.8501 99.9626 54.797 107.729C54.2486 112.044 54.2361 116.416 54.5228 120.75C55.3703 130.604 58.7354 140.408 64.9359 148.118C70.2141 154.742 77.4865 159.647 85.4568 162.23C86.429 162.553 87.4074 162.896 88.2736 163.461C85.5939 163.308 82.9829 162.522 80.403 161.798C69.9773 158.619 60.5176 152.407 53.1518 144.279C46.7082 137.223 41.9721 128.606 39.2614 119.379C36.7687 111.936 36.6004 103.979 36.7687 96.1935C37.0927 95.0894 36.912 93.9155 37.1613 92.7987C37.9278 86.65 39.199 80.5141 41.6356 74.8096C42.5392 72.6902 43.4179 70.5455 44.6019 68.5721C49.4689 60.4945 56.5481 53.6986 65.0668 49.7771Z" fill="white"/>
<path d="M119.333 157.76C122.749 156.757 126.634 158.315 128.488 161.237C130.937 164.802 130.165 170.061 126.688 172.74C123.825 175.136 119.23 175.131 116.366 172.74C112.944 170.096 112.136 164.943 114.47 161.384C115.564 159.649 117.315 158.309 119.333 157.76Z" fill="white"/>
<path d="M59.739 97.1783C62.5557 89.1958 67.0238 81.8098 72.838 75.7246C68.9743 82.6728 66.2947 90.4205 65.8024 98.4283C65.3724 105.58 66.5627 112.87 69.585 119.368C73 126.856 78.621 133.302 85.6192 137.49C89.6822 139.946 94.1005 141.843 98.7244 142.859C102.544 143.709 106.458 144.096 110.365 144.09C119.738 143.779 129.079 141.145 137.093 136.126C148.852 128.924 158.1 117.192 161.534 103.568C162.543 99.7799 162.855 95.8585 163.197 91.9624C165.135 98.5362 165.385 105.529 164.494 112.306C163.278 122.046 159.483 131.373 153.825 139.299C148.117 147.319 140.564 153.976 131.921 158.532C121.464 164.071 109.337 166.305 97.6401 164.731C95.0664 164.458 92.4927 164.008 90.0312 163.195C82.3475 161.178 75.3431 156.799 69.7969 151.069C63.3658 144.381 59.1844 135.619 57.427 126.469C55.5513 116.728 56.4424 106.5 59.739 97.1783Z" fill="white"/>
</svg>
