<svg width="998" height="785" viewBox="0 0 998 785" fill="none" xmlns="http://www.w3.org/2000/svg">
<path d="M650.728 2.51781C734.116 12.6656 828.537 25.2447 880.995 79.4449C933.392 133.581 900.794 213.527 920.108 280.842C940.115 350.572 1008.4 411.542 996.65 482.529C984.456 556.201 920.798 616.994 855.888 668.812C789.19 722.057 711.861 772.815 619.751 783.41C529.225 793.822 445.755 750.635 359.444 725.912C274.517 701.586 180.469 690.798 116.148 639.158C50.2404 586.243 0.737081 513.034 0.00509235 437.336C-0.702405 364.17 72.4831 307.732 112.311 242.285C146.215 186.57 159.289 120.185 217.373 80.1409C274.953 40.4439 354.95 37.5227 428.398 24.3666C502.587 11.0779 575.616 -6.62289 650.728 2.51781Z" fill="#636CFF"/>
<path d="M816.137 118.365H172.275V530.723H816.137V118.365Z" fill="#E6E6E6"/>
<path d="M797.726 170.085H190.686V506.328H797.726V170.085Z" fill="white"/>
<path d="M815.862 118H172V145.354H815.862V118Z" fill="#3F3D56"/>
<path d="M192.327 137.054C195.127 137.054 197.397 134.785 197.397 131.985C197.397 129.185 195.127 126.915 192.327 126.915C189.527 126.915 187.257 129.185 187.257 131.985C187.257 134.785 189.527 137.054 192.327 137.054Z" fill="#DC014E"/>
<path d="M211.571 137.054C214.37 137.054 216.64 134.785 216.64 131.985C216.64 129.185 214.37 126.915 211.571 126.915C208.771 126.915 206.501 129.185 206.501 131.985C206.501 134.785 208.771 137.054 211.571 137.054Z" fill="#F8CE6D"/>
<path d="M230.814 137.054C233.614 137.054 235.884 134.785 235.884 131.985C235.884 129.185 233.614 126.915 230.814 126.915C228.014 126.915 225.744 129.185 225.744 131.985C225.744 134.785 228.014 137.054 230.814 137.054Z" fill="#1BB978"/>
<path d="M401.824 204.973H245.844V471.44H401.824V204.973Z" fill="#E6E6E6"/>
<path d="M558.733 204.973H428.75V278.321H558.733V204.973Z" fill="#6C63FF"/>
<path d="M558.733 298.747H428.75V377.666H558.733V298.747Z" fill="#E6E6E6"/>
<path d="M558.733 398.092H428.75V471.44H558.733V398.092Z" fill="#E6E6E6"/>
<path d="M742.568 204.973H586.587V321.098H742.568V204.973Z" fill="#E6E6E6"/>
<path d="M742.568 355.315H586.587V471.44H742.568V355.315Z" fill="#E6E6E6"/>
<path d="M682.479 329.44V304.44C682.479 295.555 686.008 287.034 692.29 280.752C698.573 274.469 707.094 270.94 715.979 270.94C724.863 270.94 733.384 274.469 739.667 280.752C745.949 287.034 749.479 295.555 749.479 304.44V329.44C749.477 330.633 749.003 331.777 748.159 332.62C747.315 333.464 746.172 333.939 744.979 333.94H686.979C685.785 333.939 684.642 333.464 683.798 332.62C682.954 331.777 682.48 330.633 682.479 329.44Z" fill="#2F2E41"/>
<path d="M765.514 654.786L753.698 658.056L735.462 614.038L752.901 609.212L765.514 654.786Z" fill="#FFB8B8"/>
<path d="M744.324 657.016L767.111 650.71L771.082 665.057L733.947 675.334C733.426 673.45 733.281 671.482 733.52 669.542C733.759 667.601 734.378 665.727 735.342 664.026C736.305 662.325 737.595 660.831 739.136 659.628C740.677 658.425 742.44 657.538 744.324 657.016V657.016Z" fill="#2F2E41"/>
<path d="M642.328 663.875H630.068L624.235 616.587H642.33L642.328 663.875Z" fill="#FFB8B8"/>
<path d="M621.311 660.372H644.955V675.258H606.424C606.424 673.304 606.809 671.368 607.557 669.562C608.305 667.755 609.402 666.114 610.784 664.732C612.166 663.349 613.808 662.253 615.614 661.505C617.42 660.757 619.356 660.372 621.311 660.372V660.372Z" fill="#2F2E41"/>
<path d="M627.544 399.598C628.42 400.779 629.543 401.754 630.836 402.454C632.128 403.154 633.559 403.563 635.026 403.65C636.494 403.738 637.963 403.502 639.329 402.961C640.696 402.419 641.927 401.584 642.936 400.515L675.527 415.173L672.562 396.842L642.069 385.733C640.16 384.156 637.74 383.335 635.267 383.423C632.793 383.512 630.438 384.505 628.648 386.214C626.858 387.923 625.757 390.23 625.553 392.696C625.35 395.163 626.058 397.619 627.545 399.598H627.544Z" fill="#FFB8B8"/>
<path d="M695.259 509.836C685.02 509.836 674.42 508.311 665.51 503.775C660.78 501.414 656.589 498.103 653.198 494.048C649.806 489.993 647.288 485.282 645.801 480.209C641.159 465.51 647.012 451.069 652.673 437.104C656.18 428.45 659.493 420.277 660.353 412.22L660.653 409.36C661.992 396.512 663.148 385.417 669.55 381.255C672.869 379.098 677.33 378.975 683.191 380.878L738.236 398.759L736.212 503.25L735.877 503.361C735.589 503.458 716.185 509.836 695.259 509.836Z" fill="#2F2E41"/>
<path d="M682.229 348.348C682.229 348.348 709.229 340.348 730.229 343.348C730.229 343.348 718.229 409.348 722.229 431.348C726.229 453.348 652.729 439.848 667.729 418.848L672.729 393.848C672.729 393.848 662.729 383.848 671.729 371.848L682.229 348.348Z" fill="#E5E5E5"/>
<path d="M668.948 507.855L635.672 501.616L647.29 412.209C648.071 409.713 666.068 353.066 674.241 350.001C680.176 347.911 686.245 346.225 692.407 344.954L693.591 344.717L686.919 354.726L660.354 418.38L668.948 507.855Z" fill="#2F2E41"/>
<path d="M651.61 652.918L608.615 645.753L632.743 547.229L668.646 412.492L669 414.884C669.029 415.062 672.383 432.664 722.151 424.854L722.589 424.786L722.71 425.212L782.862 637.75L733.871 645.914L689.188 490.848L651.61 652.918Z" fill="#2F2E41"/>
<path d="M711.202 524.587L711.229 523.83C711.259 522.99 714.217 439.458 713.229 405.863C712.237 372.154 723.151 342.962 723.261 342.671L723.35 342.437L723.591 342.367C737.711 338.334 749.96 350.373 750.082 350.495L750.254 350.667L746.233 383.843L763.449 504.484L711.202 524.587Z" fill="#2F2E41"/>
<path d="M709.095 333.358C722.659 333.358 733.656 322.362 733.656 308.797C733.656 295.232 722.659 284.236 709.095 284.236C695.53 284.236 684.534 295.232 684.534 308.797C684.534 322.362 695.53 333.358 709.095 333.358Z" fill="#FFB8B8"/>
<path d="M674.553 306.44C674.561 299.414 677.356 292.678 682.324 287.71C687.292 282.742 694.027 279.948 701.053 279.94H706.053C713.079 279.948 719.815 282.742 724.783 287.71C729.751 292.678 732.545 299.414 732.553 306.44V306.94H721.987L718.383 296.848L717.662 306.94H712.201L710.383 301.848L710.019 306.94H674.553V306.44Z" fill="#2F2E41"/>
<path d="M706.678 336.751C706.182 336.079 705.885 335.281 705.823 334.448C705.761 333.616 705.935 332.782 706.325 332.044C711.624 321.966 719.043 303.344 709.195 291.86L708.488 291.034H737.075V333.954L711.106 338.536C710.843 338.583 710.576 338.606 710.309 338.607C709.6 338.607 708.901 338.438 708.27 338.116C707.639 337.793 707.093 337.326 706.678 336.751Z" fill="#2F2E41"/>
<path d="M591.58 159.546C571.576 142.667 547.097 131.965 521.122 128.744C495.147 125.523 468.795 129.921 445.274 141.404C421.753 152.886 402.077 170.957 388.639 193.418C375.201 215.88 368.581 241.762 369.585 267.917C370.59 294.072 379.174 319.371 394.294 340.736C409.415 362.101 430.419 378.61 454.751 388.256C479.083 397.901 505.694 400.266 531.346 395.063C556.998 389.86 580.584 377.313 599.235 358.949L764.853 498.697C767.373 500.827 770.636 501.87 773.925 501.594C777.213 501.319 780.257 499.748 782.388 497.229C784.518 494.709 785.56 491.446 785.285 488.157C785.009 484.869 783.439 481.825 780.919 479.694L780.901 479.679L615.283 339.931C634.522 312.318 642.757 278.515 638.372 245.147C633.988 211.78 617.3 181.252 591.58 159.546V159.546ZM580.903 326.474C568.001 341.765 550.854 352.887 531.631 358.432C512.408 363.978 491.972 363.699 472.907 357.63C453.843 351.562 437.006 339.976 424.526 324.338C412.046 308.701 404.483 289.714 402.794 269.778C401.106 249.842 405.366 229.853 415.037 212.339C424.709 194.825 439.357 180.572 457.128 171.382C474.9 162.193 494.998 158.48 514.88 160.713C534.762 162.945 553.536 171.024 568.827 183.926H568.827C578.979 192.493 587.346 202.976 593.447 214.776C599.549 226.576 603.266 239.462 604.388 252.699C605.509 265.936 604.012 279.264 599.983 291.922C595.953 304.581 589.47 316.321 580.903 326.474V326.474Z" fill="#3F3D56"/>
<path opacity="0.3" d="M438.355 338.551C418.949 322.174 406.411 299.099 403.231 273.906C400.051 248.714 406.462 223.247 421.19 202.562C419.256 204.51 417.386 206.55 415.58 208.682C407.013 218.834 400.53 230.575 396.501 243.234C392.471 255.892 390.975 269.22 392.096 282.457C393.217 295.694 396.935 308.58 403.037 320.38C409.138 332.18 417.504 342.663 427.657 351.23C437.81 359.796 449.55 366.28 462.209 370.309C474.867 374.339 488.195 375.835 501.432 374.714C514.669 373.593 527.555 369.875 539.355 363.773C551.155 357.672 561.638 349.306 570.205 339.153C572.006 337.018 573.702 334.832 575.294 332.594C557.381 350.592 533.356 361.195 507.987 362.299C482.619 363.402 457.763 354.925 438.355 338.551V338.551Z" fill="black"/>
<path d="M716.98 442.536C718.408 442.885 719.896 442.917 721.337 442.629C722.779 442.341 724.14 441.741 725.324 440.87C726.509 439.999 727.488 438.879 728.193 437.589C728.898 436.299 729.311 434.87 729.404 433.403L763.837 423.846L749.84 411.642L719.288 422.589C716.813 422.596 714.427 423.511 712.581 425.161C710.735 426.81 709.559 429.079 709.275 431.538C708.99 433.996 709.617 436.474 711.038 438.501C712.458 440.528 714.572 441.964 716.98 442.536V442.536Z" fill="#FFB8B8"/>
<path d="M731.292 437.477L729.197 417.571L757.959 401.702L739.207 379.001L742.266 353.502L749.886 350.236L750.123 350.541C753.716 355.161 785.228 395.822 785.228 400.848C785.228 406.011 779.2 421.171 770.952 425.295C762.996 429.273 733.121 437.005 731.853 437.332L731.292 437.477Z" fill="#2F2E41"/>
</svg>
