<svg xmlns="http://www.w3.org/2000/svg" width="1541" height="1416" fill="none" viewBox="0 0 1541 1416"><ellipse cx="770.157" cy="707.691" fill="#fff" rx="666.51" ry="392.316" transform="rotate(-35.7297 770.157 707.691)"/><g clip-path="url(#clip0)"><path fill="#CE3EE6" d="M801.052 558.284C754.545 556.691 710.244 541.902 667.948 525.719C625.652 509.535 583.758 491.603 538.365 483.03C509.169 477.515 475.776 476.736 452.257 492.155C429.614 507.022 422.299 532.614 418.368 556.387C415.408 574.269 413.669 593.086 421.781 609.829C427.408 621.454 437.404 631.223 444.309 642.395C468.36 681.133 451.366 728.905 425.303 766.73C413.087 784.479 398.894 801.42 389.467 820.293C380.039 839.167 375.67 860.823 383.919 880.093C392.104 899.208 411.599 913.536 432.711 923.624C475.604 944.119 526.128 949.981 575.43 953.301C684.533 960.657 794.211 957.471 903.602 954.285C944.087 953.103 984.744 951.907 1024.57 945.741C1046.69 942.314 1069.52 936.884 1085.58 923.759C1105.96 907.101 1111.01 878.89 1097.35 858.005C1074.44 822.969 1011.12 814.269 995.085 776.663C986.275 755.97 995.329 732.919 1008.13 713.72C1035.61 672.546 1081.67 636.42 1084.1 589.356C1085.76 557.024 1063.62 524.657 1029.38 509.358C993.504 493.267 943.735 495.306 917.276 521.846C890.013 549.194 842.112 559.686 801.052 558.284Z" opacity=".1"/><path fill="#CE3EE6" d="M682.909 949.833L436.951 948.651L412.512 892.178L498.929 885.998L483.867 824.081L654.791 802.255L491.118 746.2L505.576 742.816L768.759 785.116L754.265 881.743L733.548 934.846L682.909 949.833Z"/><path fill="#CE3EE6" d="M440.723 925.001C440.723 925.001 455.814 922.622 464.868 933.128C464.868 933.128 458.228 938.282 443.943 931.146L440.723 925.001Z"/><path fill="#CE3EE6" d="M439.142 924.766C439.142 924.766 429.513 936.44 434.256 949.437C434.256 949.437 442.103 946.344 442.958 930.585L439.142 924.766Z"/><path fill="#CE3EE6" d="M430.491 905.572C430.491 905.572 436.527 894.663 460.671 909.933C460.671 909.933 457.452 917.268 446.788 916.673C436.124 916.078 433.308 911.321 430.491 905.572Z"/><path fill="#CE3EE6" d="M428.931 904.789C428.931 904.789 416.406 903.373 415.192 931.62C415.192 931.62 423.132 933.241 428.773 924.307C434.414 915.373 432.1 910.361 428.931 904.789Z"/><path fill="#CE3EE6" d="M421.638 882.255C421.638 882.255 428.68 863.027 454.233 876.705C454.233 876.705 448.398 894.347 424.253 888.796L421.638 882.255Z"/><path fill="#CE3EE6" d="M413.791 853.51C413.791 853.51 427.07 834.085 450.611 852.095C450.611 852.095 442.362 870.331 415.803 860.42L413.791 853.51Z"/><path fill="#CE3EE6" d="M410.974 826.159C410.974 826.159 426.467 808.311 449.778 826.159C449.778 826.159 435.09 841.818 410.974 830.718V826.159Z"/><path fill="#CE3EE6" d="M408.559 799.587C408.559 799.587 424.253 780.954 446.587 798.596C446.587 798.596 428.881 815.048 408.559 803.948V799.587Z"/><path fill="#CE3EE6" d="M409.968 775.998C409.968 775.998 426.495 752.013 447.392 768.267C447.392 768.267 429.686 788.882 409.968 780.557V775.998Z"/><path fill="#CE3EE6" d="M413.791 748.446C413.791 748.446 431.296 724.659 451.617 742.896C451.617 742.896 430.893 763.511 413.791 752.807V748.446Z"/><path fill="#CE3EE6" d="M419.626 723.816C419.626 723.816 440.35 701.46 458.429 710.366C458.429 710.366 436.836 734.11 418.72 729.749L419.626 723.816Z"/><path fill="#CE3EE6" d="M426.869 700.47C426.869 700.47 450.784 673.086 464.695 682.233C464.695 682.233 447.076 703.471 425.173 705.595L426.869 700.47Z"/><path fill="#CE3EE6" d="M437.324 673.391C437.324 673.391 458.257 651.034 473.548 656.585C473.548 656.585 455.641 679.777 434.515 680.372L437.324 673.391Z"/><path fill="#CE3EE6" d="M446.788 648.059C446.788 648.059 469.927 626.651 479.987 630.417C479.987 630.417 463.287 654.204 445.782 652.816L446.788 648.059Z"/><path fill="#CE3EE6" d="M456.044 624.67C456.044 624.67 475.963 599.092 486.835 601.074C486.835 601.074 474.756 623.877 456.044 627.268V624.67Z"/><path fill="#CE3EE6" d="M466.09 593.131C466.09 593.131 483.695 573.528 493.209 573.57C493.209 573.57 479.312 599.764 465.364 599.524L466.09 593.131Z"/><path fill="#CE3EE6" d="M472.039 572.131L489.048 531.297C489.048 531.297 489.896 568.209 469.876 579.706L472.039 572.131Z"/><path fill="#CE3EE6" d="M478.945 527.099C478.945 527.099 481.762 492.998 479.951 490.223C479.951 490.223 492.11 518.576 478.83 542.164L478.945 527.099Z"/><path fill="#CE3EE6" d="M420.977 881.8C420.977 881.8 403.342 871.032 391.924 897.374C391.924 897.374 407.618 907.64 423.053 888.518L420.977 881.8Z"/><path fill="#CE3EE6" d="M413.223 852.413C413.223 852.413 391.593 842.693 381.102 870.196C381.102 870.196 397.809 881.524 415.192 859.365L413.223 852.413Z"/><path fill="#CE3EE6" d="M409.968 827.791C409.968 827.791 394.475 809.944 371.164 827.791C371.164 827.791 385.852 843.451 409.968 832.351V827.791Z"/><path fill="#CE3EE6" d="M408.028 799.587C408.028 799.587 392.334 780.954 370 798.596C370 798.596 387.706 815.048 408.028 803.948V799.587Z"/><path fill="#CE3EE6" d="M409.968 776.679C409.968 776.679 398.959 749.813 375.03 761.366C375.03 761.366 387.965 785.189 408.99 781.139L409.968 776.679Z"/><path fill="#CE3EE6" d="M415.178 748.311C415.178 748.311 404.233 720.977 379.967 733.65C379.967 733.65 394.827 758.704 414.1 752.53L415.178 748.311Z"/><path fill="#CE3EE6" d="M421.961 723.951C421.961 723.951 417.649 693.984 397.529 691.301C397.529 691.301 401.797 722.903 419.252 729.353L421.961 723.951Z"/><path fill="#CE3EE6" d="M427.379 700.525C427.379 700.525 425.698 664.42 409.062 663.16C409.062 663.16 409.623 690.565 425.504 705.637L427.379 700.525Z"/><path fill="#CE3EE6" d="M439.049 672.378C439.049 672.378 434.091 642.355 418.21 638.688C418.21 638.688 420.179 667.763 437.475 679.748L439.049 672.378Z"/><path fill="#CE3EE6" d="M448.671 648.309C448.671 648.309 448.506 617.032 438.805 612.438C438.805 612.438 432.79 640.755 445.861 652.302L448.671 648.309Z"/><path fill="#CE3EE6" d="M456.784 624.316C456.784 624.316 455.426 592.112 445.38 587.574C445.38 587.574 441.945 613.06 455.282 626.426L456.784 624.316Z"/><path fill="#CE3EE6" d="M467.491 595.698C467.491 595.698 467.433 569.504 460.262 563.359C460.262 563.359 453.134 592.052 463.747 600.965L467.491 595.698Z"/><path fill="#CE3EE6" d="M471.199 570.845L464.221 527.25C464.221 527.25 454.743 562.973 471.529 578.717L471.199 570.845Z"/><path fill="#CE3EE6" d="M472.557 527.511C472.557 527.511 454.65 498.202 455.016 494.945C455.016 494.945 456.92 525.663 479.448 540.962L472.557 527.511Z"/><path fill="#CE3EE6" d="M474.655 518.852C474.655 518.852 457.754 477.225 450.108 473.855C450.108 473.855 474.253 485.947 476.064 517.663L474.655 518.852Z"/><path fill="#444053" d="M465.278 599.771L464.121 599.424C478.385 553.599 481.942 524.382 474.145 517.055L474.971 516.191C483.242 523.922 479.886 552.82 465.278 599.771Z"/><path fill="#444053" d="M426 707.066L424.289 706.464C425.806 702.266 427.437 698.004 429.147 693.806C444.036 657.248 456.712 623.239 464.839 597.13L466.327 596.422C458.185 622.58 445.732 657.892 430.828 694.5C429.125 698.62 427.501 702.861 426 707.066Z"/><path fill="#444053" d="M461.986 959.29C461.757 959.042 438.64 933.394 422.522 889.607C413.078 863.972 407.822 837.023 406.95 809.766C405.843 775.692 413.101 737.648 425.533 703.086L426.883 704.643C398.974 782.213 410.061 848.681 424.771 888.708C440.716 932.098 463.575 957.464 463.797 957.718L461.986 959.29Z"/><path fill="#D5D6DB" d="M823.235 904.836C823.235 904.836 806.944 924.425 819.879 954.038L689.815 1009.61L677.333 1012.19L671.584 987.41L675.428 956.14V939.051L823.235 904.836Z"/><path fill="#CE3EE6" d="M412.512 892.179L592.532 859.848L831.067 897.284L682.909 949.834L412.512 892.179Z"/><path fill="#CE3EE6" d="M412.512 892.179L592.532 859.848L831.067 897.284L682.909 949.834L412.512 892.179Z"/><path fill="#CE3EE6" d="M412.512 892.172C412.512 892.172 395.675 923.597 415.077 952.623L682.032 1009.61C682.032 1009.61 665.462 984.58 682.887 949.834L412.512 892.172Z"/><path fill="#000" d="M412.512 892.172C412.512 892.172 395.675 923.597 415.077 952.623L682.032 1009.61C682.032 1009.61 665.462 984.58 682.887 949.834L412.512 892.172Z" opacity=".1"/><path fill="#000" d="M420.466 903.066C420.466 903.066 410.844 926.06 420.466 940.941V903.066Z" opacity=".1"/><path fill="#CE3EE6" d="M682.032 1009.61L831.067 946.961C831.067 946.961 839.403 948.731 834.013 954.748C828.624 960.766 684.906 1015.63 684.906 1015.63L415.077 952.624L682.032 1009.61Z"/><path fill="#000" d="M682.032 1009.61L831.067 946.961C831.067 946.961 839.403 948.731 834.013 954.748C828.624 960.766 684.906 1015.63 684.906 1015.63L415.077 952.624L682.032 1009.61Z" opacity=".1"/><path fill="#000" d="M669.816 956.164C669.816 956.164 655.444 973.155 669.816 998.641V956.164Z" opacity=".1"/><path fill="#000" d="M739.395 955.874L674.931 977.062L675.159 977.734L739.622 956.546L739.395 955.874Z" opacity=".1"/><path fill="#000" d="M752.307 953.767L674.911 982.762L675.166 983.423L752.562 954.428L752.307 953.767Z" opacity=".1"/><path fill="#000" d="M764.165 953.667L675.343 989.484L675.615 990.14L764.437 954.322L764.165 953.667Z" opacity=".1"/><path fill="#000" d="M777.059 950.596L676.379 995.402L676.675 996.048L777.355 951.241L777.059 950.596Z" opacity=".1"/><path fill="#000" d="M787.893 950.612L677.177 998.289L677.464 998.938L788.18 951.261L787.893 950.612Z" opacity=".1"/><path fill="#000" d="M811.588 946.65L678.846 1003.13L679.131 1003.78L811.873 947.3L811.588 946.65Z" opacity=".1"/><path fill="#fff" d="M479.391 895.635L605.862 869.441L682.909 883.954L579.274 916.873L479.391 895.635Z" opacity=".3"/><path fill="#CE3EE6" d="M831.067 897.281C831.067 897.281 837.607 899.879 833.769 903.893C829.932 907.907 682.887 949.832 682.887 949.832L831.067 897.281Z"/><path fill="#D5D6DB" d="M894.583 836.746C894.583 836.746 878.3 856.328 891.235 885.948L761.17 941.521L748.688 944.113L742.94 919.335L746.842 888.072V870.961L894.583 836.746Z"/><path fill="#3A3768" d="M483.867 824.082L663.881 791.758L902.423 829.194L754.265 881.744L483.867 824.082Z"/><path fill="#3A3768" d="M483.839 824.082C483.839 824.082 466.995 855.508 486.397 884.533L753.352 941.522C753.352 941.522 736.789 916.468 754.236 881.737L483.839 824.082Z"/><path fill="#000" d="M483.839 824.082C483.839 824.082 466.995 855.508 486.397 884.533L753.352 941.522C753.352 941.522 736.789 916.468 754.236 881.737L669.816 863.734L483.839 824.082Z" opacity=".1"/><path fill="#000" d="M491.815 834.977C491.815 834.977 482.2 857.963 491.815 872.851V834.977Z" opacity=".1"/><path fill="#3A3768" d="M753.381 941.524L902.423 878.871C902.423 878.871 910.751 880.641 905.362 886.658C899.973 892.676 756.255 947.541 756.255 947.541L486.426 884.535L753.381 941.524Z"/><path fill="#000" d="M753.381 941.524L902.423 878.871C902.423 878.871 910.751 880.641 905.362 886.658C899.973 892.676 756.255 947.541 756.255 947.541L486.426 884.535L753.381 941.524Z" opacity=".1"/><path fill="#000" d="M741.165 888.074C741.165 888.074 726.793 905.065 741.165 930.551V888.074Z" opacity=".1"/><path fill="#000" d="M810.749 887.792L746.285 908.98L746.513 909.652L810.977 888.464L810.749 887.792Z" opacity=".1"/><path fill="#000" d="M823.67 885.681L746.274 914.676L746.529 915.337L823.925 886.343L823.67 885.681Z" opacity=".1"/><path fill="#000" d="M835.517 885.569L746.695 921.387L746.968 922.042L835.79 886.224L835.517 885.569Z" opacity=".1"/><path fill="#000" d="M848.42 882.502L747.74 927.309L748.036 927.954L848.716 883.148L848.42 882.502Z" opacity=".1"/><path fill="#000" d="M859.243 882.511L748.527 930.188L748.815 930.836L859.531 883.159L859.243 882.511Z" opacity=".1"/><path fill="#000" d="M882.944 878.544L750.202 935.027L750.487 935.677L883.229 879.194L882.944 878.544Z" opacity=".1"/><path fill="#fff" d="M550.746 827.545L677.218 801.352L754.265 815.864L650.63 848.784L550.746 827.545Z" opacity=".45"/><path fill="#3A3768" d="M902.423 829.191C902.423 829.191 908.955 831.79 905.125 835.797C901.295 839.803 754.265 881.735 754.265 881.735L902.423 829.191Z"/><path fill="#D5D6DB" d="M901.338 758.852C901.338 758.852 885.047 794.015 897.982 823.628L767.918 863.627L755.465 866.225L749.716 841.447L753.56 810.177V793.066L901.338 758.852Z"/><path fill="#CE3EE6" d="M490.644 746.195L670.664 713.863L909.206 751.299L761.041 803.85L490.644 746.195Z"/><path fill="#CE3EE6" d="M490.644 746.188C490.644 746.188 473.778 777.613 493.18 806.639L760.136 863.628C760.136 863.628 743.565 838.574 761.012 803.849L490.644 746.188Z"/><path fill="#000" d="M490.644 746.188C490.644 746.188 473.778 777.613 493.18 806.639L760.136 863.628C760.136 863.628 743.565 838.574 761.012 803.849L490.644 746.188Z" opacity=".1"/><path fill="#000" d="M498.598 757.082C498.598 757.082 488.977 780.076 498.598 794.957V757.082Z" opacity=".1"/><path fill="#CE3EE6" d="M760.164 863.626L909.199 816.548C909.199 816.548 917.535 818.318 912.145 824.335C906.756 830.353 763.039 869.644 763.039 869.644L493.209 806.637L760.164 863.626Z"/><path fill="#000" d="M760.164 863.626L909.199 816.548C909.199 816.548 917.535 818.318 912.145 824.335C906.756 830.353 763.039 869.644 763.039 869.644L493.209 806.637L760.164 863.626Z" opacity=".1"/><path fill="#000" d="M747.948 810.18C747.948 810.18 733.576 827.17 747.948 852.656V810.18Z" opacity=".1"/><path fill="#000" d="M817.535 809.898L753.071 831.086L753.298 831.757L817.762 810.569L817.535 809.898Z" opacity=".1"/><path fill="#000" d="M830.451 807.786L753.055 836.781L753.31 837.443L830.706 808.448L830.451 807.786Z" opacity=".1"/><path fill="#000" d="M842.291 807.679L753.469 843.496L753.741 844.151L842.563 808.334L842.291 807.679Z" opacity=".1"/><path fill="#000" d="M855.204 804.608L754.524 849.414L754.82 850.059L855.5 805.253L855.204 804.608Z" opacity=".1"/><path fill="#000" d="M866.031 804.62L755.315 852.297L755.603 852.946L866.319 805.269L866.031 804.62Z" opacity=".1"/><path fill="#000" d="M889.73 800.661L756.988 857.145L757.272 857.794L890.015 801.311L889.73 800.661Z" opacity=".1"/><path fill="#fff" d="M557.522 749.651L683.994 723.457L761.041 737.97L657.406 770.889L557.522 749.651Z" opacity=".3"/><path fill="#CE3EE6" d="M909.199 751.297C909.199 751.297 915.738 753.895 911.901 757.909C908.064 761.923 761.041 803.847 761.041 803.847L909.199 751.297Z"/><path fill="#CE3EE6" d="M593.064 536.394C593.064 536.394 565.758 534.773 568.948 553.647C568.948 553.647 568.309 556.981 571.377 558.496C571.377 558.496 571.427 557.08 574.18 557.569C575.162 557.735 576.161 557.783 577.155 557.71C578.494 557.62 579.768 557.103 580.783 556.238C580.783 556.238 588.465 553.109 591.454 540.734C591.454 540.734 593.668 538.037 593.61 537.343L588.982 539.283C588.982 539.283 590.556 542.56 589.32 545.286C589.32 545.286 589.169 539.403 588.278 539.537C588.099 539.537 585.885 540.677 585.885 540.677C585.885 540.677 588.594 546.39 586.546 550.539C586.546 550.539 587.323 543.502 585.037 541.088L581.789 542.957C581.789 542.957 584.958 548.854 582.81 553.668C582.81 553.668 583.363 546.284 581.107 543.41L578.161 545.675C578.161 545.675 581.143 551.488 579.325 555.48C579.325 555.48 579.088 546.886 577.528 546.235C577.528 546.235 574.948 548.472 574.56 549.392C574.56 549.392 576.601 553.64 575.329 555.841C575.329 555.841 574.56 550.114 573.892 550.086C573.892 550.086 571.327 553.88 571.061 556.457C571.185 554.055 571.946 551.726 573.267 549.704C571.788 549.979 570.424 550.676 569.343 551.707C569.343 551.707 569.739 549.024 573.907 548.79C573.907 548.79 576.026 545.909 576.594 545.739C576.594 545.739 572.448 545.392 569.94 546.489C569.94 546.489 572.153 543.962 577.349 545.074L580.223 542.737C580.223 542.737 574.776 542.029 572.462 542.815C572.462 542.815 575.128 540.578 581.006 542.206L584.175 540.345C584.175 540.345 579.526 539.36 576.759 539.714C576.759 539.714 579.677 538.164 585.102 539.842L587.358 538.844C587.358 538.844 583.96 538.185 582.961 538.079C581.962 537.973 581.912 537.704 581.912 537.704C584.069 537.355 586.282 537.6 588.307 538.412C588.307 538.412 593.157 536.692 593.064 536.394Z"/><path fill="#CE3EE6" d="M977.221 613.972C977.221 613.972 949.914 612.351 953.105 631.225C953.105 631.225 952.465 634.559 955.534 636.074C955.534 636.074 955.584 634.658 958.336 635.147C959.319 635.309 960.317 635.357 961.311 635.288C962.639 635.192 963.899 634.676 964.904 633.816C964.904 633.816 972.593 630.687 975.575 618.312C975.575 618.312 977.788 615.615 977.731 614.921L973.118 616.861C973.118 616.861 974.691 620.139 973.455 622.864C973.455 622.864 973.304 616.981 972.421 617.116C972.241 617.116 970.021 618.255 970.021 618.255C970.021 618.255 972.73 623.968 970.689 628.117C970.689 628.117 971.465 621.08 969.173 618.666L965.925 620.535C965.925 620.535 969.094 626.432 966.945 631.246C966.945 631.246 967.498 623.862 965.242 620.988L962.303 623.253C962.303 623.253 965.278 629.066 963.46 633.058C963.46 633.058 963.223 624.464 961.663 623.813C961.663 623.813 959.091 626.05 958.696 626.97C958.696 626.97 960.736 631.218 959.472 633.419C959.472 633.419 958.696 627.692 958.035 627.664C958.035 627.664 955.469 631.458 955.203 634.035C955.328 631.632 956.091 629.303 957.417 627.282C955.936 627.558 954.57 628.254 953.486 629.285C953.486 629.285 953.888 626.602 958.049 626.368C958.049 626.368 960.169 623.487 960.736 623.31C960.736 623.31 956.597 622.97 954.082 624.068C954.082 624.068 956.296 621.54 961.491 622.652L964.365 620.315C964.365 620.315 958.911 619.608 956.605 620.393C956.605 620.393 959.263 618.156 965.149 619.785L968.31 617.923C968.31 617.923 963.661 616.939 960.894 617.293C960.894 617.293 963.812 615.742 969.237 617.42L971.501 616.422C971.501 616.422 968.095 615.763 967.096 615.657C966.097 615.551 966.047 615.282 966.047 615.282C968.204 614.929 970.418 615.174 972.442 615.99C972.442 615.99 977.307 614.27 977.221 613.972Z" opacity=".1"/><path fill="#CE3EE6" d="M639.054 652.995C639.054 652.995 627.154 628.691 612.006 640.67C612.006 640.67 608.736 641.746 608.894 645.123C608.894 645.123 610.152 644.479 611.05 647.084C611.386 648.005 611.83 648.884 612.372 649.703C613.108 650.814 614.19 651.659 615.455 652.11C615.455 652.11 621.973 657.193 634.397 653.724C634.397 653.724 637.868 654.312 638.436 653.901L634.469 650.878C634.469 650.878 632.313 653.83 629.31 654.092C629.31 654.092 634.455 651.098 633.901 650.404C633.786 650.262 631.746 648.896 631.746 648.896C631.746 648.896 628.002 654.015 623.331 654.276C623.331 654.276 629.942 651.515 630.962 648.365L627.729 646.482C627.729 646.482 624.042 652.089 618.732 652.584C618.732 652.584 625.544 649.462 626.988 646.121L623.554 644.705C623.554 644.705 619.853 650.1 615.426 650.489C615.426 650.489 622.928 646.093 622.742 644.429C622.742 644.429 619.501 643.31 618.495 643.417C618.495 643.417 615.75 647.232 613.163 647.232C613.163 647.232 617.855 643.771 617.568 643.211C617.568 643.211 612.954 642.857 610.526 643.919C612.714 642.848 615.15 642.359 617.589 642.503C616.621 641.366 615.338 640.532 613.896 640.103C613.896 640.103 616.468 639.141 618.703 642.602C618.703 642.602 622.296 643.02 622.72 643.424C622.72 643.424 621.003 639.7 618.811 638.079C618.811 638.079 622.131 638.737 623.647 643.742L627.132 645.102C627.132 645.102 625.127 640.061 623.281 638.468C623.281 638.468 626.557 639.665 627.987 645.548L631.178 647.36C631.178 647.36 629.791 642.879 628.124 640.677C628.124 640.677 630.919 642.433 632.076 647.912L634.067 649.37C634.067 649.37 632.989 646.121 632.629 645.215C632.27 644.309 632.45 644.125 632.45 644.125C633.817 645.805 634.683 647.828 634.95 649.965C634.95 649.965 638.795 653.207 639.054 652.995Z" opacity=".1"/><path fill="#CE3EE6" d="M914.833 579.636C914.833 579.636 902.94 555.332 887.785 567.31C887.785 567.31 884.523 568.387 884.674 571.763C884.674 571.763 885.938 571.126 886.83 573.724C887.164 574.649 887.611 575.531 888.159 576.351C888.891 577.459 889.971 578.302 891.234 578.751C891.234 578.751 897.759 583.834 910.176 580.372C910.176 580.372 913.647 580.952 914.222 580.542L910.277 577.512C910.277 577.512 908.121 580.471 905.125 580.733C905.125 580.733 910.263 577.731 909.709 577.038C909.594 576.896 907.554 575.53 907.554 575.53C907.554 575.53 903.817 580.648 899.139 580.91C899.139 580.91 905.757 578.149 906.778 575.006L903.494 573.137C903.494 573.137 899.814 578.737 894.497 579.239C894.497 579.239 901.309 576.11 902.761 572.769L899.319 571.353C899.319 571.353 895.618 576.754 891.199 577.137C891.199 577.137 898.693 572.74 898.507 571.084C898.507 571.084 895.273 569.958 894.267 570.071C894.267 570.071 891.522 573.88 888.928 573.88C888.928 573.88 893.627 570.418 893.34 569.859C893.34 569.859 888.727 569.505 886.291 570.567C888.479 569.495 890.915 569.007 893.354 569.151C892.39 568.013 891.108 567.179 889.668 566.751C889.668 566.751 892.241 565.788 894.475 569.25C894.475 569.25 898.068 569.675 898.492 570.078C898.492 570.078 896.775 566.348 894.576 564.726C894.576 564.726 897.896 565.392 899.412 570.425L902.904 571.785C902.904 571.785 900.899 566.737 899.053 565.144C899.053 565.144 902.329 566.341 903.752 572.224L906.95 574.036C906.95 574.036 905.556 569.562 903.889 567.353C903.889 567.353 906.691 569.109 907.841 574.588L909.832 576.046C909.832 576.046 908.761 572.797 908.394 571.891C908.028 570.985 908.215 570.808 908.215 570.808C909.578 572.49 910.441 574.512 910.708 576.648C910.708 576.648 914.61 579.862 914.833 579.636Z" opacity=".1"/><path fill="#CE3EE6" d="M952.839 699.853C952.839 699.853 940.946 675.542 925.77 687.521C925.77 687.521 922.507 688.597 922.658 691.974C922.658 691.974 923.923 691.336 924.814 693.935C925.147 694.859 925.591 695.741 926.136 696.561C926.869 697.67 927.949 698.512 929.212 698.961C929.212 698.961 935.737 704.051 948.161 700.582C948.161 700.582 951.625 701.17 952.2 700.752L948.233 697.729C948.233 697.729 946.077 700.688 943.074 700.95C943.074 700.95 948.211 697.949 947.658 697.255C947.543 697.113 945.502 695.747 945.502 695.747C945.502 695.747 941.766 700.865 937.088 701.134C937.088 701.134 943.706 698.366 944.726 695.223L941.485 693.34C941.485 693.34 937.806 698.947 932.489 699.442C932.489 699.442 939.301 696.313 940.752 692.972L937.31 691.556C937.31 691.556 933.61 696.95 929.19 697.34C929.19 697.34 936.692 692.943 936.506 691.28C936.506 691.28 933.265 690.154 932.259 690.267C932.259 690.267 929.514 694.076 926.92 694.076C926.92 694.076 931.619 690.614 931.332 690.055C931.332 690.055 926.718 689.701 924.282 690.763C926.474 689.692 928.911 689.204 931.353 689.347C930.388 688.208 929.103 687.373 927.66 686.947C927.66 686.947 930.232 685.977 932.467 689.446C932.467 689.446 936.06 689.864 936.484 690.267C936.484 690.267 934.767 686.544 932.575 684.915C932.575 684.915 935.895 685.581 937.411 690.614L940.896 691.974C940.896 691.974 938.891 686.926 937.045 685.34C937.045 685.34 940.321 686.53 941.744 692.42L944.942 694.225C944.942 694.225 943.548 689.751 941.881 687.542C941.881 687.542 944.683 689.298 945.84 694.784L947.831 696.2C947.831 696.2 946.753 692.951 946.393 692.044C946.034 691.138 946.214 690.961 946.214 690.961C947.58 692.642 948.444 694.664 948.707 696.802C948.707 696.802 952.616 700.065 952.839 699.853Z" opacity=".1"/><path fill="#CE3EE6" d="M515.119 1016.14C524.243 1016.14 531.639 1015.32 531.639 1014.32C531.639 1013.31 524.243 1012.5 515.119 1012.5C505.995 1012.5 498.598 1013.31 498.598 1014.32C498.598 1015.32 505.995 1016.14 515.119 1016.14Z" opacity=".1"/><path fill="#CE3EE6" d="M406.82 985.217C415.944 985.217 423.341 984.402 423.341 983.398C423.341 982.393 415.944 981.578 406.82 981.578C397.696 981.578 390.3 982.393 390.3 983.398C390.3 984.402 397.696 985.217 406.82 985.217Z" opacity=".1"/><path fill="#CE3EE6" d="M597.67 1036.68C606.794 1036.68 614.19 1035.86 614.19 1034.86C614.19 1033.85 606.794 1033.04 597.67 1033.04C588.546 1033.04 581.15 1033.85 581.15 1034.86C581.15 1035.86 588.546 1036.68 597.67 1036.68Z" opacity=".1"/><path fill="#CE3EE6" d="M1020.7 991.943C1029.83 991.943 1037.22 991.129 1037.22 990.124C1037.22 989.119 1029.83 988.305 1020.7 988.305C1011.58 988.305 1004.18 989.119 1004.18 990.124C1004.18 991.129 1011.58 991.943 1020.7 991.943Z" opacity=".1"/><path fill="#CE3EE6" d="M883.23 983.115C892.353 983.115 899.75 982.301 899.75 981.296C899.75 980.291 892.353 979.477 883.23 979.477C874.106 979.477 866.709 980.291 866.709 981.296C866.709 982.301 874.106 983.115 883.23 983.115Z" opacity=".1"/><path fill="#CE3EE6" d="M794.297 1026.17C805.088 1026.17 813.836 1024.69 813.836 1022.86C813.836 1021.04 805.088 1019.56 794.297 1019.56C783.506 1019.56 774.759 1021.04 774.759 1022.86C774.759 1024.69 783.506 1026.17 794.297 1026.17Z" opacity=".1"/><path fill="#CE3EE6" d="M803.013 989.633C803.013 989.633 775.808 1003.48 789.863 1019.79C789.863 1019.79 791.186 1023.33 795.008 1023.08C795.008 1023.08 794.247 1021.71 797.164 1020.61C798.202 1020.22 799.189 1019.7 800.103 1019.08C801.339 1018.23 802.262 1017.02 802.733 1015.61C802.733 1015.61 808.295 1008.28 803.984 994.709C803.984 994.709 804.544 990.872 804.055 990.249L800.75 994.716C800.75 994.716 804.163 996.974 804.558 1000.29C804.558 1000.29 800.966 994.723 800.247 995.339C800.089 995.466 798.609 997.781 798.609 997.781C798.609 997.781 804.53 1001.74 804.968 1006.88C804.968 1006.88 801.634 999.679 798.034 998.652L795.971 1002.28C795.971 1002.28 802.439 1006.16 803.157 1011.99C803.157 1011.99 799.399 1004.59 795.562 1003.1L794.046 1006.93C794.046 1006.93 800.283 1010.84 800.858 1015.69C800.858 1015.69 795.641 1007.57 793.765 1007.83C793.765 1007.83 792.587 1011.42 792.745 1012.53C792.745 1012.53 797.15 1015.44 797.229 1018.29C797.229 1018.29 793.162 1013.23 792.536 1013.56C792.536 1013.56 792.278 1018.65 793.528 1021.3C793.528 1021.3 791.372 1017.52 791.724 1013.56C790.464 1014.66 789.558 1016.1 789.116 1017.7C789.116 1017.7 787.945 1014.9 791.804 1012.32C791.804 1012.32 792.17 1008.36 792.616 1007.88C792.616 1007.88 788.441 1009.89 786.666 1012.35C786.666 1012.35 787.32 1008.68 792.982 1006.85L794.419 1002.97C794.419 1002.97 788.757 1005.33 787.011 1007.42C787.011 1007.42 788.268 1003.77 794.865 1002.02L796.819 998.482C796.819 998.482 791.789 1000.15 789.332 1002.02C789.332 1002.02 791.236 998.886 797.423 997.441L799.011 995.211C799.011 995.211 795.361 996.493 794.34 996.953C793.32 997.413 793.119 997.187 793.119 997.187C794.984 995.632 797.25 994.618 799.665 994.256C799.665 994.256 803.265 989.874 803.013 989.633Z"/><path fill="url(#paint0_linear)" d="M883.761 728.098C879.062 715.518 853.193 714.336 841.968 717.543C833.992 719.829 817.177 722.406 808.195 723.702L807.613 723.156C808.777 722.817 808.805 721.981 808.662 720.742C808.578 719.11 808.602 717.473 808.734 715.843C814.238 717.528 819.139 713.543 819.139 713.543C825.606 710.711 823.867 698.591 825.103 695.278C826.03 692.8 827.029 678.202 827.474 670.925H827.568L827.618 668.482C827.683 667.427 827.711 666.811 827.711 666.811C827.711 666.811 828.344 649.014 829.58 645.41C830.73 642.097 831.664 625.404 831.807 622.756C831.807 622.53 831.807 622.409 831.807 622.409L831.714 620.866C831.779 619.74 831.807 618.487 831.8 617.171C831.8 611.118 831.161 603.493 831.082 602.261C831.082 602.084 831.082 601.872 831.082 601.617C831.132 599.033 830.801 586.092 819.627 581.2C815.51 579.388 810.559 577.228 805.766 575.126C804.53 564.613 801.706 554.157 801.95 543.566C801.95 541.973 802.094 540.38 802.252 538.794C802.252 539.254 802.202 539.722 802.194 540.21C802.194 541.237 802.194 542.27 802.194 543.297C802.618 530.051 807.699 516.735 807.225 503.772C807.181 505.04 807.088 506.314 806.966 507.588C807.214 503.204 806.748 498.809 805.586 494.569C805.155 493.075 804.573 491.532 803.33 490.534C802.155 489.73 800.807 489.204 799.392 488.998C795.992 488.14 792.537 487.506 789.051 487.1C788.522 485.503 787.736 484 786.723 482.647C779.437 472.793 768.644 463.533 755.882 461.409C749.479 460.347 742.113 461.232 737.759 465.742C737.304 466.138 736.877 466.564 736.48 467.016C734.137 469.77 733.131 473.388 730.731 476.134C730.573 476.318 730.393 476.488 730.221 476.665C725.521 480.807 718.199 481.67 712.975 485.387C712.054 486.054 711.191 486.796 710.395 487.603C708.29 489.658 706.402 491.919 704.761 494.35C702.411 497.606 699.997 500.997 699.25 504.884C697.748 512.671 703.13 520.055 704.129 527.892C706.356 545.428 686.66 560.988 690.389 578.29C691.385 582.541 693.582 586.427 696.727 589.497C689.046 596.35 682.506 602.998 682.506 602.998V603.394H681.292L681.414 604.81H681.292L681.96 612.491L681.292 623.677C681.292 623.677 681.292 623.797 681.292 624.023V624.08V624.384C681.292 624.384 681.292 624.505 681.292 624.731H681.335C681.558 628.83 682.442 643.57 683.491 646.678C684.727 650.281 685.352 668.079 685.352 668.079C685.352 668.079 686.717 693.232 687.968 696.559C689.218 699.886 687.443 711.971 693.932 714.824C695.83 716.259 698.078 717.177 700.45 717.486C700.119 720.134 700.327 722.052 701.398 722.654C701.856 722.919 702.376 723.065 702.907 723.079C702.467 723.722 702.075 724.396 701.736 725.096C699.16 724.831 696.63 724.244 694.205 723.348C687.235 720.516 664.104 714.144 657.385 718.626C650.666 723.107 634.498 727.171 641.964 745.209C649.43 763.247 652.908 763.7 652.908 763.7C655.206 765.344 657.222 767.34 658.879 769.612C661.121 772.932 682.011 780.528 687.235 780.528C689.455 780.494 691.676 780.603 693.882 780.854C693.882 780.854 688.212 785.753 688.967 788.599C689.721 791.445 687.242 814.226 687.242 814.226C687.242 814.226 692.991 819.932 695.448 812.449L695.534 812.562C695.994 813.178 698.481 815.961 703.159 812.449C705.073 811.018 707.107 809.749 709.238 808.655L731.888 805.497C734.249 805.352 736.617 805.335 738.98 805.448C742.573 805.738 746.102 803.642 748.322 802.021C753.014 803.777 758.289 805.695 760.797 806.396C765.884 807.812 789.267 813.993 794.736 812.06C795.872 811.615 796.883 810.905 797.682 809.993L802.899 810.155L800.455 810.637C800.455 810.637 805.213 810.715 811.68 810.8L811.407 810.955L819.52 810.885C831.391 810.991 844.728 811.026 846.481 810.637C849.226 810.035 863.49 810.46 867.694 810.637H868.865C868.865 810.637 884.537 807.557 878.07 791.891C873.097 779.856 857.813 776.358 851.03 775.396C852.941 775.02 854.587 774.73 855.679 774.56C860.414 773.852 869.612 769.605 870.36 768.153C871.107 766.702 878.817 762.49 880.808 760.09C882.798 757.69 888.482 740.678 883.761 728.098ZM753.948 763.304L753.18 763.552L752.662 763.722L751.671 764.684C750.88 764.16 750.032 763.608 749.148 763.042C750.708 763.134 752.31 763.226 753.948 763.304Z"/><path fill="#BE6F72" d="M799.766 688.658C799.766 688.658 810.76 716.976 817.012 714.144C823.263 711.312 821.568 699.277 822.76 695.978C823.953 692.679 825.275 667.661 825.275 667.661C825.275 667.661 825.879 649.962 827.072 646.38C828.179 643.088 829.077 626.487 829.228 623.874C829.228 623.648 829.228 623.527 829.228 623.527L828.042 602.997L821.33 601.348L805.766 607.011L803.61 619.138L802.769 623.874L802.41 625.892L799.766 688.658Z"/><path fill="#000" d="M803.387 683.918C803.387 683.918 813.879 692.378 817.04 693.121C820.202 693.865 822.142 700.463 822.142 700.463" opacity=".1"/><path fill="#BE6F72" d="M713.787 689.9C713.787 689.9 702.792 718.218 696.54 715.386C690.289 712.554 691.985 700.519 690.792 697.22C689.599 693.921 688.277 668.903 688.277 668.903C688.277 668.903 687.673 651.204 686.48 647.622C685.374 644.33 684.475 627.729 684.324 625.117C684.324 624.89 684.324 624.77 684.324 624.77L685.517 604.239L692.229 602.59L707.794 608.253L709.949 620.38L710.79 625.117L711.149 627.134L713.787 689.9Z"/><path fill="#3E373A" d="M785.38 538.355H760.84V576.039H785.38V538.355Z"/><path fill="#000" d="M785.38 538.355H760.84V576.039H785.38V538.355Z" opacity=".1"/><path fill="#4B4B5B" d="M709.475 718.104C709.475 718.104 701.089 727.187 704.201 728.837C707.312 730.486 727.44 761.402 727.44 761.402C727.44 761.402 793.55 769.423 806.017 757.388C818.485 745.353 818.233 723.853 818.233 723.853C818.233 723.853 808.216 725.977 807.124 724.823C806.032 723.669 800.031 718.104 800.031 718.104C800.031 718.104 715.224 713.036 709.475 718.104Z"/><path fill="#000" d="M709.475 718.104C709.475 718.104 701.089 727.187 704.201 728.837C707.312 730.486 727.44 761.402 727.44 761.402C727.44 761.402 793.55 769.423 806.017 757.388C818.485 745.353 818.233 723.853 818.233 723.853C818.233 723.853 808.216 725.977 807.124 724.823C806.032 723.669 800.031 718.104 800.031 718.104C800.031 718.104 715.224 713.036 709.475 718.104Z" opacity=".02"/><path fill="#BE6F72" d="M828.488 603.298L806.93 620.289L800.412 620.756L798.019 620.926L757.829 623.829L716.151 620.827L709.949 620.381L702.045 619.815L685.517 604.24C685.517 604.24 697.216 591.893 707.463 583.561C711.501 580.269 715.317 577.607 718.098 576.559L718.572 576.397C720.322 575.725 721.883 574.652 723.128 573.267C731.22 565.048 738.7 544.766 738.7 544.766C738.7 544.766 774.392 526.6 770.081 550.429C765.769 574.259 786.127 568.369 786.127 568.369L792.838 571.384L795.49 572.581L802.252 575.632L817.508 582.527C829.479 587.957 828.488 603.298 828.488 603.298Z"/><path fill="#000" d="M756.154 564.169C773.882 564.169 788.254 550.011 788.254 532.546C788.254 515.08 773.882 500.922 756.154 500.922C738.427 500.922 724.055 515.08 724.055 532.546C724.055 550.011 738.427 564.169 756.154 564.169Z" opacity=".1"/><path fill="#000" d="M828.538 625.823H684.324C684.324 625.596 684.324 625.476 684.324 625.476L685.517 604.945C685.517 604.945 697.216 592.599 707.463 584.266L798.005 580.727L802.216 576.352L817.471 583.247C829.45 588.67 828.487 604.011 828.487 604.011C828.487 604.011 830.126 621.787 828.538 625.823Z" opacity=".1"/><path fill="#E7C7CA" d="M828.538 625.116H684.324C684.324 624.889 684.324 624.769 684.324 624.769L685.517 604.238C685.517 604.238 697.216 591.892 707.463 583.559L798.005 580.02L802.216 575.645L817.471 582.54C829.45 587.963 828.487 603.304 828.487 603.304C828.487 603.304 830.126 621.08 828.538 625.116Z"/><path fill="#000" d="M733.038 567.545C733.038 567.545 755.788 596.103 786.091 566.957C816.394 537.811 789.447 631.968 789.447 631.968L724.055 639.613L733.038 567.545Z" opacity=".1"/><path fill="#E7C7CA" d="M733.038 568.963C733.038 568.963 755.788 597.521 786.091 568.375C816.394 539.229 789.447 633.386 789.447 633.386L724.055 641.031L733.038 568.963Z"/><path fill="#000" d="M795.454 573.973L797.861 610.142L800.441 622.177L802.41 631.38C802.41 631.38 807.44 702.174 806.003 705.714C804.566 709.253 806.722 712.085 807.023 713.968C807.325 715.851 806.722 720.58 806.959 722.704C807.196 724.828 806.959 725.77 801.454 725.012C795.95 724.255 788.275 722.938 788.275 722.938C788.275 722.938 768.874 724.354 762.169 721.996C755.465 719.639 742.767 719.632 742.767 719.632C742.767 719.632 723.603 720.106 717.38 719.398C711.157 718.69 707.794 726.952 703.727 724.587C699.659 722.223 708.512 699.342 711.387 692.73C714.261 686.118 707.557 669.368 707.557 669.368L716.18 622.24L718.098 611.557V577.973L718.573 577.81C720.322 577.138 721.883 576.065 723.128 574.681L725.284 608.478L792.831 610.842V572.805" opacity=".1"/><path fill="#E7C7CA" d="M795.454 572.559L797.861 608.727L800.441 620.762L802.41 629.966C802.41 629.966 807.44 700.76 806.003 704.3C804.566 707.839 806.722 710.671 807.023 712.554C807.325 714.437 806.722 719.166 806.959 721.29C807.196 723.414 806.959 724.356 801.454 723.598C795.95 722.841 788.275 721.524 788.275 721.524C788.275 721.524 768.874 722.94 762.169 720.582C755.465 718.225 742.767 718.218 742.767 718.218C742.767 718.218 723.603 718.692 717.38 717.984C711.157 717.276 707.794 725.538 703.727 723.173C699.659 720.809 708.512 697.928 711.387 691.316C714.261 684.704 707.557 667.954 707.557 667.954L716.18 620.826L718.098 610.143V576.559L718.573 576.396C720.322 575.724 721.883 574.651 723.128 573.267L725.284 607.064L792.831 609.428V571.391"/><path fill="#000" d="M803.222 497.077C802.812 495.598 802.245 494.062 801.066 493.07C799.941 492.274 798.641 491.75 797.272 491.541C793.995 490.692 790.662 490.063 787.298 489.658C786.818 488.086 786.09 486.598 785.142 485.248C778.1 475.45 767.681 466.211 755.422 464.123C749.005 463.025 741.567 464.009 737.457 468.993C735.201 471.733 734.23 475.365 731.953 478.055C727.562 483.28 719.636 483.924 714.103 487.966C711.149 490.09 709.008 493.17 706.917 496.157C704.653 499.392 702.325 502.762 701.607 506.627C700.169 514.351 705.35 521.714 706.306 529.508C708.462 546.945 689.491 562.413 693.077 579.616C695.168 589.648 704.574 596.713 714.304 600.295C717.732 601.562 721.648 602.823 723.25 606.065C723.969 607.481 724.091 609.116 724.767 610.546C727.037 615.318 734.504 615.502 738.513 612.026C742.523 608.55 743.788 602.929 744.262 597.683C746.188 574.774 736.875 552.141 737.96 529.175C738.283 522.231 740.267 514.351 746.583 511.208C755.084 506.96 765.309 514.04 774.665 512.687C779.093 523.3 780.033 535.014 777.353 546.18C775.865 552.29 773.293 558.215 773.106 564.516C772.826 574.109 778.079 582.873 782.62 591.354C783.595 592.94 784.246 594.698 784.539 596.529C784.61 598.387 784.259 600.238 783.511 601.945C780.946 608.748 776.519 615.063 776.016 622.305C775.869 623.151 776.062 624.019 776.555 624.726C777.062 625.198 777.715 625.488 778.409 625.548C786.17 626.857 792.882 620.082 796.669 613.279C800.891 605.765 803.351 597.414 803.869 588.841C804.652 574.427 799.406 560.247 799.73 545.819C800.103 529.416 807.627 512.9 803.222 497.077Z" opacity=".1"/><path fill="#3E373A" d="M803.941 496.37C803.531 494.891 802.963 493.355 801.785 492.363C800.659 491.567 799.36 491.043 797.991 490.834C794.713 489.985 791.381 489.356 788.017 488.951C787.536 487.379 786.809 485.891 785.861 484.541C778.819 474.743 768.399 465.504 756.14 463.416C749.723 462.318 742.286 463.302 738.175 468.286C735.919 471.026 734.949 474.658 732.671 477.348C728.281 482.573 720.354 483.217 714.821 487.259C711.868 489.383 709.727 492.462 707.635 495.45C705.372 498.685 703.044 502.055 702.325 505.92C700.888 513.644 706.069 521.007 707.025 528.801C709.18 546.238 690.21 561.706 693.795 578.909C695.887 588.941 705.293 596.006 715.023 599.588C718.45 600.855 722.366 602.116 723.969 605.358C724.688 606.774 724.81 608.409 725.485 609.839C727.756 614.611 735.222 614.795 739.232 611.319C743.241 607.843 744.506 602.222 744.98 596.976C746.906 574.067 737.593 551.434 738.678 528.468C739.002 521.524 740.985 513.644 747.302 510.501C755.802 506.253 766.028 513.333 775.384 511.98C779.811 522.593 780.751 534.307 778.071 545.473C776.584 551.583 774.011 557.508 773.825 563.809C773.544 573.401 778.797 582.166 783.339 590.647C784.313 592.233 784.965 593.991 785.257 595.822C785.329 597.68 784.978 599.531 784.23 601.238C781.664 608.041 777.238 614.356 776.735 621.598C776.587 622.444 776.781 623.312 777.274 624.019C777.78 624.491 778.433 624.781 779.128 624.841C786.888 626.15 793.6 619.375 797.387 612.572C801.609 605.058 804.069 596.707 804.587 588.134C805.371 573.72 800.125 559.54 800.448 545.112C800.822 528.709 808.345 512.193 803.941 496.37Z"/><path fill="#C3C7D9" d="M788.067 809.823L816.573 810.722L812.485 789.895L790.647 791.94L788.067 809.823Z"/><path fill="#4B4B5B" d="M876.396 760.46C874.477 762.818 867.054 767.066 866.335 768.481C865.617 769.897 856.757 774.145 852.201 774.853C847.645 775.561 833.28 778.633 830.643 780.283C828.753 781.472 813.584 785.238 803.617 787.327C800.918 787.956 798.185 788.441 795.432 788.778C791.121 789.012 743.938 773.203 743.938 773.203L753.036 764L753.539 763.83C756.111 762.974 767.997 759.016 774.593 757.133C782.024 755.009 790.647 746.28 790.647 746.28C790.647 746.28 803.337 742.033 805.018 741.558C806.7 741.084 800.707 725.042 800.707 725.042C800.707 725.042 828.25 721.276 839.029 718.083C849.808 714.89 874.721 716.073 879.27 728.582C883.819 741.091 878.343 758.103 876.396 760.46Z"/><path fill="#E7C7CA" d="M750.88 800.34C750.88 800.34 745.376 806.003 739.864 805.536C734.352 805.069 715.08 806.952 715.08 806.952C711.587 808.324 708.317 810.192 705.372 812.495C700.866 815.992 698.473 813.203 698.028 812.608L697.949 812.495C695.549 819.936 690.044 814.265 690.044 814.265C690.044 814.265 692.437 791.611 691.704 788.779C690.971 785.947 696.44 781.084 696.44 781.084L702.907 779.463L719.291 775.328L742.767 783.349L750.88 800.34Z"/><path fill="#000" d="M702.878 779.461L698.028 812.607L697.949 812.493C695.549 819.934 690.044 814.263 690.044 814.263C690.044 814.263 692.437 791.609 691.704 788.777C690.971 785.946 696.44 781.082 696.44 781.082L702.878 779.461Z" opacity=".1"/><path fill="#000" d="M736.781 685.176C736.781 685.176 749.472 689.423 760.495 685.176H736.781Z" opacity=".1"/><path fill="#000" d="M780.105 693.203C780.105 693.203 785.372 695.794 789.447 693.203H780.105Z" opacity=".1"/><path fill="#000" d="M780.105 699.35C780.105 699.35 788.965 700.518 790.647 698.16L780.105 699.35Z" opacity=".1"/><path fill="#000" d="M777.231 712.553C777.231 712.553 793.873 710.429 798.005 707.598L777.231 712.553Z" opacity=".1"/><path fill="#000" d="M726.448 707.598C726.448 707.598 735.79 712.787 742.739 712.553L726.448 707.598Z" opacity=".1"/><path fill="#000" d="M803.61 787.325C800.911 787.954 798.178 788.438 795.425 788.776C791.114 789.01 743.931 773.201 743.931 773.201L753.029 763.998L753.532 763.828C754.969 764.826 756.147 765.683 756.988 766.334C760.948 769.407 764.77 765.393 766.208 765.393C767.645 765.393 780.098 775.537 780.098 775.537C780.098 775.537 791.595 778.136 793.514 780.493C795.433 782.851 802.137 782.383 803.33 784.033C803.689 784.543 803.732 785.796 803.61 787.325Z" opacity=".1"/><path fill="#4B4B5B" d="M715.08 726.003C715.08 726.003 703.453 726.661 696.749 723.879C690.044 721.097 667.768 714.676 661.301 719.186C654.834 723.695 639.262 727.681 646.448 745.62C653.634 763.559 656.989 764.027 656.989 764.027C659.213 765.669 661.154 767.653 662.738 769.903C664.894 773.209 685.014 780.755 690.044 780.755C695.075 780.755 703.935 780.755 716.388 789.251C728.841 797.746 740.101 798.695 740.101 798.695C740.101 798.695 755.91 805.066 760.832 806.482C765.755 807.898 788.247 814.029 793.521 812.145C798.795 810.262 802.144 798.454 802.144 798.454C802.144 798.454 804.537 787.835 803.337 786.185C802.137 784.536 795.432 785.003 793.521 782.645C791.61 780.288 780.105 777.69 780.105 777.69C780.105 777.69 767.681 767.538 766.243 767.538C764.806 767.538 760.983 771.545 757.024 768.48C749.137 762.724 740.85 757.52 732.225 752.905C723.128 748.183 715.08 726.003 715.08 726.003Z"/><path fill="#000" d="M691.705 732.852C693.775 732.435 695.915 732.495 697.957 733.027C700 733.558 701.891 734.548 703.482 735.917C709.231 740.639 728.575 750.118 728.575 750.118" opacity=".1"/><path fill="#000" d="M835.436 732.551C835.436 732.551 809.804 736.374 805.019 741.563L835.436 732.551Z" opacity=".1"/><path fill="#E7C7CA" d="M864.898 810.725H863.77C859.717 810.584 845.985 810.159 843.341 810.725C840.229 811.433 799.025 810.725 799.025 810.725L807.081 809.076C807.081 809.076 804.091 798.754 805.989 797.897C805.989 797.897 795.21 790.903 803.337 786.181C811.464 781.459 820.224 783.448 820.224 783.448L840.624 776.638L844.541 775.328C844.541 775.328 867.536 776.51 873.758 792.085C879.981 807.66 864.898 810.725 864.898 810.725Z"/><path fill="#000" d="M864.898 810.721H863.77C870.46 805.284 885.594 788.732 840.625 776.669L844.541 775.359C844.541 775.359 867.536 776.542 873.759 792.116C879.982 807.691 864.898 810.721 864.898 810.721Z" opacity=".1"/><path fill="#4B4B5B" d="M822.624 792.372C823.318 792.372 823.881 791.818 823.881 791.133C823.881 790.449 823.318 789.895 822.624 789.895C821.929 789.895 821.366 790.449 821.366 791.133C821.366 791.818 821.929 792.372 822.624 792.372Z"/><path fill="#4B4B5B" d="M815.316 794.419C816.01 794.419 816.573 793.865 816.573 793.18C816.573 792.496 816.01 791.941 815.316 791.941C814.621 791.941 814.058 792.496 814.058 793.18C814.058 793.865 814.621 794.419 815.316 794.419Z"/><g opacity=".1"><path fill="#000" d="M779.71 531.378C779.989 523.591 778.582 515.835 775.585 508.625C766.243 509.998 756.011 502.898 747.503 507.145C741.208 510.288 739.232 518.168 738.88 525.113C738.793 526.946 738.779 528.78 738.815 530.613C738.815 529.962 738.815 529.304 738.88 528.652C739.21 521.708 741.186 513.828 747.503 510.685C756.011 506.437 766.229 513.517 775.585 512.164C778.124 518.272 779.521 524.781 779.71 531.378Z" opacity=".1"/><path fill="#000" d="M707.319 530.083C707.442 528.54 707.411 526.99 707.226 525.453C706.464 519.223 703.008 513.269 702.383 507.195C701.578 514.523 706.313 521.559 707.226 528.993C707.319 529.375 707.319 529.715 707.319 530.083Z" opacity=".1"/><path fill="#000" d="M745.182 593.614C744.736 598.866 743.479 604.48 739.433 607.964C735.387 611.447 727.936 611.255 725.687 606.484C724.968 605.068 724.86 603.419 724.163 602.003C722.568 598.76 718.644 597.5 715.217 596.233C705.48 592.644 696.088 585.614 693.997 575.554C693.81 574.643 693.683 573.72 693.616 572.793C693.439 574.9 693.567 577.022 693.997 579.094C696.088 589.125 705.494 596.183 715.217 599.773C718.644 601.04 722.568 602.3 724.163 605.542C724.882 606.958 725.004 608.594 725.687 610.024C727.95 614.795 735.416 614.979 739.433 611.503C743.45 608.027 744.7 602.406 745.182 597.153C745.401 594.388 745.475 591.614 745.405 588.842C745.405 590.449 745.311 592.035 745.182 593.614Z" opacity=".1"/><path fill="#000" d="M800.686 541.756C800.686 542.782 800.686 543.802 800.686 544.821C801.088 531.654 805.989 518.415 805.507 505.523C805.134 517.445 800.959 529.636 800.686 541.756Z" opacity=".1"/><path fill="#000" d="M785.265 595.02C785.441 594.18 785.497 593.32 785.43 592.465C785.14 590.632 784.489 588.874 783.511 587.289C779.358 579.502 774.622 571.531 774.062 562.887C774.062 563.255 774.011 563.595 774.004 563.991C773.717 573.577 778.97 582.348 783.511 590.829C784.283 592.143 784.873 593.552 785.265 595.02Z" opacity=".1"/><path fill="#000" d="M804.817 584.779C804.281 593.356 801.804 601.706 797.567 609.217C793.773 616.021 787.068 622.796 779.3 621.486C778.604 621.427 777.95 621.135 777.446 620.658C777.3 620.496 777.186 620.308 777.109 620.105C777.022 620.658 776.951 621.217 776.907 621.783C776.759 622.626 776.952 623.493 777.446 624.197C777.95 624.674 778.604 624.967 779.3 625.026C787.068 626.335 793.773 619.56 797.567 612.757C801.804 605.246 804.281 596.896 804.817 588.319C804.904 586.662 804.911 585.013 804.86 583.363C804.846 583.838 804.846 584.305 804.817 584.779Z" opacity=".1"/></g><path stroke="#000" stroke-miterlimit="10" d="M805.989 797.896C805.989 797.896 824.176 805.414 836.169 788.777" opacity=".1"/><path stroke="#000" stroke-miterlimit="10" d="M809.567 811.034C809.567 811.034 824.42 801.519 843.341 810.722" opacity=".1"/><path stroke="#000" stroke-miterlimit="10" d="M710.143 808.875C710.143 808.875 716.381 795.013 733.037 805.583" opacity=".1"/><path fill="#000" d="M689.922 603.882L702.641 592.555C702.641 592.555 751.958 589.369 753.999 605.886C753.999 605.886 771.482 586.304 808.252 590.665L823.81 602.87L780.809 621.46L739.023 635.739L708.246 622.168L689.922 603.882Z" opacity=".1"/><path fill="#D5D6DB" d="M689.922 604.593L702.641 593.266C702.641 593.266 751.958 590.08 753.999 606.596C753.999 606.596 771.482 587.015 808.252 591.376L823.81 603.581L780.809 622.171L739.023 636.45L708.246 622.879L689.922 604.593Z"/><path fill="#000" d="M684.296 606.008L689.922 672.321L749.565 675.273L746.978 609.243L746.928 608.132L684.296 606.008Z" opacity=".1"/><path fill="#CE3EE6" d="M684.296 604.594L689.922 670.907L749.565 673.859L746.978 607.829L746.928 606.718L684.296 604.594Z"/><path fill="#000" d="M826.54 604.594L765.015 613.684V680.294L825.139 671.735L826.54 604.594Z" opacity=".1"/><path fill="#CE3EE6" d="M826.54 603.176L765.015 612.266V678.876L825.139 670.317L826.54 603.176Z"/><path fill="#fff" d="M812.032 619.43L778.797 623.069L779.523 634.226L812.01 630.728L812.032 619.43Z" opacity=".3"/><path fill="#BE6F72" d="M693.156 706.416L696.54 715.386C696.54 715.386 701.571 719.634 707.075 717.51C712.579 715.386 717.379 714.331 719.772 712.264C722.165 710.197 725.521 699.811 725.521 699.811C725.521 699.811 728.877 688.484 732.225 685.652C735.574 682.821 744.441 643.806 732.225 647.622C720.009 651.438 710.668 686.835 710.668 686.835C710.668 686.835 708.512 689.426 705.401 689.666C702.289 689.907 696.059 689.192 694.859 691.79C693.659 694.388 689.563 701.227 693.156 706.416Z"/><path fill="#000" d="M765.015 613.674C761.865 614.373 758.592 614.337 755.459 613.567C752.326 612.798 749.419 611.316 746.971 609.242L749.565 675.265C749.565 675.265 755.673 681.778 765.015 680.291V613.674Z" opacity=".1"/><path fill="#CE3EE6" d="M765.015 612.26C761.865 612.959 758.592 612.923 755.459 612.153C752.326 611.384 749.419 609.902 746.971 607.828L749.565 673.851C749.565 673.851 755.673 680.364 765.015 678.877V612.26Z"/><path fill="#000" d="M765.015 612.26C761.865 612.959 758.592 612.923 755.459 612.153C752.326 611.384 749.419 609.902 746.971 607.828L749.565 673.851C749.565 673.851 755.673 680.364 765.015 678.877V612.26Z" opacity=".1"/><path fill="#000" d="M766.452 604.818C766.452 604.818 791.48 597.279 798.005 598.341L766.452 604.818Z" opacity=".1"/><path fill="#000" d="M738.456 601.527C738.456 601.527 714.196 595.864 710.143 597.471L738.456 601.527Z" opacity=".1"/><path fill="#000" d="M782.232 605.759C782.232 605.759 798.968 599.713 805.018 602.588L782.232 605.759Z" opacity=".1"/><path fill="#000" d="M773.803 757.423C776.396 755.504 779.157 753.815 782.052 752.375C786.364 750.329 794.268 745.02 794.268 745.02" opacity=".1"/><path fill="#000" d="M710.143 685.176C710.143 685.176 699.645 693.636 696.49 694.379C693.336 695.122 691.388 701.72 691.388 701.72" opacity=".1"/><path fill="#BE6F72" d="M820.368 705.157L817.019 714.148C817.019 714.148 811.989 718.395 806.477 716.272C800.966 714.148 796.18 713.093 793.78 711.026C791.38 708.959 788.031 698.573 788.031 698.573C788.031 698.573 784.682 687.246 781.327 684.414C777.971 681.582 769.111 642.568 781.327 646.384C793.543 650.199 802.884 685.596 802.884 685.596C802.884 685.596 805.04 688.188 808.152 688.428C811.263 688.669 817.493 687.954 818.693 690.552C819.893 693.15 823.961 699.989 820.368 705.157Z"/><path fill="#000" d="M814.497 688.617C814.497 688.617 821.359 692.964 821.33 698.16L814.497 688.617Z" opacity=".1"/><path fill="#BE6F72" d="M756.269 562.619C773.997 562.619 788.369 548.46 788.369 530.995C788.369 513.53 773.997 499.371 756.269 499.371C738.542 499.371 724.17 513.53 724.17 530.995C724.17 548.46 738.542 562.619 756.269 562.619Z"/><path fill="#3E373A" d="M736.113 522.504C740.008 521.903 743.421 519.673 747.144 518.391C755.472 515.51 764.684 517.485 773.113 520.083C776.347 521.082 779.631 522.207 783.023 522.207C786.414 522.207 790.014 520.841 791.746 517.959C793.342 515.312 793.033 511.871 791.689 509.089C790.345 506.307 788.096 504.07 785.825 501.96C778.352 495.008 769.082 488.509 758.828 489.217C754.703 489.507 750.758 490.959 746.964 492.566C742.186 494.594 737.536 496.901 733.038 499.475C729.581 501.45 723.179 504.091 721.188 507.701C716.661 515.836 729.071 523.595 736.113 522.504Z"/><path fill="#000" d="M791.746 514.99C790.014 517.871 786.414 519.237 783.023 519.237C779.631 519.237 776.347 518.154 773.106 517.156C764.677 514.558 755.472 512.576 747.136 515.464C743.421 516.745 740.001 519.004 736.106 519.57C730.429 520.448 721.289 515.577 720.297 509.383C719.183 516.54 729.782 522.671 736.106 521.694C740.001 521.092 743.421 518.862 747.136 517.588C755.472 514.699 764.677 516.682 773.106 519.28C776.347 520.278 779.624 521.404 783.023 521.361C786.421 521.319 790.014 520.002 791.746 517.114C792.644 515.542 792.997 513.725 792.752 511.938C792.64 513.014 792.297 514.054 791.746 514.99Z" opacity=".1"/><path fill="#CE3EE6" d="M1052.24 898.656C1052.24 898.656 1056.5 904.143 1050.27 912.433C1044.04 920.723 1038.91 927.717 1040.98 932.885C1040.98 932.885 1050.38 917.495 1058.03 917.275C1065.67 917.056 1060.64 907.909 1052.24 898.656Z"/><path fill="#000" d="M1052.24 898.656C1052.61 899.186 1052.91 899.765 1053.11 900.377C1060.57 909.013 1064.55 917.077 1057.37 917.275C1050.69 917.466 1042.68 929.239 1040.76 932.206C1040.82 932.445 1040.89 932.682 1040.98 932.914C1040.98 932.914 1050.38 917.523 1058.03 917.303C1065.67 917.084 1060.64 907.909 1052.24 898.656Z" opacity=".1"/><path fill="#FFD037" d="M1060.15 905.653C1060.15 907.586 1059.92 909.15 1059.66 909.15C1059.39 909.15 1059.16 907.586 1059.16 905.653C1059.16 903.72 1059.43 904.634 1059.71 904.634C1059.98 904.634 1060.15 903.72 1060.15 905.653Z"/><path fill="#FFD037" d="M1062.87 907.96C1061.15 908.88 1059.65 909.439 1059.52 909.206C1059.39 908.972 1060.68 908.03 1062.4 907.082C1064.11 906.133 1063.44 906.827 1063.57 907.082C1063.7 907.337 1064.59 907.032 1062.87 907.96Z"/><path fill="#CE3EE6" d="M1029.72 898.656C1029.72 898.656 1025.46 904.143 1031.69 912.433C1037.92 920.723 1043.05 927.717 1040.97 932.885C1040.97 932.885 1031.58 917.495 1023.93 917.275C1016.28 917.056 1021.34 907.909 1029.72 898.656Z"/><path fill="#000" d="M1029.72 898.656C1029.35 899.186 1029.06 899.765 1028.85 900.377C1021.39 909.013 1017.41 917.077 1024.59 917.275C1031.27 917.466 1039.29 929.239 1041.2 932.206C1041.14 932.446 1041.07 932.683 1040.97 932.914C1040.97 932.914 1031.58 917.523 1023.93 917.303C1016.28 917.084 1021.34 907.909 1029.72 898.656Z" opacity=".1"/><path fill="#FFD037" d="M1021.8 905.653C1021.8 907.586 1022.02 909.15 1022.29 909.15C1022.56 909.15 1022.79 907.586 1022.79 905.653C1022.79 903.72 1022.51 904.634 1022.24 904.634C1021.97 904.634 1021.8 903.72 1021.8 905.653Z"/><path fill="#FFD037" d="M1019.09 907.96C1020.8 908.88 1022.3 909.439 1022.43 909.206C1022.56 908.972 1021.28 908.03 1019.56 907.082C1017.84 906.133 1018.52 906.827 1018.39 907.082C1018.26 907.337 1017.36 907.032 1019.09 907.96Z"/><path fill="#CE3EE6" d="M1040.98 974.879C1065.59 974.879 1085.53 971.865 1085.53 968.147C1085.53 964.428 1065.59 961.414 1040.98 961.414C1016.38 961.414 996.429 964.428 996.429 968.147C996.429 971.865 1016.38 974.879 1040.98 974.879Z" opacity=".1"/><path fill="#65617D" d="M1063.91 925.489L1063.7 927.202L1063.39 929.623L1063.27 930.635L1062.97 933.056L1062.84 934.069L1062.55 936.483L1059.13 964.022C1058.83 966.478 1054.76 968.397 1049.83 968.397H1032.12C1027.2 968.397 1023.13 966.478 1022.82 964.022L1019.41 936.483L1019.11 934.069L1018.99 933.056L1018.68 930.635L1018.55 929.623L1018.26 927.202L1018.04 925.489C1017.88 924.073 1020.08 922.926 1022.87 922.926H1059.1C1061.88 922.926 1064.08 924.094 1063.91 925.489Z"/><path fill="#9D9CB5" d="M1063.7 927.199L1063.4 929.62H1018.56L1018.26 927.199H1063.7Z"/><path fill="#9D9CB5" d="M1063.27 930.637L1062.98 933.058H1018.98L1018.68 930.637H1063.27Z"/><path fill="#9D9CB5" d="M1062.85 934.066L1062.55 936.488H1019.41L1019.11 934.066H1062.85Z"/></g><defs><linearGradient id="paint0_linear" x1="762.809" x2="762.809" y1="816.329" y2="460.999" gradientUnits="userSpaceOnUse"><stop stop-color="gray" stop-opacity=".25"/><stop offset=".54" stop-color="gray" stop-opacity=".12"/><stop offset="1" stop-color="gray" stop-opacity=".1"/></linearGradient><clipPath id="clip0"><rect width="735" height="575.67" fill="#fff" transform="translate(370 461)"/></clipPath></defs></svg>