<svg width="340" height="97" viewBox="0 0 340 97" fill="none" xmlns="http://www.w3.org/2000/svg">
<path d="M0 5.38889C0 2.41269 2.23858 0 5 0H335C337.761 0 340 2.41269 340 5.38889V91.0439C340 94.0201 337.761 96.4328 335 96.4328H5C2.23858 96.4328 0 94.0201 0 91.0439V5.38889Z" fill="#4E54C8"/>
<path d="M49.1341 72.4634C29.7589 89.2307 4.22939 83.9077 4.00145 52.5912C3.7735 25.7104 30.5567 15.0646 46.5127 27.2186L41.7259 35.2917C35.4575 30.3236 18.1339 34.7594 16.7662 52.3251C15.5125 67.8502 30.1009 77.3428 40.8142 64.1242L49.1341 72.4634ZM74.0938 75.8346C43.6634 76.8105 47.9944 17.8148 77.3989 17.8148C107.031 17.8148 105.322 74.8588 74.0938 75.8346ZM77.057 63.4145C84.3512 63.5919 86.7446 49.4862 87.0865 43.0099C87.4284 36.5337 84.8071 27.4847 77.8548 27.6622C70.9026 27.8396 67.1415 41.6792 67.3695 47.0021C67.7114 53.8332 69.6489 63.237 77.057 63.4145ZM119.796 68.9148L103.726 68.3825L107.601 15.5082L117.289 15.242L134.613 43.3648L139.513 14L149.771 16.484L144.642 63.8581L134.385 64.9226L117.289 36.0901L119.796 68.9148ZM172.109 68.9148L156.039 68.3825L159.914 15.5082L169.602 15.242L186.925 43.3648L191.826 14L202.084 16.484L196.955 63.8581L186.697 64.9226L169.602 36.0901L172.109 68.9148ZM241.062 76.0121L209.948 75.5685L208.352 22.2505L238.782 19.1455L238.44 29.1703H221.003V46.115L235.591 45.1391L236.389 55.2527L221.573 55.0752L220.775 67.939L242.201 67.318L241.062 76.0121ZM256.454 43.3648C256.682 74.6813 237.079 60.132 256.454 43.3648C240.498 31.2108 256.226 16.484 256.454 43.3648C275.154 41.0302 250.185 38.3967 256.454 43.3648C245.741 56.5834 274.531 45.8355 256.454 43.3648ZM336 17.6373L334.974 28.1057L323.235 28.4606L324.033 72.6409L306.823 74.8588L310.014 28.8155L297.591 29.1703L297.933 19.4116L336 17.6373Z" fill="white"/>
<rect x="248" y="22" width="40" height="59" fill="#4E54C8"/>
<path d="M261.436 24.055C268.568 20.1181 277.387 20.2691 284.397 24.478C285.856 25.3539 287.227 26.4084 288.48 27.6174C289.786 28.7342 290.815 30.1909 291.778 31.6673C292.452 32.7149 293.05 33.8236 293.53 34.998C294.137 36.5769 294.666 38.21 294.888 39.9181C295.27 42.1228 295.234 44.4036 294.894 46.6129C294.336 50.4335 292.654 53.9843 290.358 56.8541C288.94 58.6347 287.259 60.1375 285.447 61.3869C280.779 64.668 274.779 65.5324 269.551 63.5294C268.03 62.9508 266.604 62.0876 265.298 61.0457C264.853 60.6838 264.442 60.2701 264.087 59.7987C264.727 60.1053 265.282 60.5789 265.871 60.9869C270.737 64.3361 277.506 63.8624 281.882 59.7134C283.191 58.4537 284.265 56.9002 285.075 55.1979C285.506 54.2967 285.834 53.3424 286.177 52.3973C286.773 50.1672 287.07 47.8369 287.071 45.51C287.005 43.4816 286.719 41.4589 286.211 39.5101C285.137 35.6158 283.118 32.0188 280.308 29.4015C277.488 26.7161 273.972 25.0381 270.34 24.3282C268.604 23.9824 266.84 23.8268 265.077 23.8084C263.86 23.8118 262.653 24.0527 261.436 24.055Z" fill="white"/>
<path d="M258.871 26.9231C264.092 24.224 270.356 24.4902 275.51 27.2573C278.471 28.8386 281.08 31.2784 282.911 34.3337C284.09 36.2987 284.963 38.4931 285.477 40.7889C285.937 42.755 286.07 44.7915 286.134 46.8153C285.9 45.0197 285.539 43.2333 284.894 41.5622C283.484 37.7751 280.715 34.676 277.375 33.0037C273.263 30.9038 268.263 31.0883 264.321 33.588C261.457 35.3882 259.19 38.2338 257.644 41.4538C256.263 44.2648 255.449 47.3927 255.059 50.5609C254.856 52.3208 254.85 54.1049 254.958 55.8728C255.273 59.8927 256.522 63.8907 258.823 67.0348C260.782 69.7374 263.483 71.737 266.441 72.7904C266.802 72.9218 267.165 73.0612 267.486 73.2917C266.491 73.2306 265.521 72.9091 264.564 72.614C260.694 71.3186 257.182 68.7843 254.448 65.4674C252.054 62.5884 250.298 59.0744 249.291 55.3127C248.366 52.277 248.304 49.0315 248.366 45.8564C248.487 45.4058 248.419 44.9275 248.513 44.4711C248.798 41.9644 249.27 39.4612 250.173 37.1343C250.509 36.2711 250.835 35.3963 251.275 34.5896C253.081 31.2945 255.709 28.5205 258.871 26.9231Z" fill="white"/>
<path d="M256.891 46.2568C257.937 43.001 259.597 39.9872 261.754 37.5059C260.319 40.341 259.324 43.4989 259.141 46.7674C258.983 49.6843 259.425 52.6578 260.547 55.3074C261.814 58.3615 263.901 60.9904 266.5 62.6995C268.008 63.7011 269.649 64.4744 271.366 64.8882C272.784 65.2339 274.236 65.3918 275.687 65.3906C279.167 65.2627 282.634 64.1897 285.609 62.1429C289.975 59.2052 293.408 54.4188 294.682 48.8638C295.056 47.3183 295.171 45.7186 295.299 44.1304C296.018 46.8112 296.112 49.6648 295.78 52.4273C295.33 56.3988 293.919 60.2044 291.819 63.436C289.701 66.7079 286.895 69.4232 283.686 71.2799C279.803 73.5388 275.301 74.4493 270.96 73.8074C270.005 73.6956 269.05 73.5123 268.136 73.1816C265.285 72.3575 262.684 70.5734 260.624 68.235C258.236 65.5059 256.684 61.9331 256.031 58.2002C255.337 54.2298 255.669 50.0578 256.891 46.2568Z" fill="white"/>
<rect width="12.6253" height="7.46435" transform="matrix(0.96434 -0.264666 0.207346 0.978268 282.345 40.6689)" fill="#4E54C8"/>
<rect width="12.8969" height="11.5709" transform="matrix(0.999753 -0.0222106 0.0171543 0.999853 283.067 43.6289)" fill="#4E54C8"/>
<rect width="14.6399" height="6.35264" transform="matrix(0.964336 0.26468 -0.207357 0.978265 281.588 49.9443)" fill="#4E54C8"/>
<rect x="52" y="14" width="48" height="69" fill="#4E54C8"/>
<path d="M62.9912 24.0976C70.6802 20.0997 80.1874 20.2521 87.7443 24.526C89.318 25.4145 90.7944 26.4869 92.1462 27.7144C93.5553 28.8499 94.6651 30.3271 95.7002 31.828C96.4284 32.8925 97.0719 34.0175 97.5881 35.2108C98.2416 36.8142 98.8127 38.4728 99.0521 40.2076C99.4636 42.447 99.4262 44.7627 99.0596 47.0075C98.4585 50.8871 96.6454 54.4934 94.1688 57.4084C92.64 59.2168 90.8294 60.7439 88.8741 62.0109C83.8411 65.3438 77.3742 66.2217 71.7377 64.1872C70.0991 63.5985 68.5603 62.7232 67.1537 61.6639C66.6749 61.2959 66.2309 60.8753 65.8493 60.397C66.5402 60.7071 67.1388 61.1881 67.7722 61.6034C73.0196 65.0047 80.3146 64.5237 85.0333 60.3102C86.4449 59.0301 87.6021 57.4531 88.475 55.7235C88.9389 54.8088 89.293 53.8389 89.6622 52.8795C90.3031 50.6137 90.6249 48.2481 90.6273 45.8851C90.555 43.8244 90.2483 41.7715 89.6996 39.7923C88.5424 35.8364 86.3651 32.1854 83.3349 29.5254C80.2947 26.7971 76.5038 25.0938 72.5882 24.3736C70.7177 24.0214 68.8147 23.8637 66.9143 23.8453C65.6024 23.8505 64.3031 24.095 62.9912 24.0976Z" fill="white"/>
<path d="M60.2249 27.0122C65.8514 24.2707 72.6052 24.5415 78.1619 27.3513C81.3542 28.9573 84.1649 31.436 86.1402 34.5376C87.4121 36.5326 88.3524 38.7616 88.9061 41.093C89.4024 43.0907 89.5445 45.1593 89.6144 47.2148C89.3625 45.3906 88.9734 43.5769 88.2776 41.8789C86.7587 38.0335 83.7734 34.8845 80.172 33.1865C75.7377 31.0548 70.3481 31.2415 66.1008 33.7806C63.0132 35.61 60.5691 38.4987 58.9031 41.7685C57.4142 44.6231 56.5363 47.8009 56.1148 51.0182C55.8953 52.8055 55.8903 54.6166 56.0051 56.4118C56.3442 60.4939 57.691 64.5549 60.1726 67.7485C62.285 70.4926 65.1955 72.5244 68.3853 73.5942C68.7744 73.7283 69.166 73.8702 69.5126 74.1042C68.4402 74.0411 67.3952 73.7151 66.3627 73.4155C62.1902 72.0986 58.4043 69.5253 55.4564 66.1582C52.8776 63.2354 50.9821 59.6659 49.8972 55.8441C48.8996 52.7609 48.8323 49.4647 48.8996 46.2396C49.0293 45.7822 48.957 45.296 49.0567 44.8334C49.3635 42.2864 49.8723 39.7446 50.8474 37.3816C51.2091 36.5037 51.5607 35.6153 52.0346 34.7978C53.9824 31.4518 56.8156 28.6366 60.2249 27.0122Z" fill="white"/>
<path d="M58.0921 46.6457C59.2194 43.3391 61.0076 40.2795 63.3345 37.7588C61.7882 40.637 60.7158 43.8464 60.5188 47.1635C60.3467 50.1258 60.823 53.1459 62.0326 55.8375C63.3993 58.9391 65.6489 61.6097 68.4497 63.3445C70.0758 64.3617 71.8441 65.1476 73.6946 65.5682C75.2235 65.9204 76.7897 66.0807 78.3534 66.0781C82.1044 65.9493 85.843 64.8585 89.0503 62.7793C93.7565 59.796 97.4576 54.9359 98.8318 49.2926C99.2358 47.7234 99.3605 46.099 99.4977 44.4851C100.273 47.2082 100.373 50.1048 100.016 52.912C99.5301 56.9467 98.0112 60.8106 95.7467 64.0936C93.4622 67.416 90.4394 70.1733 86.9802 72.0605C82.7953 74.3552 77.9419 75.2804 73.2607 74.6285C72.2306 74.5155 71.2006 74.3289 70.2155 73.9924C67.1404 73.1566 64.3371 71.3429 62.1174 68.9694C59.5436 66.199 57.8701 62.5691 57.1668 58.7788C56.4161 54.7441 56.7728 50.5069 58.0921 46.6457Z" fill="white"/>
</svg>
