<svg width="1541" height="1416" viewBox="0 0 1541 1416" fill="none" xmlns="http://www.w3.org/2000/svg">
<ellipse cx="770.157" cy="707.691" rx="666.51" ry="392.316" transform="rotate(-35.7297 770.157 707.691)" fill="white"/>
<g clip-path="url(#clip0)">
<path d="M679.315 573.949C679.329 592.648 674.817 611.072 666.164 627.649C657.511 644.225 644.974 658.46 629.625 669.139C625.301 672.165 620.774 674.888 616.074 677.289C614.515 678.089 612.944 678.849 611.345 679.569C609.904 680.229 608.455 680.849 606.984 681.439C588.752 688.822 568.945 691.464 549.415 689.119C546.035 688.719 542.698 688.169 539.404 687.469C539.265 687.439 539.114 687.409 538.975 687.379C532.078 685.921 525.331 683.821 518.824 681.109C499.425 673.056 482.576 659.888 470.075 643.009C457.574 626.13 449.89 606.174 447.842 585.27C445.795 564.366 449.461 543.298 458.45 524.314C467.439 505.33 481.413 489.143 498.881 477.48C516.349 465.816 536.656 459.114 557.635 458.088C578.614 457.062 599.478 461.751 618.001 471.654C636.524 481.557 652.011 496.304 662.809 514.32C673.608 532.335 679.312 552.945 679.315 573.949Z" fill="#F1F1F1"/>
<path d="M584.674 552.301C584.574 552.181 584.464 552.071 584.355 551.961C578.157 545.703 569.74 542.142 560.933 542.053C552.126 541.963 543.639 545.351 537.315 551.481C537.245 551.541 537.185 551.601 537.125 551.661C537.045 551.731 536.975 551.801 536.904 551.871C533.79 554.978 531.319 558.669 529.634 562.732C527.949 566.796 527.083 571.152 527.085 575.551V596.551C527.086 597.744 527.561 598.887 528.405 599.731C529.248 600.574 530.392 601.049 531.585 601.051H589.585C590.778 601.049 591.921 600.574 592.765 599.731C593.608 598.887 594.083 597.744 594.085 596.551V575.551C594.093 566.872 590.717 558.531 584.674 552.301Z" fill="#2F2E41"/>
<path d="M561.929 600.841C575.493 600.841 586.49 589.844 586.49 576.28C586.49 562.715 575.493 551.719 561.929 551.719C548.364 551.719 537.368 562.715 537.368 576.28C537.368 589.844 548.364 600.841 561.929 600.841Z" fill="#FFB7B7"/>
<path d="M587.745 574.188L584.845 553.928C584.755 553.306 584.438 552.739 583.955 552.338C583.792 552.207 583.614 552.096 583.424 552.008C568.574 545.058 553.515 545.058 538.665 551.988C538.466 552.08 538.281 552.197 538.114 552.338C538.055 552.388 537.995 552.448 537.935 552.508C537.538 552.918 537.291 553.45 537.235 554.018L535.295 574.308C535.262 574.655 535.302 575.005 535.412 575.335C535.522 575.666 535.7 575.97 535.935 576.228C536.312 576.644 536.82 576.919 537.375 577.008C537.509 577.037 537.647 577.05 537.785 577.048H542.705C543.18 577.046 543.646 576.91 544.047 576.656C544.449 576.401 544.771 576.038 544.975 575.608L547.105 571.048C547.241 570.752 547.47 570.509 547.757 570.356C548.044 570.203 548.373 570.147 548.695 570.198C549.016 570.249 549.312 570.404 549.538 570.638C549.763 570.873 549.906 571.175 549.944 571.498L550.364 574.858C550.442 575.462 550.737 576.016 551.193 576.419C551.649 576.822 552.236 577.045 552.845 577.048H585.275C585.699 577.05 586.117 576.94 586.485 576.728C586.741 576.589 586.971 576.406 587.165 576.188C587.399 575.916 587.572 575.596 587.672 575.251C587.772 574.906 587.797 574.543 587.745 574.188Z" fill="#2F2E41"/>
<path d="M622.665 645.838L629.625 669.138C625.301 672.164 620.774 674.887 616.074 677.288C614.515 678.088 612.945 678.848 611.345 679.568L604.134 648.658L601.335 636.668L619.335 634.668L622.665 645.838Z" fill="#FFB7B7"/>
<path d="M539.835 641.969L539.234 673.449L538.975 687.379C532.078 685.92 525.331 683.821 518.824 681.109L521.215 651.289L521.815 643.769L539.835 641.969Z" fill="#FFB7B7"/>
<path d="M622.665 645.84L604.585 648.55L604.805 651.52L606.984 681.44C588.752 688.823 568.945 691.465 549.415 689.12C546.035 688.72 542.698 688.17 539.404 687.47C540.884 681.25 542.165 675.65 540.585 674.55C540.108 674.217 539.657 673.849 539.234 673.45C531.864 666.42 534.585 650.55 534.585 650.55L521.215 651.29L516.585 651.55C516.585 651.55 518.585 619.55 527.585 619.55H538.585L591.585 614.55C591.585 614.55 606.585 609.55 610.585 616.55C612.685 620.22 616.424 628 619.515 634.58C622.315 640.56 624.585 645.55 624.585 645.55L622.665 645.84Z" fill="#2F2E41"/>
<path d="M1089.31 575.227C1089.12 593.544 1084.59 611.555 1076.09 627.783C1067.6 644.011 1055.37 657.992 1040.42 668.579C1040.16 668.759 1039.89 668.949 1039.62 669.139C1039.34 669.339 1039.05 669.539 1038.76 669.729C1037.08 670.889 1035.37 671.999 1033.62 673.059C1031.16 674.559 1028.65 675.969 1026.07 677.289C1025.99 677.329 1025.9 677.369 1025.82 677.409C1024.34 678.169 1022.85 678.889 1021.34 679.569C1021.29 679.589 1021.25 679.609 1021.2 679.629C1020.85 679.789 1020.48 679.959 1020.12 680.109C1017.33 681.349 1014.48 682.479 1011.58 683.479C1009.11 684.349 1006.61 685.129 1004.06 685.819C998.863 687.254 993.567 688.317 988.215 688.999C983.651 689.586 979.056 689.9 974.455 689.939C974.074 689.949 973.694 689.949 973.315 689.949C970.805 689.949 968.305 689.869 965.835 689.709C963.674 689.569 961.535 689.379 959.415 689.119C956.145 688.729 952.915 688.209 949.734 687.529C949.595 687.509 949.455 687.479 949.315 687.449C949.205 687.429 949.085 687.399 948.975 687.379C945.775 686.709 942.625 685.889 939.535 684.949C936.625 684.069 933.768 683.076 930.964 681.969C930.245 681.689 929.535 681.409 928.824 681.109C927.055 680.369 925.305 679.599 923.585 678.769C923.085 678.539 922.595 678.299 922.105 678.059C920.444 677.249 918.805 676.399 917.205 675.499C915.275 674.429 913.378 673.306 911.515 672.129C909.165 670.649 906.864 669.089 904.634 667.439C884.822 652.883 870.146 632.408 862.725 608.969C855.304 585.53 855.522 560.339 863.347 537.032C871.172 513.725 886.2 493.507 906.261 479.295C926.323 465.083 950.381 457.612 974.964 457.961C1038.57 458.844 1089.99 511.617 1089.31 575.227Z" fill="#F1F1F1"/>
<path d="M948.975 687.381C945.775 686.711 942.625 685.891 939.535 684.951L950.145 619.161L961.134 618.821L981.065 618.191L991.285 617.871C991.285 617.871 998.535 649.731 1004.06 685.821C998.863 687.256 993.567 688.318 988.214 689.001C983.651 689.588 979.056 689.902 974.455 689.941C974.074 689.951 973.694 689.951 973.315 689.951C970.805 689.951 968.305 689.871 965.835 689.711C963.674 689.571 961.535 689.381 959.415 689.121C956.145 688.731 952.915 688.211 949.734 687.531C949.595 687.511 949.455 687.481 949.315 687.451C949.205 687.431 949.085 687.401 948.975 687.381Z" fill="#CBCBCB"/>
<path d="M949.734 687.53C949.595 687.51 949.455 687.48 949.315 687.45C949.205 687.43 949.085 687.4 948.975 687.38C945.775 686.71 942.625 685.89 939.535 684.95C936.625 684.07 933.768 683.077 930.964 681.97C930.245 681.69 929.535 681.41 928.824 681.11C927.055 680.37 925.305 679.6 923.585 678.77C923.085 678.54 922.595 678.3 922.105 678.06L921.225 628.8L948.225 617.23C948.225 617.23 948.315 617.95 961.134 618.82C963.574 626.78 949.734 687.53 949.734 687.53Z" fill="#2F2E41"/>
<path d="M1030.43 626.47L1025.34 653.22L1025.82 677.41C1024.34 678.17 1022.85 678.89 1021.34 679.57C1021.29 679.59 1021.25 679.61 1021.2 679.63C1020.85 679.79 1020.48 679.96 1020.12 680.11C1017.33 681.35 1014.48 682.48 1011.58 683.48C1009.11 684.35 1006.61 685.13 1004.06 685.82C998.863 687.255 993.567 688.317 988.215 689C983.651 689.587 979.056 689.901 974.455 689.94L973.925 647.07C972.805 633.25 976.515 624.11 981.065 618.19C1005.31 614.95 1004.77 614.66 1004.77 614.66L1030.48 626.23L1030.43 626.47Z" fill="#2F2E41"/>
<path d="M932.794 632.661L930.964 681.971C930.245 681.691 929.535 681.411 928.824 681.111C927.055 680.371 925.305 679.601 923.585 678.771C923.085 678.541 922.595 678.301 922.105 678.061C920.444 677.251 918.805 676.401 917.205 675.501C915.274 674.431 913.378 673.307 911.515 672.131L921.225 628.801L932.794 632.661Z" fill="#2F2E41"/>
<path d="M1040.42 668.581C1040.16 668.761 1039.89 668.951 1039.62 669.141C1039.34 669.341 1039.05 669.541 1038.76 669.731C1037.08 670.891 1035.37 672.001 1033.62 673.061C1031.16 674.561 1028.65 675.971 1026.07 677.291C1025.99 677.331 1025.9 677.371 1025.82 677.411C1024.3 678.194 1022.76 678.934 1021.21 679.633L1021.2 679.631L1019.37 630.151L1030.43 626.471L1030.94 626.301L1040.42 668.581Z" fill="#2F2E41"/>
<path d="M1000.92 580.68C1005.36 565.521 996.705 549.639 981.585 545.206C966.465 540.773 950.606 549.468 946.161 564.627C941.717 579.786 950.371 595.668 965.491 600.101C980.611 604.533 996.471 595.838 1000.92 580.68Z" fill="#9F616A"/>
<path d="M944.807 579.824V568.693C944.807 568.693 935.83 558.121 945.704 555.457C945.704 555.457 948.397 528.826 971.737 541.254C971.737 541.254 1004.05 535.927 1000.46 554.57C1000.46 554.57 1008.54 549.703 1005.85 562.131L1000.64 582.151C1000.64 582.151 1003.16 568.926 995.076 567.151L990.588 564.487C990.588 564.487 978.02 576.916 959.169 561.824C959.169 561.824 951.09 559.896 951.988 567.886C952.886 575.875 944.807 579.824 944.807 579.824Z" fill="#2F2E41"/>
<path d="M884.315 923.949C884.329 942.648 879.817 961.072 871.164 977.649C862.511 994.225 849.974 1008.46 834.625 1019.14C834.345 1019.34 834.055 1019.54 833.765 1019.73C832.085 1020.89 830.371 1022 828.625 1023.06C826.165 1024.56 823.648 1025.97 821.074 1027.29C819.515 1028.09 817.944 1028.85 816.345 1029.57C815.944 1029.75 815.535 1029.94 815.125 1030.11C812.335 1031.35 809.484 1032.48 806.585 1033.48C799.01 1036.14 791.177 1037.99 783.214 1039C778.273 1039.63 773.296 1039.95 768.315 1039.95C765.805 1039.95 763.305 1039.87 760.835 1039.71C758.674 1039.57 756.535 1039.38 754.415 1039.12C751.005 1038.71 747.634 1038.16 744.315 1037.45C744.205 1037.43 744.085 1037.4 743.975 1037.38C737.078 1035.92 730.331 1033.82 723.824 1031.11C722.055 1030.37 720.305 1029.6 718.585 1028.77C716.415 1027.75 714.288 1026.66 712.205 1025.5C694.3 1015.61 679.329 1001.16 668.81 983.611C658.291 966.067 652.598 946.053 652.309 925.599C652.02 905.145 657.144 884.978 667.162 867.143C677.18 849.308 691.736 834.44 709.354 824.044C726.972 813.649 747.025 808.098 767.481 807.952C787.936 807.807 808.067 813.073 825.831 823.216C843.595 833.36 858.361 848.02 868.632 865.711C878.903 883.401 884.313 903.493 884.315 923.949Z" fill="#F1F1F1"/>
<path d="M765.128 952.536C779.434 952.536 791.031 940.939 791.031 926.633C791.031 912.328 779.434 900.73 765.128 900.73C750.822 900.73 739.225 912.328 739.225 926.633C739.225 940.939 750.822 952.536 765.128 952.536Z" fill="#FFB8B8"/>
<path d="M754.415 1039.12C751.005 1038.71 747.634 1038.16 744.315 1037.45L747.464 966.569L747.915 966.099L754.364 959.289H774.875L782.444 966.619L783.085 967.249L799.275 982.759L806.585 1033.48C799.01 1036.14 791.177 1037.99 783.214 1039C778.273 1039.63 773.296 1039.95 768.315 1039.95C765.805 1039.95 763.305 1039.87 760.835 1039.71C758.674 1039.57 756.535 1039.38 754.415 1039.12Z" fill="#CBCBCB"/>
<path d="M718.585 1028.77C716.415 1027.75 714.288 1026.66 712.205 1025.5C711.995 1006.3 711.855 993.548 711.855 993.548L714.295 992.058C714.324 992.043 714.354 992.029 714.384 992.018L742.074 975.198L747.884 965.758L747.915 966.098L749.625 985.998C754.774 1003.58 758.523 1021.54 760.835 1039.71C758.674 1039.57 756.535 1039.38 754.415 1039.12C751.005 1038.71 747.634 1038.16 744.315 1037.45C744.205 1037.43 744.085 1037.4 743.975 1037.38C737.078 1035.92 730.332 1033.82 723.824 1031.11C722.055 1030.37 720.305 1029.6 718.585 1028.77Z" fill="#2F2E41"/>
<path d="M806.585 1033.48C799.01 1036.13 791.177 1037.98 783.214 1039C782.111 1032.54 781.705 1025.99 782.004 1019.45C784.165 984.918 779.185 965.758 781.345 965.758L782.444 966.618L796.035 977.358L813.924 983.918H813.935L826.245 988.428L828.415 989.228V990.258C828.424 993.818 828.444 1006.28 828.625 1023.06C826.165 1024.56 823.648 1025.97 821.074 1027.29C819.515 1028.09 817.944 1028.85 816.345 1029.57C815.944 1029.75 815.535 1029.94 815.125 1030.11C812.335 1031.35 809.485 1032.48 806.585 1033.48Z" fill="#2F2E41"/>
<path d="M740.622 934.739C740.622 934.739 742.823 930.874 742.311 917.963C741.8 905.051 761.461 912.354 777.89 911.122C794.319 909.89 790.841 932.678 790.841 932.678C790.841 932.678 792.026 931.323 794.564 920.325C797.102 909.327 791.34 898.367 791.34 898.367C789.643 886.81 780.498 890.514 780.498 890.514C784.902 892.229 784.056 895.895 784.056 895.895C780.328 889.359 771.183 893.063 771.183 893.063C758.986 885.409 746.624 895.488 746.624 895.488C731.89 898.832 740.531 910.55 740.531 910.55C725.713 918.038 740.622 934.739 740.622 934.739Z" fill="#2F2E41"/>
<path d="M699.634 1017.44C700.015 1008.65 700.185 1002.98 699.985 1002.19C698.955 998.07 713.015 992.55 714.295 992.06C714.324 992.044 714.354 992.031 714.384 992.02L717.245 993.55L718.585 1028.77C716.415 1027.75 714.288 1026.66 712.205 1025.5C707.845 1023.09 703.646 1020.4 699.634 1017.44Z" fill="#2F2E41"/>
<path d="M828.625 1023.06C826.165 1024.56 823.648 1025.97 821.074 1027.29C819.515 1028.09 817.944 1028.85 816.345 1029.57C815.944 1029.75 815.535 1029.94 815.125 1030.11L810.625 985.678L813.255 983.758C813.255 983.758 813.495 983.818 813.924 983.918H813.935C816.045 984.438 822.525 986.158 826.245 988.428C827.075 988.898 827.811 989.519 828.415 990.258C828.782 990.699 828.965 991.265 828.924 991.838C828.805 992.998 830.805 1004 833.765 1019.73C832.085 1020.89 830.371 1022 828.625 1023.06Z" fill="#2F2E41"/>
<path d="M605.331 947.583H562.315V754.738H564.315V945.583H605.331V947.583Z" fill="#F1F1F1"/>
<path d="M974.323 947.582H931.307V945.582H972.323V752.949H974.323V947.582Z" fill="#F1F1F1"/>
<path d="M973.315 712.306C987.915 712.306 999.751 700.47 999.751 685.87C999.751 671.27 987.915 659.434 973.315 659.434C958.714 659.434 946.878 671.27 946.878 685.87C946.878 700.47 958.714 712.306 973.315 712.306Z" fill="#1BB978"/>
<path d="M970.796 697.03L962.883 686.856L967.485 683.277L971.231 688.094L983.888 674.734L988.12 678.743L970.796 697.03Z" fill="white"/>
<path d="M563.315 714.369C577.915 714.369 589.751 702.533 589.751 687.932C589.751 673.332 577.915 661.496 563.315 661.496C548.714 661.496 536.878 673.332 536.878 687.932C536.878 702.533 548.714 714.369 563.315 714.369Z" fill="#1BB978"/>
<path d="M560.796 699.093L552.883 688.919L557.485 685.34L561.231 690.157L573.888 676.797L578.12 680.806L560.796 699.093Z" fill="white"/>
<path d="M768.315 1066.37C782.915 1066.37 794.751 1054.53 794.751 1039.93C794.751 1025.33 782.915 1013.5 768.315 1013.5C753.714 1013.5 741.878 1025.33 741.878 1039.93C741.878 1054.53 753.714 1066.37 768.315 1066.37Z" fill="#1BB978"/>
<path d="M765.796 1051.09L757.883 1040.92L762.485 1037.34L766.231 1042.16L778.888 1028.8L783.12 1032.81L765.796 1051.09Z" fill="white"/>
</g>
<defs>
<clipPath id="clip0">
<rect width="642" height="608.421" fill="white" transform="translate(447.315 457.949)"/>
</clipPath>
</defs>
</svg>
