<svg xmlns="http://www.w3.org/2000/svg" width="460" height="128" fill="none" viewBox="0 0 460 128"><path fill="#4E54C8" d="M0 7.15294C0 3.20248 3.02867 0 6.76471 0H453.235C456.971 0 460 3.20248 460 7.15294V120.847C460 124.798 456.971 128 453.235 128H6.76471C3.02867 128 0 124.798 0 120.847V7.15294Z"/><path fill="#fff" d="M67.2241 100.258C41.3711 126.718 7.30608 118.318 7.00193 68.8987C6.69777 26.4796 42.4356 9.67999 63.7263 28.8596L57.3391 41.5993C48.9749 33.7594 25.8594 40.7593 24.0344 68.4788C22.3616 92.9782 41.8274 107.958 56.1226 87.0983L67.2241 100.258ZM161.511 94.6581L140.068 93.8181L145.239 10.38L158.166 9.95993L181.282 54.339L187.82 8L201.508 11.9199L194.664 86.6784L180.978 88.3583L158.166 42.8592L161.511 94.6581ZM231.314 94.6581L209.871 93.8181L215.042 10.38L227.969 9.95993L251.084 54.339L257.623 8L271.311 11.9199L264.467 86.6784L250.779 88.3583L227.969 42.8592L231.314 94.6581ZM323.321 105.858L281.804 105.158L279.674 21.0197L320.278 16.1198L319.822 31.9394H296.555V58.679L316.021 57.139L317.085 73.0987L297.316 72.8186L296.251 93.1183L324.84 92.1383L323.321 105.858ZM343.859 54.339C318.006 80.7985 344.163 103.758 343.859 54.339C343.555 11.9199 322.568 35.1594 343.859 54.339C335.494 46.4991 368.811 50.6549 343.859 54.339C367.98 58.2379 329.564 75.1986 343.859 54.339ZM450 13.7398L448.631 30.2595L432.967 30.8195L434.032 100.538L411.068 104.038L415.326 31.3796L398.749 31.9394L399.206 16.5398L450 13.7398Z"/><path fill="#4E54C8" d="M386 21H331V114H386V21Z"/><path fill="#fff" d="M350 23.5272C359.728 17.2668 371.756 17.5069 381.317 24.1999C383.307 25.5928 385.177 27.2696 386.886 29.1922C388.668 30.9681 390.071 33.2845 391.385 35.6323C392.304 37.2982 393.12 39.0613 393.774 40.9288C394.602 43.4396 395.324 46.0365 395.626 48.7527C396.147 52.2586 396.098 55.8856 395.635 59.3988C394.874 65.4743 392.579 71.1208 389.448 75.6843C387.514 78.5158 385.221 80.9056 382.75 82.8924C376.383 88.11 368.199 89.4846 361.068 86.2994C358.994 85.3793 357.049 84.0066 355.268 82.3498C354.661 81.7743 354.1 81.1165 353.616 80.3668C354.489 80.8544 355.246 81.6075 356.049 82.2563C362.686 87.5822 371.918 86.8289 377.887 80.2312C379.672 78.228 381.137 75.7576 382.242 73.0507C382.83 71.6176 383.277 70.1 383.745 68.5971C384.558 65.0508 384.963 61.3452 384.965 57.645C384.875 54.4194 384.484 51.2029 383.792 48.1039C382.327 41.9112 379.573 36.1913 375.74 32.0292C371.894 27.7589 367.098 25.0906 362.144 23.9617C359.777 23.4118 357.371 23.1644 354.966 23.1351C353.306 23.1405 351.66 23.5236 350 23.5272Z"/><path fill="#fff" d="M346.202 27.9748C353.249 23.724 361.704 24.1433 368.66 28.5011C372.657 30.9915 376.178 34.8339 378.65 39.6456C380.241 42.7403 381.419 46.1962 382.113 49.8118C382.734 52.9082 382.914 56.1155 383 59.3027C382.684 56.4749 382.197 53.6615 381.326 51.0297C379.423 45.0654 375.686 40.1847 371.178 37.551C365.628 34.2439 358.879 34.5345 353.558 38.4712C349.693 41.3064 346.633 45.7878 344.546 50.859C342.682 55.286 341.583 60.2121 341.057 65.2016C340.783 67.9733 340.775 70.783 340.921 73.5672C341.346 79.8981 343.032 86.1945 346.137 91.1461C348.782 95.4024 352.427 98.5515 356.42 100.211C356.907 100.417 357.397 100.637 357.83 101C356.487 100.904 355.178 100.397 353.886 99.9327C348.663 97.8926 343.923 93.9014 340.232 88.6776C337.001 84.1435 334.631 78.6094 333.272 72.6851C332.023 67.9043 331.94 62.793 332.023 57.7926C332.187 57.0829 332.095 56.3297 332.222 55.6109C332.606 51.6631 333.243 47.7209 334.462 44.0563C334.916 42.6968 335.356 41.3191 335.95 40.0487C338.387 34.8592 341.934 30.4905 346.202 27.9748Z"/><path fill="#fff" d="M343.662 57.9046C345.09 52.7314 347.356 47.9426 350.3 44C348.342 48.5048 346.983 53.5225 346.733 58.7159C346.518 63.3507 347.121 68.0754 348.653 72.2854C350.382 77.1382 353.231 81.3154 356.779 84.031C358.838 85.6225 361.078 86.8512 363.422 87.5087C365.358 88.058 367.34 88.3089 369.32 88.307C374.071 88.1038 378.804 86.3989 382.865 83.1466C388.825 78.4788 393.511 70.8735 395.25 62.047C395.761 59.5913 395.918 57.0495 396.093 54.5259C397.074 58.7855 397.203 63.3197 396.749 67.7092C396.135 74.0196 394.209 80.0665 391.342 85.2013C388.451 90.4001 384.62 94.7146 380.24 97.6647C374.939 101.254 368.793 102.701 362.868 101.681C361.564 101.503 360.26 101.212 359.013 100.686C355.121 99.377 351.57 96.5422 348.758 92.8266C345.498 88.4902 343.379 82.8133 342.488 76.8819C341.541 70.5732 341.994 63.9442 343.662 57.9046Z"/><path fill="#4E54C8" d="M394.663 44.6569L378.417 49.9077L380.482 61.3823L396.728 56.1315L394.663 44.6569Z"/><path fill="#4E54C8" d="M397.613 54.0816L379.38 54.5586L379.645 72.7384L397.878 72.2614L397.613 54.0816Z"/><path fill="#4E54C8" d="M397.181 70.8743L377.407 64.4829L375.649 74.2485L395.423 80.6398L397.181 70.8743Z"/><path fill="#fff" d="M86 23.5275C96.1515 17.2677 108.703 17.5063 118.68 24.1983C120.758 25.5895 122.707 27.2687 124.492 29.1907C126.352 30.9686 127.818 33.2816 129.184 35.6317C130.146 37.2984 130.995 39.0599 131.677 40.9284C132.54 43.439 133.294 46.036 133.61 48.7523C134.153 52.2587 134.104 55.8846 133.62 59.3995C132.826 65.4741 130.432 71.1208 127.162 75.685C125.144 78.5166 122.754 80.9077 120.172 82.8915C113.527 88.1101 104.989 89.4847 97.5476 86.2992C95.3843 85.3774 93.3526 84.0068 91.4956 82.3482C90.8634 81.772 90.2772 81.1134 89.7734 80.3645C90.6856 80.8501 91.4759 81.6032 92.3122 82.2535C99.2401 87.5792 108.871 86.826 115.101 80.2286C116.965 78.2243 118.493 75.755 119.645 73.0468C120.258 71.6146 120.725 70.096 121.213 68.5937C122.059 65.046 122.484 61.342 122.487 57.642C122.391 54.4154 121.986 51.201 121.262 48.102C119.734 41.908 116.86 36.1913 112.859 32.0263C108.845 27.7544 103.84 25.0874 98.6705 23.9597C96.201 23.4082 93.6885 23.1613 91.1795 23.1325C89.4475 23.1406 87.732 23.5235 86 23.5275Z"/><path fill="#fff" d="M81.3172 28.0141C88.9143 23.7069 98.0335 24.1324 105.536 28.5468C109.847 31.07 113.642 34.9643 116.309 39.8372C118.026 42.9715 119.296 46.4735 120.044 50.1363C120.714 53.2749 120.906 56.5249 121 59.7542C120.66 56.8883 120.134 54.0388 119.195 51.371C117.144 45.3296 113.113 40.3822 108.251 37.7145C102.263 34.3654 94.9859 34.6587 89.251 38.6479C85.082 41.522 81.7819 46.0604 79.5324 51.1976C77.5221 55.6824 76.3367 60.6751 75.7676 65.7297C75.4712 68.5378 75.4644 71.3832 75.6194 74.2036C76.0773 80.6169 77.8958 86.9972 81.2466 92.0146C84.0988 96.3258 88.0287 99.518 92.3357 101.199C92.861 101.409 93.3898 101.632 93.8578 102C92.4098 101.901 90.9988 101.389 89.6047 100.918C83.9708 98.849 78.8589 94.8061 74.8786 89.5161C71.3966 84.9241 68.8372 79.3161 67.3723 73.3117C66.0253 68.4677 65.9344 63.289 66.0253 58.2221C66.2004 57.5035 66.1028 56.7396 66.2374 56.0128C66.6517 52.0113 67.3387 48.0179 68.6553 44.3054C69.1437 42.9261 69.6184 41.5303 70.2583 40.246C72.8883 34.9891 76.7138 30.5662 81.3172 28.0141Z"/><path fill="#fff" d="M79.7228 58.3825C81.2022 53.0311 83.5489 48.0795 86.6026 44C84.5733 48.6581 83.166 53.8522 82.9074 59.2206C82.6816 64.0147 83.3067 68.9025 84.894 73.2586C86.6876 78.2782 89.6398 82.6003 93.3154 85.4079C95.4493 87.0541 97.7699 88.326 100.198 89.0067C102.205 89.5767 104.26 89.8361 106.312 89.8319C111.235 89.6235 116.141 87.8581 120.35 84.4932C126.526 79.665 131.383 71.7994 133.187 62.6663C133.717 60.1267 133.88 57.4978 134.06 54.8858C135.078 59.2929 135.209 63.9808 134.741 68.5239C134.103 75.0537 132.11 81.307 129.138 86.6202C126.14 91.9972 122.173 96.4596 117.633 99.5138C112.141 103.228 105.772 104.725 99.6289 103.67C98.2771 103.487 96.9254 103.185 95.6327 102.64C91.5971 101.288 87.9183 98.3525 85.0053 94.5112C81.6277 90.0276 79.4315 84.153 78.5085 78.0188C77.5234 71.489 77.9915 64.6315 79.7228 58.3825Z"/></svg>