<svg width="49" height="37" viewBox="0 0 49 37" fill="none" xmlns="http://www.w3.org/2000/svg">
<path d="M41.6002 3.07155C38.4676 1.6542 35.118 0.62413 31.6161 0.0375977C31.186 0.789511 30.6835 1.80085 30.3371 2.60537C26.6145 2.064 22.9261 2.064 19.272 2.60537C18.9256 1.80085 18.4117 0.789511 17.9778 0.0375977C14.4721 0.62413 11.1187 1.65799 7.98602 3.07906C1.66741 12.3124 -0.0454602 21.3163 0.810977 30.1925C5.00181 33.2188 9.06324 35.0573 13.0561 36.2603C14.042 34.9482 14.9212 33.5535 15.6787 32.0835C14.2361 31.5534 12.8544 30.8993 11.5488 30.1399C11.8952 29.8917 12.234 29.6323 12.5613 29.3654C20.5242 32.967 29.1762 32.967 37.044 29.3654C37.3752 29.6323 37.7139 29.8917 38.0565 30.1399C36.7471 30.903 35.3616 31.5571 33.919 32.0873C34.6764 33.5535 35.5519 34.952 36.5415 36.264C40.5383 35.061 44.6035 33.2226 48.7943 30.1925C49.7992 19.9028 47.0777 10.9815 41.6002 3.07155ZM16.7635 24.7337C14.3732 24.7337 12.4128 22.5758 12.4128 19.9479C12.4128 17.32 14.3313 15.1583 16.7635 15.1583C19.1959 15.1583 21.1561 17.3162 21.1143 19.9479C21.118 22.5758 19.1959 24.7337 16.7635 24.7337ZM32.8418 24.7337C30.4514 24.7337 28.491 22.5758 28.491 19.9479C28.491 17.32 30.4094 15.1583 32.8418 15.1583C35.274 15.1583 37.2343 17.3162 37.1925 19.9479C37.1925 22.5758 35.274 24.7337 32.8418 24.7337Z" fill="white"/>
</svg>
