<svg xmlns="http://www.w3.org/2000/svg" width="1092" height="829" fill="none" viewBox="0 0 1092 829"><g clip-path="url(#clip0)"><path fill="#646ECB" d="M1077.89 239.01C1077.7 239.9 1077.52 240.79 1077.31 241.67C1070.75 271.92 1060.03 301.07 1044.09 327.84C1043.56 328.73 1043.03 329.62 1042.49 330.51C1031.98 347.734 1019.4 363.608 1005.04 377.78C997.1 385.62 988.44 393.07 978.14 398.44C963.71 405.98 946.84 409.04 930.26 411.54C913.04 414.15 895.58 416.33 878.17 418.68C871.983 419.5 865.833 420.37 859.72 421.29C842.9 423.78 826.2 426.66 809.9 430.48C789.75 435.19 770.22 441.36 751.77 450.04C750.297 450.707 748.84 451.413 747.4 452.16C745.96 452.88 744.51 453.61 743.09 454.35C741.67 455.09 740.27 455.83 738.88 456.59C738.16 456.98 737.44 457.37 736.73 457.78C736.02 458.19 735.32 458.55 734.63 458.95C732.55 460.11 730.51 461.3 728.47 462.5L728.39 462.55C727.04 463.34 725.71 464.15 724.39 464.96C716.85 469.54 709.47 474.32 702.09 479.13L697.45 482.13L690.26 486.78C688.86 487.69 687.43 488.6 686.02 489.5C685.02 490.16 684.02 490.82 682.93 491.5C677.69 494.8 672.38 498.04 666.93 501.13C665.64 501.87 664.34 502.61 663.03 503.33C652.019 509.473 640.504 514.665 628.61 518.85L628.45 518.91C622.466 520.997 616.362 522.72 610.17 524.07C606.6 524.85 603.02 525.49 599.4 525.98C589.723 527.352 579.911 527.49 570.2 526.39C551.13 524.18 533.26 516.86 514.2 514.39C474.96 509.39 436.85 525.5 399.95 538.12C390.877 541.22 381.737 544.123 372.53 546.83C366.41 548.64 360.27 550.35 354.08 552C316.156 562.02 277.451 568.807 238.38 572.29C222.047 573.89 205.617 574.255 189.23 573.38C183 573 176.84 572.38 170.79 571.38C150.09 568.18 130.79 561.47 115.21 549.18C102.45 539.09 93.32 525.94 86.37 512.18C79.2556 498.139 74.2324 483.134 71.46 467.64C71.08 465.53 70.74 463.41 70.46 461.29C69.96 457.663 69.5867 454.017 69.34 450.35C67.9945 430.806 70.3282 411.183 76.22 392.5C82.82 371.58 93.82 351.5 98.66 330.42C98.86 329.527 99.05 328.637 99.23 327.75C99.891 324.548 100.382 321.314 100.7 318.06C103.17 292.16 93.7 266.91 86.27 241.58C86.01 240.7 85.75 239.81 85.5 238.92C84.7 236.107 83.9333 233.297 83.2 230.49C76.32 203.71 74.41 175.04 80.54 148.31C80.73 147.42 80.96 146.53 81.18 145.65C85.2838 128.754 93.001 112.947 103.8 99.3199C115.28 84.9199 130.35 72.9299 146.45 62.3999C154.297 57.2666 162.41 52.4699 170.79 48.0099C176.79 44.8099 182.937 41.7799 189.23 38.9199C239.68 15.9199 297.23 4.68994 354.14 7.16994C357.14 7.29994 360.14 7.45993 363.14 7.67993C366.14 7.89993 369.42 8.15993 372.56 8.44993C409.22 12.0099 444.89 20.5999 480.31 29.9899C492.18 33.1399 504.03 36.3699 515.87 39.5399C521.14 40.9399 526.4 42.3399 531.67 43.6999C557.48 50.3699 583.67 56.4099 610.19 60.9199C616.33 61.9799 622.477 62.9466 628.63 63.8199C649.995 66.9598 671.532 68.7866 693.12 69.2899C701.513 69.4566 709.91 69.3833 718.31 69.0699C722.55 68.9166 726.793 68.6866 731.04 68.3799C774.89 65.2899 817.27 54.9499 859.72 45.2899C865.86 43.8899 872.01 42.5099 878.17 41.1499C886.25 39.3699 894.33 37.6499 902.45 36.0599C952.98 26.1299 998.02 31.8399 1045 52.3299C1055.68 56.9799 1066.35 62.5999 1072.89 71.3299C1079.43 80.0599 1081.07 90.7799 1082.29 101.13C1084.02 115.87 1085.15 130.8 1085.58 145.81C1085.58 146.69 1085.58 147.58 1085.64 148.47C1086.32 178.79 1084.06 209.4 1077.89 239.01Z" opacity=".1"/><path fill="#646ECB" d="M742.71 327.842H739.41V329.022V330.512H743.15L742.71 327.842ZM705.28 327.842C705.275 327.865 705.275 327.889 705.28 327.912C705.19 328.642 705.09 329.372 704.99 330.112V330.312V330.512H733.59V330.352L735.59 327.842H705.28ZM628.63 327.842V241.672H661.53C661.18 241.442 660.82 241.202 660.45 240.982L659.97 240.672L659.35 240.292C658.99 240.082 658.63 239.872 658.25 239.672C657.87 239.472 657.64 239.332 657.32 239.162L657.1 239.042H657.05H628.63V234.292L627.86 234.592L627.05 234.972H626.99L626.82 235.062L626.31 235.332L625.8 235.602C625.3 235.872 624.8 236.172 624.3 236.482L623.82 236.802L622.82 237.442C621.53 238.302 620.26 239.202 618.95 240.042C618.62 240.252 618.29 240.462 617.95 240.652C617.24 241.072 616.51 241.472 615.76 241.832C615.44 241.992 615.13 242.132 614.76 242.262L614.22 242.472L613.72 242.642C612.547 243.05 611.343 243.364 610.12 243.582V327.822H560.79C560.79 327.922 560.86 328.002 560.89 328.102C561.16 328.902 561.43 329.692 561.69 330.492H610.19V422.852C610.443 422.852 610.693 422.852 610.94 422.852L611.81 422.902L613.38 422.992L615.89 423.292L617.04 423.402L618.29 423.532H618.48L620.69 423.802L621.16 423.862L622.23 424.012L623.76 424.232L627.43 424.072L627.93 424.162C628.13 424.162 628.34 424.222 628.55 424.262V330.512H704.89V330.312V330.112C704.99 329.372 705.09 328.642 705.18 327.912C705.175 327.889 705.175 327.865 705.18 327.842H628.63ZM742.71 327.842H739.41V329.022V330.512H743.15L742.71 327.842ZM703.22 327.842C703.1 328.732 702.99 329.622 702.87 330.512H734.76L736.93 327.842H703.22ZM628.63 327.842V241.672H661.53C661.18 241.442 660.82 241.202 660.45 240.982L659.97 240.672L659.35 240.292C658.99 240.082 658.63 239.872 658.25 239.672C657.87 239.472 657.64 239.332 657.32 239.162L657.1 239.042H657.03H628.63V234.292L627.86 234.592L627.05 234.972H626.99L626.82 235.062L626.31 235.332L625.8 235.602C625.3 235.872 624.8 236.172 624.3 236.482L623.82 236.802L622.82 237.442C621.53 238.302 620.26 239.202 618.95 240.042C618.62 240.252 618.29 240.462 617.95 240.652C617.24 241.072 616.51 241.472 615.76 241.832C615.44 241.992 615.13 242.132 614.76 242.262L614.22 242.472L613.72 242.642C612.547 243.05 611.343 243.364 610.12 243.582V327.822H560.79C560.79 327.922 560.86 328.002 560.89 328.102C561.16 328.892 561.44 329.692 561.7 330.492H610.19V422.842H610.94L611.81 422.892L613.38 422.982L615.89 423.292L617.04 423.402L618.29 423.532H618.48L620.69 423.802L621.16 423.862L622.23 424.012L623.76 424.232L627.43 424.072L627.93 424.162C628.13 424.162 628.34 424.222 628.55 424.262V330.512H702.89C703.01 329.622 703.12 328.732 703.24 327.842H628.63ZM878.17 148.402H1085.64C1085.64 147.512 1085.64 146.622 1085.58 145.742H878.17V41.1217C872.01 42.4551 865.86 43.8351 859.72 45.2617V145.742H634.08L633.51 145.232L634.37 144.472L718.3 69.0517C709.9 69.3717 701.503 69.4451 693.11 69.2717L628.62 127.212V63.8217C622.46 62.9484 616.313 61.9817 610.18 60.9217V124.292L515.89 39.5417C504.05 36.3717 492.2 33.1417 480.33 29.9917L608.56 145.232L607.99 145.742H372.59V8.54172C369.45 8.24838 366.31 7.99172 363.17 7.77172C360.17 7.55172 357.17 7.39172 354.17 7.26172V145.742H189.23V39.0117C183.003 41.8651 176.857 44.895 170.79 48.1017V145.742H81.18C80.96 146.622 80.73 147.512 80.54 148.402H170.79V239.012H85.5C85.75 239.902 86.0101 240.792 86.2701 241.672H170.79V327.842H99.23C99.05 328.728 98.86 329.618 98.66 330.512H170.79V571.442C176.79 572.372 183 573.022 189.23 573.442V330.512H354.14V552.042C360.33 550.392 366.47 548.682 372.59 546.872V330.512H610.19V524.062C616.382 522.712 622.486 520.989 628.47 518.902L628.63 518.842V330.512H859.72V421.292C865.853 420.392 872.003 419.528 878.17 418.702V330.512H1042.49C1043.03 329.622 1043.56 328.732 1044.09 327.842H878.17V241.672H1077.31C1077.52 240.792 1077.7 239.902 1077.89 239.012H878.17V148.402ZM189.23 148.402H354.14V239.012H189.23V148.402ZM189.23 327.842V241.672H354.14V327.842H189.23ZM372.59 148.402H610.19V239.012H372.59V148.402ZM372.59 327.842V241.672H610.19V327.842H372.59ZM859.72 327.842H628.63V241.672H859.72V327.842ZM859.72 239.012H628.63V150.832L631.87 148.402H859.72V239.012ZM705.28 327.842C705.275 327.865 705.275 327.889 705.28 327.912C705.19 328.642 705.09 329.372 704.99 330.112V330.312V330.512H733.59V330.352L735.59 327.842H705.28ZM742.71 327.842H739.41V329.022V330.512H743.15L742.71 327.842ZM628.63 327.842V241.672H661.53C661.18 241.442 660.82 241.202 660.45 240.982L659.97 240.672L659.35 240.292C658.99 240.082 658.63 239.872 658.25 239.672C657.87 239.472 657.64 239.332 657.32 239.162L657.1 239.042H657.05H628.63V234.292L627.86 234.592L627.05 234.972H626.99L626.82 235.062L626.31 235.332L625.8 235.602C625.3 235.872 624.8 236.172 624.3 236.482L623.82 236.802L622.82 237.442C621.53 238.302 620.26 239.202 618.95 240.042C618.62 240.252 618.29 240.462 617.95 240.652C617.24 241.072 616.51 241.472 615.76 241.832C615.44 241.992 615.13 242.132 614.76 242.262L614.22 242.472L613.72 242.642C612.547 243.05 611.343 243.364 610.12 243.582V327.822H560.79C560.79 327.922 560.86 328.002 560.89 328.102C561.16 328.902 561.43 329.692 561.69 330.492H610.19V422.852C610.443 422.852 610.693 422.852 610.94 422.852L611.81 422.902L613.38 422.992L615.89 423.292L617.04 423.402L618.29 423.532H618.48L620.69 423.802L621.16 423.862L622.23 424.012L623.76 424.232L627.43 424.072L627.93 424.162C628.13 424.162 628.34 424.222 628.55 424.262V330.512H704.89V330.312V330.112C704.99 329.372 705.09 328.642 705.18 327.912C705.175 327.889 705.175 327.865 705.18 327.842H628.63Z" opacity=".1"/><path fill="#646ECB" d="M268.52 86.0216H269.95C269.479 85.8222 269.068 85.5016 268.761 85.0923C268.454 84.6831 268.26 84.1998 268.2 83.6916V83.6916C268.2 81.8516 270.95 80.3516 274.31 80.3516H317.07C320.43 80.3516 323.17 81.8516 323.17 83.6916C323.17 85.5216 320.43 87.0316 317.07 87.0316H315.64C316.112 87.2275 316.523 87.5459 316.83 87.9537C317.138 88.3615 317.331 88.8441 317.39 89.3516C317.39 90.9216 315.39 92.2416 312.72 92.5916H325.03C328.38 92.5916 331.13 94.0916 331.13 95.9316C331.13 97.7716 328.38 99.2716 325.03 99.2716H282.26C278.91 99.2716 276.16 97.7616 276.16 95.9316C276.16 94.3616 278.16 93.0516 280.83 92.6916H268.52C265.16 92.6916 262.42 91.1916 262.42 89.3516C262.42 87.5116 265.16 86.0216 268.52 86.0216Z" opacity=".1"/><path fill="#646ECB" d="M731.96 117.791H733.39C732.92 117.59 732.512 117.269 732.207 116.86C731.901 116.451 731.709 115.968 731.65 115.461V115.461C731.65 113.621 734.39 112.121 737.75 112.121H780.51C783.87 112.121 786.62 113.621 786.62 115.461C786.62 117.291 783.87 118.791 780.51 118.791H779.09C779.559 118.992 779.968 119.313 780.273 119.722C780.579 120.131 780.771 120.614 780.83 121.121C780.83 122.691 778.83 124.011 776.16 124.361H788.47C791.83 124.361 794.57 125.861 794.57 127.701C794.57 129.541 791.83 131.041 788.47 131.041H745.71C742.35 131.041 739.6 129.531 739.6 127.701C739.6 126.131 741.6 124.811 744.27 124.461H731.96C728.61 124.461 725.86 122.961 725.86 121.121C725.86 119.281 728.61 117.791 731.96 117.791Z" opacity=".1"/><path fill="#646ECB" d="M202.89 253.748H204.31C203.84 253.548 203.431 253.227 203.126 252.818C202.82 252.409 202.628 251.926 202.57 251.418V251.418C202.57 249.588 205.32 248.078 208.67 248.078H251.44C254.79 248.078 257.54 249.588 257.54 251.418C257.54 253.258 254.79 254.758 251.44 254.758H250.01C250.481 254.955 250.89 255.273 251.196 255.681C251.502 256.089 251.693 256.571 251.75 257.078C251.75 258.648 249.75 259.968 247.08 260.318H259.39C262.75 260.318 265.5 261.828 265.5 263.658C265.5 265.488 262.75 266.998 259.39 266.998H216.67C213.31 266.998 210.57 265.498 210.57 263.658C210.57 262.098 212.57 260.778 215.24 260.418H202.89C199.53 260.418 196.78 258.918 196.78 257.078C196.78 255.238 199.57 253.748 202.89 253.748Z" opacity=".1"/><path fill="#646ECB" d="M1008.04 610.103C1015.23 574.953 927.278 527.296 811.607 503.657C695.936 480.018 596.343 489.35 589.159 524.5C581.976 559.65 669.923 607.307 785.594 630.946C901.265 654.585 1000.86 645.253 1008.04 610.103Z" opacity=".1"/><path fill="#3A3768" d="M774.45 384.881C774.45 384.881 785.82 329.071 829.23 334.241C829.23 334.241 859.23 336.301 865.4 355.941V399.351L774.45 384.881Z"/><path fill="#D48A9B" d="M1012.18 405.562L625.61 373.512L576 383.852L579.1 453.102L582.48 453.512L586.33 557.502L965.66 625.712L1005.98 591.602V478.872L1011.14 475.842L1012.18 405.562Z"/><path fill="#000" d="M1012.7 405.559L1011.66 475.839L969.8 495.479L969.28 422.089L1012.7 405.559Z" opacity=".05"/><path fill="#000" d="M1005.98 478.941L1006.49 589.541L966.18 623.651L968.77 495.481L1005.98 478.941Z" opacity=".05"/><path fill="#000" d="M583 457.649L969.08 504.759L969.28 495.819L582.71 454.129L583 457.649Z" opacity=".05"/><path fill="#000" d="M1005.98 483.001V478.941L967.73 495.821V504.781L1005.98 483.001Z" opacity=".05"/><path fill="#EFC6CD" d="M575.48 383.852L625.09 373.512L1011.66 405.562L968.25 422.092L575.48 383.852Z"/><path fill="#000" d="M970.48 407.551L989.45 408.791L958.01 418.201L942 417.051L970.48 407.551Z" opacity=".1"/><path fill="#fff" d="M970.48 406.719L989.45 407.959L958.01 417.379L942 416.219L970.48 406.719Z"/><path fill="#D3DAE1" d="M968.21 408.849C968.96 408.529 969.75 409.139 970.55 409.289C971.01 409.379 971.48 409.289 971.94 409.379C972.87 409.499 973.79 410.119 974.68 409.809"/><path fill="#D3DAE1" d="M967.23 409.421C967.97 409.101 968.77 409.701 969.57 409.861C970.03 409.941 970.5 409.861 970.96 409.941C971.89 410.071 972.81 410.691 973.7 410.381"/><path fill="#D3DAE1" d="M964.97 410.561C965.72 410.241 966.52 410.841 967.32 410.991C967.77 411.081 968.25 410.991 968.7 411.081C969.64 411.211 970.56 411.831 971.44 411.511"/><path fill="#000" d="M888.48 398.211L907.45 399.461L876.01 408.871L860 407.711L888.48 398.211Z" opacity=".1"/><path fill="#fff" d="M888.48 397.391L907.45 398.631L876.01 408.041L860 406.891L888.48 397.391Z"/><path fill="#D3DAE1" d="M886.21 399.518C886.96 399.198 887.75 399.798 888.55 399.958C889.01 400.038 889.48 399.958 889.94 400.038C890.87 400.168 891.79 400.788 892.68 400.478"/><path fill="#D3DAE1" d="M885.23 400.089C885.97 399.769 886.77 400.369 887.57 400.519C888.03 400.609 888.5 400.519 888.96 400.609C889.89 400.739 890.81 401.359 891.7 401.039"/><path fill="#D3DAE1" d="M882.97 401.22C883.72 400.9 884.52 401.51 885.32 401.66C885.77 401.75 886.25 401.66 886.7 401.75C887.64 401.87 888.56 402.5 889.44 402.18"/><path fill="#000" d="M927.81 402.879L946.79 404.119L915.35 413.539L899.33 412.379L927.81 402.879Z" opacity=".1"/><path fill="#fff" d="M927.81 402.059L946.79 403.299L915.35 412.709L899.33 411.549L927.81 402.059Z"/><path fill="#D3DAE1" d="M925.54 404.19C926.29 403.87 927.09 404.47 927.89 404.62C928.34 404.71 928.81 404.62 929.27 404.71C930.2 404.83 931.13 405.46 932.01 405.14"/><path fill="#D3DAE1" d="M924.56 404.752C925.31 404.432 926.11 405.042 926.91 405.192C927.36 405.282 927.83 405.192 928.29 405.282C929.22 405.402 930.15 406.032 931.03 405.712"/><path fill="#D3DAE1" d="M922.31 405.889C923.05 405.569 923.85 406.169 924.65 406.329C925.11 406.409 925.58 406.329 926.04 406.409C926.97 406.539 927.89 407.159 928.78 406.849"/><path fill="#646ECB" d="M498.32 791.38C610.147 791.38 700.8 772.719 700.8 749.7C700.8 726.68 610.147 708.02 498.32 708.02C386.493 708.02 295.84 726.68 295.84 749.7C295.84 772.719 386.493 791.38 498.32 791.38Z" opacity=".1"/><path fill="url(#paint0_linear)" d="M720.05 408.378C717.89 389.398 709.34 371.288 709.34 371.288L709.99 364.888C709.99 364.888 710.13 361.688 709.92 356.888C709.943 353.891 710.336 350.909 711.09 348.008C712.84 342.458 708.9 335.638 708.46 335.008C708.02 334.378 708.68 322.208 704.74 316.238C700.8 310.268 674.56 299.168 674.56 299.168C674.56 299.168 673.15 296.218 671.16 292.768L671.34 292.418C669.712 289.465 667.694 286.743 665.34 284.328C663.73 282.608 662.18 281.628 660.93 282.108C660.422 280.448 660.034 278.754 659.77 277.038C660.03 277.108 660.3 277.178 660.56 277.228C661.643 277.479 662.766 277.506 663.86 277.308C666.3 276.758 667.92 274.568 669.28 272.508C676.06 262.208 681.9 250.908 683.09 238.718C683.41 236.23 683.291 233.705 682.74 231.258C682.178 229.356 681.392 227.526 680.4 225.808C678.647 222.283 676.427 219.01 673.8 216.078C669.13 211.158 662.69 208.148 656.07 206.368C648.612 204.363 640.843 203.782 633.17 204.658C631.17 204.888 629.17 205.218 627.17 205.348C624.633 205.46 622.092 205.416 619.56 205.218L606.47 204.458L606.41 204.258L604.23 204.128C603.37 205.838 604.23 207.868 605.3 209.468C606.37 211.068 607.6 212.738 607.51 214.628C607.42 216.518 606.05 218.038 604.98 219.628C603.91 221.218 603.1 223.298 604.17 224.858C604.321 225.074 604.499 225.269 604.7 225.438C605.83 226.608 607.8 226.738 609.51 226.718H609.81C605.504 232.39 603.175 239.317 603.18 246.438C603.209 252.524 604.912 258.484 608.103 263.666C611.294 268.848 615.849 273.052 621.27 275.818C621.46 276.468 621.65 277.138 621.83 277.818C623.812 284.842 624.523 292.164 623.93 299.438L623.7 299.938L623.56 299.408C623.56 299.408 608.14 309.868 603.56 312.638C598.98 315.408 594.38 324.798 594.16 327.358C593.94 329.918 586.72 368.528 586.72 368.528C585.253 372.418 584.043 376.399 583.1 380.448L573.89 388.538C573.89 388.538 554.89 390.248 549.39 388.968L549.55 390.028C544.7 388.921 539.76 388.251 534.79 388.028C532.076 387.679 529.317 388.048 526.79 389.098L526.6 389.188L526.45 389.258C523.555 389.654 520.728 390.448 518.05 391.618C517.73 391.748 517.44 391.878 517.16 392.008L517.22 390.698L496.66 389.638L486.16 387.508C486.16 387.508 482.44 384.508 480.25 384.948C478.06 385.388 473.47 382.388 473.47 382.388C472.423 381.567 471.29 380.863 470.09 380.288C469.74 377.868 469.52 376.398 469.52 376.398C469.52 376.398 461.35 343.978 455.23 324.918C451.13 312.188 445.23 305.918 441.75 303.188C440.2 300.488 439.18 298.748 439.18 298.748C438.51 296.408 434.83 291.138 433.89 291.008C433.74 290.768 433.63 290.648 433.57 290.648C433.369 290.627 433.166 290.658 432.98 290.738C431.26 282.178 430.26 271.448 432.89 262.098C436.49 259.139 439.392 255.421 441.387 251.21C443.382 246.998 444.421 242.398 444.43 237.738C444.43 237.598 444.43 237.458 444.43 237.318C444.43 237.178 444.43 237.028 444.43 236.888C444.428 229.456 441.796 222.265 437 216.588L436.66 216.208C436.751 216.144 436.838 216.073 436.92 215.998C437.671 215.389 438.244 214.587 438.577 213.679C438.909 212.77 438.99 211.789 438.81 210.838C438.36 208.918 436.86 207.408 436.09 205.588C435.628 204.187 435.257 202.757 434.98 201.308C434.391 199.25 433.31 197.366 431.83 195.818L431.98 196.218C428.06 191.808 421.32 189.618 415.25 190.598C410.74 191.318 406.54 193.418 402.01 194.068C398.76 194.528 395.45 194.228 392.18 194.558C389.146 194.87 386.193 195.724 383.46 197.078C382.746 197.382 382.113 197.847 381.61 198.438C381.145 199.229 380.833 200.101 380.69 201.008C379.58 205.058 376.06 207.948 373.51 211.328C370.597 215.19 368.911 219.837 368.67 224.668C368.57 225.896 368.689 227.132 369.02 228.318C369.24 229.028 369.58 229.698 369.74 230.418C370.24 232.618 369.09 234.808 368.53 236.988C367.825 239.769 368.075 242.706 369.24 245.328C373.19 254.168 386.16 257.118 388.86 266.398C390.926 267.348 393.108 268.02 395.35 268.398C395.53 269.318 395.69 270.248 395.82 271.188C395.759 271.214 395.702 271.247 395.65 271.288C392.15 274.698 391.28 281.288 391.28 281.288L390.86 281.628C389.43 282.808 384.54 286.768 380.12 289.818C374.87 293.448 366.12 305.608 360 309.238C353.88 312.868 348.84 335.238 350.16 343.368C351.48 351.498 356.94 374.298 354.75 382.618C352.56 390.938 358.03 428.908 358.03 428.908C361.701 429.607 365.292 430.672 368.75 432.088L368.64 433.748L368.31 438.748C368.31 438.748 358.4 474.588 362.19 502.178C365.98 529.768 360.44 532.608 360.44 532.608C360.44 532.608 361.6 544.838 358.69 549.108C355.78 553.378 355.19 562.758 355.19 562.758C355.19 562.758 354.9 583.808 355.48 589.758C356.06 595.708 356.35 606.548 354.31 609.108C352.27 611.668 348.48 628.438 348.77 633.558C349.06 638.678 341.48 650.348 345.56 665.418C349.64 680.488 333.56 680.778 333.56 680.778C333.56 680.778 335.61 703.778 339.98 710.358L340.62 711.298C340.51 711.678 340.4 712.078 340.28 712.508C338.63 718.508 336.37 727.978 337.94 730.268C340.27 733.688 341.44 733.108 341.44 733.108L342.31 748.468C342.31 748.468 359.81 763.258 373.23 762.698C386.65 762.138 384.02 748.468 384.02 748.468L372.59 718.828L372.2 717.828L384.9 693.828C384.9 693.828 388.4 683.308 389.27 679.608C390.14 675.908 394.89 662.798 394.89 662.798C394.89 662.798 406.89 634.358 407.14 630.938C407.39 627.518 408.31 609.048 410.64 605.338C412.97 601.628 419.39 580.338 419.39 580.338L419.55 580.478C420.639 581.548 421.417 582.894 421.801 584.371C422.185 585.849 422.16 587.403 421.73 588.868C420.26 594.268 421.14 605.358 421.14 605.358C421.14 605.358 420.56 614.748 419.39 619.588C418.22 624.428 417.94 663.958 419.98 673.338C421.61 680.848 421.56 694.908 421.48 700.228C420.11 705.878 418.91 712.898 421.14 713.728C424.94 715.158 444.19 714.868 444.19 714.868C444.19 714.868 452.35 712.018 463.44 721.978C474.53 731.938 508.64 719.138 508.64 719.138C508.64 719.138 519.14 716.288 498.43 708.048C483.98 702.298 474.65 698.468 468.55 694.368C468.69 694.098 468.84 693.828 468.97 693.538C468.97 693.538 460.51 685.538 467.51 671.358C474.51 657.178 474.22 645.188 474.22 645.188L475.39 597.398L471.89 533.958L469.18 467.378L469.66 467.218C470.12 479.458 472.51 508.598 485.02 502.948C500.77 495.838 487.35 477.348 487.35 477.348L480.28 463.568L482.39 462.848L474.48 437.288C473.721 432.299 473.62 427.233 474.18 422.218C474.337 419.284 474.276 416.343 474 413.418C484.36 411.608 494.28 409.688 496.06 410.128C498.16 410.638 509.91 410.738 514.53 410.758C513.02 411.938 511.81 413.108 511.81 413.108L530.62 425.768C530.62 425.768 537 422.278 538.33 418.578C539.639 418.247 540.847 417.602 541.85 416.698C542.05 421.068 543.21 425.798 547.25 425.908C548.26 425.929 549.263 425.731 550.19 425.328L580.95 419.238L578.31 435.728L580.15 438.998C579.22 452.908 578.15 467.678 577.21 480.668L576.78 483.508L577 483.558C575.54 503.558 574.37 518.708 574.37 518.708C576.093 515.425 578.766 512.738 582.04 510.998L582.24 540.678C582.24 540.678 583.78 587.608 583.78 594.008C583.78 600.408 583.99 614.698 583.99 614.698C583.99 614.698 587.28 632.188 589.24 637.948C591.2 643.708 592.74 669.948 592.74 669.948C592.74 669.948 597.34 677.198 595.37 679.948C593.4 682.698 603.03 688.688 603.03 688.688C603.03 688.688 596.9 697.008 596.46 702.558C596.41 703.198 597.04 703.878 598.18 704.558C597.82 704.848 597.45 705.138 597.04 705.418C594.2 707.318 590.04 708.638 583.78 708.098C566.71 706.598 554.68 722.388 565.18 725.588C575.68 728.788 607.18 729.428 607.18 729.428C607.18 729.428 616.72 723.478 624.18 726.158C624.07 732.418 624.38 738.158 624.43 738.918L624.34 738.988C619.88 742.988 611.34 749.868 603 752.678C591 756.728 588.34 773.158 603.87 775.288C619.4 777.418 642.15 772.728 642.15 772.728C642.15 772.728 653.96 763.988 662.93 762.068C671.9 760.148 679.56 755.878 678.03 750.758C677.03 747.488 674.46 738.918 672.72 733.158C672.62 732.811 672.52 732.478 672.42 732.158C672.69 731.558 672.96 730.938 673.21 730.298C673.21 730.298 668.62 706.408 672.34 700.438C676.06 694.468 674.09 634.728 674.09 634.728C674.09 634.728 667.74 619.588 671.03 610.418C674.32 601.248 665.78 588.228 665.78 588.228C665.78 588.228 666.71 562.138 669.21 547.598C669.323 546.978 669.433 546.378 669.54 545.798C673.726 544.556 677.805 542.981 681.74 541.088C681.74 541.088 683.93 508.228 685.24 500.768C685.37 500.068 685.55 498.938 685.77 497.468L686.77 492.198L687.95 486.198L691.95 465.748L699.17 456.408L717.77 437.408C717.77 437.408 722.24 427.368 720.05 408.378ZM433.21 291.048L433.07 291.148C433.049 291.076 433.032 291.002 433.02 290.928C433.078 290.976 433.142 291.016 433.21 291.048V291.048ZM616.98 314.338L616.26 315.908L618.89 313.288L615.32 317.288L616.52 314.768L616.98 314.338ZM599.22 351.038C598.53 352.868 597.79 354.848 597.02 356.908L598.43 352.698L599.22 351.038Z"/><path fill="#585B8A" d="M541.83 410.868C541.83 410.868 539.38 427.178 546.73 427.388C554.08 427.598 558.99 414.808 558.99 414.808L555.99 404.578L541.83 410.868Z"/><path fill="#000" d="M541.83 410.868C541.83 410.868 539.38 427.178 546.73 427.388C554.08 427.598 558.99 414.808 558.99 414.808L555.99 404.578L541.83 410.868Z" opacity=".2"/><path fill="#636992" d="M377.2 763.912C364.12 764.482 347.06 749.702 347.06 749.702L346.21 734.352C346.21 734.352 345.08 734.922 342.8 731.512C341.27 729.222 343.47 719.732 345.08 713.762C345.86 710.842 346.5 708.762 346.5 708.762L375.2 716.442L376.57 720.072L387.71 749.692C387.71 749.692 390.27 763.342 377.2 763.912Z"/><path fill="#636992" d="M509.07 720.43C509.07 720.43 475.82 733.22 465.07 723.27C454.32 713.32 446.31 716.16 446.31 716.16C446.31 716.16 427.55 716.45 423.85 715.02C421.67 714.19 422.85 707.08 424.21 701.42C425.13 697.51 426.13 694.28 426.13 694.28C426.13 694.28 458.81 683.19 463.93 690.01C465.468 692.014 467.306 693.768 469.38 695.21C475.3 699.49 484.55 703.37 499.18 709.34C519.3 717.58 509.07 720.43 509.07 720.43Z"/><path fill="#FFD6D6" d="M479.23 460.641L488.32 478.831C488.32 478.831 501.4 497.311 486.05 504.411C470.7 511.511 470.99 463.491 470.99 463.491L479.23 460.641Z"/><path fill="#DCE6F2" d="M441.14 302.898C441.14 302.898 451.09 307.448 457.06 326.488C463.03 345.528 470.99 377.938 470.99 377.938C470.99 377.938 476.39 414.598 475.53 423.698C474.983 428.71 475.08 433.771 475.82 438.758L483.49 464.338L468.14 469.738L444.55 379.358L441.14 302.898Z"/><path fill="#000" d="M441.14 302.898C441.14 302.898 451.09 307.448 457.06 326.488C463.03 345.528 470.99 377.938 470.99 377.938C470.99 377.938 476.39 414.598 475.53 423.698C474.983 428.71 475.08 433.771 475.82 438.758L483.49 464.338L468.14 469.738L444.55 379.358L441.14 302.898Z" opacity=".05"/><path fill="#000" d="M375.2 716.451L376.57 720.081L374.89 723.291C368.35 726.131 352.15 723.861 352.15 723.861C352.15 723.861 349.15 720.051 345.05 713.781C345.83 710.861 346.47 708.781 346.47 708.781L375.2 716.451Z" opacity=".1"/><path fill="#000" d="M470.42 696.55C462.13 715.33 433.95 708.36 426.12 706.01C424.83 705.62 424.12 705.36 424.12 705.36C424.12 705.36 424.17 703.83 424.19 701.42C425.11 697.51 426.11 694.28 426.11 694.28C426.11 694.28 458.79 683.19 463.91 690.01C465.448 692.014 467.286 693.768 469.36 695.21C469.673 695.687 470.028 696.136 470.42 696.55V696.55Z" opacity=".1"/><path fill="#565988" d="M468.99 672.68C462.17 686.88 470.42 694.85 470.42 694.85C462.13 713.62 433.95 706.66 426.12 704.3C424.83 703.92 424.12 703.66 424.12 703.66C424.12 703.66 424.69 684.04 422.7 674.66C420.71 665.28 420.99 625.78 422.13 620.95C423.27 616.12 423.83 606.73 423.83 606.73C423.83 606.73 422.98 595.65 424.4 590.25C424.827 588.791 424.856 587.244 424.483 585.771C424.11 584.297 423.35 582.95 422.28 581.87L422.13 581.72C422.13 581.72 415.88 603.04 413.6 606.72C411.32 610.4 410.48 628.89 410.19 632.3C409.9 635.71 398.25 664.14 398.25 664.14C398.25 664.14 393.71 677.21 392.86 680.9C392.01 684.59 388.59 695.12 388.59 695.12L374.89 721.56C368.35 724.4 352.15 722.13 352.15 722.13C352.15 722.13 349.03 718.13 344.76 711.61C340.49 705.09 338.51 682.06 338.51 682.06C338.51 682.06 354.14 681.77 350.16 666.71C346.18 651.65 353.57 639.99 353.29 634.87C353.01 629.75 356.7 612.99 358.69 610.43C360.68 607.87 360.39 597.07 359.82 591.1C359.25 585.13 359.54 564.1 359.54 564.1C359.54 564.1 360.11 554.72 362.95 550.46C365.79 546.2 364.66 533.97 364.66 533.97C364.66 533.97 370.05 531.13 366.36 503.56C362.67 475.99 372.36 440.18 372.36 440.18L372.69 435.18L373.21 427.08C373.21 427.08 454.5 421.96 461.04 428.21C462.75 429.945 464.153 431.956 465.19 434.16C467.427 438.97 469.008 444.059 469.89 449.29L473.3 535.41L476.71 598.79L475.57 646.54C475.57 646.54 475.82 658.46 468.99 672.68Z"/><path fill="#000" d="M444.89 502.711L436.36 687.451L426.12 704.291C424.83 703.911 424.12 703.651 424.12 703.651C424.12 703.651 424.69 684.031 422.7 674.651C420.71 665.271 420.99 625.771 422.13 620.941C423.27 616.111 423.83 606.721 423.83 606.721C423.83 606.721 422.98 595.641 424.4 590.241C424.827 588.782 424.856 587.235 424.483 585.762C424.11 584.288 423.35 582.941 422.28 581.861L422.42 580.861L444.89 502.711Z" opacity=".1"/><path fill="#000" d="M353.03 701.1C353.03 701.1 375.2 692.29 378.61 695.1C382.02 697.91 352.47 702.2 352.47 702.2L353.03 701.1Z" opacity=".1"/><path fill="#000" d="M462.46 677.789C461.61 678.079 440.01 685.789 442 693.989C443.99 702.189 462.46 677.789 462.46 677.789Z" opacity=".1"/><path fill="#FFD6D6" d="M394.96 257.289C394.96 257.289 402.2 274.769 398.37 283.729C394.54 292.689 439.72 308.029 439.72 308.029C439.72 308.029 426.51 273.919 439.3 254.729C452.09 235.539 394.96 257.289 394.96 257.289Z"/><path fill="#505484" d="M659.5 763.342C650.76 765.262 639.25 774.002 639.25 774.002C639.25 774.002 617.08 778.692 601.94 776.562C586.8 774.432 589.37 758.012 601.09 753.962C609.22 751.162 617.55 744.252 621.9 740.292C623.82 738.522 624.96 737.292 624.96 737.292L667.39 728.762C667.39 728.762 668.08 731.132 669.04 734.402C670.74 740.172 673.25 748.732 674.21 751.992C675.7 757.162 668.24 761.422 659.5 763.342Z"/><path fill="#505484" d="M648.63 730.509C648.63 730.509 630.72 732.429 623.26 728.169C615.8 723.909 605.14 730.729 605.14 730.729C605.14 730.729 574.44 730.089 564.21 726.889C553.98 723.689 565.7 707.889 582.33 709.409C588.39 709.959 592.49 708.629 595.26 706.729C598.154 704.746 600.17 701.722 600.89 698.289L636.89 700.419L641.89 713.179L648.63 730.509Z"/><path fill="#000" d="M642.44 718.999C642.44 718.999 600.6 712.159 595.26 706.729C598.154 704.746 600.17 701.722 600.89 698.289L636.89 700.419L641.89 713.179L642.44 718.999Z" opacity=".1"/><path fill="#575988" d="M580.41 479.622L580.84 542.072C580.84 542.072 582.33 588.972 582.33 595.372C582.33 601.772 582.54 616.042 582.54 616.042C582.54 616.042 585.74 633.522 587.66 639.282C589.58 645.042 591.07 671.282 591.07 671.282C591.07 671.282 595.55 678.532 593.63 681.282C591.71 684.032 601.09 690.022 601.09 690.022C601.09 690.022 595.09 698.342 594.7 703.882C594.31 709.422 642.44 717.292 642.44 717.292L623.69 525.022L608.76 476.852L580.41 479.622Z"/><path fill="#000" d="M580.41 479.622L580.84 542.072C580.84 542.072 582.33 588.972 582.33 595.372C582.33 601.772 582.54 616.042 582.54 616.042C582.54 616.042 585.74 633.522 587.66 639.282C589.58 645.042 591.07 671.282 591.07 671.282C591.07 671.282 595.55 678.532 593.63 681.282C591.71 684.032 601.09 690.022 601.09 690.022C601.09 690.022 595.09 698.342 594.7 703.882C594.31 709.422 642.44 717.292 642.44 717.292L623.69 525.022L608.76 476.852L580.41 479.622Z" opacity=".1"/><path fill="#000" d="M669.04 734.452C655.11 767.662 621.98 742.032 621.98 742.032C621.98 742.032 621.98 741.392 621.9 740.292C623.82 738.522 624.96 737.292 624.96 737.292L667.39 728.762C667.39 728.762 668.08 731.182 669.04 734.452Z" opacity=".1"/><path fill="#575988" d="M669.52 731.582C655.87 766.582 621.98 740.322 621.98 740.322C621.98 740.322 620.91 722.202 623.05 713.892C625.19 705.582 620.7 680.632 620.7 680.632C620.7 680.632 618.14 658.462 615.8 653.352C613.46 648.242 613.67 638.002 613.67 637.152C613.67 636.302 614.52 629.472 612.6 624.782C610.68 620.092 609.6 608.582 609.6 608.582C609.6 608.582 609.6 592.382 607.68 582.792L601.07 549.792L589.13 482.212L592.86 481.572L659.69 469.852C659.69 469.852 672.27 533.852 668 540.412C667.08 541.852 666.27 545.002 665.6 549.062C663.16 563.582 662.25 589.652 662.25 589.652C662.25 589.652 670.56 602.652 667.37 611.822C664.18 620.992 670.37 636.122 670.37 636.122C670.37 636.122 672.29 695.812 668.66 701.782C665.03 707.752 669.52 731.582 669.52 731.582Z"/><path fill="#D28690" d="M663.12 295.229C663.12 295.229 602.58 337.859 616.22 316.539C623.57 305.059 622.22 290.439 619.34 279.399C617.884 273.784 615.874 268.327 613.34 263.109C613.34 263.109 664.78 241.229 657.96 260.839C656.362 265.408 655.682 270.247 655.96 275.079C656.369 282.343 658.854 289.337 663.12 295.229V295.229Z"/><path fill="#D28690" d="M554.12 392.861C554.12 392.861 528.54 385.471 524.28 392.721C520.02 399.971 525.56 415.881 533.28 418.441C541 421.001 558.72 409.771 558.72 409.771L554.12 392.861Z"/><path fill="#585B8A" d="M583.4 380.289L572.74 390.099C572.74 390.099 554.19 391.799 548.86 390.519C548.86 390.519 553.77 423.349 546.73 427.399L589.79 418.659L583.4 380.289Z"/><path fill="#000" d="M583.4 380.289L572.74 390.099C572.74 390.099 554.19 391.799 548.86 390.519C548.86 390.519 553.77 423.349 546.73 427.399L589.79 418.659L583.4 380.289Z" opacity=".1"/><path fill="#000" d="M446.54 239.382C446.54 247.869 443.169 256.008 437.168 262.009C431.166 268.01 423.027 271.382 414.54 271.382C398.12 263.492 382.54 257.072 382.54 239.382C382.37 235.076 383.071 230.781 384.601 226.753C386.131 222.725 388.459 219.048 391.445 215.941C394.431 212.835 398.013 210.364 401.978 208.676C405.942 206.987 410.206 206.117 414.515 206.117C418.824 206.117 423.088 206.987 427.053 208.676C431.017 210.364 434.599 212.835 437.585 215.941C440.571 219.048 442.899 222.725 444.429 226.753C445.959 230.781 446.66 235.076 446.49 239.382H446.54Z" opacity=".1"/><path fill="#FFD6D6" d="M446.54 238.521C446.545 246.047 443.892 253.333 439.05 259.094C434.207 264.854 427.486 268.72 420.072 270.009C412.657 271.299 405.026 269.928 398.523 266.14C392.02 262.352 387.064 256.39 384.528 249.304C381.992 242.218 382.04 234.465 384.662 227.411C387.285 220.357 392.314 214.456 398.863 210.748C405.412 207.04 413.059 205.763 420.458 207.143C427.856 208.523 434.529 212.472 439.3 218.291C443.973 223.999 446.531 231.145 446.54 238.521V238.521Z"/><path fill="#000" d="M465.19 434.191C462.024 436.157 458.711 437.876 455.28 439.331C455.28 439.331 439.08 436.981 436.74 439.751C434.4 442.521 413.74 443.591 413.74 443.591C413.74 443.591 382.19 442.101 377.5 438.051C376.05 436.877 374.436 435.92 372.71 435.211L373.23 427.111C373.23 427.111 454.52 421.991 461.06 428.241C462.762 429.977 464.159 431.989 465.19 434.191Z" opacity=".1"/><path fill="#DCE6F2" d="M469.14 428.459C468.5 432.079 455.28 437.619 455.28 437.619C455.28 437.619 439.08 435.279 436.74 438.049C434.4 440.819 413.74 441.889 413.74 441.889C413.74 441.889 382.19 440.389 377.5 436.339C372.81 432.289 362.36 430.339 362.36 430.339C362.36 430.339 357.03 392.399 359.17 384.089C361.31 375.779 355.97 352.959 354.69 344.859C353.41 336.759 358.31 314.379 364.28 310.759C370.25 307.139 378.78 294.979 383.89 291.359C388.2 288.309 392.96 284.359 394.35 283.169L394.76 282.829C394.76 282.829 395.62 276.219 399.03 272.829C402.44 269.439 433.77 294.359 433.77 294.359C433.77 294.359 433.99 296.279 436.12 292.659C436.6 291.849 440.73 297.809 441.45 300.329C441.45 300.329 458.5 330.179 459.57 336.329C460.64 342.479 465.11 362.549 465.96 367.449C466.18 368.709 466.54 373.129 466.96 379.049C467.04 380.209 467.11 381.439 467.2 382.719C467.83 392.539 468.51 405.079 468.92 414.559C468.92 415.639 469.01 416.679 469.04 417.679C469.256 421.268 469.289 424.866 469.14 428.459V428.459Z"/><path fill="#000" d="M360.89 351.5C360.89 351.5 372.61 365.78 376.45 365.78C380.29 365.78 360.89 351.5 360.89 351.5Z" opacity=".1"/><path fill="#000" d="M385.58 382.199C385.58 382.199 366.39 403.089 368.95 406.929C371.51 410.769 385.58 382.199 385.58 382.199Z" opacity=".1"/><path fill="#000" d="M371.51 423.771C371.51 423.771 393.51 399.681 394.51 391.371L371.51 423.771Z" opacity=".1"/><path fill="#000" d="M399.22 425.47C399.22 425.47 424.59 412.04 426.72 401.38C428.85 390.72 399.22 425.47 399.22 425.47Z" opacity=".1"/><path fill="#000" d="M431.41 295.87L427.89 304.39L433.75 307.16L439.51 323.26C439.51 323.26 455.39 355.02 454.75 371.54C454.11 388.06 457.63 412.89 457.63 412.89L466.79 411.19L462.47 362.6C461.797 355.077 459.913 347.712 456.89 340.79C449.57 324.03 435.95 293.09 435.09 293.09C433.92 293.09 434.74 293.52 434.74 293.52L431.41 295.87Z" opacity=".1"/><path fill="#575989" d="M432.26 295.008L428.74 303.538L434.61 306.308L440.36 322.408C440.36 322.408 456.24 354.168 455.6 370.688C454.96 387.208 458.48 412.038 458.48 412.038L467.65 410.338L463.32 361.748C462.655 354.225 460.774 346.859 457.75 339.938C450.43 323.168 436.81 292.238 435.96 292.238C434.78 292.238 435.6 292.668 435.6 292.668L432.26 295.008Z"/><path fill="#FFD6D6" d="M536.07 420.291C531.61 419.951 520.91 414.541 516.66 412.291L514.86 411.291L515.08 394.781C516.131 394.163 517.22 393.612 518.34 393.131C524.02 390.651 535.67 387.281 541.51 398.131C549.39 412.681 541.72 420.671 536.07 420.291Z"/><path fill="#000" d="M439.3 218.29C438.842 218.577 438.338 218.783 437.81 218.9C434.1 219.71 429.88 216.52 426.7 218.57C424.76 219.83 424.31 222.44 424.05 224.74C423.597 228.74 423.143 232.713 422.69 236.66C422.595 238.065 422.298 239.449 421.81 240.77C420.24 244.36 415.93 246.05 412 245.99C410.46 246.099 408.94 245.596 407.77 244.59C407.08 243.89 406.71 242.91 405.95 242.27C400.95 238.08 399.43 248.35 400.75 251.27C402.87 256.04 410.4 260.64 407.24 266.7C406.708 267.685 405.903 268.494 404.92 269.03C400.158 267.538 395.811 264.954 392.225 261.483C388.64 258.012 385.916 253.751 384.272 249.04C382.627 244.329 382.107 239.298 382.753 234.35C383.399 229.402 385.193 224.673 387.992 220.542C390.791 216.411 394.517 212.992 398.873 210.558C403.23 208.124 408.095 206.742 413.08 206.523C418.065 206.304 423.032 207.254 427.585 209.297C432.138 211.34 436.15 214.42 439.3 218.29Z" opacity=".1"/><path fill="#353045" d="M405.1 242.229C405.85 242.859 406.23 243.839 406.92 244.539C408.091 245.544 409.611 246.047 411.15 245.939C415.08 245.999 419.39 244.319 420.95 240.709C421.447 239.394 421.747 238.012 421.84 236.609L423.2 224.689C423.46 222.389 423.9 219.779 425.85 218.519C429.03 216.519 433.25 219.659 436.96 218.849C438.297 218.509 439.455 217.673 440.198 216.51C440.941 215.347 441.213 213.945 440.96 212.589C440.53 210.679 439.07 209.169 438.32 207.349C437.865 205.95 437.501 204.524 437.23 203.079C435.16 195.319 426.05 190.959 418.13 192.259C413.73 192.989 409.64 195.089 405.23 195.729C402.07 196.189 398.84 195.889 395.65 196.229C392.686 196.535 389.804 197.386 387.15 198.739C386.453 199.047 385.837 199.513 385.35 200.099C384.897 200.89 384.592 201.758 384.45 202.659C383.38 206.659 379.94 209.609 377.45 212.979C374.602 216.856 372.954 221.484 372.71 226.289C372.612 227.516 372.727 228.751 373.05 229.939C373.26 230.639 373.59 231.319 373.75 232.039C374.24 234.229 373.12 236.419 372.57 238.599C371.887 241.381 372.132 244.31 373.27 246.939C377.11 255.769 389.76 258.719 392.39 267.989C394.725 269.109 397.248 269.787 399.83 269.989C402.41 270.039 405.19 268.929 406.39 266.639C409.54 260.639 402.02 255.979 399.9 251.219C398.57 248.289 400.06 238.029 405.1 242.229Z"/><path fill="#000" d="M658.01 260.839C656.412 265.408 655.732 270.247 656.01 275.079C654.47 276.389 652.79 272.469 651.01 273.479C646.13 276.299 640.49 283.009 634.45 283.009C629.212 283.013 624.048 281.776 619.38 279.399C617.924 273.784 615.914 268.327 613.38 263.109C613.38 263.109 664.83 241.229 658.01 260.839Z" opacity=".1"/><path fill="#D28690" d="M667.67 248.049C667.67 254.627 665.719 261.058 662.065 266.527C658.41 271.997 653.215 276.26 647.138 278.777C641.06 281.295 634.373 281.953 627.921 280.67C621.469 279.387 615.543 276.219 610.892 271.567C606.24 266.916 603.072 260.99 601.789 254.538C600.506 248.086 601.164 241.398 603.682 235.321C606.199 229.244 610.462 224.049 615.932 220.394C621.401 216.74 627.832 214.789 634.41 214.789C638.778 214.788 643.104 215.647 647.14 217.318C651.175 218.989 654.842 221.439 657.931 224.528C661.02 227.617 663.47 231.284 665.141 235.319C666.812 239.355 667.671 243.681 667.67 248.049Z"/><path fill="#F0F3F7" d="M666.25 302.619C666.25 302.619 659.99 309.439 659.14 309.999C658.29 310.559 640.14 386.999 639.82 387.889C639.5 388.779 618.21 457.799 618.21 457.799L584.1 474.569L586.95 390.149L611.95 320.529C611.95 320.529 620.2 311.149 622.75 307.739C625.3 304.329 657.14 283.859 657.14 283.859L662.58 295.069L666.25 302.619Z"/><path fill="#000" d="M661.74 296.78L622.52 324.86L621.89 309.44C624.45 306.03 656.28 285.57 656.28 285.57L661.74 296.78Z" opacity=".1"/><path fill="#F0F3F7" d="M662.59 295.069L623.37 323.149L622.76 307.739C625.32 304.319 657.15 283.859 657.15 283.859L662.59 295.069Z"/><path fill="#585B8A" d="M621.45 300.879L622.76 307.739L613.99 316.649L620.99 300.979C620.99 300.979 605.99 311.429 601.49 314.199C596.99 316.969 592.49 326.349 592.32 328.909C592.15 331.469 585.07 370.049 585.07 370.049C585.07 370.049 579.74 384.329 581.24 388.379C582.74 392.429 573.14 520.119 573.14 520.119C574.423 517.639 576.238 515.473 578.453 513.774C580.669 512.075 583.232 510.885 585.96 510.289L582.54 434.829C582.54 434.829 586.7 384.629 586.91 383.989C587.12 383.349 596.61 354.249 596.61 354.249L621.45 300.879Z"/><path fill="#000" d="M623.62 308.59L622.94 322.59C622.94 322.59 613.45 352.54 610.26 357.44C607.07 362.34 597.36 391.55 597.36 391.55L591.89 442.29L582.51 446.56L577.89 438.05L585.57 389.05C585.57 389.05 600.06 347.7 602.2 343.43L612.89 320.91L623.62 308.59Z" opacity=".1"/><path fill="#663D5C" d="M622.76 307.738L622.09 321.738C622.09 321.738 612.6 351.688 609.4 356.588C606.2 361.488 596.51 390.698 596.51 390.698L591.07 441.428L581.69 445.688L577 437.168L584.68 388.168C584.68 388.168 599.17 346.808 601.3 342.548L612.07 320.058L622.76 307.738Z"/><path fill="#D28690" d="M512.2 414.599L530.53 427.289C530.53 427.289 543.46 420.039 535.93 415.349C528.4 410.659 521.72 409.949 519.3 409.949C516.88 409.949 512.2 414.599 512.2 414.599Z"/><path fill="#D28690" d="M525.89 391.14C525.481 391.394 525.144 391.749 524.911 392.171C524.678 392.593 524.557 393.068 524.56 393.55C524.56 397.44 525 407.74 528.26 403.09C532.26 397.4 531.53 392.29 537.64 395.98C541.438 398.345 544.761 401.397 547.44 404.98L545.74 392.76C545.74 392.76 533.18 386.56 525.89 391.14Z"/><path fill="#000" d="M668.02 540.369C667.1 541.809 666.29 544.959 665.62 549.019C628.24 560.229 600.89 536.529 600.89 536.529C597.581 525.315 594.877 513.932 592.79 502.429C592.12 498.489 592.27 490.849 592.89 481.529L659.72 469.809C659.72 469.809 672.29 533.759 668.02 540.369Z" opacity=".1"/><path fill="#585B8A" d="M706.39 349.582C704.69 355.132 705.33 366.422 705.33 366.422L689.98 438.902C689.98 438.902 682.52 494.752 681.24 502.212C679.96 509.672 677.83 542.502 677.83 542.502C634.34 563.822 600.83 534.832 600.83 534.832C597.522 523.615 594.818 512.229 592.73 500.722C590.59 488.062 596.89 437.342 599.87 414.812C600.76 408.142 601.36 403.942 601.36 403.942L612.55 362.372C612.55 362.372 626.3 327.302 631.42 317.072C636.54 306.842 657.1 283.862 657.1 283.862C659.65 282.242 663.73 287.962 666.76 293.172C669.05 297.112 670.76 300.772 670.76 300.772C670.76 300.772 696.34 311.852 700.17 317.772C704 323.692 703.37 335.892 703.8 336.532C704.23 337.172 708.1 344.042 706.39 349.582Z"/><path fill="#000" d="M646.07 323.789C646.07 323.789 647.99 335.089 643.07 338.499C638.32 341.799 602.96 411.329 600.76 415.669C601.65 408.989 602.25 404.789 602.25 404.789L613.44 363.229C613.44 363.229 627.2 328.159 632.31 317.919C637.42 307.679 658 284.709 658 284.709C660.55 283.089 664.62 288.809 667.65 294.019C663.08 303.509 653.55 321.449 646.07 323.789Z" opacity=".1"/><path fill="#585B8A" d="M645.22 322.942C645.22 322.942 647.13 334.242 642.22 337.652C637.31 341.062 602.12 410.472 599.89 414.812C600.78 408.142 601.38 403.942 601.38 403.942L612.57 362.372C612.57 362.372 626.32 327.302 631.44 317.072C636.56 306.842 657.12 283.862 657.12 283.862C659.67 282.242 663.75 287.962 666.78 293.172C662.23 302.652 652.69 320.602 645.22 322.942Z"/><path fill="#646ECB" d="M695.95 425.048L683.92 487.638V487.648L682.77 493.638V493.648L680.18 507.118L669.13 504.778L663.98 503.688L592.71 488.588L587.47 487.478L575.51 484.948L577.85 469.408L578.82 462.948L587.45 405.648L695.95 425.048Z"/><path fill="#D28690" d="M629.44 476.211C629.44 476.211 601.09 486.441 607.27 498.591C613.45 510.741 653.1 489.211 653.1 489.211L629.44 476.211Z"/><path fill="#000" d="M649.69 563.391C649.69 564.241 650.76 575.121 655.02 578.951C659.28 582.781 649.69 563.391 649.69 563.391Z" opacity=".1"/><path fill="#000" d="M621.13 601.969C621.13 601.969 626.24 616.039 646.49 621.799C666.74 627.559 621.13 601.969 621.13 601.969Z" opacity=".1"/><path fill="#000" d="M667.67 248.05C667.672 253.897 666.131 259.641 663.205 264.703C660.278 269.764 656.068 273.965 651 276.88C649.09 275.811 647.395 274.397 646 272.71C644.55 270.95 643.42 268.55 644.29 266.45C644.99 264.76 646.84 263.69 647.29 261.94C647.502 260.87 647.447 259.764 647.13 258.72C646.76 257.07 646.41 255.42 646.05 253.78C645.74 252.38 645.19 250.73 643.8 250.39C642.41 250.05 641.25 251.21 640.16 252.07C637.49 254.18 632.37 255.61 629.16 253.88C625.95 252.15 626.85 246.36 626.33 243.23C626.324 242.958 626.258 242.691 626.137 242.447C626.016 242.204 625.843 241.99 625.63 241.82C625.163 241.665 624.664 241.631 624.18 241.72C622.45 241.72 621.06 240.17 620.56 238.51C620.206 236.815 620.012 235.091 619.98 233.36C619.79 231.63 619.16 229.8 617.68 228.91C616.498 228.36 615.186 228.145 613.89 228.29L607.62 228.36C611.78 222.737 617.606 218.568 624.271 216.446C630.936 214.324 638.1 214.358 644.745 216.542C651.39 218.726 657.177 222.949 661.284 228.611C665.391 234.273 667.608 241.086 667.62 248.08L667.67 248.05Z" opacity=".1"/><path fill="#663D5C" d="M641.05 252.071C642.14 251.211 643.34 250.071 644.69 250.401C646.04 250.731 646.62 252.401 646.93 253.781L648.01 258.711C648.33 259.757 648.388 260.866 648.18 261.941C647.67 263.701 645.83 264.761 645.12 266.451C644.25 268.551 645.39 270.951 646.83 272.701C649.457 275.866 653.088 278.037 657.12 278.851C658.173 279.104 659.267 279.128 660.33 278.921C662.71 278.371 664.33 276.181 665.61 274.131C672.22 263.831 677.91 252.541 679.07 240.361C679.388 237.876 679.273 235.356 678.73 232.911C678.188 231.01 677.423 229.181 676.45 227.461C674.748 223.946 672.586 220.674 670.02 217.731C665.47 212.831 659.19 209.821 652.74 208.041C645.485 206.028 637.91 205.433 630.43 206.291C628.43 206.521 626.51 206.851 624.54 206.981C622.067 207.096 619.588 207.056 617.12 206.861L602.4 205.981C601.56 207.691 602.4 209.721 603.4 211.321C604.4 212.921 605.64 214.581 605.56 216.481C605.48 218.381 604.13 219.881 603.09 221.481C602.05 223.081 601.26 225.151 602.3 226.711C603.34 228.271 605.46 228.371 607.3 228.351L614.72 228.271C616.013 228.138 617.317 228.363 618.49 228.921C619.97 229.811 620.6 231.651 620.79 233.371C620.832 235.101 621.026 236.824 621.37 238.521C621.88 240.181 623.26 241.751 624.99 241.731C625.474 241.634 625.976 241.672 626.44 241.841C626.652 242.008 626.825 242.221 626.946 242.463C627.067 242.705 627.133 242.97 627.14 243.241C627.66 246.371 626.7 252.151 629.97 253.891C633.24 255.631 638.38 254.181 641.05 252.071Z"/><path fill="#000" d="M683.32 317.759C679.643 317.369 675.943 318.24 672.827 320.23C669.71 322.219 667.363 325.209 666.17 328.709C662.17 340.099 655.5 360.649 657.17 368.769C659.52 380.279 662.29 399.469 662.29 399.469C662.29 399.469 674.44 406.469 668.29 413.529C662.14 420.589 660.4 430.589 660.4 430.589C660.4 430.589 652.51 433.999 650.81 441.249C649.11 448.499 637.59 458.509 637.59 458.509L620.33 475.779C620.33 475.779 648.89 504.779 654.65 506.259L672.34 485.579L693.23 457.869L711.35 438.869C711.35 438.869 715.61 428.869 713.48 409.869C711.35 390.869 703.03 372.779 703.03 372.779L703.67 366.379C703.67 366.379 705.63 320.529 683.32 317.759Z" opacity=".1"/><path fill="#585B8A" d="M685.02 317.761C681.346 317.375 677.651 318.249 674.539 320.238C671.426 322.228 669.082 325.215 667.89 328.711C663.89 340.101 657.22 360.651 658.89 368.771C661.23 380.281 664 399.471 664 399.471C664 399.471 676.15 406.471 670 413.531C663.85 420.591 662.12 430.591 662.12 430.591C662.12 430.591 654.23 434.001 652.52 441.251C650.81 448.501 639.31 458.511 639.31 458.511L622.04 475.781C622.04 475.781 650.6 504.781 656.36 506.261L674.05 485.581L694.89 457.871L713.01 438.871C713.01 438.871 717.28 428.871 715.14 409.871C713 390.871 704.7 372.781 704.7 372.781L705.34 366.381C705.34 366.381 707.33 320.531 685.02 317.761Z"/><path fill="#000" d="M667.17 382.629C667.17 382.629 685.29 404.789 692.97 399.889C700.65 394.989 667.17 382.629 667.17 382.629Z" opacity=".1"/><path fill="#000" d="M673.99 365.57C675.91 366.21 691.69 388.17 699.79 385.57C707.89 382.97 673.99 365.57 673.99 365.57Z" opacity=".1"/><path fill="#000" d="M678.47 403.289C678.47 403.289 679.54 415.869 692.54 414.159C705.54 412.449 678.47 403.289 678.47 403.289Z" opacity=".1"/><path fill="#000" d="M621.02 301.828L613.99 317.498L622.77 308.588L621.02 301.828Z" opacity=".1"/><path fill="#F0F3F7" d="M621.02 300.98L613.99 316.65L622.77 307.74L621.02 300.98Z"/><path fill="#000" d="M592.71 488.589L587.47 487.479L577.85 469.409L578.82 462.949L592.71 488.589Z" opacity=".3"/><path fill="#000" d="M683.92 487.648L682.77 493.638V493.648L669.13 504.778L663.98 503.688L683.92 487.648Z" opacity=".3"/><path fill="#000" d="M469.01 417.72C466.37 418.16 463.81 418.56 461.47 418.86C448.47 420.57 417.55 405.22 417.55 405.22C417.55 405.22 379.82 373.67 368.95 343.83C358.08 313.99 381.95 309.51 381.95 309.51C390.95 304.39 410.52 318.67 413.29 321.02C416.06 323.37 418.41 329.33 418.19 333.17C417.97 337.01 424.59 341.91 424.59 341.91C424.59 341.91 435.89 361.52 438.66 363.65C441.43 365.78 442.07 367.7 442.92 371.33C443.77 374.96 451.23 377.94 454.43 377.72C457.63 377.5 461.43 378.79 461.43 380.49C461.43 381.86 464.56 382.54 467.13 382.76C467.89 393.69 468.64 408.01 469.01 417.72Z" opacity=".1"/><path fill="#000" d="M468.89 414.6C466.89 414.92 464.97 415.21 463.17 415.45C450.17 417.16 419.26 401.81 419.26 401.81C419.26 401.81 381.53 370.26 370.66 340.42C359.79 310.58 383.66 306.1 383.66 306.1C392.66 300.98 412.22 315.26 414.99 317.61C417.76 319.96 420.11 325.92 419.9 329.76C419.69 333.6 426.29 338.5 426.29 338.5C426.29 338.5 437.59 358.11 440.36 360.24C443.13 362.37 443.77 364.29 444.63 367.92C445.49 371.55 452.94 374.52 456.14 374.31C459.34 374.1 463.14 375.38 463.14 377.08C463.14 378.08 464.92 378.75 466.9 379.08C466.98 380.24 467.05 381.47 467.14 382.75C467.8 392.58 468.48 405.12 468.89 414.6Z" opacity=".1"/><path fill="#000" d="M518.34 393.129L517.53 412.289H516.66L514.86 411.289L515.08 394.779C516.131 394.161 517.22 393.61 518.34 393.129V393.129Z" opacity=".1"/><path fill="#DCE6F2" d="M381.95 307.8C381.95 307.8 358.08 312.28 368.95 342.12C379.82 371.96 417.55 403.52 417.55 403.52C417.55 403.52 448.46 418.86 461.47 417.16C474.48 415.46 494.29 410.98 496.85 411.62C499.41 412.26 516.68 412.26 516.68 412.26L517.53 392.26L497.53 391.19L487.3 389.06C487.3 389.06 483.67 386.06 481.54 386.5C479.41 386.94 474.94 383.94 474.94 383.94C474.94 383.94 471.52 381.17 468.94 381.17C466.36 381.17 461.48 380.53 461.48 378.83C461.48 377.13 457.64 375.83 454.48 376.06C451.32 376.29 443.77 373.29 442.89 369.62C442.01 365.95 441.4 364.08 438.63 361.95C435.86 359.82 424.56 340.2 424.56 340.2C424.56 340.2 417.95 335.3 418.16 331.47C418.37 327.64 416.03 321.66 413.26 319.31C410.49 316.96 390.89 302.69 381.95 307.8Z"/><path fill="#000" d="M443.35 376.441C443.35 376.441 434.18 385.611 436.52 387.311L443.35 376.441Z" opacity=".1"/><path fill="#000" d="M453.15 383.691C453.15 383.691 441.21 392.861 444.41 393.501C447.61 394.141 453.15 383.691 453.15 383.691Z" opacity=".1"/><path fill="#000" d="M432.89 397.289C434.6 398.149 459.96 413.289 469.56 413.069L432.89 397.289Z" opacity=".1"/><path fill="#000" d="M434.61 296.081C434.61 296.081 430.13 310.791 428.42 310.791C427.08 310.791 404.58 292.571 395.19 284.911L395.6 284.571C395.6 284.571 396.45 277.961 399.86 274.571C403.27 271.181 434.61 296.081 434.61 296.081Z" opacity=".1"/><path fill="#DCE6F2" d="M433.75 294.37C433.75 294.37 429.28 309.08 427.57 309.08C426.22 309.08 403.72 290.86 394.33 283.2L394.74 282.86C394.74 282.86 395.6 276.25 399.01 272.86C402.42 269.47 433.75 294.37 433.75 294.37Z"/><g opacity=".15"><path fill="#000" d="M373.38 246.832C376.38 253.682 384.64 257.002 389.43 262.462C386.58 255.752 378.25 252.462 373.38 246.832Z" opacity=".15"/><path fill="#000" d="M403.95 262.612C402.76 264.902 399.95 266.012 397.39 265.962C395.114 265.799 392.885 265.23 390.81 264.282C391.563 265.392 392.136 266.614 392.51 267.902C394.844 269.024 397.367 269.702 399.95 269.902C402.54 269.962 405.32 268.852 406.51 266.552C408.42 262.902 406.43 259.782 404.1 256.832C404.534 257.739 404.747 258.735 404.721 259.74C404.695 260.745 404.43 261.729 403.95 262.612V262.612Z" opacity=".15"/><path fill="#000" d="M441.06 212.49C440.63 210.57 439.17 209.06 438.42 207.25C437.961 205.85 437.597 204.42 437.33 202.97C436.762 200.921 435.709 199.038 434.26 197.48C434.461 197.973 434.632 198.477 434.77 198.99C435.05 200.446 435.424 201.883 435.89 203.29C436.64 205.1 438.1 206.61 438.53 208.53C438.783 209.887 438.511 211.289 437.768 212.452C437.025 213.614 435.867 214.451 434.53 214.79C430.83 215.6 426.61 212.4 423.43 214.46C421.48 215.71 421.03 218.32 420.77 220.62C420.323 224.62 419.87 228.597 419.41 232.55C419.32 233.953 419.023 235.334 418.53 236.65C416.96 240.25 412.65 241.94 408.72 241.88C407.184 241.983 405.67 241.481 404.5 240.48C403.931 239.675 403.321 238.901 402.67 238.16C397.67 233.96 396.15 244.23 397.47 247.16C398.131 248.479 398.95 249.711 399.91 250.83C398.81 247.53 400.35 238.03 405.23 242.1C405.88 242.838 406.488 243.613 407.05 244.42C408.224 245.419 409.742 245.921 411.28 245.82C415.21 245.88 419.52 244.19 421.09 240.59C421.584 239.271 421.881 237.886 421.97 236.48C422.423 232.48 422.877 228.507 423.33 224.56C423.59 222.26 424.04 219.65 425.98 218.4C429.17 216.34 433.39 219.54 437.09 218.72C438.417 218.377 439.564 217.543 440.301 216.387C441.037 215.231 441.309 213.838 441.06 212.49V212.49Z" opacity=".15"/></g><path fill="#000" d="M662.46 276.372C661.396 276.57 660.303 276.543 659.25 276.292C655.223 275.478 651.596 273.312 648.97 270.152C647.52 268.392 646.38 265.992 647.26 263.892C647.96 262.202 649.8 261.142 650.26 259.382C650.468 258.307 650.41 257.198 650.09 256.152L649.01 251.222C648.7 249.822 648.16 248.172 646.77 247.842C645.38 247.512 644.22 248.652 643.13 249.512C640.46 251.622 635.33 253.062 632.13 251.322C628.93 249.582 629.82 243.802 629.3 240.672C629.291 240.402 629.224 240.137 629.104 239.895C628.983 239.653 628.811 239.441 628.6 239.272C628.131 239.109 627.628 239.071 627.14 239.162C625.41 239.162 624.03 237.612 623.52 235.952C623.173 234.256 622.983 232.532 622.95 230.802C622.75 229.082 622.13 227.242 620.64 226.352C619.465 225.799 618.162 225.574 616.87 225.702L609.45 225.782C607.62 225.782 605.45 225.662 604.45 224.142C603.45 222.622 604.19 220.462 605.24 218.912C606.29 217.362 607.62 215.822 607.71 213.912C607.8 212.002 606.56 210.352 605.55 208.752C604.971 207.877 604.545 206.91 604.29 205.892L602.16 205.762C601.33 207.462 602.16 209.492 603.16 211.102C604.16 212.712 605.41 214.362 605.32 216.252C605.23 218.142 603.9 219.662 602.85 221.252C601.8 222.842 601.03 224.922 602.07 226.482C603.11 228.042 605.22 228.152 607.07 228.132L614.49 228.042C615.783 227.917 617.086 228.145 618.26 228.702C619.75 229.592 620.38 231.432 620.57 233.152C620.602 234.883 620.796 236.607 621.15 238.302C621.65 239.952 623.04 241.532 624.77 241.502C625.255 241.416 625.754 241.454 626.22 241.612C626.432 241.782 626.604 241.997 626.725 242.24C626.846 242.483 626.912 242.75 626.92 243.022C627.44 246.142 626.48 251.932 629.75 253.672C633.02 255.412 638.12 253.972 640.75 251.862C641.84 251.002 643.05 249.862 644.4 250.182C645.75 250.502 646.33 252.182 646.63 253.562L647.72 258.502C648.037 259.549 648.092 260.658 647.88 261.732C647.38 263.482 645.53 264.552 644.83 266.232C643.96 268.332 645.09 270.742 646.54 272.492C649.183 275.665 652.838 277.833 656.89 278.632C657.943 278.883 659.036 278.91 660.1 278.712C661.819 278.188 663.294 277.067 664.26 275.552C663.714 275.93 663.104 276.208 662.46 276.372Z" opacity=".1"/><path fill="#646ECB" d="M203.69 718.01C217.039 718.01 227.86 716.349 227.86 714.3C227.86 712.251 217.039 710.59 203.69 710.59C190.341 710.59 179.52 712.251 179.52 714.3C179.52 716.349 190.341 718.01 203.69 718.01Z" opacity=".1"/><path fill="#646ECB" d="M1047.61 621.549C1060.96 621.549 1071.78 619.888 1071.78 617.839C1071.78 615.79 1060.96 614.129 1047.61 614.129C1034.26 614.129 1023.44 615.79 1023.44 617.839C1023.44 619.888 1034.26 621.549 1047.61 621.549Z" opacity=".1"/><path fill="#646ECB" d="M801.2 778.082C839.86 778.082 871.2 773.273 871.2 767.342C871.2 761.41 839.86 756.602 801.2 756.602C762.54 756.602 731.2 761.41 731.2 767.342C731.2 773.273 762.54 778.082 801.2 778.082Z" opacity=".1"/><path fill="#646ECB" d="M1000.19 730.221C1030.34 730.221 1054.79 726.469 1054.79 721.841C1054.79 717.213 1030.34 713.461 1000.19 713.461C970.035 713.461 945.59 717.213 945.59 721.841C945.59 726.469 970.035 730.221 1000.19 730.221Z" opacity=".1"/><path fill="#646ECB" d="M991.2 819.549C1042.34 819.549 1083.79 813.187 1083.79 805.339C1083.79 797.491 1042.34 791.129 991.2 791.129C940.064 791.129 898.61 797.491 898.61 805.339C898.61 813.187 940.064 819.549 991.2 819.549Z" opacity=".1"/><path fill="#646ECB" d="M100.24 828.582C138.9 828.582 170.24 823.773 170.24 817.842C170.24 811.91 138.9 807.102 100.24 807.102C61.5801 807.102 30.24 811.91 30.24 817.842C30.24 823.773 61.5801 828.582 100.24 828.582Z" opacity=".1"/><path fill="#646ECB" d="M204.79 596.141C204.79 596.141 207.53 599.721 203.53 605.141C199.53 610.561 196.23 615.141 197.53 618.481C197.53 618.481 203.53 608.481 208.53 608.301C213.53 608.121 210.2 602.181 204.79 596.141Z"/><path fill="#000" d="M204.79 596.141C205.034 596.482 205.223 596.86 205.35 597.261C210.15 602.901 212.7 608.151 208.09 608.261C203.8 608.381 198.65 616.061 197.42 618.001C197.457 618.15 197.504 618.297 197.56 618.441C197.56 618.441 203.56 608.441 208.56 608.261C213.56 608.081 210.2 602.181 204.79 596.141Z" opacity=".1"/><path fill="#FFD037" d="M209.89 600.701C209.89 601.961 209.74 602.981 209.57 602.981C209.4 602.981 209.25 601.981 209.25 600.701C209.25 599.421 209.43 600.041 209.6 600.041C209.77 600.041 209.89 599.441 209.89 600.701Z"/><path fill="#FFD037" d="M211.63 602.21C210.53 602.81 209.56 603.21 209.48 603.02C209.4 602.83 210.22 602.26 211.33 601.65C212.44 601.04 212 601.49 212.08 601.65C212.16 601.81 212.74 601.6 211.63 602.21Z"/><path fill="#646ECB" d="M190.33 596.141C190.33 596.141 187.59 599.721 191.59 605.141C195.59 610.561 198.9 615.141 197.59 618.481C197.59 618.481 191.59 608.481 186.64 608.301C181.69 608.121 184.89 602.181 190.33 596.141Z"/><path fill="#000" d="M190.33 596.141C190.091 596.485 189.902 596.863 189.77 597.261C184.97 602.901 182.42 608.151 187.03 608.261C191.32 608.381 196.47 616.061 197.71 618.001C197.669 618.15 197.619 618.297 197.56 618.441C197.56 618.441 191.56 608.441 186.61 608.261C181.66 608.081 184.89 602.181 190.33 596.141Z" opacity=".1"/><path fill="#FFD037" d="M185.24 600.701C185.24 601.961 185.38 602.981 185.55 602.981C185.72 602.981 185.87 601.981 185.87 600.701C185.87 599.421 185.69 600.041 185.52 600.041C185.35 600.041 185.24 599.441 185.24 600.701Z"/><path fill="#FFD037" d="M183.49 602.21C184.6 602.81 185.56 603.21 185.65 603.02C185.74 602.83 184.9 602.26 183.79 601.65C182.68 601.04 183.12 601.49 183.04 601.65C182.96 601.81 182.38 601.6 183.49 602.21Z"/><path fill="#646ECB" d="M197.56 645.858C213.372 645.858 226.19 643.893 226.19 641.468C226.19 639.044 213.372 637.078 197.56 637.078C181.748 637.078 168.93 639.044 168.93 641.468C168.93 643.893 181.748 645.858 197.56 645.858Z" opacity=".1"/><path fill="#65617D" d="M212.3 613.639L212.16 614.759L211.97 616.339L211.89 616.999L211.7 618.579L211.61 619.239L211.42 620.819L209.23 638.819C209.04 640.419 206.42 641.669 203.23 641.669H191.89C188.73 641.669 186.11 640.419 185.89 638.819L183.7 620.819L183.51 619.239L183.43 618.579L183.23 616.999L183.15 616.339L182.96 614.759L182.82 613.639C182.71 612.729 184.13 611.969 185.92 611.969H209.21C210.99 611.969 212.41 612.729 212.3 613.639Z"/><path fill="#9D9CB5" d="M212.16 614.762L211.97 616.342H183.15L182.96 614.762H212.16Z"/><path fill="#9D9CB5" d="M211.89 617L211.7 618.58H183.43L183.23 617H211.89Z"/><path fill="#9D9CB5" d="M211.62 619.238L211.42 620.818H183.7L183.51 619.238H211.62Z"/><path fill="#646ECB" d="M1028.56 582.289C1028.56 582.289 1025.14 598.209 1040.35 600.089L1041.29 598.319C1041.29 598.319 1029.5 587.229 1028.56 582.289Z"/><path fill="#646ECB" d="M1046.13 598.192L1042.59 598.942L1042.24 599.022C1042.24 599.022 1032.8 591.362 1032.92 574.262C1034.18 576.783 1035.69 579.172 1037.43 581.392C1041.17 586.342 1045.42 592.942 1046.13 598.192Z"/><path fill="#646ECB" d="M1047.32 599.831C1047.04 600.012 1046.73 600.128 1046.4 600.172C1046.07 600.215 1045.74 600.184 1045.42 600.081C1036.34 597.961 1039.42 568.371 1039.42 568.371C1039.92 568.601 1040.42 572.371 1042.56 577.231C1046.21 585.761 1050.24 597.691 1047.32 599.831Z"/><path fill="#646ECB" d="M1067.46 582.289C1067.46 582.289 1068.05 598.209 1052.84 600.089L1051.89 598.289C1051.89 598.289 1066.52 587.229 1067.46 582.289Z"/><path fill="#646ECB" d="M1063.1 574.289C1063.22 591.389 1050.96 599.049 1050.96 599.049L1050.6 598.969L1047.07 598.219C1047.77 592.969 1052.07 586.369 1055.76 581.419C1057.88 578.726 1060.35 576.328 1063.1 574.289V574.289Z"/><path fill="#646ECB" d="M1050.55 598.289C1050.01 598.953 1049.33 599.484 1048.55 599.839V599.839C1048.31 599.947 1048.06 600.031 1047.8 600.089C1045.57 600.609 1044.8 598.999 1044.92 596.259C1045.13 591.389 1048.19 582.939 1050.92 576.609C1052.23 573.503 1054.18 570.702 1056.62 568.379C1056.62 568.379 1056.48 591.409 1050.55 598.289Z"/><path fill="#646ECB" d="M1048.01 557.988C1048.01 557.988 1037.87 593.988 1046.6 599.368C1055.33 604.748 1050.25 561.168 1048.01 557.988Z"/><path fill="#000" d="M1028.56 582.289C1028.56 582.289 1025.14 598.209 1040.35 600.089L1041.29 598.319C1041.29 598.319 1029.5 587.229 1028.56 582.289Z" opacity=".1"/><path fill="#000" d="M1046.13 598.192L1042.59 598.942L1042.24 599.022C1042.24 599.022 1032.8 591.362 1032.92 574.262C1034.18 576.783 1035.69 579.172 1037.43 581.392C1041.17 586.342 1045.42 592.942 1046.13 598.192Z" opacity=".1"/><path fill="#000" d="M1047.32 599.831C1047.04 600.012 1046.73 600.128 1046.4 600.172C1046.07 600.215 1045.74 600.184 1045.42 600.081C1036.34 597.961 1039.42 568.371 1039.42 568.371C1039.92 568.601 1040.42 572.371 1042.56 577.231C1046.21 585.761 1050.24 597.691 1047.32 599.831Z" opacity=".1"/><path fill="#000" d="M1067.46 582.289C1067.46 582.289 1068.05 598.209 1052.84 600.089L1051.89 598.289C1051.89 598.289 1066.52 587.229 1067.46 582.289Z" opacity=".1"/><path fill="#000" d="M1063.1 574.289C1063.22 591.389 1050.96 599.049 1050.96 599.049L1050.6 598.969L1047.07 598.219C1047.77 592.969 1052.07 586.369 1055.76 581.419C1057.88 578.726 1060.35 576.328 1063.1 574.289V574.289Z" opacity=".1"/><path fill="#000" d="M1050.55 598.289C1050.01 598.953 1049.33 599.484 1048.55 599.839V599.839C1048.31 599.947 1048.06 600.031 1047.8 600.089C1045.57 600.609 1044.8 598.999 1044.92 596.259C1045.13 591.389 1048.19 582.939 1050.92 576.609C1052.23 573.503 1054.18 570.702 1056.62 568.379C1056.62 568.379 1056.48 591.409 1050.55 598.289Z" opacity=".1"/><path fill="#000" d="M1048.01 557.988C1048.01 557.988 1037.87 593.988 1046.6 599.368C1055.33 604.748 1050.25 561.168 1048.01 557.988Z" opacity=".1"/><path fill="#646ECB" d="M1028.56 582.289C1028.56 582.289 1026.56 598.209 1041.76 600.089L1042.7 598.319C1042.7 598.319 1029.5 587.229 1028.56 582.289Z"/><path fill="#646ECB" d="M1047.54 598.189L1044 598.939L1043.65 599.019C1043.65 599.019 1032.8 591.359 1032.89 574.289C1032.89 574.289 1035.67 577.289 1038.81 581.419C1042.58 586.339 1046.83 592.939 1047.54 598.189Z"/><path fill="#000" d="M1047.54 598.191L1044 598.941C1040.65 596.001 1039.32 588.321 1038.84 581.391C1042.58 586.341 1046.83 592.941 1047.54 598.191Z" opacity=".1"/><path fill="#646ECB" d="M1048.74 599.831C1048.46 600.012 1048.14 600.129 1047.81 600.172C1047.48 600.215 1047.15 600.184 1046.83 600.081C1037.75 597.961 1039.41 568.371 1039.41 568.371C1039.91 568.601 1041.87 572.371 1043.96 577.231C1047.63 585.761 1051.65 597.691 1048.74 599.831Z"/><path fill="#646ECB" d="M1067.46 582.289C1067.46 582.289 1069.46 598.209 1054.26 600.089L1053.32 598.319C1053.32 598.319 1066.52 587.229 1067.46 582.289Z"/><path fill="#646ECB" d="M1063.1 574.289C1063.22 591.389 1052.37 599.049 1052.37 599.049L1052.02 598.969L1048.48 598.219C1049.18 592.969 1053.48 586.369 1057.18 581.419C1060.32 577.289 1063.1 574.289 1063.1 574.289Z"/><path fill="#000" d="M1057.18 581.391C1056.72 587.851 1055.54 594.961 1052.67 598.281C1052.47 598.52 1052.26 598.741 1052.02 598.941L1048.48 598.191C1049.18 592.941 1053.44 586.341 1057.18 581.391Z" opacity=".1"/><path fill="#646ECB" d="M1051.96 598.289C1051.43 598.956 1050.74 599.488 1049.96 599.839V599.839C1049.72 599.946 1049.47 600.03 1049.22 600.089C1046.98 600.609 1046.22 598.999 1046.33 596.259C1046.55 591.389 1049.61 582.939 1052.33 576.609C1054.33 572.059 1056.14 568.609 1056.62 568.379C1056.62 568.369 1057.89 591.409 1051.96 598.289Z"/><path fill="#000" d="M1048.74 599.83C1048.22 599.836 1047.72 599.675 1047.3 599.37C1043.03 596.71 1042.94 586.73 1043.96 577.23C1047.63 585.76 1051.65 597.69 1048.74 599.83Z" opacity=".1"/><path fill="#000" d="M1051.96 598.289C1051.47 599.359 1050.81 599.919 1049.96 599.839C1049.53 599.787 1049.11 599.629 1048.75 599.379C1047.64 598.617 1046.79 597.526 1046.33 596.259C1046.55 591.389 1049.61 582.939 1052.33 576.609C1053.31 585.379 1053.64 594.679 1051.96 598.289Z" opacity=".1"/><path fill="#646ECB" d="M1048.01 557.988C1048.01 557.988 1039.29 593.988 1048.01 599.368C1056.73 604.748 1050.25 561.168 1048.01 557.988Z"/><path fill="#4B4770" d="M1064.75 597.609H1028.44V603.619H1033.98L1034.12 604.329L1036.34 615.999H1057.45L1059.67 604.329L1059.8 603.619H1064.75V597.609Z"/><path fill="#000" d="M1064.75 597.609H1028.44V603.619H1033.98L1034.12 604.329L1036.34 615.999H1057.45L1059.67 604.329L1059.8 603.619H1064.75V597.609Z" opacity=".1"/><path fill="#4B4770" d="M1061.69 601.141L1061.08 604.331L1058.86 616.001H1037.75L1035.53 604.331L1034.92 601.141H1061.69Z"/><path fill="#000" d="M1061.69 601.141L1061.08 604.331H1035.53L1034.92 601.141H1061.69Z" opacity=".1"/><path fill="#4B4770" d="M1066.16 597.609H1029.85V603.619H1066.16V597.609Z"/><path fill="#646ECB" d="M139.39 700.449C138.433 701.768 137.665 703.216 137.11 704.749C136.97 705.119 136.83 705.549 136.69 705.959C136.436 705.84 136.172 705.746 135.9 705.679C134.734 705.384 133.529 705.283 132.33 705.379C132.33 704.909 132.39 704.379 132.4 703.909C132.55 698.639 131.93 691.299 126.9 694.409C122.08 697.409 125.52 702.409 128.63 705.609C128.9 705.889 129.17 706.149 129.43 706.399C126.59 708.399 126.05 713.129 125.58 718.039C125.11 722.949 120.94 728.319 118.17 731.369C117.89 731.679 117.64 731.959 117.39 732.219C116.27 731.325 114.974 730.679 113.587 730.322C112.199 729.965 110.752 729.906 109.34 730.149C109.23 729.719 109.1 729.269 108.97 728.799C106.73 720.709 102.08 706.699 96.1501 703.629L96.9301 702.629C99.4501 699.339 102.29 694.439 98.1001 693.189C93.9101 691.939 93.5301 697.429 93.7601 701.549C93.8001 702.069 93.8401 702.559 93.8801 703.019C93.0425 703.057 92.2216 703.267 91.4682 703.635C90.7149 704.003 90.045 704.521 89.5001 705.159L88.8501 704.389C85.4501 700.389 79.2201 694.019 77.3301 698.829C75.5701 703.309 81.0601 709.129 84.9201 712.499L85.1601 712.709C82.5701 723.219 93.8801 731.789 99.9701 735.539L100.76 736.019C92.3601 745.919 87.1701 764.479 87.1701 764.479L110.69 768.679C110.69 768.679 126.29 755.219 124.29 742.579H124.45C140.04 739.459 143.58 722.839 141.15 712.969L141.43 712.859C144.27 711.697 146.759 709.815 148.65 707.399C153.01 701.349 143.89 694.509 139.39 700.449Z"/><path fill="#000" d="M139.39 700.449C138.433 701.768 137.665 703.216 137.11 704.749C136.97 705.119 136.83 705.549 136.69 705.959C136.436 705.84 136.172 705.746 135.9 705.679C134.734 705.384 133.529 705.283 132.33 705.379C132.33 704.909 132.39 704.379 132.4 703.909C132.55 698.639 131.93 691.299 126.9 694.409C122.08 697.409 125.52 702.409 128.63 705.609C128.9 705.889 129.17 706.149 129.43 706.399C126.59 708.399 126.05 713.129 125.58 718.039C125.11 722.949 120.94 728.319 118.17 731.369C117.89 731.679 117.64 731.959 117.39 732.219C116.27 731.325 114.974 730.679 113.587 730.322C112.199 729.965 110.752 729.906 109.34 730.149C109.23 729.719 109.1 729.269 108.97 728.799C106.73 720.709 102.08 706.699 96.1501 703.629L96.9301 702.629C99.4501 699.339 102.29 694.439 98.1001 693.189C93.9101 691.939 93.5301 697.429 93.7601 701.549C93.8001 702.069 93.8401 702.559 93.8801 703.019C93.0425 703.057 92.2216 703.267 91.4682 703.635C90.7149 704.003 90.045 704.521 89.5001 705.159L88.8501 704.389C85.4501 700.389 79.2201 694.019 77.3301 698.829C75.5701 703.309 81.0601 709.129 84.9201 712.499L85.1601 712.709C82.5701 723.219 93.8801 731.789 99.9701 735.539L100.76 736.019C92.3601 745.919 87.1701 764.479 87.1701 764.479L110.69 768.679C110.69 768.679 126.29 755.219 124.29 742.579H124.45C140.04 739.459 143.58 722.839 141.15 712.969L141.43 712.859C144.27 711.697 146.759 709.815 148.65 707.399C153.01 701.349 143.89 694.509 139.39 700.449Z" opacity=".1"/><path fill="#646ECB" d="M92.57 707.29L89.82 715.29C89.82 715.29 88.29 714.21 86.36 712.51C82.5 709.14 77.0101 703.32 78.7701 698.84C80.6601 694.03 86.89 700.38 90.29 704.4C91.66 706 92.57 707.29 92.57 707.29Z"/><path fill="#646ECB" d="M98.37 702.64C97.5346 703.741 96.64 704.796 95.69 705.8C95.4552 704.395 95.2917 702.98 95.2 701.56C94.97 697.44 95.41 691.97 99.54 693.2C103.67 694.43 100.89 699.35 98.37 702.64Z"/><path fill="#646ECB" d="M133.89 703.91C133.81 706.56 133.55 708.68 133.55 708.68C132.34 707.733 131.195 706.707 130.12 705.61C127.01 702.38 123.57 697.4 128.39 694.41C133.37 691.29 133.99 698.64 133.89 703.91Z"/><path fill="#646ECB" d="M150.09 707.378C148.199 709.795 145.71 711.677 142.87 712.838C142.081 713.179 141.273 713.473 140.45 713.718L137.21 709.168C137.55 707.665 137.998 706.187 138.55 704.748C139.105 703.215 139.873 701.768 140.83 700.448C145.31 694.508 154.45 701.348 150.09 707.378Z"/><path fill="#000" d="M90.2901 704.398C91.6601 705.998 92.5701 707.238 92.5701 707.238L89.8201 715.238C89.8201 715.238 88.2901 714.158 86.3601 712.458C86.7889 709.88 87.8545 707.45 89.4601 705.388C89.7301 705.058 90.0201 704.718 90.2901 704.398Z" opacity=".1"/><path fill="#000" d="M98.3699 702.639C97.5346 703.74 96.6399 704.795 95.69 705.799C95.4552 704.394 95.2917 702.979 95.2 701.559C96.3428 701.582 97.4503 701.96 98.3699 702.639V702.639Z" opacity=".1"/><path fill="#646ECB" d="M111.89 734.602L105.05 737.602C105.05 737.602 103.56 736.882 101.41 735.542C94.2201 731.122 79.7701 719.992 89.4101 706.872C99.0501 693.752 107.18 717.282 110.41 728.792C111.38 732.292 111.89 734.602 111.89 734.602Z"/><path fill="#000" d="M130.07 705.61C131.065 704.585 132.413 703.977 133.84 703.91C133.76 706.56 133.5 708.68 133.5 708.68C132.29 707.733 131.145 706.708 130.07 705.61V705.61Z" opacity=".1"/><path fill="#000" d="M142.89 712.84C142.102 713.181 141.293 713.475 140.47 713.72L137.23 709.17C137.57 707.666 138.018 706.189 138.57 704.75C140.64 705.97 142.18 709.01 142.89 712.84Z" opacity=".1"/><path fill="#646ECB" d="M125.89 742.56C125.52 742.64 125.13 742.71 124.74 742.77C101.81 746.25 117.18 733.88 117.18 733.88C117.18 733.88 118.18 732.88 119.61 731.37C122.38 728.32 126.54 722.98 127.02 718.04C127.74 710.61 128.57 703.64 137.34 705.68C145.95 707.7 147.6 738.21 125.89 742.56Z"/><path fill="#D4DFEC" d="M125.46 799.648H81.6499V811.168H125.46V799.648Z"/><path fill="#D4DFEC" d="M131.93 762.211H74.6899V802.411H131.93V762.211Z"/><path fill="#000" d="M125.46 799.648H81.6499V811.168H125.46V799.648Z" opacity=".1"/><path fill="#000" d="M131.93 762.211H74.6899V802.411H131.93V762.211Z" opacity=".1"/><path fill="#D4DFEC" d="M128.34 799.648H84.53V811.168H128.34V799.648Z"/><path fill="#000" d="M110.41 728.801C111.41 732.241 111.89 734.601 111.89 734.601L105.05 737.601C105.05 737.601 103.56 736.881 101.41 735.541C104.09 732.151 107.11 729.591 110.41 728.801Z" opacity=".1"/><path fill="#000" d="M125.89 742.561C125.52 742.641 125.13 742.711 124.74 742.771C101.81 746.251 117.18 733.881 117.18 733.881C117.18 733.881 118.18 732.881 119.61 731.371C123.89 734.801 125.66 738.661 125.89 742.561Z" opacity=".1"/><path fill="#646ECB" d="M88.6101 764.489C88.6101 764.489 101.45 718.489 119.46 732.679C137.47 746.869 112.13 768.679 112.13 768.679L88.6101 764.489Z"/><path fill="#000" d="M95.0899 715.521C95.8852 715.521 96.5299 714.876 96.5299 714.081C96.5299 713.285 95.8852 712.641 95.0899 712.641C94.2946 712.641 93.6499 713.285 93.6499 714.081C93.6499 714.876 94.2946 715.521 95.0899 715.521Z" opacity=".1"/><path fill="#000" d="M94.97 722.239C95.7653 722.239 96.41 721.595 96.41 720.799C96.41 720.004 95.7653 719.359 94.97 719.359C94.1747 719.359 93.53 720.004 93.53 720.799C93.53 721.595 94.1747 722.239 94.97 722.239Z" opacity=".1"/><path fill="#000" d="M136.74 716.841C137.535 716.841 138.18 716.196 138.18 715.401C138.18 714.606 137.535 713.961 136.74 713.961C135.945 713.961 135.3 714.606 135.3 715.401C135.3 716.196 135.945 716.841 136.74 716.841Z" opacity=".1"/><path fill="#000" d="M103.14 751.29C103.935 751.29 104.58 750.645 104.58 749.85C104.58 749.055 103.935 748.41 103.14 748.41C102.345 748.41 101.7 749.055 101.7 749.85C101.7 750.645 102.345 751.29 103.14 751.29Z" opacity=".1"/><path fill="#000" d="M133.74 728.001C134.535 728.001 135.18 727.356 135.18 726.561C135.18 725.766 134.535 725.121 133.74 725.121C132.945 725.121 132.3 725.766 132.3 726.561C132.3 727.356 132.945 728.001 133.74 728.001Z" opacity=".1"/><path fill="#000" d="M118.86 742.892C119.655 742.892 120.3 742.247 120.3 741.452C120.3 740.656 119.655 740.012 118.86 740.012C118.065 740.012 117.42 740.656 117.42 741.452C117.42 742.247 118.065 742.892 118.86 742.892Z" opacity=".1"/><path fill="#000" d="M100.01 718.4C100.805 718.4 101.45 717.755 101.45 716.96C101.45 716.164 100.805 715.52 100.01 715.52C99.2148 715.52 98.5701 716.164 98.5701 716.96C98.5701 717.755 99.2148 718.4 100.01 718.4Z" opacity=".1"/><path fill="#000" d="M132.78 721.161C133.575 721.161 134.22 720.516 134.22 719.721C134.22 718.926 133.575 718.281 132.78 718.281C131.985 718.281 131.34 718.926 131.34 719.721C131.34 720.516 131.985 721.161 132.78 721.161Z" opacity=".1"/><path fill="#000" d="M127.86 732.321C128.655 732.321 129.3 731.677 129.3 730.881C129.3 730.086 128.655 729.441 127.86 729.441C127.065 729.441 126.42 730.086 126.42 730.881C126.42 731.677 127.065 732.321 127.86 732.321Z" opacity=".1"/><path fill="#000" d="M112.74 750.208C113.535 750.208 114.18 749.563 114.18 748.768C114.18 747.973 113.535 747.328 112.74 747.328C111.945 747.328 111.3 747.973 111.3 748.768C111.3 749.563 111.945 750.208 112.74 750.208Z" opacity=".1"/><path fill="#000" d="M109.62 743.13C110.415 743.13 111.06 742.485 111.06 741.69C111.06 740.895 110.415 740.25 109.62 740.25C108.825 740.25 108.18 740.895 108.18 741.69C108.18 742.485 108.825 743.13 109.62 743.13Z" opacity=".1"/><path fill="#000" d="M102.17 727.161C102.965 727.161 103.61 726.516 103.61 725.721C103.61 724.926 102.965 724.281 102.17 724.281C101.375 724.281 100.73 724.926 100.73 725.721C100.73 726.516 101.375 727.161 102.17 727.161Z" opacity=".1"/><path fill="#000" d="M128.34 799.648H84.53V803.858H128.34V799.648Z" opacity=".1"/><path fill="#D4DFEC" d="M134.81 762.211H77.5701V802.411H134.81V762.211Z"/><path fill="#000" d="M114.66 756.689C115.455 756.689 116.1 756.044 116.1 755.249C116.1 754.453 115.455 753.809 114.66 753.809C113.865 753.809 113.22 754.453 113.22 755.249C113.22 756.044 113.865 756.689 114.66 756.689Z" opacity=".1"/><path fill="#000" d="M106.02 758.489C106.815 758.489 107.46 757.845 107.46 757.049C107.46 756.254 106.815 755.609 106.02 755.609C105.225 755.609 104.58 756.254 104.58 757.049C104.58 757.845 105.225 758.489 106.02 758.489Z" opacity=".1"/><path fill="#646ECB" d="M50 62.4591C55.7769 62.4591 60.46 57.776 60.46 51.9991C60.46 46.2222 55.7769 41.5391 50 41.5391C44.2231 41.5391 39.54 46.2222 39.54 51.9991C39.54 57.776 44.2231 62.4591 50 62.4591Z" opacity=".1"/><path fill="#646ECB" d="M1054.57 395.09C1062.3 395.09 1068.57 388.822 1068.57 381.09C1068.57 373.358 1062.3 367.09 1054.57 367.09C1046.84 367.09 1040.57 373.358 1040.57 381.09C1040.57 388.822 1046.84 395.09 1054.57 395.09Z" opacity=".1"/><path fill="#646ECB" d="M1081.56 361.311C1087.2 361.311 1091.78 356.735 1091.78 351.091C1091.78 345.447 1087.2 340.871 1081.56 340.871C1075.92 340.871 1071.34 345.447 1071.34 351.091C1071.34 356.735 1075.92 361.311 1081.56 361.311Z" opacity=".1"/><path fill="#646ECB" d="M68 28C75.732 28 82 21.732 82 14C82 6.26801 75.732 0 68 0C60.268 0 54 6.26801 54 14C54 21.732 60.268 28 68 28Z" opacity=".1"/><path fill="#646ECB" d="M14 92C21.732 92 28 85.732 28 78C28 70.268 21.732 64 14 64C6.26801 64 0 70.268 0 78C0 85.732 6.26801 92 14 92Z" opacity=".1"/></g><defs><linearGradient id="paint0_linear" x1="527.13" x2="527.13" y1="775.848" y2="190.348" gradientUnits="userSpaceOnUse"><stop stop-color="gray" stop-opacity=".25"/><stop offset=".54" stop-color="gray" stop-opacity=".12"/><stop offset="1" stop-color="gray" stop-opacity=".1"/></linearGradient><clipPath id="clip0"><rect width="1091.78" height="828.58" fill="#fff"/></clipPath></defs></svg>