 <svg
                id="connectText"
                width="340"
                height="90"
                viewBox="0 0 340 90"
                fill="none"
                xmlns="http://www.w3.org/2000/svg"
              >
                <path
                  d="M0 5C0 2.23858 2.23858 0 5 0H335C337.761 0 340 2.23858 340 5V84.4737C340 87.2351 337.761 89.4737 335 89.4737H5C2.23858 89.4737 0 87.2351 0 84.4737V5Z"
                  fill="#4e54c8"
                />
                <path
                  d="M85.0702 69.9543C60.1881 70.7168 63.7294 24.62 87.7728 24.62C112.003 24.62 110.605 69.1918 85.0702 69.9543ZM87.4932 60.2497C93.4575 60.3884 95.4145 49.3667 95.694 44.3064C95.9736 39.2462 93.8302 32.1757 88.1455 32.3143C82.4609 32.453 79.3856 43.2667 79.5719 47.4258C79.8515 52.7633 81.4358 60.1111 87.4932 60.2497ZM122.44 64.5475L109.3 64.1316L112.468 22.8177L120.39 22.6097L134.555 44.5837L138.562 21.6393L146.949 23.5802L142.756 60.5963L134.368 61.4281L120.39 38.8996L122.44 64.5475ZM165.215 64.5475L152.075 64.1316L155.243 22.8177L163.165 22.6097L177.33 44.5837L181.337 21.6393L189.724 23.5802L185.531 60.5963L177.143 61.4281L163.165 38.8996L165.215 64.5475ZM221.596 70.093L196.154 69.7464L194.85 28.0859L219.732 25.6597L219.452 33.4927H205.194V46.7326L217.122 45.9701L217.775 53.8724L205.66 53.7338L205.008 63.785L222.528 63.2998L221.596 70.093ZM264.557 67.3202C248.714 80.4214 227.839 76.2623 227.653 51.7929C227.467 30.7893 249.367 22.4711 262.413 31.9677L258.499 38.2757C253.374 34.3939 239.209 37.8598 238.09 51.5849C237.065 63.7157 248.994 71.1328 257.754 60.8043L264.557 67.3202ZM299.224 24.4813L298.385 32.6609L288.787 32.9382L289.439 67.4589L275.367 69.1918L277.976 33.2155L267.819 33.4927L268.098 25.8677L299.224 24.4813ZM305.841 52.2088V12.9744L319.074 12.2812L312.737 52.0008L305.841 52.2088ZM308.077 67.3202C301.554 67.3202 301.833 57.6849 308.73 57.6849C315.533 57.6849 318.887 67.3202 308.077 67.3202Z"
                  fill="white"
                />
                <path
                  d="M58.7665 60.9058C63.8091 62.3473 64.3484 66.3862 54.8564 72.3045C49.6152 75.5723 43.2216 77.9872 37.521 77.0212C31.8205 76.0551 26.7525 72.9248 23.1805 68.1635C19.6085 63.4022 17.7536 57.3046 17.9317 50.9095C18.1099 44.5145 20.3101 38.2177 24.1575 33.0921C28.0049 27.9666 33.2615 24.3293 39.0315 22.8001C44.8015 21.2709 51.1081 20.8902 55.4027 25.0165C58.7665 27.8308 60.0929 32.0078 60.0929 32.0078L47.0362 42.0759L36.6012 42.0759L36.6012 60.9058C46.0924 62.721 53.7238 59.4643 58.7665 60.9058Z"
                  fill="white"
                />
                <path
                  d="M48.2502 52.1915C55.2081 61.4342 41.5958 62.6329 36.8785 61.4342C32.1612 60.2355 29.6042 54.1539 31.1673 47.8506C32.7304 41.5473 37.8217 37.4092 42.539 38.608C47.2563 39.8067 49.8133 45.8882 48.2502 52.1915Z"
                  fill="#4e54c8"
                />
                <path
                  d="M42.9473 41.5103C48.4611 41.5103 47.2724 43.0163 50.1052 40.3516V45.6147H43.6808L42.9473 41.5103Z"
                  fill="#4e54c8"
                />
                <path
                  d="M45.1458 40.3516C45.1458 40.3516 46.714 42.3667 49.9263 40.9463L51.8947 45.6147H44.7368L45.1458 40.3516Z"
                  fill="#4e54c8"
                />
                <path
                  d="M58.3355 27.5923C55.1701 21.2553 66.7662 27.6167 66.7662 27.6167L66.6937 34.2739L56.2197 34.8898C56.2197 34.8898 61.5008 33.9293 58.3355 27.5923Z"
                  fill="#4e54c8"
                />
              </svg>