<svg width="8028" height="5608" viewBox="0 0 8028 5608" fill="none" xmlns="http://www.w3.org/2000/svg">
<path d="M7873 2816C7039 4935.5 6066.73 5608 3842.35 5608C1617.97 5608 0 4996.62 0 3074.77C0 1152.93 3241.39 0 5465.77 0C7690.15 0 8370 1039 7873 2816Z" fill="#6C63FF"/>
<rect x="853.5" y="2401" width="900" height="1809" rx="75" fill="#262626"/>
<rect x="903.5" y="2440" width="800" height="1730" rx="75" fill="#6976EA"/>
<path d="M1077.5 2432H1522.5V2434C1522.5 2475.42 1488.92 2509 1447.5 2509H1152.5C1111.08 2509 1077.5 2475.42 1077.5 2434V2432Z" fill="#262626"/>
<circle cx="1440.5" cy="2457" r="25" fill="white"/>
<ellipse cx="6092" cy="1705" rx="22.5" ry="24" fill="white"/>
<rect x="1155.5" y="2437" width="208" height="45" rx="22.5" fill="white"/>
<rect x="841.5" y="2583" width="23" height="118" rx="11.5" fill="#262626"/>
<rect x="1742.5" y="2610" width="23" height="118" rx="11.5" fill="#262626"/>
<rect x="842.5" y="2865" width="23" height="137" rx="11.5" fill="#262626"/>
<rect x="841.5" y="3034" width="23" height="137" rx="11.5" fill="#262626"/>
<rect x="6894.5" y="1629" width="2581" height="1613" rx="75" transform="rotate(90 6894.5 1629)" fill="#262626"/>
<rect x="6830.5" y="1773" width="2267" height="1478" rx="75" transform="rotate(90 6830.5 1773)" fill="#6976EA"/>
<rect x="5682.5" y="2467" width="812" height="1058" fill="white"/>
<ellipse cx="6088.5" cy="1705" rx="22" ry="24" fill="white"/>
<ellipse cx="6078.5" cy="4122.5" rx="45" ry="47.5" fill="white"/>
<path d="M6028.94 2338H6019.13V2272.98L5999.46 2280.2V2271.34L6027.41 2260.85H6028.94V2338ZM6105.67 2305.25C6105.67 2316.68 6103.72 2325.17 6099.82 2330.72C6095.92 2336.28 6089.82 2339.05 6081.52 2339.05C6073.33 2339.05 6067.26 2336.35 6063.33 2330.93C6059.39 2325.48 6057.35 2317.36 6057.21 2306.57V2293.54C6057.21 2282.26 6059.16 2273.88 6063.06 2268.39C6066.96 2262.91 6073.08 2260.16 6081.41 2260.16C6089.68 2260.16 6095.76 2262.82 6099.66 2268.13C6103.56 2273.4 6105.57 2281.56 6105.67 2292.6V2305.25ZM6095.92 2291.91C6095.92 2283.65 6094.76 2277.64 6092.44 2273.88C6090.12 2270.08 6086.44 2268.18 6081.41 2268.18C6076.42 2268.18 6072.78 2270.06 6070.5 2273.82C6068.21 2277.58 6067.04 2283.37 6066.96 2291.17V2306.78C6066.96 2315.08 6068.16 2321.21 6070.55 2325.19C6072.98 2329.12 6076.63 2331.09 6081.52 2331.09C6086.34 2331.09 6089.9 2329.23 6092.22 2325.5C6094.58 2321.78 6095.81 2315.9 6095.92 2307.89V2291.91ZM6119.38 2332.88C6119.38 2331.2 6119.88 2329.79 6120.86 2328.67C6121.88 2327.54 6123.39 2326.98 6125.39 2326.98C6127.4 2326.98 6128.91 2327.54 6129.93 2328.67C6130.98 2329.79 6131.51 2331.2 6131.51 2332.88C6131.51 2334.5 6130.98 2335.86 6129.93 2336.95C6128.91 2338.04 6127.4 2338.58 6125.39 2338.58C6123.39 2338.58 6121.88 2338.04 6120.86 2336.95C6119.88 2335.86 6119.38 2334.5 6119.38 2332.88ZM6184.93 2261.17V2269.45H6183.14C6175.54 2269.59 6169.5 2271.84 6165 2276.2C6160.5 2280.55 6157.9 2286.69 6157.19 2294.6C6161.24 2289.96 6166.76 2287.64 6173.75 2287.64C6180.43 2287.64 6185.76 2289.99 6189.73 2294.71C6193.74 2299.42 6195.74 2305.5 6195.74 2312.95C6195.74 2320.86 6193.58 2327.19 6189.26 2331.94C6184.97 2336.68 6179.2 2339.05 6171.96 2339.05C6164.61 2339.05 6158.65 2336.24 6154.08 2330.62C6149.51 2324.96 6147.23 2317.68 6147.23 2308.79V2305.04C6147.23 2290.91 6150.23 2280.12 6156.24 2272.66C6162.29 2265.17 6171.27 2261.34 6183.19 2261.17H6184.93ZM6172.12 2295.76C6168.78 2295.76 6165.7 2296.76 6162.89 2298.77C6160.08 2300.77 6158.12 2303.28 6157.04 2306.31V2309.89C6157.04 2316.22 6158.46 2321.32 6161.31 2325.19C6164.15 2329.05 6167.71 2330.99 6171.96 2330.99C6176.35 2330.99 6179.8 2329.37 6182.29 2326.13C6184.83 2322.9 6186.09 2318.66 6186.09 2313.43C6186.09 2308.15 6184.81 2303.9 6182.24 2300.66C6179.71 2297.39 6176.34 2295.76 6172.12 2295.76Z" fill="white"/>
<path d="M5897.75 2082.84L5926.57 2154.77L5955.39 2082.84H5970.46V2171H5958.84V2136.67L5959.93 2099.62L5930.99 2171H5922.09L5893.21 2099.8L5894.36 2136.67V2171H5882.73V2082.84H5897.75ZM6010.67 2154.59L6025.93 2105.49H6037.91L6011.58 2181.11C6007.5 2192.01 6001.02 2197.46 5992.14 2197.46L5990.02 2197.28L5985.84 2196.49V2187.41L5988.87 2187.65C5992.67 2187.65 5995.61 2186.88 5997.71 2185.35C5999.85 2183.82 6001.61 2181.01 6002.98 2176.93L6005.46 2170.27L5982.09 2105.49H5994.32L6010.67 2154.59ZM6147.81 2129.77C6147.81 2138.28 6146.45 2145.63 6143.75 2151.81C6141.05 2157.94 6137.25 2162.75 6132.37 2166.22L6148.11 2178.57L6140.18 2185.89L6121.59 2171.12C6118.68 2171.85 6115.62 2172.21 6112.39 2172.21C6105.44 2172.21 6099.29 2170.52 6093.92 2167.12C6088.55 2163.69 6084.37 2158.83 6081.39 2152.53C6078.44 2146.2 6076.93 2138.87 6076.85 2130.55V2124.2C6076.85 2115.72 6078.32 2108.23 6081.27 2101.73C6084.21 2095.24 6088.37 2090.27 6093.74 2086.84C6099.15 2083.37 6105.32 2081.63 6112.27 2081.63C6119.37 2081.63 6125.61 2083.35 6130.97 2086.78C6136.38 2090.21 6140.54 2095.15 6143.45 2101.61C6146.35 2108.03 6147.81 2115.54 6147.81 2124.14V2129.77ZM6136.18 2124.08C6136.18 2113.7 6134.1 2105.71 6129.95 2100.1C6125.83 2094.45 6119.93 2091.62 6112.27 2091.62C6104.96 2091.62 6099.19 2094.43 6094.95 2100.04C6090.75 2105.61 6088.59 2113.36 6088.47 2123.29V2129.77C6088.47 2139.86 6090.57 2147.81 6094.77 2153.62C6099.01 2159.44 6104.88 2162.34 6112.39 2162.34C6119.89 2162.34 6125.71 2159.62 6129.82 2154.17C6133.94 2148.68 6136.06 2140.83 6136.18 2130.62V2124.08ZM6204.42 2164.52C6200.06 2169.65 6193.66 2172.21 6185.22 2172.21C6178.24 2172.21 6172.91 2170.19 6169.24 2166.16C6165.61 2162.08 6163.77 2156.07 6163.73 2148.11V2105.49H6174.93V2147.81C6174.93 2157.74 6178.97 2162.71 6187.04 2162.71C6195.6 2162.71 6201.29 2159.52 6204.12 2153.14V2105.49H6215.32V2171H6204.66L6204.42 2164.52ZM6244.56 2171H6233.36V2105.49H6244.56V2171ZM6232.45 2088.11C6232.45 2086.29 6233 2084.76 6234.09 2083.51C6235.22 2082.26 6236.87 2081.63 6239.05 2081.63C6241.23 2081.63 6242.89 2082.26 6244.02 2083.51C6245.15 2084.76 6245.71 2086.29 6245.71 2088.11C6245.71 2089.93 6245.15 2091.44 6244.02 2092.65C6242.89 2093.86 6241.23 2094.47 6239.05 2094.47C6236.87 2094.47 6235.22 2093.86 6234.09 2092.65C6233 2091.44 6232.45 2089.93 6232.45 2088.11ZM6273.08 2161.86H6311.4V2171H6259.39V2162.77L6295.54 2114.75H6259.94V2105.49H6309.59V2113.42L6273.08 2161.86Z" fill="white"/>
<ellipse cx="1997" cy="2215" rx="29.5" ry="25" fill="white"/>
<rect x="1900.5" y="1321" width="3234" height="1898" rx="75" fill="#262626"/>
<rect x="2077" y="1436" width="2876" height="1659" rx="76" fill="#6976EA" stroke="black" stroke-width="2"/>
<path d="M1226.94 2830H1217.13V2764.98L1197.46 2772.2V2763.34L1225.41 2752.85H1226.94V2830ZM1303.67 2797.25C1303.67 2808.68 1301.72 2817.17 1297.82 2822.72C1293.92 2828.28 1287.82 2831.05 1279.52 2831.05C1271.33 2831.05 1265.26 2828.35 1261.33 2822.93C1257.39 2817.48 1255.35 2809.36 1255.21 2798.57V2785.54C1255.21 2774.26 1257.16 2765.88 1261.06 2760.39C1264.96 2754.91 1271.08 2752.16 1279.41 2752.16C1287.68 2752.16 1293.76 2754.82 1297.66 2760.13C1301.56 2765.4 1303.57 2773.56 1303.67 2784.6V2797.25ZM1293.92 2783.91C1293.92 2775.65 1292.76 2769.64 1290.44 2765.88C1288.12 2762.08 1284.44 2760.18 1279.41 2760.18C1274.42 2760.18 1270.78 2762.06 1268.5 2765.82C1266.21 2769.58 1265.04 2775.37 1264.96 2783.17V2798.78C1264.96 2807.08 1266.16 2813.21 1268.55 2817.19C1270.98 2821.12 1274.63 2823.09 1279.52 2823.09C1284.34 2823.09 1287.9 2821.23 1290.22 2817.5C1292.58 2813.78 1293.81 2807.9 1293.92 2799.89V2783.91ZM1317.38 2824.88C1317.38 2823.2 1317.88 2821.79 1318.86 2820.67C1319.88 2819.54 1321.39 2818.98 1323.39 2818.98C1325.4 2818.98 1326.91 2819.54 1327.93 2820.67C1328.98 2821.79 1329.51 2823.2 1329.51 2824.88C1329.51 2826.5 1328.98 2827.86 1327.93 2828.95C1326.91 2830.04 1325.4 2830.58 1323.39 2830.58C1321.39 2830.58 1319.88 2830.04 1318.86 2828.95C1317.88 2827.86 1317.38 2826.5 1317.38 2824.88ZM1382.93 2753.17V2761.45H1381.14C1373.54 2761.59 1367.5 2763.84 1363 2768.2C1358.5 2772.55 1355.9 2778.69 1355.19 2786.6C1359.24 2781.96 1364.76 2779.64 1371.75 2779.64C1378.43 2779.64 1383.76 2781.99 1387.73 2786.71C1391.74 2791.42 1393.74 2797.5 1393.74 2804.95C1393.74 2812.86 1391.58 2819.19 1387.26 2823.94C1382.97 2828.68 1377.2 2831.05 1369.96 2831.05C1362.61 2831.05 1356.65 2828.24 1352.08 2822.62C1347.51 2816.96 1345.23 2809.68 1345.23 2800.79V2797.04C1345.23 2782.91 1348.23 2772.12 1354.24 2764.66C1360.29 2757.17 1369.27 2753.34 1381.19 2753.17H1382.93ZM1370.12 2787.76C1366.78 2787.76 1363.7 2788.76 1360.89 2790.77C1358.08 2792.77 1356.12 2795.28 1355.04 2798.31V2801.89C1355.04 2808.22 1356.46 2813.32 1359.31 2817.19C1362.15 2821.05 1365.71 2822.99 1369.96 2822.99C1374.35 2822.99 1377.8 2821.37 1380.29 2818.13C1382.83 2814.9 1384.09 2810.66 1384.09 2805.43C1384.09 2800.15 1382.81 2795.9 1380.24 2792.66C1377.71 2789.39 1374.34 2787.76 1370.12 2787.76Z" fill="white"/>
<path d="M1139.49 2556.22L1164.59 2618.87L1189.69 2556.22H1202.82V2633H1192.7V2603.1L1193.65 2570.83L1168.44 2633H1160.69L1135.54 2570.98L1136.54 2603.1V2633H1126.41V2556.22H1139.49ZM1237.84 2618.71L1251.13 2575.94H1261.57L1238.63 2641.81C1235.08 2651.3 1229.44 2656.04 1221.7 2656.04L1219.86 2655.89L1216.22 2655.2V2647.29L1218.86 2647.5C1222.16 2647.5 1224.73 2646.83 1226.55 2645.5C1228.42 2644.16 1229.95 2641.72 1231.14 2638.17L1233.3 2632.37L1212.95 2575.94H1223.6L1237.84 2618.71ZM1357.28 2597.09C1357.28 2604.51 1356.11 2610.9 1353.75 2616.28C1351.39 2621.63 1348.09 2625.81 1343.84 2628.83L1357.55 2639.59L1350.64 2645.97L1334.45 2633.11C1331.92 2633.74 1329.25 2634.05 1326.43 2634.05C1320.39 2634.05 1315.03 2632.58 1310.35 2629.62C1305.67 2626.64 1302.04 2622.4 1299.43 2616.92C1296.87 2611.4 1295.55 2605.02 1295.48 2597.77V2592.24C1295.48 2584.85 1296.76 2578.33 1299.33 2572.67C1301.89 2567.01 1305.52 2562.69 1310.19 2559.7C1314.9 2556.68 1320.28 2555.16 1326.33 2555.16C1332.52 2555.16 1337.95 2556.66 1342.62 2559.65C1347.33 2562.63 1350.96 2566.94 1353.49 2572.57C1356.02 2578.16 1357.28 2584.7 1357.28 2592.18V2597.09ZM1347.16 2592.13C1347.16 2583.1 1345.35 2576.13 1341.73 2571.25C1338.14 2566.33 1333.01 2563.87 1326.33 2563.87C1319.96 2563.87 1314.94 2566.31 1311.25 2571.2C1307.59 2576.05 1305.71 2582.8 1305.6 2591.45V2597.09C1305.6 2605.88 1307.43 2612.8 1311.09 2617.87C1314.78 2622.93 1319.89 2625.46 1326.43 2625.46C1332.97 2625.46 1338.04 2623.09 1341.62 2618.34C1345.21 2613.56 1347.05 2606.72 1347.16 2597.83V2592.13ZM1406.59 2627.36C1402.79 2631.82 1397.22 2634.05 1389.87 2634.05C1383.79 2634.05 1379.15 2632.3 1375.95 2628.78C1372.79 2625.23 1371.19 2619.99 1371.15 2613.07V2575.94H1380.91V2612.8C1380.91 2621.45 1384.42 2625.78 1391.46 2625.78C1398.91 2625.78 1403.87 2623 1406.33 2617.44V2575.94H1416.08V2633H1406.8L1406.59 2627.36ZM1441.55 2633H1431.8V2575.94H1441.55V2633ZM1431.01 2560.81C1431.01 2559.22 1431.48 2557.89 1432.43 2556.8C1433.41 2555.71 1434.86 2555.16 1436.75 2555.16C1438.65 2555.16 1440.09 2555.71 1441.08 2556.8C1442.06 2557.89 1442.55 2559.22 1442.55 2560.81C1442.55 2562.39 1442.06 2563.71 1441.08 2564.76C1440.09 2565.82 1438.65 2566.34 1436.75 2566.34C1434.86 2566.34 1433.41 2565.82 1432.43 2564.76C1431.48 2563.71 1431.01 2562.39 1431.01 2560.81ZM1466.39 2625.04H1499.77V2633H1454.47V2625.83L1485.96 2584.01H1454.95V2575.94H1498.19V2582.85L1466.39 2625.04Z" fill="white"/>
<rect x="2377.5" y="3836" width="2397" height="287" fill="#262626"/>
<path d="M2907 3266.71L4332.5 3266.71L4566 3806.39L2652.73 3806.39L2907 3266.71Z" fill="#262626"/>
<rect x="2125.5" y="1676" width="400" height="141.267" rx="25" fill="#646ECB"/>
<path d="M2300.58 1761.79C2300.58 1759.84 2299.84 1758.33 2298.35 1757.26C2296.89 1756.16 2294.33 1755.23 2290.66 1754.45C2287.01 1753.66 2284.11 1752.73 2281.95 1751.63C2279.81 1750.54 2278.22 1749.24 2277.18 1747.73C2276.16 1746.22 2275.66 1744.42 2275.66 1742.34C2275.66 1738.87 2277.11 1735.94 2280.03 1733.55C2282.97 1731.15 2286.72 1729.95 2291.28 1729.95C2296.07 1729.95 2299.95 1731.19 2302.92 1733.66C2305.92 1736.14 2307.41 1739.3 2307.41 1743.16H2300.15C2300.15 1741.18 2299.3 1739.47 2297.61 1738.04C2295.94 1736.61 2293.83 1735.89 2291.28 1735.89C2288.65 1735.89 2286.59 1736.46 2285.11 1737.61C2283.62 1738.76 2282.88 1740.25 2282.88 1742.1C2282.88 1743.85 2283.57 1745.16 2284.95 1746.05C2286.33 1746.93 2288.82 1747.78 2292.41 1748.59C2296.03 1749.39 2298.96 1750.36 2301.2 1751.48C2303.44 1752.6 2305.1 1753.95 2306.16 1755.54C2307.26 1757.1 2307.8 1759.02 2307.8 1761.28C2307.8 1765.06 2306.29 1768.09 2303.27 1770.38C2300.25 1772.65 2296.33 1773.78 2291.52 1773.78C2288.13 1773.78 2285.14 1773.18 2282.53 1771.98C2279.93 1770.79 2277.88 1769.12 2276.4 1766.98C2274.94 1764.82 2274.21 1762.49 2274.21 1759.99H2281.44C2281.57 1762.41 2282.53 1764.34 2284.33 1765.77C2286.15 1767.18 2288.55 1767.88 2291.52 1767.88C2294.25 1767.88 2296.44 1767.34 2298.08 1766.24C2299.74 1765.12 2300.58 1763.64 2300.58 1761.79ZM2324.45 1735.85C2327.65 1731.92 2331.82 1729.95 2336.95 1729.95C2345.88 1729.95 2350.38 1734.99 2350.46 1745.07V1773H2343.23V1745.03C2343.21 1741.98 2342.51 1739.73 2341.12 1738.27C2339.77 1736.82 2337.65 1736.09 2334.76 1736.09C2332.41 1736.09 2330.36 1736.71 2328.59 1737.96C2326.82 1739.21 2325.43 1740.85 2324.45 1742.88V1773H2317.22V1713H2324.45V1735.85ZM2387.38 1773C2386.96 1772.17 2386.62 1770.68 2386.36 1768.55C2383 1772.04 2378.99 1773.78 2374.33 1773.78C2370.16 1773.78 2366.74 1772.61 2364.05 1770.27C2361.4 1767.9 2360.07 1764.9 2360.07 1761.28C2360.07 1756.88 2361.74 1753.47 2365.07 1751.05C2368.43 1748.6 2373.14 1747.38 2379.21 1747.38H2386.24V1744.05C2386.24 1741.53 2385.49 1739.52 2383.98 1738.04C2382.47 1736.53 2380.24 1735.77 2377.3 1735.77C2374.72 1735.77 2372.56 1736.42 2370.81 1737.73C2369.07 1739.03 2368.2 1740.6 2368.2 1742.45H2360.93C2360.93 1740.34 2361.67 1738.31 2363.16 1736.36C2364.67 1734.38 2366.7 1732.82 2369.25 1731.67C2371.83 1730.53 2374.65 1729.95 2377.73 1729.95C2382.6 1729.95 2386.41 1731.18 2389.17 1733.62C2391.93 1736.05 2393.36 1739.39 2393.47 1743.66V1763.12C2393.47 1767 2393.96 1770.08 2394.95 1772.38V1773H2387.38ZM2375.38 1767.49C2377.65 1767.49 2379.8 1766.91 2381.83 1765.73C2383.86 1764.56 2385.33 1763.04 2386.24 1761.16V1752.49H2380.58C2371.72 1752.49 2367.3 1755.08 2367.3 1760.27C2367.3 1762.53 2368.05 1764.3 2369.56 1765.58C2371.07 1766.85 2373.01 1767.49 2375.38 1767.49ZM2425.23 1737.22C2424.13 1737.04 2422.95 1736.95 2421.67 1736.95C2416.93 1736.95 2413.72 1738.96 2412.02 1743V1773H2404.8V1730.73H2411.83L2411.95 1735.62C2414.32 1731.84 2417.67 1729.95 2422.02 1729.95C2423.43 1729.95 2424.5 1730.14 2425.23 1730.5V1737.22ZM2448.66 1773.78C2442.93 1773.78 2438.27 1771.91 2434.68 1768.16C2431.09 1764.38 2429.29 1759.34 2429.29 1753.04V1751.71C2429.29 1747.52 2430.08 1743.78 2431.67 1740.5C2433.29 1737.19 2435.53 1734.61 2438.39 1732.77C2441.28 1730.89 2444.41 1729.95 2447.77 1729.95C2453.26 1729.95 2457.53 1731.76 2460.58 1735.38C2463.62 1739 2465.15 1744.18 2465.15 1750.93V1753.94H2436.52C2436.62 1758.1 2437.83 1761.48 2440.15 1764.05C2442.49 1766.61 2445.46 1767.88 2449.05 1767.88C2451.61 1767.88 2453.77 1767.36 2455.54 1766.32C2457.31 1765.28 2458.86 1763.9 2460.19 1762.18L2464.6 1765.62C2461.06 1771.06 2455.75 1773.78 2448.66 1773.78ZM2447.77 1735.89C2444.85 1735.89 2442.4 1736.96 2440.42 1739.09C2438.44 1741.2 2437.22 1744.17 2436.75 1748H2457.92V1747.45C2457.71 1743.78 2456.72 1740.94 2454.95 1738.94C2453.18 1736.91 2450.79 1735.89 2447.77 1735.89Z" fill="white"/>
<ellipse cx="2221.38" cy="1727.29" rx="16.8964" ry="17.7588" fill="white"/>
<path d="M2250.56 1776.8C2250.56 1766.1 2247.71 1755.83 2242.62 1748.26C2237.53 1740.7 2230.62 1736.44 2223.43 1736.44C2216.23 1736.44 2209.33 1740.7 2204.24 1748.26C2199.15 1755.83 2196.29 1766.1 2196.29 1776.8L2223.43 1776.8H2250.56Z" fill="white"/>
<g filter="url(#filter0_d)">
<path d="M2218.82 1776.8C2218.82 1766.1 2215.85 1755.83 2210.57 1748.26C2205.29 1740.7 2198.13 1736.44 2190.66 1736.44C2183.19 1736.44 2176.03 1740.7 2170.75 1748.26C2165.47 1755.83 2162.5 1766.1 2162.5 1776.8L2190.66 1776.8H2218.82Z" fill="white"/>
</g>
<g filter="url(#filter1_d)">
<ellipse cx="2191.17" cy="1723.53" rx="20.4805" ry="21.5258" fill="white"/>
</g>
<path opacity="0.75" d="M4848.61 1547.32C4849.94 1548.09 4849.94 1550.01 4848.61 1550.78L4748.03 1608.85C4746.69 1609.62 4745.03 1608.66 4745.03 1607.12V1490.98C4745.03 1489.44 4746.69 1488.48 4748.03 1489.25L4848.61 1547.32Z" fill="#1BB978"/>
<path opacity="0.75" d="M4906.5 1547.32C4907.83 1548.09 4907.83 1550.01 4906.5 1550.78L4805.92 1608.85C4804.59 1609.62 4802.92 1608.66 4802.92 1607.12V1490.98C4802.92 1489.44 4804.59 1488.48 4805.92 1489.25L4906.5 1547.32Z" fill="#1BB978"/>
<path opacity="0.75" d="M4848.61 1547.32C4849.94 1548.09 4849.94 1550.01 4848.61 1550.78L4748.03 1608.85C4746.69 1609.62 4745.03 1608.66 4745.03 1607.12V1490.98C4745.03 1489.44 4746.69 1488.48 4748.03 1489.25L4848.61 1547.32Z" fill="#6ED69A"/>
<path d="M2178.61 1584L2163.87 1579.61L2166.11 1572.23L2180.86 1577.7L2180.42 1560.91H2187.89L2187.4 1577.95L2201.9 1572.58L2204.15 1580L2189.16 1584.44L2198.83 1597.67L2192.77 1602.26L2183.69 1588.2L2174.9 1601.92L2168.8 1597.48L2178.61 1584ZM2221.68 1584L2206.93 1579.61L2209.18 1572.23L2223.93 1577.7L2223.49 1560.91H2230.96L2230.47 1577.95L2244.97 1572.58L2247.22 1580L2232.23 1584.44L2241.89 1597.67L2235.84 1602.26L2226.76 1588.2L2217.97 1601.92L2211.87 1597.48L2221.68 1584ZM2264.75 1584L2250 1579.61L2252.25 1572.23L2266.99 1577.7L2266.55 1560.91H2274.02L2273.54 1577.95L2288.04 1572.58L2290.28 1580L2275.29 1584.44L2284.96 1597.67L2278.91 1602.26L2269.82 1588.2L2261.04 1601.92L2254.93 1597.48L2264.75 1584ZM2307.81 1584L2293.07 1579.61L2295.31 1572.23L2310.06 1577.7L2309.62 1560.91H2317.09L2316.6 1577.95L2331.1 1572.58L2333.35 1580L2318.36 1584.44L2328.03 1597.67L2321.97 1602.26L2312.89 1588.2L2304.1 1601.92L2298 1597.48L2307.81 1584ZM2350.88 1584L2336.13 1579.61L2338.38 1572.23L2353.12 1577.7L2352.69 1560.91H2360.16L2359.67 1577.95L2374.17 1572.58L2376.42 1580L2361.43 1584.44L2371.09 1597.67L2365.04 1602.26L2355.96 1588.2L2347.17 1601.92L2341.06 1597.48L2350.88 1584ZM2393.95 1584L2379.2 1579.61L2381.45 1572.23L2396.19 1577.7L2395.75 1560.91H2403.22L2402.73 1577.95L2417.24 1572.58L2419.48 1580L2404.49 1584.44L2414.16 1597.67L2408.11 1602.26L2399.02 1588.2L2390.23 1601.92L2384.13 1597.48L2393.95 1584ZM2437.01 1584L2422.27 1579.61L2424.51 1572.23L2439.26 1577.7L2438.82 1560.91H2446.29L2445.8 1577.95L2460.3 1572.58L2462.55 1580L2447.56 1584.44L2457.23 1597.67L2451.17 1602.26L2442.09 1588.2L2433.3 1601.92L2427.2 1597.48L2437.01 1584ZM2480.08 1584L2465.33 1579.61L2467.58 1572.23L2482.32 1577.7L2481.88 1560.91H2489.36L2488.87 1577.95L2503.37 1572.58L2505.62 1580L2490.62 1584.44L2500.29 1597.67L2494.24 1602.26L2485.16 1588.2L2476.37 1601.92L2470.26 1597.48L2480.08 1584ZM2523.14 1584L2508.4 1579.61L2510.64 1572.23L2525.39 1577.7L2524.95 1560.91H2532.42L2531.93 1577.95L2546.44 1572.58L2548.68 1580L2533.69 1584.44L2543.36 1597.67L2537.3 1602.26L2528.22 1588.2L2519.43 1601.92L2513.33 1597.48L2523.14 1584ZM2566.21 1584L2551.46 1579.61L2553.71 1572.23L2568.46 1577.7L2568.02 1560.91H2575.49L2575 1577.95L2589.5 1572.58L2591.75 1580L2576.76 1584.44L2586.43 1597.67L2580.37 1602.26L2571.29 1588.2L2562.5 1601.92L2556.4 1597.48L2566.21 1584Z" fill="white"/>
<rect x="949" y="2911" width="701" height="787" fill="white"/>
<rect x="991" y="3408" width="168" height="170" fill="white" stroke="#C4C4C4" stroke-width="2"/>
<rect x="991" y="3640" width="168" height="57" fill="white" stroke="#C4C4C4" stroke-width="2"/>
<rect x="1218" y="3640" width="167" height="57" fill="white" stroke="#C4C4C4" stroke-width="2"/>
<rect x="1442" y="3636" width="168" height="57" fill="white" stroke="#C4C4C4" stroke-width="2"/>
<rect x="1214" y="3180" width="167" height="170" fill="white" stroke="#C4C4C4" stroke-width="2"/>
<rect x="991" y="3180" width="168" height="170" fill="white" stroke="#C4C4C4" stroke-width="2"/>
<rect x="991" y="2952" width="168" height="169" fill="white" stroke="#C4C4C4" stroke-width="2"/>
<rect x="1214" y="2952" width="167" height="169" fill="white" stroke="#C4C4C4" stroke-width="2"/>
<rect x="1434" y="2952" width="170" height="169" fill="white" stroke="#C4C4C4" stroke-width="2"/>
<rect x="1218" y="3408" width="167" height="170" fill="white" stroke="#C4C4C4" stroke-width="2"/>
<rect x="1442" y="3180" width="168" height="170" fill="white" stroke="#C4C4C4" stroke-width="2"/>
<rect x="1442" y="3408" width="168" height="169" fill="white" stroke="#C4C4C4" stroke-width="2"/>
<rect x="5624" y="2405" width="910" height="1120" fill="white"/>
<rect x="5678" y="3113" width="219" height="242" fill="white" stroke="#C4C4C4" stroke-width="2"/>
<rect x="5678" y="3442" width="219" height="82" fill="white" stroke="#C4C4C4" stroke-width="2"/>
<rect x="5971" y="3442" width="219" height="82" fill="white" stroke="#C4C4C4" stroke-width="2"/>
<rect x="6264" y="3437" width="219" height="82" fill="white" stroke="#C4C4C4" stroke-width="2"/>
<rect x="5968" y="2787" width="219" height="242" fill="white" stroke="#C4C4C4" stroke-width="2"/>
<rect x="5678" y="2787" width="219" height="242" fill="white" stroke="#C4C4C4" stroke-width="2"/>
<rect x="5678" y="2462" width="219" height="242" fill="white" stroke="#C4C4C4" stroke-width="2"/>
<rect x="5968" y="2462" width="219" height="242" fill="white" stroke="#C4C4C4" stroke-width="2"/>
<rect x="6254" y="2462" width="219" height="242" fill="white" stroke="#C4C4C4" stroke-width="2"/>
<rect x="5971" y="3113" width="219" height="242" fill="white" stroke="#C4C4C4" stroke-width="2"/>
<rect x="6263" y="2787" width="219" height="242" fill="white" stroke="#C4C4C4" stroke-width="2"/>
<rect x="6264" y="3112" width="219" height="242" fill="white" stroke="#C4C4C4" stroke-width="2"/>
<path d="M3101 1822C3101 1819.24 3103.24 1817 3106 1817H4045C4047.76 1817 4050 1819.24 4050 1822V2083C4050 2085.76 4047.76 2088 4045 2088H3106C3103.24 2088 3101 2085.76 3101 2083V1822Z" fill="#4E54C8"/>
<path d="M3338.45 2028.88C3269 2031.19 3278.88 1891.57 3345.99 1891.57C3413.62 1891.57 3409.72 2026.57 3338.45 2028.88ZM3345.21 1999.48C3361.86 1999.9 3367.32 1966.52 3368.1 1951.19C3368.88 1935.87 3362.9 1914.45 3347.03 1914.87C3331.16 1915.29 3322.58 1948.04 3323.1 1960.64C3323.88 1976.81 3328.3 1999.06 3345.21 1999.48ZM3442.75 2012.5L3406.08 2011.24L3414.92 1886.11L3437.03 1885.48L3476.57 1952.03L3487.75 1882.54L3511.16 1888.42L3499.46 2000.53L3476.05 2003.05L3437.03 1934.82L3442.75 2012.5ZM3562.14 2012.5L3525.47 2011.24L3534.31 1886.11L3556.42 1885.48L3595.96 1952.03L3607.14 1882.54L3630.55 1888.42L3618.85 2000.53L3595.44 2003.05L3556.42 1934.82L3562.14 2012.5ZM3719.51 2029.3L3648.5 2028.25L3644.86 1902.06L3714.31 1894.72L3713.53 1918.44H3673.73V1958.54L3707.03 1956.23L3708.85 1980.17L3675.03 1979.75L3673.21 2010.19L3722.11 2008.72L3719.51 2029.3ZM3839.43 2020.9C3795.21 2060.58 3736.94 2047.98 3736.42 1973.87C3735.9 1910.25 3797.03 1885.06 3833.44 1913.82L3822.52 1932.93C3808.21 1921.17 3768.67 1931.67 3765.55 1973.24C3762.69 2009.98 3795.99 2032.45 3820.44 2001.16L3839.43 2020.9ZM3936.19 1891.15L3933.85 1915.92L3907.06 1916.76L3908.88 2021.32L3869.6 2026.57L3876.88 1917.6L3848.53 1918.44L3849.31 1895.35L3936.19 1891.15ZM3954.66 1975.13V1856.29L3991.59 1854.2L3973.9 1974.5L3954.66 1975.13ZM3960.9 2020.9C3942.69 2020.9 3943.47 1991.72 3962.72 1991.72C3981.71 1991.72 3991.07 2020.9 3960.9 2020.9Z" fill="white"/>
<path d="M3265.02 2001.47C3279.1 2005.84 3280.6 2018.07 3254.11 2035.99C3239.48 2045.89 3221.63 2053.21 3205.72 2050.28C3189.81 2047.35 3175.66 2037.87 3165.69 2023.45C3155.72 2009.03 3150.55 1990.56 3151.04 1971.19C3151.54 1951.82 3157.68 1932.75 3168.42 1917.23C3179.16 1901.7 3193.83 1890.69 3209.94 1886.05C3226.04 1881.42 3243.64 1880.27 3255.63 1892.77C3265.02 1901.29 3268.72 1913.94 3268.72 1913.94L3232.28 1944.44L3203.15 1944.44L3203.15 2001.47C3229.65 2006.97 3250.95 1997.1 3265.02 2001.47Z" fill="white"/>
<path d="M3235.68 1975.08C3255.1 2003.07 3217.11 2006.7 3203.94 2003.07C3190.77 1999.44 3183.64 1981.02 3188 1961.93C3192.36 1942.84 3206.57 1930.31 3219.74 1933.94C3232.91 1937.57 3240.04 1955.99 3235.68 1975.08Z" fill="#4E54C8"/>
<path d="M3221 1942.52C3236.41 1942.52 3233.08 1947.1 3241 1939V1955H3223.05L3221 1942.52Z" fill="#4E54C8"/>
<path d="M3227.14 1939C3227.14 1939 3231.52 1945.13 3240.5 1940.81L3246 1955H3226L3227.14 1939Z" fill="#4E54C8"/>
<path d="M3263.82 1900.58C3254.99 1881.38 3287.35 1900.65 3287.35 1900.65L3287.15 1920.81L3257.92 1922.68C3257.92 1922.68 3272.66 1919.77 3263.82 1900.58Z" fill="#4E54C8"/>
<g filter="url(#filter2_d)">
<rect x="3180" y="2161" width="357" height="157" fill="white"/>
<rect x="3181" y="2162" width="355" height="155" stroke="black" stroke-width="2"/>
</g>
<g filter="url(#filter3_d)">
<rect x="3180" y="2161" width="357" height="157" fill="white"/>
<rect x="3181" y="2162" width="355" height="155" stroke="black" stroke-width="2"/>
</g>
<path d="M3253.46 2240.17C3253.46 2248.21 3251.63 2254.69 3247.95 2259.6C3244.27 2264.52 3239.29 2266.98 3233.01 2266.98C3226.59 2266.98 3221.55 2264.94 3217.87 2260.87V2286.31H3208.84V2213.17H3217.09L3217.53 2219.03C3221.21 2214.47 3226.32 2212.19 3232.86 2212.19C3239.21 2212.19 3244.22 2214.58 3247.9 2219.37C3251.61 2224.15 3253.46 2230.81 3253.46 2239.34V2240.17ZM3244.43 2239.14C3244.43 2233.19 3243.16 2228.48 3240.62 2225.03C3238.08 2221.58 3234.6 2219.86 3230.17 2219.86C3224.71 2219.86 3220.6 2222.28 3217.87 2227.13V2252.38C3220.57 2257.19 3224.71 2259.6 3230.27 2259.6C3234.6 2259.6 3238.04 2257.89 3240.57 2254.48C3243.15 2251.03 3244.43 2245.92 3244.43 2239.14ZM3274.8 2266H3265.77V2191H3274.8V2266ZM3321.92 2266C3321.4 2264.96 3320.98 2263.1 3320.65 2260.43C3316.45 2264.8 3311.44 2266.98 3305.61 2266.98C3300.4 2266.98 3296.12 2265.51 3292.77 2262.58C3289.45 2259.62 3287.79 2255.88 3287.79 2251.35C3287.79 2245.85 3289.87 2241.59 3294.04 2238.56C3298.24 2235.5 3304.13 2233.97 3311.72 2233.97H3320.51V2229.82C3320.51 2226.66 3319.56 2224.15 3317.67 2222.3C3315.79 2220.41 3313 2219.47 3309.32 2219.47C3306.1 2219.47 3303.4 2220.28 3301.22 2221.91C3299.04 2223.54 3297.95 2225.51 3297.95 2227.82H3288.87C3288.87 2225.18 3289.79 2222.64 3291.65 2220.2C3293.54 2217.73 3296.08 2215.77 3299.27 2214.34C3302.49 2212.91 3306.02 2212.19 3309.86 2212.19C3315.95 2212.19 3320.72 2213.72 3324.17 2216.78C3327.62 2219.81 3329.41 2223.99 3329.54 2229.33V2253.65C3329.54 2258.5 3330.16 2262.35 3331.39 2265.22V2266H3321.92ZM3306.93 2259.12C3309.76 2259.12 3312.45 2258.38 3314.99 2256.92C3317.53 2255.45 3319.37 2253.55 3320.51 2251.21V2240.37H3313.43C3302.36 2240.37 3296.82 2243.6 3296.82 2250.08C3296.82 2252.91 3297.77 2255.13 3299.66 2256.72C3301.54 2258.32 3303.97 2259.12 3306.93 2259.12ZM3360.2 2252.77L3372.51 2213.17H3382.18L3360.94 2274.15C3357.65 2282.94 3352.42 2287.34 3345.26 2287.34L3343.55 2287.19L3340.18 2286.56V2279.23L3342.62 2279.43C3345.68 2279.43 3348.06 2278.81 3349.75 2277.57C3351.48 2276.34 3352.9 2274.07 3354 2270.79L3356 2265.41L3337.16 2213.17H3347.02L3360.2 2252.77ZM3411.52 2266.98C3404.36 2266.98 3398.53 2264.63 3394.04 2259.95C3389.55 2255.23 3387.3 2248.93 3387.3 2241.05V2239.39C3387.3 2234.15 3388.3 2229.48 3390.28 2225.38C3392.3 2221.24 3395.1 2218.02 3398.68 2215.71C3402.29 2213.36 3406.2 2212.19 3410.4 2212.19C3417.27 2212.19 3422.61 2214.45 3426.41 2218.98C3430.22 2223.5 3432.13 2229.98 3432.13 2238.41V2242.17H3396.34C3396.47 2247.38 3397.98 2251.6 3400.88 2254.82C3403.81 2258.01 3407.52 2259.6 3412.01 2259.6C3415.2 2259.6 3417.9 2258.95 3420.12 2257.65C3422.33 2256.35 3424.27 2254.62 3425.93 2252.47L3431.44 2256.77C3427.02 2263.57 3420.38 2266.98 3411.52 2266.98ZM3410.4 2219.61C3406.75 2219.61 3403.69 2220.95 3401.22 2223.62C3398.74 2226.25 3397.21 2229.96 3396.63 2234.75H3423.09V2234.07C3422.83 2229.48 3421.6 2225.93 3419.38 2223.42C3417.17 2220.88 3414.17 2219.61 3410.4 2219.61ZM3468.16 2221.27C3466.79 2221.05 3465.31 2220.93 3463.72 2220.93C3457.79 2220.93 3453.77 2223.45 3451.66 2228.5V2266H3442.62V2213.17H3451.41L3451.56 2219.27C3454.52 2214.55 3458.72 2212.19 3464.16 2212.19C3465.92 2212.19 3467.25 2212.42 3468.16 2212.88V2221.27ZM3505.27 2266H3496.19V2205.79L3477.98 2212.48V2204.28L3503.86 2194.56H3505.27V2266Z" fill="black"/>
<g filter="url(#filter4_d)">
<rect x="2126" y="1892" width="357" height="157" fill="white"/>
<rect x="2127" y="1893" width="355" height="155" stroke="black" stroke-width="2"/>
</g>
<g filter="url(#filter5_d)">
<rect x="2126" y="1892" width="357" height="157" fill="white"/>
<rect x="2127" y="1893" width="355" height="155" stroke="black" stroke-width="2"/>
</g>
<path d="M2243.49 2006H2196.91V1999.51L2221.52 1972.16C2225.16 1968.03 2227.67 1964.68 2229.04 1962.1C2230.44 1959.5 2231.14 1956.81 2231.14 1954.05C2231.14 1950.34 2230.01 1947.29 2227.77 1944.92C2225.52 1942.54 2222.53 1941.35 2218.78 1941.35C2214.29 1941.35 2210.79 1942.64 2208.29 1945.21C2205.81 1947.75 2204.57 1951.3 2204.57 1955.85H2195.54C2195.54 1949.31 2197.64 1944.02 2201.84 1939.98C2206.07 1935.95 2211.72 1933.93 2218.78 1933.93C2225.39 1933.93 2230.62 1935.67 2234.46 1939.15C2238.3 1942.6 2240.22 1947.21 2240.22 1952.97C2240.22 1959.97 2235.76 1968.3 2226.84 1977.97L2207.8 1998.63H2243.49V2006ZM2255.79 2012.1H2248.03L2277.72 1934.91H2285.43L2255.79 2012.1ZM2332.41 1982.12H2342.27V1989.5H2332.41V2006H2323.32V1989.5H2290.95V1984.17L2322.79 1934.91H2332.41V1982.12ZM2301.21 1982.12H2323.32V1947.26L2322.25 1949.21L2301.21 1982.12ZM2395 1975.68C2395 1986.26 2393.2 1994.12 2389.58 1999.26C2385.97 2004.4 2380.32 2006.98 2372.64 2006.98C2365.06 2006.98 2359.44 2004.47 2355.79 1999.46C2352.15 1994.41 2350.26 1986.89 2350.13 1976.9V1964.84C2350.13 1954.39 2351.94 1946.62 2355.55 1941.55C2359.16 1936.47 2364.83 1933.93 2372.54 1933.93C2380.19 1933.93 2385.82 1936.39 2389.44 1941.3C2393.05 1946.19 2394.91 1953.74 2395 1963.96V1975.68ZM2385.97 1963.32C2385.97 1955.67 2384.9 1950.11 2382.75 1946.62C2380.6 1943.11 2377.2 1941.35 2372.54 1941.35C2367.92 1941.35 2364.55 1943.09 2362.44 1946.58C2360.32 1950.06 2359.23 1955.41 2359.16 1962.64V1977.09C2359.16 1984.78 2360.27 1990.46 2362.48 1994.13C2364.73 1997.78 2368.12 1999.6 2372.64 1999.6C2377.1 1999.6 2380.4 1997.88 2382.55 1994.43C2384.73 1990.98 2385.87 1985.54 2385.97 1978.12V1963.32Z" fill="black"/>
<g filter="url(#filter6_d)">
<rect x="3620" y="2161" width="357" height="157" fill="white"/>
<rect x="3621" y="2162" width="355" height="155" stroke="black" stroke-width="2"/>
</g>
<path d="M3693.46 2240.17C3693.46 2248.21 3691.63 2254.69 3687.95 2259.6C3684.27 2264.52 3679.29 2266.98 3673.01 2266.98C3666.59 2266.98 3661.55 2264.94 3657.87 2260.87V2286.31H3648.84V2213.17H3657.09L3657.53 2219.03C3661.21 2214.47 3666.32 2212.19 3672.86 2212.19C3679.21 2212.19 3684.22 2214.58 3687.9 2219.37C3691.61 2224.15 3693.46 2230.81 3693.46 2239.34V2240.17ZM3684.43 2239.14C3684.43 2233.19 3683.16 2228.48 3680.62 2225.03C3678.08 2221.58 3674.6 2219.86 3670.17 2219.86C3664.71 2219.86 3660.6 2222.28 3657.87 2227.13V2252.38C3660.57 2257.19 3664.71 2259.6 3670.27 2259.6C3674.6 2259.6 3678.04 2257.89 3680.57 2254.48C3683.15 2251.03 3684.43 2245.92 3684.43 2239.14ZM3714.8 2266H3705.77V2191H3714.8V2266ZM3761.92 2266C3761.4 2264.96 3760.98 2263.1 3760.65 2260.43C3756.45 2264.8 3751.44 2266.98 3745.61 2266.98C3740.4 2266.98 3736.12 2265.51 3732.77 2262.58C3729.45 2259.62 3727.79 2255.88 3727.79 2251.35C3727.79 2245.85 3729.87 2241.59 3734.04 2238.56C3738.24 2235.5 3744.13 2233.97 3751.72 2233.97H3760.51V2229.82C3760.51 2226.66 3759.56 2224.15 3757.67 2222.3C3755.79 2220.41 3753 2219.47 3749.32 2219.47C3746.1 2219.47 3743.4 2220.28 3741.22 2221.91C3739.04 2223.54 3737.95 2225.51 3737.95 2227.82H3728.87C3728.87 2225.18 3729.79 2222.64 3731.65 2220.2C3733.54 2217.73 3736.08 2215.77 3739.27 2214.34C3742.49 2212.91 3746.02 2212.19 3749.86 2212.19C3755.95 2212.19 3760.72 2213.72 3764.17 2216.78C3767.62 2219.81 3769.41 2223.99 3769.54 2229.33V2253.65C3769.54 2258.5 3770.16 2262.35 3771.39 2265.22V2266H3761.92ZM3746.93 2259.12C3749.76 2259.12 3752.45 2258.38 3754.99 2256.92C3757.53 2255.45 3759.37 2253.55 3760.51 2251.21V2240.37H3753.43C3742.36 2240.37 3736.82 2243.6 3736.82 2250.08C3736.82 2252.91 3737.77 2255.13 3739.66 2256.72C3741.54 2258.32 3743.97 2259.12 3746.93 2259.12ZM3800.2 2252.77L3812.51 2213.17H3822.18L3800.94 2274.15C3797.65 2282.94 3792.42 2287.34 3785.26 2287.34L3783.55 2287.19L3780.18 2286.56V2279.23L3782.62 2279.43C3785.68 2279.43 3788.06 2278.81 3789.75 2277.57C3791.48 2276.34 3792.9 2274.07 3794 2270.79L3796 2265.41L3777.16 2213.17H3787.02L3800.2 2252.77ZM3851.52 2266.98C3844.36 2266.98 3838.53 2264.63 3834.04 2259.95C3829.55 2255.23 3827.3 2248.93 3827.3 2241.05V2239.39C3827.3 2234.15 3828.3 2229.48 3830.28 2225.38C3832.3 2221.24 3835.1 2218.02 3838.68 2215.71C3842.29 2213.36 3846.2 2212.19 3850.4 2212.19C3857.27 2212.19 3862.61 2214.45 3866.41 2218.98C3870.22 2223.5 3872.13 2229.98 3872.13 2238.41V2242.17H3836.34C3836.47 2247.38 3837.98 2251.6 3840.88 2254.82C3843.81 2258.01 3847.52 2259.6 3852.01 2259.6C3855.2 2259.6 3857.9 2258.95 3860.12 2257.65C3862.33 2256.35 3864.27 2254.62 3865.93 2252.47L3871.44 2256.77C3867.02 2263.57 3860.38 2266.98 3851.52 2266.98ZM3850.4 2219.61C3846.75 2219.61 3843.69 2220.95 3841.22 2223.62C3838.74 2226.25 3837.21 2229.96 3836.63 2234.75H3863.09V2234.07C3862.83 2229.48 3861.6 2225.93 3859.38 2223.42C3857.17 2220.88 3854.17 2219.61 3850.4 2219.61ZM3908.16 2221.27C3906.79 2221.05 3905.31 2220.93 3903.72 2220.93C3897.79 2220.93 3893.77 2223.45 3891.66 2228.5V2266H3882.62V2213.17H3891.41L3891.56 2219.27C3894.52 2214.55 3898.72 2212.19 3904.16 2212.19C3905.92 2212.19 3907.25 2212.42 3908.16 2212.88V2221.27ZM3962.17 2266H3915.58V2259.51L3940.19 2232.16C3943.84 2228.03 3946.35 2224.68 3947.71 2222.1C3949.11 2219.5 3949.81 2216.81 3949.81 2214.05C3949.81 2210.34 3948.69 2207.29 3946.44 2204.92C3944.2 2202.54 3941.2 2201.35 3937.46 2201.35C3932.97 2201.35 3929.47 2202.64 3926.96 2205.21C3924.49 2207.75 3923.25 2211.3 3923.25 2215.85H3914.22C3914.22 2209.31 3916.32 2204.02 3920.52 2199.98C3924.75 2195.95 3930.4 2193.93 3937.46 2193.93C3944.07 2193.93 3949.29 2195.67 3953.13 2199.15C3956.97 2202.6 3958.89 2207.21 3958.89 2212.97C3958.89 2219.97 3954.43 2228.3 3945.52 2237.97L3926.47 2258.63H3962.17V2266Z" fill="black"/>
<defs>
<filter id="filter0_d" x="2162.5" y="1736.44" width="70.3203" height="48.3613" filterUnits="userSpaceOnUse" color-interpolation-filters="sRGB">
<feFlood flood-opacity="0" result="BackgroundImageFix"/>
<feColorMatrix in="SourceAlpha" type="matrix" values="0 0 0 0 0 0 0 0 0 0 0 0 0 0 0 0 0 0 127 0" result="hardAlpha"/>
<feOffset dx="10" dy="4"/>
<feGaussianBlur stdDeviation="2"/>
<feColorMatrix type="matrix" values="0 0 0 0 0 0 0 0 0 0 0 0 0 0 0 0 0 0 0.25 0"/>
<feBlend mode="normal" in2="BackgroundImageFix" result="effect1_dropShadow"/>
<feBlend mode="normal" in="SourceGraphic" in2="effect1_dropShadow" result="shape"/>
</filter>
<filter id="filter1_d" x="2170.69" y="1702" width="54.9609" height="51.0508" filterUnits="userSpaceOnUse" color-interpolation-filters="sRGB">
<feFlood flood-opacity="0" result="BackgroundImageFix"/>
<feColorMatrix in="SourceAlpha" type="matrix" values="0 0 0 0 0 0 0 0 0 0 0 0 0 0 0 0 0 0 127 0" result="hardAlpha"/>
<feOffset dx="10" dy="4"/>
<feGaussianBlur stdDeviation="2"/>
<feColorMatrix type="matrix" values="0 0 0 0 0 0 0 0 0 0 0 0 0 0 0 0 0 0 0.25 0"/>
<feBlend mode="normal" in2="BackgroundImageFix" result="effect1_dropShadow"/>
<feBlend mode="normal" in="SourceGraphic" in2="effect1_dropShadow" result="shape"/>
</filter>
<filter id="filter2_d" x="3180" y="2161" width="367" height="167" filterUnits="userSpaceOnUse" color-interpolation-filters="sRGB">
<feFlood flood-opacity="0" result="BackgroundImageFix"/>
<feColorMatrix in="SourceAlpha" type="matrix" values="0 0 0 0 0 0 0 0 0 0 0 0 0 0 0 0 0 0 127 0" result="hardAlpha"/>
<feOffset dx="10" dy="10"/>
<feComposite in2="hardAlpha" operator="out"/>
<feColorMatrix type="matrix" values="0 0 0 0 0.14902 0 0 0 0 0.14902 0 0 0 0 0.14902 0 0 0 1 0"/>
<feBlend mode="normal" in2="BackgroundImageFix" result="effect1_dropShadow"/>
<feBlend mode="normal" in="SourceGraphic" in2="effect1_dropShadow" result="shape"/>
</filter>
<filter id="filter3_d" x="3180" y="2161" width="367" height="167" filterUnits="userSpaceOnUse" color-interpolation-filters="sRGB">
<feFlood flood-opacity="0" result="BackgroundImageFix"/>
<feColorMatrix in="SourceAlpha" type="matrix" values="0 0 0 0 0 0 0 0 0 0 0 0 0 0 0 0 0 0 127 0" result="hardAlpha"/>
<feOffset dx="10" dy="10"/>
<feComposite in2="hardAlpha" operator="out"/>
<feColorMatrix type="matrix" values="0 0 0 0 0.14902 0 0 0 0 0.14902 0 0 0 0 0.14902 0 0 0 1 0"/>
<feBlend mode="normal" in2="BackgroundImageFix" result="effect1_dropShadow"/>
<feBlend mode="normal" in="SourceGraphic" in2="effect1_dropShadow" result="shape"/>
</filter>
<filter id="filter4_d" x="2126" y="1892" width="367" height="167" filterUnits="userSpaceOnUse" color-interpolation-filters="sRGB">
<feFlood flood-opacity="0" result="BackgroundImageFix"/>
<feColorMatrix in="SourceAlpha" type="matrix" values="0 0 0 0 0 0 0 0 0 0 0 0 0 0 0 0 0 0 127 0" result="hardAlpha"/>
<feOffset dx="10" dy="10"/>
<feComposite in2="hardAlpha" operator="out"/>
<feColorMatrix type="matrix" values="0 0 0 0 0.14902 0 0 0 0 0.14902 0 0 0 0 0.14902 0 0 0 1 0"/>
<feBlend mode="normal" in2="BackgroundImageFix" result="effect1_dropShadow"/>
<feBlend mode="normal" in="SourceGraphic" in2="effect1_dropShadow" result="shape"/>
</filter>
<filter id="filter5_d" x="2126" y="1892" width="367" height="167" filterUnits="userSpaceOnUse" color-interpolation-filters="sRGB">
<feFlood flood-opacity="0" result="BackgroundImageFix"/>
<feColorMatrix in="SourceAlpha" type="matrix" values="0 0 0 0 0 0 0 0 0 0 0 0 0 0 0 0 0 0 127 0" result="hardAlpha"/>
<feOffset dx="10" dy="10"/>
<feComposite in2="hardAlpha" operator="out"/>
<feColorMatrix type="matrix" values="0 0 0 0 0.14902 0 0 0 0 0.14902 0 0 0 0 0.14902 0 0 0 1 0"/>
<feBlend mode="normal" in2="BackgroundImageFix" result="effect1_dropShadow"/>
<feBlend mode="normal" in="SourceGraphic" in2="effect1_dropShadow" result="shape"/>
</filter>
<filter id="filter6_d" x="3620" y="2161" width="367" height="167" filterUnits="userSpaceOnUse" color-interpolation-filters="sRGB">
<feFlood flood-opacity="0" result="BackgroundImageFix"/>
<feColorMatrix in="SourceAlpha" type="matrix" values="0 0 0 0 0 0 0 0 0 0 0 0 0 0 0 0 0 0 127 0" result="hardAlpha"/>
<feOffset dx="10" dy="10"/>
<feComposite in2="hardAlpha" operator="out"/>
<feColorMatrix type="matrix" values="0 0 0 0 0.14902 0 0 0 0 0.14902 0 0 0 0 0.14902 0 0 0 1 0"/>
<feBlend mode="normal" in2="BackgroundImageFix" result="effect1_dropShadow"/>
<feBlend mode="normal" in="SourceGraphic" in2="effect1_dropShadow" result="shape"/>
</filter>
</defs>
</svg>
