<svg width="2378" height="955" viewBox="0 0 2378 955" fill="none" xmlns="http://www.w3.org/2000/svg">
<rect x="774.64" width="1207.29" height="499.426" rx="24.3108" fill="white"/>
<rect x="421.519" y="288.692" width="628.301" height="499.426" rx="24.3108" fill="white"/>
<rect x="237.004" y="450.702" width="809.633" height="499.426" rx="24.3108" fill="white"/>
<rect x="773.049" width="1204.11" height="708.941" rx="48.6216" fill="white"/>
<path d="M990.948 345.957H488.01C476.914 345.957 467.882 354.067 467.882 364.031V453.704C492.913 454.167 509.17 472.936 513.299 495.412V576.743H515.105C515.621 576.743 516.137 577.207 516.137 577.67V621.001C516.137 621.464 515.621 621.927 515.105 621.927H513.299V883.532C513.299 889.325 513.299 899.752 513.299 899.752H991.205C1002.3 899.752 1011.33 891.642 1011.33 881.678V364.031C1011.08 354.067 1002.04 345.957 990.948 345.957Z" fill="#6C63FF"/>
<path d="M1927.8 49.9863V541.956H1047.28V325.341C1047.28 304.91 1028.68 288.193 1005.95 288.193H840.902V49.9863H1927.8Z" fill="#6C63FF"/>
<path d="M1982.21 610.358H1047V606.885H1978.33V29.1749C1978.33 15.0506 1965.4 3.47321 1949.62 3.47321H805.96C790.184 3.47321 777.252 15.0506 777.252 29.1749V285.961H773.373V29.1749C773.373 13.1982 787.856 0.231547 805.96 0H1949.88C1967.73 0 1982.21 12.9666 1982.47 29.1749V610.358H1982.21Z" fill="#3F3D56"/>
<path d="M1893.97 715.592H1046.71V712.12H1893.71C1940.55 712.12 1978.59 678.094 1978.59 636.198V611.199H1046.71V607.727H1982.47V636.198C1982.47 680.177 1942.88 715.592 1893.97 715.592Z" fill="#3F3D56"/>
<path d="M1643.12 882.652C1596.04 842.101 1564.74 789.039 1554.91 714.89H1206.99C1203.37 784.173 1172.59 836.077 1116.97 882.42L1111.02 882.652C1168.45 836.077 1200.01 783.709 1203.11 713.268V711.646H1558.02L1558.28 713.268C1568.11 788.575 1599.67 841.87 1648.04 882.652H1643.12Z" fill="#3F3D56"/>
<path d="M1004.47 953.685H469.662V950.207H1004.73C1027.45 950.207 1046.05 933.512 1046.05 913.108V326.024C1046.05 305.62 1027.45 288.926 1004.73 288.926H469.662C446.937 288.926 428.344 305.62 428.344 326.024V452.855H424.471V326.024C424.471 303.765 444.613 285.68 469.662 285.448H1004.73C1029.52 285.448 1049.66 303.533 1049.92 326.024V913.34C1049.66 935.599 1029.52 953.685 1004.47 953.685Z" fill="#3F3D56"/>
<path d="M736.388 328.857C729.187 328.857 723.529 323.937 723.529 317.676C723.529 311.414 729.187 306.495 736.388 306.495C743.589 306.495 749.247 311.414 749.247 317.676C749.504 323.714 743.589 328.857 736.388 328.857ZM736.388 308.954C730.987 308.954 726.615 312.756 726.615 317.452C726.615 322.148 730.987 325.95 736.388 325.95C741.789 325.95 746.161 322.148 746.161 317.452C746.418 312.98 742.046 308.954 736.388 308.954Z" fill="#3F3D56"/>
<path d="M736.392 940.53C727.599 940.53 720.313 933.974 720.313 926.061C720.313 918.147 727.599 911.591 736.392 911.591C745.185 911.591 752.47 918.147 752.47 926.061C752.47 933.974 745.436 940.53 736.392 940.53ZM736.392 914.982C729.609 914.982 724.082 919.956 724.082 926.061C724.082 932.165 729.609 937.139 736.392 937.139C743.175 937.139 748.702 932.165 748.702 926.061C748.953 919.956 743.426 914.982 736.392 914.982Z" fill="#3F3D56"/>
<path d="M464.192 955H286.783C259.111 955 236.353 934.817 236.353 909.762V497.745C236.353 472.922 258.852 452.507 286.783 452.507H464.192C491.864 452.507 514.622 472.69 514.622 497.745V571.518C516.432 572.214 517.726 573.838 517.726 575.694V623.716C517.726 625.572 516.432 627.196 514.622 627.892V909.994C514.364 934.585 491.864 954.768 464.192 955ZM286.783 455.987C261.18 455.987 240.232 474.778 240.232 497.745V909.762C240.232 932.729 261.18 951.52 286.783 951.52H464.192C489.795 951.52 510.743 932.729 510.743 909.762V624.644H512.553C513.071 624.644 513.588 624.18 513.588 623.716V575.694C513.588 575.23 513.071 574.766 512.553 574.766H510.743V497.977C510.743 475.01 489.795 456.219 464.192 456.219H286.783V455.987Z" fill="#3F3D56"/>
<path d="M465.408 465.661H442.112C445.736 473.543 441.594 482.585 432.793 485.831C430.722 486.526 428.652 486.99 426.322 486.99H324.595C315.017 486.99 307.511 480.035 307.511 471.689C307.511 469.602 308.029 467.748 308.805 465.893H287.062C267.131 465.893 250.823 480.498 250.823 498.35V909.389C250.823 927.24 267.131 941.846 287.062 941.846H465.408C485.339 941.846 501.647 927.24 501.647 909.389V498.118C501.647 480.267 485.598 465.661 465.408 465.661Z" fill="#6C63FF"/>
<path d="M1643.41 953.684H1115.65C1093.45 953.684 1075.65 937.581 1075.65 917.51C1075.65 897.439 1093.45 881.336 1115.65 881.336H1643.41C1665.61 881.336 1683.41 897.439 1683.41 917.51C1683.41 937.581 1665.61 953.684 1643.41 953.684ZM1115.65 884.837C1095.78 884.837 1079.52 899.54 1079.52 917.51C1079.52 935.481 1095.78 950.184 1115.65 950.184H1643.41C1663.28 950.184 1679.54 935.481 1679.54 917.51C1679.54 899.54 1663.28 884.837 1643.41 884.837H1115.65Z" fill="#3F3D56"/>
<path d="M483.961 601.15H271.726V790.571H483.961V601.15Z" fill="white"/>
<path d="M343.478 579.379H339.119V550.48L330.376 553.691V549.754L342.798 545.09H343.478V579.379ZM377.58 564.824C377.58 569.902 376.712 573.676 374.978 576.145C373.244 578.613 370.533 579.848 366.845 579.848C363.205 579.848 360.509 578.645 358.759 576.238C357.009 573.816 356.103 570.207 356.041 565.41V559.621C356.041 554.605 356.908 550.879 358.642 548.441C360.376 546.004 363.095 544.785 366.798 544.785C370.47 544.785 373.173 545.965 374.908 548.324C376.642 550.668 377.533 554.293 377.58 559.199V564.824ZM373.244 558.895C373.244 555.223 372.728 552.551 371.697 550.879C370.666 549.191 369.033 548.348 366.798 548.348C364.58 548.348 362.962 549.184 361.947 550.855C360.931 552.527 360.408 555.098 360.376 558.566V565.504C360.376 569.191 360.908 571.918 361.97 573.684C363.048 575.434 364.673 576.309 366.845 576.309C368.986 576.309 370.572 575.48 371.603 573.824C372.65 572.168 373.197 569.559 373.244 565.996V558.895ZM383.673 577.105C383.673 576.355 383.892 575.73 384.33 575.23C384.783 574.73 385.455 574.48 386.345 574.48C387.236 574.48 387.908 574.73 388.361 575.23C388.83 575.73 389.064 576.355 389.064 577.105C389.064 577.824 388.83 578.426 388.361 578.91C387.908 579.395 387.236 579.637 386.345 579.637C385.455 579.637 384.783 579.395 384.33 578.91C383.892 578.426 383.673 577.824 383.673 577.105ZM412.806 545.23V548.91H412.009C408.634 548.973 405.947 549.973 403.947 551.91C401.947 553.848 400.791 556.574 400.478 560.09C402.275 558.027 404.728 556.996 407.837 556.996C410.806 556.996 413.173 558.043 414.939 560.137C416.72 562.23 417.611 564.934 417.611 568.246C417.611 571.762 416.65 574.574 414.728 576.684C412.822 578.793 410.259 579.848 407.041 579.848C403.775 579.848 401.126 578.598 399.095 576.098C397.064 573.582 396.048 570.348 396.048 566.395V564.73C396.048 558.449 397.384 553.652 400.056 550.34C402.744 547.012 406.736 545.309 412.033 545.23H412.806ZM407.111 560.605C405.626 560.605 404.259 561.051 403.009 561.941C401.759 562.832 400.892 563.949 400.408 565.293V566.887C400.408 569.699 401.041 571.965 402.306 573.684C403.572 575.402 405.15 576.262 407.041 576.262C408.994 576.262 410.525 575.543 411.634 574.105C412.759 572.668 413.322 570.785 413.322 568.457C413.322 566.113 412.751 564.223 411.611 562.785C410.486 561.332 408.986 560.605 407.111 560.605Z" fill="black"/>
<path d="M336.039 610.358H289.412V652.452H336.039V610.358Z" fill="white" stroke="black" stroke-width="0.972431" stroke-miterlimit="10"/>
<path d="M403.568 610.358H356.941V652.452H403.568V610.358Z" fill="white" stroke="black" stroke-width="0.972431" stroke-miterlimit="10"/>
<path d="M471.098 610.358H424.471V652.452H471.098V610.358Z" fill="white" stroke="black" stroke-width="0.972431" stroke-miterlimit="10"/>
<path d="M336.039 711.646H289.412V753.74H336.039V711.646Z" fill="white" stroke="black" stroke-width="0.972431" stroke-miterlimit="10"/>
<path d="M336.039 661.66H289.412V703.753H336.039V661.66Z" fill="white" stroke="black" stroke-width="0.972431" stroke-miterlimit="10"/>
<path d="M403.568 661.66H356.941V703.753H403.568V661.66Z" fill="white" stroke="black" stroke-width="0.972431" stroke-miterlimit="10"/>
<path d="M471.098 661.66H424.471V703.753H471.098V661.66Z" fill="white" stroke="black" stroke-width="0.972431" stroke-miterlimit="10"/>
<path d="M403.568 711.646H356.941V753.74H403.568V711.646Z" fill="white" stroke="black" stroke-width="0.972431" stroke-miterlimit="10"/>
<path d="M336.039 762.948H289.412V787.941H336.039V762.948Z" fill="white" stroke="black" stroke-width="0.972431" stroke-miterlimit="10"/>
<path d="M471.098 711.646H424.471V753.74H471.098V711.646Z" fill="white" stroke="black" stroke-width="0.972431" stroke-miterlimit="10"/>
<path d="M471.098 762.948H424.471V787.941H471.098V762.948Z" fill="white" stroke="black" stroke-width="0.972431" stroke-miterlimit="10"/>
<path d="M400.353 762.948H353.726V787.941H400.353V762.948Z" fill="white" stroke="black" stroke-width="0.972431" stroke-miterlimit="10"/>
<path d="M1701.09 107.865H1154.44C1134.81 107.865 1119.06 121.994 1119.06 139.598V465.498C1119.06 483.102 1134.81 497.231 1154.44 497.231H1701.09C1720.72 497.231 1736.47 483.102 1736.47 465.498V139.829C1736.47 122.226 1720.46 107.865 1701.09 107.865Z" fill="white" stroke="white" stroke-width="0.972431" stroke-miterlimit="10"/>
<path d="M932.549 485.393H559.529V819.511H932.549V485.393Z" fill="white"/>
<path d="M676.902 495.916H577.216V586.681H676.902V495.916Z" fill="white" stroke="black" stroke-width="0.972431" stroke-miterlimit="10"/>
<path d="M910.039 709.015H808.745V798.464H910.039V709.015Z" fill="white" stroke="black" stroke-width="0.972431" stroke-miterlimit="10"/>
<path d="M797.49 709.015H696.196V798.464H797.49V709.015Z" fill="white" stroke="black" stroke-width="0.972431" stroke-miterlimit="10"/>
<path d="M676.902 709.015H577.216V798.464H676.902V709.015Z" fill="white" stroke="black" stroke-width="0.972431" stroke-miterlimit="10"/>
<path d="M913.255 607.727H813.569V698.492H913.255V607.727Z" fill="white" stroke="black" stroke-width="0.972431" stroke-miterlimit="10"/>
<path d="M797.49 607.727H696.196V698.492H797.49V607.727Z" fill="white" stroke="black" stroke-width="0.972431" stroke-miterlimit="10"/>
<path d="M678.51 607.727H578.823V698.492H678.51V607.727Z" fill="white" stroke="black" stroke-width="0.972431" stroke-miterlimit="10"/>
<path d="M913.255 495.916H813.569V586.681H913.255V495.916Z" fill="white" stroke="black" stroke-width="0.972431" stroke-miterlimit="10"/>
<path d="M797.49 495.916H696.196V586.681H797.49V495.916Z" fill="white" stroke="black" stroke-width="0.972431" stroke-miterlimit="10"/>
<path d="M703.635 437.312H699.275V408.414L690.533 411.625V407.688L702.955 403.023H703.635V437.312ZM737.736 422.758C737.736 427.836 736.869 431.609 735.135 434.078C733.4 436.547 730.689 437.781 727.002 437.781C723.361 437.781 720.666 436.578 718.916 434.172C717.166 431.75 716.26 428.141 716.197 423.344V417.555C716.197 412.539 717.064 408.812 718.799 406.375C720.533 403.938 723.252 402.719 726.955 402.719C730.627 402.719 733.33 403.898 735.064 406.258C736.799 408.602 737.689 412.227 737.736 417.133V422.758ZM733.4 416.828C733.4 413.156 732.885 410.484 731.854 408.812C730.822 407.125 729.189 406.281 726.955 406.281C724.736 406.281 723.119 407.117 722.104 408.789C721.088 410.461 720.564 413.031 720.533 416.5V423.438C720.533 427.125 721.064 429.852 722.127 431.617C723.205 433.367 724.83 434.242 727.002 434.242C729.143 434.242 730.729 433.414 731.76 431.758C732.807 430.102 733.354 427.492 733.4 423.93V416.828ZM743.83 435.039C743.83 434.289 744.049 433.664 744.486 433.164C744.939 432.664 745.611 432.414 746.502 432.414C747.393 432.414 748.064 432.664 748.518 433.164C748.986 433.664 749.221 434.289 749.221 435.039C749.221 435.758 748.986 436.359 748.518 436.844C748.064 437.328 747.393 437.57 746.502 437.57C745.611 437.57 744.939 437.328 744.486 436.844C744.049 436.359 743.83 435.758 743.83 435.039ZM772.963 403.164V406.844H772.166C768.791 406.906 766.104 407.906 764.104 409.844C762.104 411.781 760.947 414.508 760.635 418.023C762.432 415.961 764.885 414.93 767.994 414.93C770.963 414.93 773.33 415.977 775.096 418.07C776.877 420.164 777.768 422.867 777.768 426.18C777.768 429.695 776.807 432.508 774.885 434.617C772.979 436.727 770.416 437.781 767.197 437.781C763.932 437.781 761.283 436.531 759.252 434.031C757.221 431.516 756.205 428.281 756.205 424.328V422.664C756.205 416.383 757.541 411.586 760.213 408.273C762.9 404.945 766.893 403.242 772.189 403.164H772.963ZM767.268 418.539C765.783 418.539 764.416 418.984 763.166 419.875C761.916 420.766 761.049 421.883 760.564 423.227V424.82C760.564 427.633 761.197 429.898 762.463 431.617C763.729 433.336 765.307 434.195 767.197 434.195C769.15 434.195 770.682 433.477 771.791 432.039C772.916 430.602 773.479 428.719 773.479 426.391C773.479 424.047 772.908 422.156 771.768 420.719C770.643 419.266 769.143 418.539 767.268 418.539Z" fill="black"/>
<path d="M1382.89 143.806H1371.92V174.228H1367.45V143.806H1356.5V140.103H1382.89V143.806ZM1391.99 174.228H1387.65V148.868H1391.99V174.228ZM1387.3 142.142C1387.3 141.438 1387.51 140.845 1387.93 140.36C1388.37 139.876 1389.01 139.634 1389.85 139.634C1390.7 139.634 1391.34 139.876 1391.78 140.36C1392.21 140.845 1392.43 141.438 1392.43 142.142C1392.43 142.845 1392.21 143.431 1391.78 143.899C1391.34 144.368 1390.7 144.603 1389.85 144.603C1389.01 144.603 1388.37 144.368 1387.93 143.899C1387.51 143.431 1387.3 142.845 1387.3 142.142ZM1403.03 148.868L1403.14 151.681C1405 149.493 1407.51 148.399 1410.67 148.399C1414.21 148.399 1416.63 149.759 1417.91 152.478C1418.75 151.259 1419.85 150.274 1421.19 149.524C1422.55 148.774 1424.15 148.399 1425.99 148.399C1431.56 148.399 1434.39 151.345 1434.48 157.235V174.228H1430.14V157.493C1430.14 155.681 1429.73 154.329 1428.9 153.438C1428.07 152.532 1426.68 152.079 1424.73 152.079C1423.12 152.079 1421.78 152.563 1420.72 153.532C1419.66 154.485 1419.04 155.774 1418.87 157.399V174.228H1414.51V157.61C1414.51 153.923 1412.71 152.079 1409.1 152.079C1406.25 152.079 1404.31 153.29 1403.26 155.712V174.228H1398.92V148.868H1403.03ZM1451.56 174.696C1448.13 174.696 1445.33 173.571 1443.17 171.321C1441.02 169.056 1439.94 166.032 1439.94 162.251V161.454C1439.94 158.938 1440.42 156.696 1441.37 154.728C1442.34 152.743 1443.68 151.196 1445.4 150.087C1447.14 148.962 1449.01 148.399 1451.03 148.399C1454.32 148.399 1456.89 149.485 1458.71 151.657C1460.54 153.829 1461.46 156.938 1461.46 160.985V162.79H1444.28C1444.34 165.29 1445.06 167.313 1446.46 168.86C1447.86 170.392 1449.64 171.157 1451.8 171.157C1453.33 171.157 1454.63 170.845 1455.69 170.22C1456.75 169.595 1457.68 168.767 1458.48 167.735L1461.13 169.798C1459 173.063 1455.81 174.696 1451.56 174.696ZM1451.03 151.962C1449.28 151.962 1447.81 152.603 1446.62 153.884C1445.43 155.149 1444.7 156.931 1444.42 159.228H1457.12V158.899C1456.99 156.696 1456.4 154.993 1455.34 153.79C1454.28 152.571 1452.84 151.962 1451.03 151.962ZM1481.26 167.501C1481.26 166.329 1480.81 165.423 1479.92 164.782C1479.05 164.126 1477.51 163.563 1475.31 163.095C1473.12 162.626 1471.38 162.063 1470.08 161.407C1468.8 160.751 1467.85 159.97 1467.22 159.063C1466.61 158.157 1466.31 157.079 1466.31 155.829C1466.31 153.751 1467.18 151.993 1468.93 150.556C1470.7 149.118 1472.95 148.399 1475.68 148.399C1478.56 148.399 1480.89 149.142 1482.67 150.626C1484.46 152.11 1485.36 154.009 1485.36 156.321H1481C1481 155.134 1480.49 154.11 1479.48 153.251C1478.48 152.392 1477.21 151.962 1475.68 151.962C1474.1 151.962 1472.87 152.306 1471.98 152.993C1471.09 153.681 1470.64 154.579 1470.64 155.688C1470.64 156.735 1471.06 157.524 1471.89 158.056C1472.71 158.587 1474.21 159.095 1476.36 159.579C1478.53 160.063 1480.29 160.642 1481.64 161.313C1482.98 161.985 1483.97 162.798 1484.61 163.751C1485.27 164.688 1485.6 165.837 1485.6 167.196C1485.6 169.462 1484.69 171.282 1482.88 172.657C1481.06 174.017 1478.71 174.696 1475.82 174.696C1473.79 174.696 1471.99 174.337 1470.43 173.618C1468.87 172.899 1467.64 171.899 1466.75 170.618C1465.88 169.321 1465.44 167.923 1465.44 166.423H1469.78C1469.85 167.876 1470.43 169.032 1471.51 169.892C1472.6 170.735 1474.04 171.157 1475.82 171.157C1477.46 171.157 1478.78 170.829 1479.76 170.173C1480.76 169.501 1481.26 168.61 1481.26 167.501Z" fill="black"/>
</svg>

