<<svg width="7974" height="5608" viewBox="0 0 7974 5608" fill="none" xmlns="http://www.w3.org/2000/svg">
<path d="M7973.5 2866.5C6721 4952 6026.42 5607.5 3817 5607.5C1607.58 5607.5 0.5 4996.17 0.5 3074.5C0.5 1152.83 3220.08 0 5429.5 0C7638.92 0 7973.5 944.825 7973.5 2866.5Z" fill="#6C63FF"/>
<rect x="854" y="2401" width="900" height="1809" rx="75" fill="#262626"/>
<rect x="904" y="2440" width="800" height="1730" rx="75" fill="#6976EA"/>
<path d="M1078 2432H1523V2434C1523 2475.42 1489.42 2509 1448 2509H1153C1111.58 2509 1078 2475.42 1078 2434V2432Z" fill="#262626"/>
<circle cx="1441" cy="2457" r="25" fill="white"/>
<ellipse cx="6092.5" cy="1705" rx="22.5" ry="24" fill="white"/>
<rect x="1156" y="2437" width="208" height="45" rx="22.5" fill="white"/>
<rect x="842" y="2583" width="23" height="118" rx="11.5" fill="#262626"/>
<rect x="1743" y="2610" width="23" height="118" rx="11.5" fill="#262626"/>
<rect x="843" y="2865" width="23" height="137" rx="11.5" fill="#262626"/>
<rect x="842" y="3034" width="23" height="137" rx="11.5" fill="#262626"/>
<rect x="953" y="2865" width="701" height="787" fill="white"/>
<g filter="url(#filter0_d)">
<rect x="994" y="2904" width="170" height="171" fill="white"/>
</g>
<g filter="url(#filter1_d)">
<rect x="994" y="3133" width="170" height="171" fill="white"/>
</g>
<g filter="url(#filter2_d)">
<rect x="994" y="3362" width="170" height="171" fill="white"/>
</g>
<g filter="url(#filter3_d)">
<rect x="1445" y="3362" width="170" height="171" fill="white"/>
</g>
<g filter="url(#filter4_d)">
<rect x="1217" y="3362" width="170" height="171" fill="white"/>
</g>
<g filter="url(#filter5_d)">
<rect x="1438" y="3593" width="170" height="59" fill="white"/>
</g>
<g filter="url(#filter6_d)">
<rect x="1210" y="3593" width="170" height="59" fill="white"/>
</g>
<g filter="url(#filter7_d)">
<rect x="982" y="3592" width="170" height="60" fill="white"/>
</g>
<g filter="url(#filter8_d)">
<rect x="1439" y="2904" width="169" height="171" fill="white"/>
</g>
<g filter="url(#filter9_d)">
<path d="M1217 2904H1386V3075H1217V2904Z" fill="white"/>
</g>
<g filter="url(#filter10_d)">
<path d="M1439 3133H1608V3304H1439V3133Z" fill="white"/>
</g>
<g filter="url(#filter11_d)">
<path d="M1219 3132H1388V3303H1219V3132Z" fill="white"/>
</g>
<rect x="6895" y="1629" width="2581" height="1613" rx="75" transform="rotate(90 6895 1629)" fill="#262626"/>
<rect x="6831" y="1773" width="2267" height="1478" rx="75" transform="rotate(90 6831 1773)" fill="#6976EA"/>
<rect x="5683" y="2467" width="812" height="1058" fill="white"/>
<g filter="url(#filter12_d)">
<rect x="5731" y="2520" width="197" height="229" fill="white"/>
</g>
<g filter="url(#filter13_d)">
<rect x="5731" y="2827" width="197" height="230" fill="white"/>
</g>
<g filter="url(#filter14_d)">
<rect x="5731" y="3135" width="197" height="231" fill="white"/>
</g>
<g filter="url(#filter15_d)">
<rect x="6253" y="3135" width="196" height="231" fill="white"/>
</g>
<g filter="url(#filter16_d)">
<rect x="5989" y="3135" width="196" height="231" fill="white"/>
</g>
<g filter="url(#filter17_d)">
<rect x="6245" y="3446" width="196" height="79" fill="white"/>
</g>
<g filter="url(#filter18_d)">
<rect x="5981" y="3446" width="196" height="79" fill="white"/>
</g>
<g filter="url(#filter19_d)">
<rect x="5717" y="3445" width="196" height="80" fill="white"/>
</g>
<g filter="url(#filter20_d)">
<rect x="6246" y="2520" width="195" height="229" fill="white"/>
</g>
<g filter="url(#filter21_d)">
<path d="M5989 2520H6184V2749H5989V2520Z" fill="white"/>
</g>
<g filter="url(#filter22_d)">
<path d="M6246 2827H6441V3057H6246V2827Z" fill="white"/>
</g>
<g filter="url(#filter23_d)">
<path d="M5991 2826H6187V3056H5991V2826Z" fill="white"/>
</g>
<ellipse cx="6089" cy="1705" rx="22" ry="24" fill="white"/>
<ellipse cx="6079" cy="4122.5" rx="45" ry="47.5" fill="white"/>
<path d="M6029.44 2338H6019.63V2272.98L5999.96 2280.2V2271.34L6027.91 2260.85H6029.44V2338ZM6106.17 2305.25C6106.17 2316.68 6104.22 2325.17 6100.32 2330.72C6096.42 2336.28 6090.32 2339.05 6082.02 2339.05C6073.83 2339.05 6067.76 2336.35 6063.83 2330.93C6059.89 2325.48 6057.85 2317.36 6057.71 2306.57V2293.54C6057.71 2282.26 6059.66 2273.88 6063.56 2268.39C6067.46 2262.91 6073.58 2260.16 6081.91 2260.16C6090.18 2260.16 6096.26 2262.82 6100.16 2268.13C6104.06 2273.4 6106.07 2281.56 6106.17 2292.6V2305.25ZM6096.42 2291.91C6096.42 2283.65 6095.26 2277.64 6092.94 2273.88C6090.62 2270.08 6086.94 2268.18 6081.91 2268.18C6076.92 2268.18 6073.28 2270.06 6071 2273.82C6068.71 2277.58 6067.54 2283.37 6067.46 2291.17V2306.78C6067.46 2315.08 6068.66 2321.21 6071.05 2325.19C6073.48 2329.12 6077.13 2331.09 6082.02 2331.09C6086.84 2331.09 6090.4 2329.23 6092.72 2325.5C6095.08 2321.78 6096.31 2315.9 6096.42 2307.89V2291.91ZM6119.88 2332.88C6119.88 2331.2 6120.38 2329.79 6121.36 2328.67C6122.38 2327.54 6123.89 2326.98 6125.89 2326.98C6127.9 2326.98 6129.41 2327.54 6130.43 2328.67C6131.48 2329.79 6132.01 2331.2 6132.01 2332.88C6132.01 2334.5 6131.48 2335.86 6130.43 2336.95C6129.41 2338.04 6127.9 2338.58 6125.89 2338.58C6123.89 2338.58 6122.38 2338.04 6121.36 2336.95C6120.38 2335.86 6119.88 2334.5 6119.88 2332.88ZM6185.43 2261.17V2269.45H6183.64C6176.04 2269.59 6170 2271.84 6165.5 2276.2C6161 2280.55 6158.4 2286.69 6157.69 2294.6C6161.74 2289.96 6167.26 2287.64 6174.25 2287.64C6180.93 2287.64 6186.26 2289.99 6190.23 2294.71C6194.24 2299.42 6196.24 2305.5 6196.24 2312.95C6196.24 2320.86 6194.08 2327.19 6189.76 2331.94C6185.47 2336.68 6179.7 2339.05 6172.46 2339.05C6165.11 2339.05 6159.15 2336.24 6154.58 2330.62C6150.01 2324.96 6147.73 2317.68 6147.73 2308.79V2305.04C6147.73 2290.91 6150.73 2280.12 6156.74 2272.66C6162.79 2265.17 6171.77 2261.34 6183.69 2261.17H6185.43ZM6172.62 2295.76C6169.28 2295.76 6166.2 2296.76 6163.39 2298.77C6160.58 2300.77 6158.62 2303.28 6157.54 2306.31V2309.89C6157.54 2316.22 6158.96 2321.32 6161.81 2325.19C6164.65 2329.05 6168.21 2330.99 6172.46 2330.99C6176.85 2330.99 6180.3 2329.37 6182.79 2326.13C6185.33 2322.9 6186.59 2318.66 6186.59 2313.43C6186.59 2308.15 6185.31 2303.9 6182.74 2300.66C6180.21 2297.39 6176.84 2295.76 6172.62 2295.76Z" fill="white"/>
<path d="M5898.25 2082.84L5927.07 2154.77L5955.89 2082.84H5970.96V2171H5959.34V2136.67L5960.43 2099.62L5931.49 2171H5922.59L5893.71 2099.8L5894.86 2136.67V2171H5883.23V2082.84H5898.25ZM6011.17 2154.59L6026.43 2105.49H6038.41L6012.08 2181.11C6008 2192.01 6001.52 2197.46 5992.64 2197.46L5990.52 2197.28L5986.34 2196.49V2187.41L5989.37 2187.65C5993.17 2187.65 5996.11 2186.88 5998.21 2185.35C6000.35 2183.82 6002.11 2181.01 6003.48 2176.93L6005.96 2170.27L5982.59 2105.49H5994.82L6011.17 2154.59ZM6148.31 2129.77C6148.31 2138.28 6146.95 2145.63 6144.25 2151.81C6141.55 2157.94 6137.75 2162.75 6132.87 2166.22L6148.61 2178.57L6140.68 2185.89L6122.09 2171.12C6119.18 2171.85 6116.12 2172.21 6112.89 2172.21C6105.94 2172.21 6099.79 2170.52 6094.42 2167.12C6089.05 2163.69 6084.87 2158.83 6081.89 2152.53C6078.94 2146.2 6077.43 2138.87 6077.35 2130.55V2124.2C6077.35 2115.72 6078.82 2108.23 6081.77 2101.73C6084.71 2095.24 6088.87 2090.27 6094.24 2086.84C6099.65 2083.37 6105.82 2081.63 6112.77 2081.63C6119.87 2081.63 6126.11 2083.35 6131.47 2086.78C6136.88 2090.21 6141.04 2095.15 6143.95 2101.61C6146.85 2108.03 6148.31 2115.54 6148.31 2124.14V2129.77ZM6136.68 2124.08C6136.68 2113.7 6134.6 2105.71 6130.45 2100.1C6126.33 2094.45 6120.43 2091.62 6112.77 2091.62C6105.46 2091.62 6099.69 2094.43 6095.45 2100.04C6091.25 2105.61 6089.09 2113.36 6088.97 2123.29V2129.77C6088.97 2139.86 6091.07 2147.81 6095.27 2153.62C6099.51 2159.44 6105.38 2162.34 6112.89 2162.34C6120.39 2162.34 6126.21 2159.62 6130.32 2154.17C6134.44 2148.68 6136.56 2140.83 6136.68 2130.62V2124.08ZM6204.92 2164.52C6200.56 2169.65 6194.16 2172.21 6185.72 2172.21C6178.74 2172.21 6173.41 2170.19 6169.74 2166.16C6166.11 2162.08 6164.27 2156.07 6164.23 2148.11V2105.49H6175.43V2147.81C6175.43 2157.74 6179.47 2162.71 6187.54 2162.71C6196.1 2162.71 6201.79 2159.52 6204.62 2153.14V2105.49H6215.82V2171H6205.16L6204.92 2164.52ZM6245.06 2171H6233.86V2105.49H6245.06V2171ZM6232.95 2088.11C6232.95 2086.29 6233.5 2084.76 6234.59 2083.51C6235.72 2082.26 6237.37 2081.63 6239.55 2081.63C6241.73 2081.63 6243.39 2082.26 6244.52 2083.51C6245.65 2084.76 6246.21 2086.29 6246.21 2088.11C6246.21 2089.93 6245.65 2091.44 6244.52 2092.65C6243.39 2093.86 6241.73 2094.47 6239.55 2094.47C6237.37 2094.47 6235.72 2093.86 6234.59 2092.65C6233.5 2091.44 6232.95 2089.93 6232.95 2088.11ZM6273.58 2161.86H6311.9V2171H6259.89V2162.77L6296.04 2114.75H6260.44V2105.49H6310.09V2113.42L6273.58 2161.86Z" fill="white"/>
<ellipse cx="1997.5" cy="2215" rx="29.5" ry="25" fill="white"/>
<rect x="1901" y="1321" width="3234" height="1898" rx="75" fill="#262626"/>
<rect x="2082" y="1432" width="2874" height="1657" rx="75" fill="#6976EA"/>
<path d="M1227.44 2830H1217.63V2764.98L1197.96 2772.2V2763.34L1225.91 2752.85H1227.44V2830ZM1304.17 2797.25C1304.17 2808.68 1302.22 2817.17 1298.32 2822.72C1294.42 2828.28 1288.32 2831.05 1280.02 2831.05C1271.83 2831.05 1265.76 2828.35 1261.83 2822.93C1257.89 2817.48 1255.85 2809.36 1255.71 2798.57V2785.54C1255.71 2774.26 1257.66 2765.88 1261.56 2760.39C1265.46 2754.91 1271.58 2752.16 1279.91 2752.16C1288.18 2752.16 1294.26 2754.82 1298.16 2760.13C1302.06 2765.4 1304.07 2773.56 1304.17 2784.6V2797.25ZM1294.42 2783.91C1294.42 2775.65 1293.26 2769.64 1290.94 2765.88C1288.62 2762.08 1284.94 2760.18 1279.91 2760.18C1274.92 2760.18 1271.28 2762.06 1269 2765.82C1266.71 2769.58 1265.54 2775.37 1265.46 2783.17V2798.78C1265.46 2807.08 1266.66 2813.21 1269.05 2817.19C1271.48 2821.12 1275.13 2823.09 1280.02 2823.09C1284.84 2823.09 1288.4 2821.23 1290.72 2817.5C1293.08 2813.78 1294.31 2807.9 1294.42 2799.89V2783.91ZM1317.88 2824.88C1317.88 2823.2 1318.38 2821.79 1319.36 2820.67C1320.38 2819.54 1321.89 2818.98 1323.89 2818.98C1325.9 2818.98 1327.41 2819.54 1328.43 2820.67C1329.48 2821.79 1330.01 2823.2 1330.01 2824.88C1330.01 2826.5 1329.48 2827.86 1328.43 2828.95C1327.41 2830.04 1325.9 2830.58 1323.89 2830.58C1321.89 2830.58 1320.38 2830.04 1319.36 2828.95C1318.38 2827.86 1317.88 2826.5 1317.88 2824.88ZM1383.43 2753.17V2761.45H1381.64C1374.04 2761.59 1368 2763.84 1363.5 2768.2C1359 2772.55 1356.4 2778.69 1355.69 2786.6C1359.74 2781.96 1365.26 2779.64 1372.25 2779.64C1378.93 2779.64 1384.26 2781.99 1388.23 2786.71C1392.24 2791.42 1394.24 2797.5 1394.24 2804.95C1394.24 2812.86 1392.08 2819.19 1387.76 2823.94C1383.47 2828.68 1377.7 2831.05 1370.46 2831.05C1363.11 2831.05 1357.15 2828.24 1352.58 2822.62C1348.01 2816.96 1345.73 2809.68 1345.73 2800.79V2797.04C1345.73 2782.91 1348.73 2772.12 1354.74 2764.66C1360.79 2757.17 1369.77 2753.34 1381.69 2753.17H1383.43ZM1370.62 2787.76C1367.28 2787.76 1364.2 2788.76 1361.39 2790.77C1358.58 2792.77 1356.62 2795.28 1355.54 2798.31V2801.89C1355.54 2808.22 1356.96 2813.32 1359.81 2817.19C1362.65 2821.05 1366.21 2822.99 1370.46 2822.99C1374.85 2822.99 1378.3 2821.37 1380.79 2818.13C1383.33 2814.9 1384.59 2810.66 1384.59 2805.43C1384.59 2800.15 1383.31 2795.9 1380.74 2792.66C1378.21 2789.39 1374.84 2787.76 1370.62 2787.76Z" fill="white"/>
<path d="M1139.99 2556.22L1165.09 2618.87L1190.19 2556.22H1203.32V2633H1193.2V2603.1L1194.15 2570.83L1168.94 2633H1161.19L1136.04 2570.98L1137.04 2603.1V2633H1126.91V2556.22H1139.99ZM1238.34 2618.71L1251.63 2575.94H1262.07L1239.13 2641.81C1235.58 2651.3 1229.94 2656.04 1222.2 2656.04L1220.36 2655.89L1216.72 2655.2V2647.29L1219.36 2647.5C1222.66 2647.5 1225.23 2646.83 1227.05 2645.5C1228.92 2644.16 1230.45 2641.72 1231.64 2638.17L1233.8 2632.37L1213.45 2575.94H1224.1L1238.34 2618.71ZM1357.78 2597.09C1357.78 2604.51 1356.61 2610.9 1354.25 2616.28C1351.89 2621.63 1348.59 2625.81 1344.34 2628.83L1358.05 2639.59L1351.14 2645.97L1334.95 2633.11C1332.42 2633.74 1329.75 2634.05 1326.93 2634.05C1320.89 2634.05 1315.53 2632.58 1310.85 2629.62C1306.17 2626.64 1302.54 2622.4 1299.93 2616.92C1297.37 2611.4 1296.05 2605.02 1295.98 2597.77V2592.24C1295.98 2584.85 1297.26 2578.33 1299.83 2572.67C1302.39 2567.01 1306.02 2562.69 1310.69 2559.7C1315.4 2556.68 1320.78 2555.16 1326.83 2555.16C1333.02 2555.16 1338.45 2556.66 1343.12 2559.65C1347.83 2562.63 1351.46 2566.94 1353.99 2572.57C1356.52 2578.16 1357.78 2584.7 1357.78 2592.18V2597.09ZM1347.66 2592.13C1347.66 2583.1 1345.85 2576.13 1342.23 2571.25C1338.64 2566.33 1333.51 2563.87 1326.83 2563.87C1320.46 2563.87 1315.44 2566.31 1311.75 2571.2C1308.09 2576.05 1306.21 2582.8 1306.1 2591.45V2597.09C1306.1 2605.88 1307.93 2612.8 1311.59 2617.87C1315.28 2622.93 1320.39 2625.46 1326.93 2625.46C1333.47 2625.46 1338.54 2623.09 1342.12 2618.34C1345.71 2613.56 1347.55 2606.72 1347.66 2597.83V2592.13ZM1407.09 2627.36C1403.29 2631.82 1397.72 2634.05 1390.37 2634.05C1384.29 2634.05 1379.65 2632.3 1376.45 2628.78C1373.29 2625.23 1371.69 2619.99 1371.65 2613.07V2575.94H1381.41V2612.8C1381.41 2621.45 1384.92 2625.78 1391.96 2625.78C1399.41 2625.78 1404.37 2623 1406.83 2617.44V2575.94H1416.58V2633H1407.3L1407.09 2627.36ZM1442.05 2633H1432.3V2575.94H1442.05V2633ZM1431.51 2560.81C1431.51 2559.22 1431.98 2557.89 1432.93 2556.8C1433.91 2555.71 1435.36 2555.16 1437.25 2555.16C1439.15 2555.16 1440.59 2555.71 1441.58 2556.8C1442.56 2557.89 1443.05 2559.22 1443.05 2560.81C1443.05 2562.39 1442.56 2563.71 1441.58 2564.76C1440.59 2565.82 1439.15 2566.34 1437.25 2566.34C1435.36 2566.34 1433.91 2565.82 1432.93 2564.76C1431.98 2563.71 1431.51 2562.39 1431.51 2560.81ZM1466.89 2625.04H1500.27V2633H1454.97V2625.83L1486.46 2584.01H1455.45V2575.94H1498.69V2582.85L1466.89 2625.04Z" fill="white"/>
<rect x="2378" y="3836" width="2397" height="287" fill="#262626"/>
<path d="M2907.5 3266.71L4333 3266.71L4566.5 3806.39L2653.23 3806.39L2907.5 3266.71Z" fill="#262626"/>
<rect x="2126" y="1676" width="400" height="141.267" rx="25" fill="#646ECB"/>
<path d="M2301.08 1761.79C2301.08 1759.84 2300.34 1758.33 2298.85 1757.26C2297.39 1756.16 2294.83 1755.23 2291.16 1754.45C2287.51 1753.66 2284.61 1752.73 2282.45 1751.63C2280.31 1750.54 2278.72 1749.24 2277.68 1747.73C2276.66 1746.22 2276.16 1744.42 2276.16 1742.34C2276.16 1738.87 2277.61 1735.94 2280.53 1733.55C2283.47 1731.15 2287.22 1729.95 2291.78 1729.95C2296.57 1729.95 2300.45 1731.19 2303.42 1733.66C2306.42 1736.14 2307.91 1739.3 2307.91 1743.16H2300.65C2300.65 1741.18 2299.8 1739.47 2298.11 1738.04C2296.44 1736.61 2294.33 1735.89 2291.78 1735.89C2289.15 1735.89 2287.09 1736.46 2285.61 1737.61C2284.12 1738.76 2283.38 1740.25 2283.38 1742.1C2283.38 1743.85 2284.07 1745.16 2285.45 1746.05C2286.83 1746.93 2289.32 1747.78 2292.91 1748.59C2296.53 1749.39 2299.46 1750.36 2301.7 1751.48C2303.94 1752.6 2305.6 1753.95 2306.66 1755.54C2307.76 1757.1 2308.3 1759.02 2308.3 1761.28C2308.3 1765.06 2306.79 1768.09 2303.77 1770.38C2300.75 1772.65 2296.83 1773.78 2292.02 1773.78C2288.63 1773.78 2285.64 1773.18 2283.03 1771.98C2280.43 1770.79 2278.38 1769.12 2276.9 1766.98C2275.44 1764.82 2274.71 1762.49 2274.71 1759.99H2281.94C2282.07 1762.41 2283.03 1764.34 2284.83 1765.77C2286.65 1767.18 2289.05 1767.88 2292.02 1767.88C2294.75 1767.88 2296.94 1767.34 2298.58 1766.24C2300.24 1765.12 2301.08 1763.64 2301.08 1761.79ZM2324.95 1735.85C2328.15 1731.92 2332.32 1729.95 2337.45 1729.95C2346.38 1729.95 2350.88 1734.99 2350.96 1745.07V1773H2343.73V1745.03C2343.71 1741.98 2343.01 1739.73 2341.62 1738.27C2340.27 1736.82 2338.15 1736.09 2335.26 1736.09C2332.91 1736.09 2330.86 1736.71 2329.09 1737.96C2327.32 1739.21 2325.93 1740.85 2324.95 1742.88V1773H2317.72V1713H2324.95V1735.85ZM2387.88 1773C2387.46 1772.17 2387.12 1770.68 2386.86 1768.55C2383.5 1772.04 2379.49 1773.78 2374.83 1773.78C2370.66 1773.78 2367.24 1772.61 2364.55 1770.27C2361.9 1767.9 2360.57 1764.9 2360.57 1761.28C2360.57 1756.88 2362.24 1753.47 2365.57 1751.05C2368.93 1748.6 2373.64 1747.38 2379.71 1747.38H2386.74V1744.05C2386.74 1741.53 2385.99 1739.52 2384.48 1738.04C2382.97 1736.53 2380.74 1735.77 2377.8 1735.77C2375.22 1735.77 2373.06 1736.42 2371.31 1737.73C2369.57 1739.03 2368.7 1740.6 2368.7 1742.45H2361.43C2361.43 1740.34 2362.17 1738.31 2363.66 1736.36C2365.17 1734.38 2367.2 1732.82 2369.75 1731.67C2372.33 1730.53 2375.15 1729.95 2378.23 1729.95C2383.1 1729.95 2386.91 1731.18 2389.67 1733.62C2392.43 1736.05 2393.86 1739.39 2393.97 1743.66V1763.12C2393.97 1767 2394.46 1770.08 2395.45 1772.38V1773H2387.88ZM2375.88 1767.49C2378.15 1767.49 2380.3 1766.91 2382.33 1765.73C2384.36 1764.56 2385.83 1763.04 2386.74 1761.16V1752.49H2381.08C2372.22 1752.49 2367.8 1755.08 2367.8 1760.27C2367.8 1762.53 2368.55 1764.3 2370.06 1765.58C2371.57 1766.85 2373.51 1767.49 2375.88 1767.49ZM2425.73 1737.22C2424.63 1737.04 2423.45 1736.95 2422.17 1736.95C2417.43 1736.95 2414.22 1738.96 2412.52 1743V1773H2405.3V1730.73H2412.33L2412.45 1735.62C2414.82 1731.84 2418.17 1729.95 2422.52 1729.95C2423.93 1729.95 2425 1730.14 2425.73 1730.5V1737.22ZM2449.16 1773.78C2443.43 1773.78 2438.77 1771.91 2435.18 1768.16C2431.59 1764.38 2429.79 1759.34 2429.79 1753.04V1751.71C2429.79 1747.52 2430.58 1743.78 2432.17 1740.5C2433.79 1737.19 2436.03 1734.61 2438.89 1732.77C2441.78 1730.89 2444.91 1729.95 2448.27 1729.95C2453.76 1729.95 2458.03 1731.76 2461.08 1735.38C2464.12 1739 2465.65 1744.18 2465.65 1750.93V1753.94H2437.02C2437.12 1758.1 2438.33 1761.48 2440.65 1764.05C2442.99 1766.61 2445.96 1767.88 2449.55 1767.88C2452.11 1767.88 2454.27 1767.36 2456.04 1766.32C2457.81 1765.28 2459.36 1763.9 2460.69 1762.18L2465.1 1765.62C2461.56 1771.06 2456.25 1773.78 2449.16 1773.78ZM2448.27 1735.89C2445.35 1735.89 2442.9 1736.96 2440.92 1739.09C2438.94 1741.2 2437.72 1744.17 2437.25 1748H2458.42V1747.45C2458.21 1743.78 2457.22 1740.94 2455.45 1738.94C2453.68 1736.91 2451.29 1735.89 2448.27 1735.89Z" fill="white"/>
<ellipse cx="2221.88" cy="1727.29" rx="16.8964" ry="17.7588" fill="white"/>
<path d="M2251.07 1776.8C2251.07 1766.1 2248.21 1755.83 2243.12 1748.26C2238.03 1740.7 2231.13 1736.44 2223.93 1736.44C2216.73 1736.44 2209.83 1740.7 2204.74 1748.26C2199.65 1755.83 2196.79 1766.1 2196.79 1776.8L2223.93 1776.8H2251.07Z" fill="white"/>
<g filter="url(#filter24_d)">
<path d="M2219.32 1776.8C2219.32 1766.1 2216.35 1755.83 2211.07 1748.26C2205.79 1740.7 2198.63 1736.44 2191.16 1736.44C2183.69 1736.44 2176.53 1740.7 2171.25 1748.26C2165.97 1755.83 2163 1766.1 2163 1776.8L2191.16 1776.8H2219.32Z" fill="white"/>
</g>
<g filter="url(#filter25_d)">
<ellipse cx="2191.67" cy="1723.53" rx="20.4805" ry="21.5258" fill="white"/>
</g>
<path opacity="0.75" d="M4849.11 1547.32C4850.44 1548.09 4850.44 1550.01 4849.11 1550.78L4748.53 1608.85C4747.19 1609.62 4745.53 1608.66 4745.53 1607.12V1490.98C4745.53 1489.44 4747.19 1488.48 4748.53 1489.25L4849.11 1547.32Z" fill="#1BB978"/>
<path opacity="0.75" d="M4907 1547.32C4908.33 1548.09 4908.33 1550.01 4907 1550.78L4806.42 1608.85C4805.09 1609.62 4803.42 1608.66 4803.42 1607.12V1490.98C4803.42 1489.44 4805.09 1488.48 4806.42 1489.25L4907 1547.32Z" fill="#1BB978"/>
<path opacity="0.75" d="M4849.11 1547.32C4850.44 1548.09 4850.44 1550.01 4849.11 1550.78L4748.53 1608.85C4747.19 1609.62 4745.53 1608.66 4745.53 1607.12V1490.98C4745.53 1489.44 4747.19 1488.48 4748.53 1489.25L4849.11 1547.32Z" fill="#6ED69A"/>
<path d="M2179.11 1584L2164.37 1579.61L2166.61 1572.23L2181.36 1577.7L2180.92 1560.91H2188.39L2187.9 1577.95L2202.4 1572.58L2204.65 1580L2189.66 1584.44L2199.33 1597.67L2193.27 1602.26L2184.19 1588.2L2175.4 1601.92L2169.3 1597.48L2179.11 1584ZM2222.18 1584L2207.43 1579.61L2209.68 1572.23L2224.43 1577.7L2223.99 1560.91H2231.46L2230.97 1577.95L2245.47 1572.58L2247.72 1580L2232.73 1584.44L2242.39 1597.67L2236.34 1602.26L2227.26 1588.2L2218.47 1601.92L2212.37 1597.48L2222.18 1584ZM2265.25 1584L2250.5 1579.61L2252.75 1572.23L2267.49 1577.7L2267.05 1560.91H2274.52L2274.04 1577.95L2288.54 1572.58L2290.78 1580L2275.79 1584.44L2285.46 1597.67L2279.41 1602.26L2270.32 1588.2L2261.54 1601.92L2255.43 1597.48L2265.25 1584ZM2308.31 1584L2293.57 1579.61L2295.81 1572.23L2310.56 1577.7L2310.12 1560.91H2317.59L2317.1 1577.95L2331.6 1572.58L2333.85 1580L2318.86 1584.44L2328.53 1597.67L2322.47 1602.26L2313.39 1588.2L2304.6 1601.92L2298.5 1597.48L2308.31 1584ZM2351.38 1584L2336.63 1579.61L2338.88 1572.23L2353.62 1577.7L2353.19 1560.91H2360.66L2360.17 1577.95L2374.67 1572.58L2376.92 1580L2361.93 1584.44L2371.59 1597.67L2365.54 1602.26L2356.46 1588.2L2347.67 1601.92L2341.56 1597.48L2351.38 1584ZM2394.45 1584L2379.7 1579.61L2381.95 1572.23L2396.69 1577.7L2396.25 1560.91H2403.72L2403.23 1577.95L2417.74 1572.58L2419.98 1580L2404.99 1584.44L2414.66 1597.67L2408.61 1602.26L2399.52 1588.2L2390.73 1601.92L2384.63 1597.48L2394.45 1584ZM2437.51 1584L2422.77 1579.61L2425.01 1572.23L2439.76 1577.7L2439.32 1560.91H2446.79L2446.3 1577.95L2460.8 1572.58L2463.05 1580L2448.06 1584.44L2457.73 1597.67L2451.67 1602.26L2442.59 1588.2L2433.8 1601.92L2427.7 1597.48L2437.51 1584ZM2480.58 1584L2465.83 1579.61L2468.08 1572.23L2482.82 1577.7L2482.38 1560.91H2489.86L2489.37 1577.95L2503.87 1572.58L2506.12 1580L2491.12 1584.44L2500.79 1597.67L2494.74 1602.26L2485.66 1588.2L2476.87 1601.92L2470.76 1597.48L2480.58 1584ZM2523.64 1584L2508.9 1579.61L2511.14 1572.23L2525.89 1577.7L2525.45 1560.91H2532.92L2532.43 1577.95L2546.94 1572.58L2549.18 1580L2534.19 1584.44L2543.86 1597.67L2537.8 1602.26L2528.72 1588.2L2519.93 1601.92L2513.83 1597.48L2523.64 1584ZM2566.71 1584L2551.96 1579.61L2554.21 1572.23L2568.96 1577.7L2568.52 1560.91H2575.99L2575.5 1577.95L2590 1572.58L2592.25 1580L2577.26 1584.44L2586.93 1597.67L2580.87 1602.26L2571.79 1588.2L2563 1601.92L2556.9 1597.48L2566.71 1584Z" fill="white"/>
<path d="M2176.49 1961.68C2176.49 1972.26 2174.68 1980.12 2171.07 1985.26C2167.46 1990.4 2161.81 1992.98 2154.12 1992.98C2146.54 1992.98 2140.93 1990.47 2137.28 1985.46C2133.63 1980.41 2131.75 1972.89 2131.62 1962.9V1950.84C2131.62 1940.39 2133.42 1932.62 2137.04 1927.55C2140.65 1922.47 2146.31 1919.93 2154.03 1919.93C2161.68 1919.93 2167.31 1922.39 2170.92 1927.3C2174.54 1932.19 2176.39 1939.74 2176.49 1949.96V1961.68ZM2167.46 1949.32C2167.46 1941.67 2166.38 1936.11 2164.23 1932.62C2162.08 1929.11 2158.68 1927.35 2154.03 1927.35C2149.4 1927.35 2146.04 1929.09 2143.92 1932.58C2141.8 1936.06 2140.71 1941.41 2140.65 1948.64V1963.09C2140.65 1970.78 2141.76 1976.46 2143.97 1980.13C2146.21 1983.78 2149.6 1985.6 2154.12 1985.6C2158.58 1985.6 2161.89 1983.88 2164.04 1980.43C2166.22 1976.98 2167.36 1971.54 2167.46 1964.12V1949.32ZM2190.79 1998.1H2183.03L2212.72 1920.91H2220.43L2190.79 1998.1ZM2267.41 1968.12H2277.27V1975.5H2267.41V1992H2258.32V1975.5H2225.95V1970.17L2257.79 1920.91H2267.41V1968.12ZM2236.21 1968.12H2258.32V1933.26L2257.25 1935.21L2236.21 1968.12ZM2330 1961.68C2330 1972.26 2328.2 1980.12 2324.58 1985.26C2320.97 1990.4 2315.32 1992.98 2307.64 1992.98C2300.06 1992.98 2294.44 1990.47 2290.79 1985.46C2287.15 1980.41 2285.26 1972.89 2285.13 1962.9V1950.84C2285.13 1940.39 2286.94 1932.62 2290.55 1927.55C2294.16 1922.47 2299.83 1919.93 2307.54 1919.93C2315.19 1919.93 2320.82 1922.39 2324.44 1927.3C2328.05 1932.19 2329.91 1939.74 2330 1949.96V1961.68ZM2320.97 1949.32C2320.97 1941.67 2319.9 1936.11 2317.75 1932.62C2315.6 1929.11 2312.2 1927.35 2307.54 1927.35C2302.92 1927.35 2299.55 1929.09 2297.44 1932.58C2295.32 1936.06 2294.23 1941.41 2294.16 1948.64V1963.09C2294.16 1970.78 2295.27 1976.46 2297.48 1980.13C2299.73 1983.78 2303.12 1985.6 2307.64 1985.6C2312.1 1985.6 2315.4 1983.88 2317.55 1980.43C2319.73 1976.98 2320.87 1971.54 2320.97 1964.12V1949.32Z" fill="white"/>
<path d="M2143.63 2111.17V2139H2134.25V2067.91H2160.47C2168.25 2067.91 2174.34 2069.89 2178.73 2073.86C2183.16 2077.83 2185.38 2083.09 2185.38 2089.63C2185.38 2096.54 2183.21 2101.86 2178.88 2105.6C2174.58 2109.31 2168.42 2111.17 2160.38 2111.17H2143.63ZM2143.63 2103.5H2160.47C2165.49 2103.5 2169.33 2102.33 2172 2099.99C2174.67 2097.61 2176 2094.19 2176 2089.73C2176 2085.5 2174.67 2082.12 2172 2079.58C2169.33 2077.04 2165.66 2075.72 2161.01 2075.62H2143.63V2103.5ZM2205.74 2139H2196.7V2064H2205.74V2139ZM2252.86 2139C2252.33 2137.96 2251.91 2136.1 2251.59 2133.43C2247.39 2137.8 2242.37 2139.98 2236.55 2139.98C2231.34 2139.98 2227.06 2138.51 2223.71 2135.58C2220.38 2132.62 2218.72 2128.88 2218.72 2124.35C2218.72 2118.85 2220.81 2114.59 2224.97 2111.56C2229.17 2108.5 2235.07 2106.97 2242.65 2106.97H2251.44V2102.82C2251.44 2099.66 2250.5 2097.15 2248.61 2095.3C2246.72 2093.41 2243.94 2092.47 2240.26 2092.47C2237.04 2092.47 2234.33 2093.28 2232.15 2094.91C2229.97 2096.54 2228.88 2098.51 2228.88 2100.82H2219.8C2219.8 2098.18 2220.73 2095.64 2222.58 2093.2C2224.47 2090.73 2227.01 2088.77 2230.2 2087.34C2233.42 2085.91 2236.95 2085.19 2240.79 2085.19C2246.88 2085.19 2251.65 2086.72 2255.1 2089.78C2258.55 2092.81 2260.34 2096.99 2260.47 2102.33V2126.65C2260.47 2131.5 2261.09 2135.35 2262.33 2138.22V2139H2252.86ZM2237.87 2132.12C2240.7 2132.12 2243.38 2131.38 2245.92 2129.92C2248.46 2128.45 2250.3 2126.55 2251.44 2124.21V2113.37H2244.36C2233.29 2113.37 2227.76 2116.6 2227.76 2123.08C2227.76 2125.91 2228.7 2128.13 2230.59 2129.72C2232.48 2131.32 2234.9 2132.12 2237.87 2132.12ZM2291.14 2125.77L2303.44 2086.17H2313.11L2291.87 2147.15C2288.58 2155.94 2283.36 2160.34 2276.2 2160.34L2274.49 2160.19L2271.12 2159.56V2152.23L2273.56 2152.43C2276.62 2152.43 2278.99 2151.81 2280.69 2150.57C2282.41 2149.34 2283.83 2147.07 2284.94 2143.79L2286.94 2138.41L2268.09 2086.17H2277.95L2291.14 2125.77ZM2342.46 2139.98C2335.29 2139.98 2329.47 2137.63 2324.97 2132.95C2320.48 2128.23 2318.24 2121.93 2318.24 2114.05V2112.39C2318.24 2107.15 2319.23 2102.48 2321.21 2098.38C2323.23 2094.24 2326.03 2091.02 2329.61 2088.71C2333.23 2086.36 2337.13 2085.19 2341.33 2085.19C2348.2 2085.19 2353.54 2087.45 2357.35 2091.98C2361.16 2096.5 2363.06 2102.98 2363.06 2111.41V2115.17H2327.27C2327.4 2120.38 2328.91 2124.6 2331.81 2127.82C2334.74 2131.01 2338.45 2132.6 2342.94 2132.6C2346.13 2132.6 2348.84 2131.95 2351.05 2130.65C2353.26 2129.35 2355.2 2127.62 2356.86 2125.47L2362.38 2129.77C2357.95 2136.57 2351.31 2139.98 2342.46 2139.98ZM2341.33 2092.61C2337.69 2092.61 2334.63 2093.95 2332.15 2096.62C2329.68 2099.25 2328.15 2102.96 2327.56 2107.75H2354.03V2107.07C2353.77 2102.48 2352.53 2098.93 2350.32 2096.42C2348.1 2093.88 2345.11 2092.61 2341.33 2092.61ZM2399.1 2094.27C2397.73 2094.05 2396.25 2093.93 2394.65 2093.93C2388.73 2093.93 2384.71 2096.45 2382.59 2101.5V2139H2373.56V2086.17H2382.35L2382.49 2092.27C2385.46 2087.55 2389.66 2085.19 2395.09 2085.19C2396.85 2085.19 2398.18 2085.42 2399.1 2085.88V2094.27ZM2438.21 2124.99C2438.21 2122.54 2437.28 2120.66 2435.42 2119.32C2433.6 2117.96 2430.39 2116.78 2425.8 2115.81C2421.25 2114.83 2417.62 2113.66 2414.92 2112.29C2412.25 2110.92 2410.26 2109.3 2408.96 2107.41C2407.69 2105.52 2407.05 2103.27 2407.05 2100.67C2407.05 2096.34 2408.88 2092.68 2412.52 2089.68C2416.2 2086.69 2420.89 2085.19 2426.59 2085.19C2432.58 2085.19 2437.43 2086.74 2441.14 2089.83C2444.88 2092.92 2446.75 2096.88 2446.75 2101.7H2437.67C2437.67 2099.22 2436.61 2097.09 2434.5 2095.3C2432.41 2093.51 2429.78 2092.61 2426.59 2092.61C2423.3 2092.61 2420.73 2093.33 2418.87 2094.76C2417.02 2096.19 2416.09 2098.07 2416.09 2100.38C2416.09 2102.56 2416.95 2104.2 2418.68 2105.31C2420.4 2106.42 2423.51 2107.47 2428 2108.48C2432.53 2109.49 2436.19 2110.7 2438.99 2112.1C2441.79 2113.5 2443.85 2115.19 2445.19 2117.17C2446.56 2119.13 2447.24 2121.52 2447.24 2124.35C2447.24 2129.07 2445.35 2132.86 2441.58 2135.73C2437.8 2138.56 2432.9 2139.98 2426.88 2139.98C2422.65 2139.98 2418.9 2139.23 2415.65 2137.73C2412.39 2136.23 2409.84 2134.15 2407.98 2131.48C2406.16 2128.78 2405.25 2125.87 2405.25 2122.74H2414.28C2414.44 2125.77 2415.65 2128.18 2417.89 2129.97C2420.17 2131.72 2423.17 2132.6 2426.88 2132.6C2430.3 2132.6 2433.03 2131.92 2435.08 2130.55C2437.17 2129.15 2438.21 2127.3 2438.21 2124.99Z" fill="white"/>
<defs>
<filter id="filter0_d" x="969" y="2883" width="220" height="221" filterUnits="userSpaceOnUse" color-interpolation-filters="sRGB">
<feFlood flood-opacity="0" result="BackgroundImageFix"/>
<feColorMatrix in="SourceAlpha" type="matrix" values="0 0 0 0 0 0 0 0 0 0 0 0 0 0 0 0 0 0 127 0"/>
<feOffset dy="4"/>
<feGaussianBlur stdDeviation="12.5"/>
<feColorMatrix type="matrix" values="0 0 0 0 0 0 0 0 0 0 0 0 0 0 0 0 0 0 0.25 0"/>
<feBlend mode="normal" in2="BackgroundImageFix" result="effect1_dropShadow"/>
<feBlend mode="normal" in="SourceGraphic" in2="effect1_dropShadow" result="shape"/>
</filter>
<filter id="filter1_d" x="969" y="3112" width="220" height="221" filterUnits="userSpaceOnUse" color-interpolation-filters="sRGB">
<feFlood flood-opacity="0" result="BackgroundImageFix"/>
<feColorMatrix in="SourceAlpha" type="matrix" values="0 0 0 0 0 0 0 0 0 0 0 0 0 0 0 0 0 0 127 0"/>
<feOffset dy="4"/>
<feGaussianBlur stdDeviation="12.5"/>
<feColorMatrix type="matrix" values="0 0 0 0 0 0 0 0 0 0 0 0 0 0 0 0 0 0 0.25 0"/>
<feBlend mode="normal" in2="BackgroundImageFix" result="effect1_dropShadow"/>
<feBlend mode="normal" in="SourceGraphic" in2="effect1_dropShadow" result="shape"/>
</filter>
<filter id="filter2_d" x="969" y="3341" width="220" height="221" filterUnits="userSpaceOnUse" color-interpolation-filters="sRGB">
<feFlood flood-opacity="0" result="BackgroundImageFix"/>
<feColorMatrix in="SourceAlpha" type="matrix" values="0 0 0 0 0 0 0 0 0 0 0 0 0 0 0 0 0 0 127 0"/>
<feOffset dy="4"/>
<feGaussianBlur stdDeviation="12.5"/>
<feColorMatrix type="matrix" values="0 0 0 0 0 0 0 0 0 0 0 0 0 0 0 0 0 0 0.25 0"/>
<feBlend mode="normal" in2="BackgroundImageFix" result="effect1_dropShadow"/>
<feBlend mode="normal" in="SourceGraphic" in2="effect1_dropShadow" result="shape"/>
</filter>
<filter id="filter3_d" x="1420" y="3341" width="220" height="221" filterUnits="userSpaceOnUse" color-interpolation-filters="sRGB">
<feFlood flood-opacity="0" result="BackgroundImageFix"/>
<feColorMatrix in="SourceAlpha" type="matrix" values="0 0 0 0 0 0 0 0 0 0 0 0 0 0 0 0 0 0 127 0"/>
<feOffset dy="4"/>
<feGaussianBlur stdDeviation="12.5"/>
<feColorMatrix type="matrix" values="0 0 0 0 0 0 0 0 0 0 0 0 0 0 0 0 0 0 0.25 0"/>
<feBlend mode="normal" in2="BackgroundImageFix" result="effect1_dropShadow"/>
<feBlend mode="normal" in="SourceGraphic" in2="effect1_dropShadow" result="shape"/>
</filter>
<filter id="filter4_d" x="1192" y="3341" width="220" height="221" filterUnits="userSpaceOnUse" color-interpolation-filters="sRGB">
<feFlood flood-opacity="0" result="BackgroundImageFix"/>
<feColorMatrix in="SourceAlpha" type="matrix" values="0 0 0 0 0 0 0 0 0 0 0 0 0 0 0 0 0 0 127 0"/>
<feOffset dy="4"/>
<feGaussianBlur stdDeviation="12.5"/>
<feColorMatrix type="matrix" values="0 0 0 0 0 0 0 0 0 0 0 0 0 0 0 0 0 0 0.25 0"/>
<feBlend mode="normal" in2="BackgroundImageFix" result="effect1_dropShadow"/>
<feBlend mode="normal" in="SourceGraphic" in2="effect1_dropShadow" result="shape"/>
</filter>
<filter id="filter5_d" x="1413" y="3572" width="220" height="109" filterUnits="userSpaceOnUse" color-interpolation-filters="sRGB">
<feFlood flood-opacity="0" result="BackgroundImageFix"/>
<feColorMatrix in="SourceAlpha" type="matrix" values="0 0 0 0 0 0 0 0 0 0 0 0 0 0 0 0 0 0 127 0"/>
<feOffset dy="4"/>
<feGaussianBlur stdDeviation="12.5"/>
<feColorMatrix type="matrix" values="0 0 0 0 0 0 0 0 0 0 0 0 0 0 0 0 0 0 0.25 0"/>
<feBlend mode="normal" in2="BackgroundImageFix" result="effect1_dropShadow"/>
<feBlend mode="normal" in="SourceGraphic" in2="effect1_dropShadow" result="shape"/>
</filter>
<filter id="filter6_d" x="1185" y="3572" width="220" height="109" filterUnits="userSpaceOnUse" color-interpolation-filters="sRGB">
<feFlood flood-opacity="0" result="BackgroundImageFix"/>
<feColorMatrix in="SourceAlpha" type="matrix" values="0 0 0 0 0 0 0 0 0 0 0 0 0 0 0 0 0 0 127 0"/>
<feOffset dy="4"/>
<feGaussianBlur stdDeviation="12.5"/>
<feColorMatrix type="matrix" values="0 0 0 0 0 0 0 0 0 0 0 0 0 0 0 0 0 0 0.25 0"/>
<feBlend mode="normal" in2="BackgroundImageFix" result="effect1_dropShadow"/>
<feBlend mode="normal" in="SourceGraphic" in2="effect1_dropShadow" result="shape"/>
</filter>
<filter id="filter7_d" x="957" y="3571" width="220" height="110" filterUnits="userSpaceOnUse" color-interpolation-filters="sRGB">
<feFlood flood-opacity="0" result="BackgroundImageFix"/>
<feColorMatrix in="SourceAlpha" type="matrix" values="0 0 0 0 0 0 0 0 0 0 0 0 0 0 0 0 0 0 127 0"/>
<feOffset dy="4"/>
<feGaussianBlur stdDeviation="12.5"/>
<feColorMatrix type="matrix" values="0 0 0 0 0 0 0 0 0 0 0 0 0 0 0 0 0 0 0.25 0"/>
<feBlend mode="normal" in2="BackgroundImageFix" result="effect1_dropShadow"/>
<feBlend mode="normal" in="SourceGraphic" in2="effect1_dropShadow" result="shape"/>
</filter>
<filter id="filter8_d" x="1339" y="2808" width="369" height="371" filterUnits="userSpaceOnUse" color-interpolation-filters="sRGB">
<feFlood flood-opacity="0" result="BackgroundImageFix"/>
<feColorMatrix in="SourceAlpha" type="matrix" values="0 0 0 0 0 0 0 0 0 0 0 0 0 0 0 0 0 0 127 0"/>
<feOffset dy="4"/>
<feGaussianBlur stdDeviation="50"/>
<feColorMatrix type="matrix" values="0 0 0 0 0 0 0 0 0 0 0 0 0 0 0 0 0 0 0.25 0"/>
<feBlend mode="normal" in2="BackgroundImageFix" result="effect1_dropShadow"/>
<feBlend mode="normal" in="SourceGraphic" in2="effect1_dropShadow" result="shape"/>
</filter>
<filter id="filter9_d" x="1192" y="2883" width="219" height="221" filterUnits="userSpaceOnUse" color-interpolation-filters="sRGB">
<feFlood flood-opacity="0" result="BackgroundImageFix"/>
<feColorMatrix in="SourceAlpha" type="matrix" values="0 0 0 0 0 0 0 0 0 0 0 0 0 0 0 0 0 0 127 0"/>
<feOffset dy="4"/>
<feGaussianBlur stdDeviation="12.5"/>
<feColorMatrix type="matrix" values="0 0 0 0 0 0 0 0 0 0 0 0 0 0 0 0 0 0 0.25 0"/>
<feBlend mode="normal" in2="BackgroundImageFix" result="effect1_dropShadow"/>
<feBlend mode="normal" in="SourceGraphic" in2="effect1_dropShadow" result="shape"/>
</filter>
<filter id="filter10_d" x="1414" y="3112" width="219" height="221" filterUnits="userSpaceOnUse" color-interpolation-filters="sRGB">
<feFlood flood-opacity="0" result="BackgroundImageFix"/>
<feColorMatrix in="SourceAlpha" type="matrix" values="0 0 0 0 0 0 0 0 0 0 0 0 0 0 0 0 0 0 127 0"/>
<feOffset dy="4"/>
<feGaussianBlur stdDeviation="12.5"/>
<feColorMatrix type="matrix" values="0 0 0 0 0 0 0 0 0 0 0 0 0 0 0 0 0 0 0.25 0"/>
<feBlend mode="normal" in2="BackgroundImageFix" result="effect1_dropShadow"/>
<feBlend mode="normal" in="SourceGraphic" in2="effect1_dropShadow" result="shape"/>
</filter>
<filter id="filter11_d" x="1194" y="3111" width="219" height="221" filterUnits="userSpaceOnUse" color-interpolation-filters="sRGB">
<feFlood flood-opacity="0" result="BackgroundImageFix"/>
<feColorMatrix in="SourceAlpha" type="matrix" values="0 0 0 0 0 0 0 0 0 0 0 0 0 0 0 0 0 0 127 0"/>
<feOffset dy="4"/>
<feGaussianBlur stdDeviation="12.5"/>
<feColorMatrix type="matrix" values="0 0 0 0 0 0 0 0 0 0 0 0 0 0 0 0 0 0 0.25 0"/>
<feBlend mode="normal" in2="BackgroundImageFix" result="effect1_dropShadow"/>
<feBlend mode="normal" in="SourceGraphic" in2="effect1_dropShadow" result="shape"/>
</filter>
<filter id="filter12_d" x="5706" y="2499" width="247" height="279" filterUnits="userSpaceOnUse" color-interpolation-filters="sRGB">
<feFlood flood-opacity="0" result="BackgroundImageFix"/>
<feColorMatrix in="SourceAlpha" type="matrix" values="0 0 0 0 0 0 0 0 0 0 0 0 0 0 0 0 0 0 127 0"/>
<feOffset dy="4"/>
<feGaussianBlur stdDeviation="12.5"/>
<feColorMatrix type="matrix" values="0 0 0 0 0 0 0 0 0 0 0 0 0 0 0 0 0 0 0.25 0"/>
<feBlend mode="normal" in2="BackgroundImageFix" result="effect1_dropShadow"/>
<feBlend mode="normal" in="SourceGraphic" in2="effect1_dropShadow" result="shape"/>
</filter>
<filter id="filter13_d" x="5706" y="2806" width="247" height="280" filterUnits="userSpaceOnUse" color-interpolation-filters="sRGB">
<feFlood flood-opacity="0" result="BackgroundImageFix"/>
<feColorMatrix in="SourceAlpha" type="matrix" values="0 0 0 0 0 0 0 0 0 0 0 0 0 0 0 0 0 0 127 0"/>
<feOffset dy="4"/>
<feGaussianBlur stdDeviation="12.5"/>
<feColorMatrix type="matrix" values="0 0 0 0 0 0 0 0 0 0 0 0 0 0 0 0 0 0 0.25 0"/>
<feBlend mode="normal" in2="BackgroundImageFix" result="effect1_dropShadow"/>
<feBlend mode="normal" in="SourceGraphic" in2="effect1_dropShadow" result="shape"/>
</filter>
<filter id="filter14_d" x="5706" y="3114" width="247" height="281" filterUnits="userSpaceOnUse" color-interpolation-filters="sRGB">
<feFlood flood-opacity="0" result="BackgroundImageFix"/>
<feColorMatrix in="SourceAlpha" type="matrix" values="0 0 0 0 0 0 0 0 0 0 0 0 0 0 0 0 0 0 127 0"/>
<feOffset dy="4"/>
<feGaussianBlur stdDeviation="12.5"/>
<feColorMatrix type="matrix" values="0 0 0 0 0 0 0 0 0 0 0 0 0 0 0 0 0 0 0.25 0"/>
<feBlend mode="normal" in2="BackgroundImageFix" result="effect1_dropShadow"/>
<feBlend mode="normal" in="SourceGraphic" in2="effect1_dropShadow" result="shape"/>
</filter>
<filter id="filter15_d" x="6228" y="3114" width="246" height="281" filterUnits="userSpaceOnUse" color-interpolation-filters="sRGB">
<feFlood flood-opacity="0" result="BackgroundImageFix"/>
<feColorMatrix in="SourceAlpha" type="matrix" values="0 0 0 0 0 0 0 0 0 0 0 0 0 0 0 0 0 0 127 0"/>
<feOffset dy="4"/>
<feGaussianBlur stdDeviation="12.5"/>
<feColorMatrix type="matrix" values="0 0 0 0 0 0 0 0 0 0 0 0 0 0 0 0 0 0 0.25 0"/>
<feBlend mode="normal" in2="BackgroundImageFix" result="effect1_dropShadow"/>
<feBlend mode="normal" in="SourceGraphic" in2="effect1_dropShadow" result="shape"/>
</filter>
<filter id="filter16_d" x="5964" y="3114" width="246" height="281" filterUnits="userSpaceOnUse" color-interpolation-filters="sRGB">
<feFlood flood-opacity="0" result="BackgroundImageFix"/>
<feColorMatrix in="SourceAlpha" type="matrix" values="0 0 0 0 0 0 0 0 0 0 0 0 0 0 0 0 0 0 127 0"/>
<feOffset dy="4"/>
<feGaussianBlur stdDeviation="12.5"/>
<feColorMatrix type="matrix" values="0 0 0 0 0 0 0 0 0 0 0 0 0 0 0 0 0 0 0.25 0"/>
<feBlend mode="normal" in2="BackgroundImageFix" result="effect1_dropShadow"/>
<feBlend mode="normal" in="SourceGraphic" in2="effect1_dropShadow" result="shape"/>
</filter>
<filter id="filter17_d" x="6220" y="3425" width="246" height="129" filterUnits="userSpaceOnUse" color-interpolation-filters="sRGB">
<feFlood flood-opacity="0" result="BackgroundImageFix"/>
<feColorMatrix in="SourceAlpha" type="matrix" values="0 0 0 0 0 0 0 0 0 0 0 0 0 0 0 0 0 0 127 0"/>
<feOffset dy="4"/>
<feGaussianBlur stdDeviation="12.5"/>
<feColorMatrix type="matrix" values="0 0 0 0 0 0 0 0 0 0 0 0 0 0 0 0 0 0 0.25 0"/>
<feBlend mode="normal" in2="BackgroundImageFix" result="effect1_dropShadow"/>
<feBlend mode="normal" in="SourceGraphic" in2="effect1_dropShadow" result="shape"/>
</filter>
<filter id="filter18_d" x="5956" y="3425" width="246" height="129" filterUnits="userSpaceOnUse" color-interpolation-filters="sRGB">
<feFlood flood-opacity="0" result="BackgroundImageFix"/>
<feColorMatrix in="SourceAlpha" type="matrix" values="0 0 0 0 0 0 0 0 0 0 0 0 0 0 0 0 0 0 127 0"/>
<feOffset dy="4"/>
<feGaussianBlur stdDeviation="12.5"/>
<feColorMatrix type="matrix" values="0 0 0 0 0 0 0 0 0 0 0 0 0 0 0 0 0 0 0.25 0"/>
<feBlend mode="normal" in2="BackgroundImageFix" result="effect1_dropShadow"/>
<feBlend mode="normal" in="SourceGraphic" in2="effect1_dropShadow" result="shape"/>
</filter>
<filter id="filter19_d" x="5692" y="3424" width="246" height="130" filterUnits="userSpaceOnUse" color-interpolation-filters="sRGB">
<feFlood flood-opacity="0" result="BackgroundImageFix"/>
<feColorMatrix in="SourceAlpha" type="matrix" values="0 0 0 0 0 0 0 0 0 0 0 0 0 0 0 0 0 0 127 0"/>
<feOffset dy="4"/>
<feGaussianBlur stdDeviation="12.5"/>
<feColorMatrix type="matrix" values="0 0 0 0 0 0 0 0 0 0 0 0 0 0 0 0 0 0 0.25 0"/>
<feBlend mode="normal" in2="BackgroundImageFix" result="effect1_dropShadow"/>
<feBlend mode="normal" in="SourceGraphic" in2="effect1_dropShadow" result="shape"/>
</filter>
<filter id="filter20_d" x="6146" y="2424" width="395" height="429" filterUnits="userSpaceOnUse" color-interpolation-filters="sRGB">
<feFlood flood-opacity="0" result="BackgroundImageFix"/>
<feColorMatrix in="SourceAlpha" type="matrix" values="0 0 0 0 0 0 0 0 0 0 0 0 0 0 0 0 0 0 127 0"/>
<feOffset dy="4"/>
<feGaussianBlur stdDeviation="50"/>
<feColorMatrix type="matrix" values="0 0 0 0 0 0 0 0 0 0 0 0 0 0 0 0 0 0 0.25 0"/>
<feBlend mode="normal" in2="BackgroundImageFix" result="effect1_dropShadow"/>
<feBlend mode="normal" in="SourceGraphic" in2="effect1_dropShadow" result="shape"/>
</filter>
<filter id="filter21_d" x="5964" y="2499" width="245" height="279" filterUnits="userSpaceOnUse" color-interpolation-filters="sRGB">
<feFlood flood-opacity="0" result="BackgroundImageFix"/>
<feColorMatrix in="SourceAlpha" type="matrix" values="0 0 0 0 0 0 0 0 0 0 0 0 0 0 0 0 0 0 127 0"/>
<feOffset dy="4"/>
<feGaussianBlur stdDeviation="12.5"/>
<feColorMatrix type="matrix" values="0 0 0 0 0 0 0 0 0 0 0 0 0 0 0 0 0 0 0.25 0"/>
<feBlend mode="normal" in2="BackgroundImageFix" result="effect1_dropShadow"/>
<feBlend mode="normal" in="SourceGraphic" in2="effect1_dropShadow" result="shape"/>
</filter>
<filter id="filter22_d" x="6221" y="2806" width="245" height="280" filterUnits="userSpaceOnUse" color-interpolation-filters="sRGB">
<feFlood flood-opacity="0" result="BackgroundImageFix"/>
<feColorMatrix in="SourceAlpha" type="matrix" values="0 0 0 0 0 0 0 0 0 0 0 0 0 0 0 0 0 0 127 0"/>
<feOffset dy="4"/>
<feGaussianBlur stdDeviation="12.5"/>
<feColorMatrix type="matrix" values="0 0 0 0 0 0 0 0 0 0 0 0 0 0 0 0 0 0 0.25 0"/>
<feBlend mode="normal" in2="BackgroundImageFix" result="effect1_dropShadow"/>
<feBlend mode="normal" in="SourceGraphic" in2="effect1_dropShadow" result="shape"/>
</filter>
<filter id="filter23_d" x="5966" y="2805" width="246" height="280" filterUnits="userSpaceOnUse" color-interpolation-filters="sRGB">
<feFlood flood-opacity="0" result="BackgroundImageFix"/>
<feColorMatrix in="SourceAlpha" type="matrix" values="0 0 0 0 0 0 0 0 0 0 0 0 0 0 0 0 0 0 127 0"/>
<feOffset dy="4"/>
<feGaussianBlur stdDeviation="12.5"/>
<feColorMatrix type="matrix" values="0 0 0 0 0 0 0 0 0 0 0 0 0 0 0 0 0 0 0.25 0"/>
<feBlend mode="normal" in2="BackgroundImageFix" result="effect1_dropShadow"/>
<feBlend mode="normal" in="SourceGraphic" in2="effect1_dropShadow" result="shape"/>
</filter>
<filter id="filter24_d" x="2163" y="1736.44" width="70.3212" height="48.3609" filterUnits="userSpaceOnUse" color-interpolation-filters="sRGB">
<feFlood flood-opacity="0" result="BackgroundImageFix"/>
<feColorMatrix in="SourceAlpha" type="matrix" values="0 0 0 0 0 0 0 0 0 0 0 0 0 0 0 0 0 0 127 0"/>
<feOffset dx="10" dy="4"/>
<feGaussianBlur stdDeviation="2"/>
<feColorMatrix type="matrix" values="0 0 0 0 0 0 0 0 0 0 0 0 0 0 0 0 0 0 0.25 0"/>
<feBlend mode="normal" in2="BackgroundImageFix" result="effect1_dropShadow"/>
<feBlend mode="normal" in="SourceGraphic" in2="effect1_dropShadow" result="shape"/>
</filter>
<filter id="filter25_d" x="2171.19" y="1702" width="54.9609" height="51.0516" filterUnits="userSpaceOnUse" color-interpolation-filters="sRGB">
<feFlood flood-opacity="0" result="BackgroundImageFix"/>
<feColorMatrix in="SourceAlpha" type="matrix" values="0 0 0 0 0 0 0 0 0 0 0 0 0 0 0 0 0 0 127 0"/>
<feOffset dx="10" dy="4"/>
<feGaussianBlur stdDeviation="2"/>
<feColorMatrix type="matrix" values="0 0 0 0 0 0 0 0 0 0 0 0 0 0 0 0 0 0 0.25 0"/>
<feBlend mode="normal" in2="BackgroundImageFix" result="effect1_dropShadow"/>
<feBlend mode="normal" in="SourceGraphic" in2="effect1_dropShadow" result="shape"/>
</filter>
</defs>
</svg>
