<svg width="1972" height="1240" viewBox="0 0 1972 1240" fill="none" xmlns="http://www.w3.org/2000/svg">
<g clip-path="url(#clip0_426_59)">
<path d="M955.621 472.201C733.359 643.139 946.166 854.464 996.327 1015.16L1003.49 1024.38L2256.69 423.702L2217.23 186.578C2217.23 186.578 1959.05 -140.223 1721.57 20.196C1484.09 180.615 1626.7 352.952 1516.06 448.397C1405.42 543.841 1177.88 301.263 955.621 472.201Z" fill="#6B62FF" fill-opacity="0.4"/>
<path d="M-123.379 1010.2C-345.641 1181.14 -132.834 1392.46 -82.6729 1553.16L-75.5055 1562.38L1177.69 961.702L1138.23 724.578C1138.23 724.578 880.055 397.777 642.571 558.196C405.087 718.615 547.704 890.952 437.064 986.397C326.424 1081.84 98.8837 839.264 -123.379 1010.2Z" fill="#6B62FF" fill-opacity="0.4"/>
<path d="M737.94 778.045C513.77 945.395 714.838 1134.65 758.22 1282.6L764.916 1290.93L2015.73 685.776L1985.61 466.211C1985.61 466.211 1744.22 170.981 1505.51 329.079C1266.79 487.176 1400.43 642.63 1288.46 735.585C1176.5 828.539 962.111 610.695 737.94 778.045Z" fill="#6B62FF"/>
<path d="M966.94 679.043C742.77 846.393 943.838 1035.64 987.22 1183.6L993.916 1191.93L2244.73 586.774L2214.61 367.209C2214.61 367.209 1973.22 71.9793 1734.51 230.077C1495.79 388.174 1629.43 543.628 1517.46 636.583C1405.5 729.537 1191.11 511.693 966.94 679.043Z" fill="#6B62FF"/>
<path d="M-40.0599 1211.04C-264.23 1378.39 -63.162 1567.64 -19.7798 1715.6L-13.0839 1723.93L1237.73 1118.77L1207.61 899.209C1207.61 899.209 966.224 603.979 727.506 762.077C488.788 920.174 622.426 1075.63 510.462 1168.58C398.498 1261.54 184.111 1043.69 -40.0599 1211.04Z" fill="#6B62FF"/>
<rect x="781" y="926" width="1340" height="314" fill="#6C63FF"/>
<rect x="1370" y="620" width="602" height="314" fill="#6C63FF"/>
</g>
<defs>
<clipPath id="clip0_426_59">
<rect width="1972" height="1240" fill="white"/>
</clipPath>
</defs>
</svg>
