<svg width="50" height="50" viewBox="0 0 50 50" fill="none" xmlns="http://www.w3.org/2000/svg">
<rect width="50" height="50" rx="5" fill="#4E54C8"/>
<path d="M34.8401 32.7147C37.6581 33.5364 37.9595 35.8386 32.6551 39.212C29.7262 41.0746 26.1533 42.4511 22.9677 41.9005C19.7821 41.3499 16.95 39.5656 14.9539 36.8516C12.9578 34.1377 11.9212 30.662 12.0207 27.0169C12.1203 23.3717 13.3498 19.7825 15.4998 16.8609C17.6499 13.9394 20.5874 11.8661 23.8118 10.9945C27.0362 10.1228 30.5605 9.90586 32.9604 12.2578C34.8401 13.862 35.5814 16.2429 35.5814 16.2429L28.285 21.9817L22.4537 21.9817L22.4537 32.7147C27.7576 33.7494 32.0222 31.8931 34.8401 32.7147Z" fill="white"/>
<path d="M28.9633 27.7503C32.8515 33.0186 25.2446 33.7019 22.6085 33.0186C19.9723 32.3354 18.5434 28.8689 19.4169 25.276C20.2904 21.6831 23.1356 19.3244 25.7717 20.0077C28.4079 20.6909 29.8368 24.1574 28.9633 27.7503Z" fill="#4E54C8"/>
<path d="M26 21.6605C29.0813 21.6605 28.417 22.5189 30 21V24H26.4099L26 21.6605Z" fill="#4E54C8"/>
<path d="M27.2286 21C27.2286 21 28.1049 22.1486 29.9 21.339L31 24H27L27.2286 21Z" fill="#4E54C8"/>
<path d="M34.5992 13.7292C32.8304 10.1171 39.3105 13.7431 39.3105 13.7431L39.27 17.5377L33.4169 17.8888C33.4169 17.8888 36.3681 17.3413 34.5992 13.7292Z" fill="#4E54C8"/>
</svg>

