<svg width="355" height="90.96874999999999" viewBox="0 0 288 73.8" class="css-1j8o68f">
<defs id="SvgjsDefs2386"></defs>
<g id="SvgjsG2387" featurekey="symbolContainer" transform="matrix(0.9,0,0,0.9,0,0)" fill="#646ecb">
<rect xmlns="http://www.w3.org/2000/svg" width="75" height="82" rx="10" ry="10"></rect>
</g>
<g id="SvgjsG2388" featurekey="monogramFeature-0" transform="matrix(0.9964478824190108,0,0,0.9964478824190108,11.009004279222703,-1.8720771758824384)" fill="#ffffff"><path d="M37.825 23.167 c0.62982 0.50848 0.22805 1.6833 -0.7908 2.9366 c-1.0157 1.268 -2.6504 2.6561 -4.3626 3.9469 s-3.4893 2.5073 -4.789 3.4327 c-1.3118 0.91842 -2.1018 1.5444 -2.119 1.4395 c-0.21545 -0.56947 -0.94572 -1.2743 -1.9855 -1.5877 c-0.50719 -0.16336 -1.0589 -0.2441 -1.5883 -0.23648 c-0.48557 -0.008262 -1.1504 0.13096 -1.7872 0.40172 c-1.3004 0.53197 -2.6961 1.6379 -3.8083 3.1035 c-1.1282 1.4682 -1.9455 3.2434 -2.3561 5.0929 c-0.39914 1.8502 -0.3661 3.7124 0.15 5.2162 c0.24152 0.76014 0.63876 1.4383 1.1745 2.1101 c0.54785 0.654 1.2476 1.2641 2.072 1.7675 c1.6589 1.0163 3.7092 1.5934 5.9026 1.6137 c2.1832 0.033047 4.4515 -0.47795 6.5232 -1.4917 c0.88284 -0.42263 2.0987 0.2949 2.9497 1.3601 c0.83706 1.0468 1.1708 2.5709 0.067386 3.4906 c-2.5728 1.8698 -5.6146 3.1778 -8.8782 3.7136 c-3.244 0.54662 -6.789 0.30445 -10.106 -0.96546 c-1.6613 -0.63306 -3.2789 -1.5356 -4.7509 -2.7235 c-1.4567 -1.1949 -2.7889 -2.6904 -3.7614 -4.3842 c-1.9805 -3.3889 -2.6586 -7.1652 -2.5722 -10.742 c0.10998 -3.5936 0.996 -7.1472 2.6211 -10.405 c1.6277 -3.2554 4.0047 -6.3264 7.3488 -8.6982 c1.6779 -1.1822 3.5522 -2.1508 5.7252 -2.7991 c2.1279 -0.63306 4.3397 -0.89874 6.5532 -0.80526 c2.2131 0.095976 4.4383 0.54533 6.5796 1.4116 c2.1387 0.85926 4.1999 2.1311 5.9884 3.8007 z"></path>
</g>
<g id="SvgjsG2389" featurekey="nameFeature-0" transform="matrix(1.2370046653815177,0,0,1.2370046653815177,86.02078970411058,4.156739132937798)" fill="#111111">
<path d="M20.322 27.345 c1.213 0 2.196 0.98328 2.196 2.196 c0 5.7668 -4.692 10.459 -10.459 10.459 s-10.459 -4.692 -10.459 -10.459 l0 -7.0824 c0 -5.7668 4.692 -10.459 10.459 -10.459 s10.459 4.692 10.459 10.459 c0 1.2128 -0.98328 2.196 -2.196 2.196 s-2.196 -0.98328 -2.196 -2.196 c0 -3.3452 -2.7215 -6.0668 -6.0668 -6.0668 s-6.0668 2.7215 -6.0668 6.0668 l0 7.0824 c0 3.3452 2.7215 6.0668 6.0668 6.0668 s6.0668 -2.7215 6.0668 -6.0668 c0 -1.2128 0.98328 -2.196 2.196 -2.196 z M34.641999999999996 12 c5.7668 0 10.459 4.692 10.459 10.459 l0 7.0824 c0 5.7668 -4.692 10.459 -10.459 10.459 c-5.7664 0 -10.458 -4.692 -10.458 -10.459 l0 -7.0824 c0 -5.7668 4.6916 -10.459 10.458 -10.459 z M40.709 29.541 l0 -7.0824 c0 -3.3452 -2.7215 -6.0668 -6.0668 -6.0668 c-3.3449 0 -6.0664 2.7215 -6.0664 6.0668 l0 7.0824 c0 3.3452 2.7215 6.0668 6.0664 6.0668 c3.3452 0 6.0668 -2.7215 6.0668 -6.0668 z M67.685 30.720399999999998 c0 0.0010938 0 0.0019922 0.00027344 0.0028125 l0 7.0807 c0 0.88832 -0.535 1.6891 -1.3555 2.0289 c-0.27176 0.11254 -0.55728 0.16715 -0.84 0.16715 c-0.57152 0 -1.1332 -0.22289 -1.5534 -0.64316 l-8.2628 -8.2628 c-0.85756 -0.85756 -0.85756 -2.248 0 -3.1056 c0.85812 -0.85756 2.2482 -0.85756 3.1058 0 l4.5136 4.5136 l0 -0.87074 l-12.133 -12.133 l0 18.306 c0 1.2128 -0.98328 2.196 -2.196 2.196 s-2.196 -0.98328 -2.196 -2.196 l0 -23.608 c0 -0.88832 0.535 -1.6891 1.3555 -2.0289 c0.82104 -0.33984 1.7651 -0.15207 2.3934 0.476 l12.776 12.776 l0 -11.224 c0 -1.2128 0.98328 -2.196 2.196 -2.196 s2.196 0.98328 2.196 2.196 l0 16.524 z M90.26899999999999 30.720399999999998 c0 0.0010938 0 0.0019922 0.00027344 0.0028125 l0 7.0807 c0 0.88832 -0.535 1.6891 -1.3555 2.0289 c-0.27176 0.11254 -0.55728 0.16715 -0.84 0.16715 c-0.57152 0 -1.1332 -0.22289 -1.5534 -0.64316 l-8.2628 -8.2628 c-0.85756 -0.85756 -0.85756 -2.248 0 -3.1056 c0.85812 -0.85756 2.2482 -0.85756 3.1058 0 l4.5136 4.5136 l0 -0.87074 l-12.133 -12.133 l0 18.306 c0 1.2128 -0.98328 2.196 -2.196 2.196 s-2.196 -0.98328 -2.196 -2.196 l0 -23.608 c0 -0.88832 0.535 -1.6891 1.3555 -2.0289 c0.82104 -0.33984 1.7651 -0.15207 2.3934 0.476 l12.776 12.776 l0 -11.224 c0 -1.2128 0.98328 -2.196 2.196 -2.196 s2.196 0.98328 2.196 2.196 l0 16.524 z M110.658 35.6076 c1.213 0 2.196 0.98332 2.196 2.1961 s-0.98328 2.196 -2.196 2.196 l-16.525 0 c-1.2128 0 -2.196 -0.98328 -2.196 -2.196 l0 -7.0824 c0 -1.2128 0.98328 -2.196 2.196 -2.196 l2.9611 0 l-4.5136 -4.5136 c-0.85784 -0.85756 -0.85784 -2.248 0 -3.1056 c0.85756 -0.85756 2.248 -0.85756 3.1056 0 l8.2628 8.2628 c0.62808 0.62808 0.81584 1.5726 0.476 2.3932 s-1.1406 1.3555 -2.0289 1.3555 l-6.0666 0 l0 2.6902 l14.329 0 z M111.838 12 c1.213 0 2.1963 0.98328 2.1963 2.196 s-0.98328 2.196 -2.196 2.196 l-12.404 0 l4.5136 4.5136 c0.85784 0.85756 0.85784 2.248 0 3.1056 c-0.4288 0.4288 -0.99072 0.64316 -1.5529 0.64316 s-1.1241 -0.21438 -1.5529 -0.64316 l-8.2628 -8.2628 c-0.62808 -0.62808 -0.81584 -1.5726 -0.476 -2.3932 s1.1406 -1.3555 2.0289 -1.3555 l17.706 0 z M132.442 27.345 c1.213 0 2.196 0.98328 2.196 2.196 c0 5.7668 -4.692 10.459 -10.459 10.459 s-10.459 -4.692 -10.459 -10.459 l0 -7.0824 c0 -5.7668 4.692 -10.459 10.459 -10.459 s10.459 4.692 10.459 10.459 c0 1.2128 -0.98328 2.196 -2.196 2.196 s-2.196 -0.98328 -2.196 -2.196 c0 -3.3452 -2.7215 -6.0668 -6.0668 -6.0668 s-6.0668 2.7215 -6.0668 6.0668 l0 7.0824 c0 3.3452 2.7215 6.0668 6.0668 6.0668 s6.0668 -2.7215 6.0668 -6.0668 c0 -1.2128 0.98328 -2.196 2.196 -2.196 z M155.026 12 c1.2128 0 2.196 0.98328 2.196 2.196 s-0.98328 2.196 -2.196 2.196 l-11.224 0 l4.5136 4.5136 c0.85756 0.85756 0.85756 2.248 0 3.1056 c-0.4288 0.4288 -0.99096 0.64316 -1.5529 0.64316 c-0.5622 0 -1.1241 -0.21438 -1.5529 -0.64316 l-8.2628 -8.2628 c-0.62808 -0.62808 -0.81584 -1.5726 -0.47576 -2.3932 s1.1408 -1.3555 2.0289 -1.3555 l16.525 0 z M140.0532 20.906 l8.2628 8.2624 c0.41176 0.41176 0.64316 0.9704 0.64316 1.5529 l0 7.0824 c0 1.2128 -0.98328 2.196 -2.196 2.196 s-2.196 -0.98328 -2.196 -2.196 l0 -6.1726 l-7.6196 -7.6196 c-0.85756 -0.85756 -0.85756 -2.248 0 -3.1056 c0.85812 -0.85784 2.2485 -0.85756 3.1058 0 z M161.084 12 c1.2128 0 2.196 0.98328 2.196 2.196 l0 16.196 c0 1.2128 -0.98328 2.196 -2.196 2.196 s-2.196 -0.98328 -2.196 -2.196 l0 -16.196 c0 -1.2128 0.98328 -2.196 2.196 -2.196 z M163.11280000000002 36.964 c0.054884 0.13176 0.096172 0.2718 0.12418 0.4118 c0.030195 0.14 0.043908 0.28551 0.043908 0.42824 c0 0.5792 -0.23359 1.1447 -0.64536 1.5537 c-0.098556 0.10156 -0.21137 0.19215 -0.33215 0.27176 c-0.11805 0.079608 -0.24707 0.14824 -0.37883 0.20312 c-0.13148 0.054884 -0.27176 0.096056 -0.41176 0.12352 c-0.14 0.030195 -0.28551 0.043908 -0.42824 0.043908 c-0.14301 0 -0.28824 -0.013711 -0.42852 -0.043908 c-0.14 -0.027461 -0.28 -0.068632 -0.41176 -0.12352 s-0.26051 -0.12352 -0.37883 -0.20312 c-0.12078 -0.079608 -0.23332 -0.1702 -0.33488 -0.27176 c-0.40904 -0.40904 -0.64236 -0.97452 -0.64236 -1.5538 c0 -0.14274 0.013711 -0.28824 0.04418 -0.42824 c0.027188 -0.14 0.068632 -0.28 0.12324 -0.41176 c0.054884 -0.13176 0.12352 -0.26078 0.20312 -0.37883 c0.079608 -0.12078 0.1702 -0.23332 0.27176 -0.33488 s0.21438 -0.19215 0.33488 -0.27176 c0.11832 -0.079608 0.24734 -0.14824 0.37883 -0.20312 c0.13176 -0.054884 0.27176 -0.096056 0.41176 -0.12352 c0.28274 -0.057656 0.574 -0.057656 0.85644 0 c0.14 0.027461 0.28027 0.068632 0.41176 0.12352 c0.13203 0.054884 0.26078 0.12352 0.37883 0.20312 c0.12078 0.079608 0.23359 0.1702 0.33215 0.27176 c0.10156 0.10156 0.19488 0.2141 0.27449 0.33488 c0.079608 0.11805 0.14824 0.24707 0.20312 0.37883 z">
</path>
</g>
</svg>
