<svg xmlns="http://www.w3.org/2000/svg" width="177" height="181" fill="none" viewBox="0 0 177 181"><path fill="#fff" d="M56 8.8582C80.5327 -3.38938 110.867 -2.92235 134.978 10.1707C139.999 12.8924 144.71 16.1778 149.023 19.9382C153.518 23.4168 157.06 27.9422 160.362 32.5401C162.685 35.8013 164.738 39.2477 166.386 42.9034C168.471 47.8153 170.293 52.8964 171.057 58.2109C172.37 65.0715 172.25 72.1656 171.081 79.0422C169.163 90.9276 163.378 101.975 155.476 110.905C150.598 116.445 144.821 121.124 138.582 125.005C122.524 135.215 101.89 137.905 83.9066 131.672C78.6786 129.869 73.7688 127.187 69.2808 123.942C67.753 122.815 66.3367 121.526 65.1192 120.061C67.3235 121.011 69.2331 122.485 71.2543 123.757C87.9968 134.177 111.272 132.703 126.328 119.795C130.832 115.874 134.524 111.042 137.309 105.744C138.789 102.942 139.919 99.9704 141.097 97.0313C143.142 90.0902 144.168 82.8431 144.176 75.6039C143.946 69.2909 142.967 63.002 141.216 56.9386C137.524 44.8199 130.577 33.6352 120.909 25.4862C111.209 17.1279 99.1133 11.91 86.6201 9.70369C80.652 8.62468 74.5805 8.14154 68.5169 8.08518C64.3315 8.10128 60.1856 8.85015 56 8.8582Z"/><path fill="#fff" d="M47.9259 17.9108C65.7446 9.4643 87.1332 10.2984 104.731 18.9555C114.841 23.9036 123.742 31.5403 129.998 41.0963C134.026 47.2429 137.003 54.1103 138.757 61.2935C140.329 67.4482 140.779 73.8215 141 80.1544C140.202 74.5342 138.97 68.9464 136.766 63.7148C131.956 51.867 122.502 42.1653 111.097 36.9338C97.0535 30.366 79.9852 30.941 66.5344 38.764C56.7562 44.4004 49.0159 53.3004 43.7397 63.3747C39.0244 72.1695 36.2442 81.9603 34.9094 91.8726C34.2143 97.3794 34.1985 102.959 34.5619 108.49C35.636 121.067 39.9011 133.579 47.76 143.418C54.4499 151.873 63.6673 158.133 73.7692 161.429C75.0013 161.842 76.2413 162.279 77.3392 163C73.9429 162.806 70.6335 161.801 67.3637 160.878C54.1498 156.821 42.1601 148.893 32.8242 138.519C24.6573 129.514 18.6546 118.516 15.2188 106.741C12.0594 97.2418 11.8462 87.0865 12.0594 77.1499C12.4701 75.7408 12.2411 74.2427 12.557 72.8174C13.5285 64.9701 15.1398 57.139 18.228 49.8587C19.3733 47.1538 20.487 44.4166 21.9877 41.898C28.1563 31.5889 37.1288 22.9156 47.9259 17.9108Z"/><path fill="#fff" d="M163.987 18.1129C169.479 17.3008 175.418 20.9472 176.693 26.56C177.961 31.4245 175.168 36.7268 170.747 38.7809C165.606 41.4161 158.658 39.6646 155.599 34.6329C153.001 30.6522 153.643 24.9518 156.984 21.6159C158.823 19.6654 161.35 18.4314 163.987 18.1129Z"/><path fill="#fff" d="M8.49315 45.4167C13.922 43.8266 20.313 46.9069 22.3155 52.618C24.1069 57.3051 22.2451 62.9995 18.3261 65.7635C13.6169 69.3433 6.48274 68.5607 2.67317 63.882C0.2873 61.1013 -0.620112 56.9887 0.435929 53.3922C1.52326 49.4461 4.7696 46.3907 8.49315 45.4167Z"/><path fill="#fff" d="M41.1408 78.3268C44.6965 68.1591 50.3368 58.7511 57.6762 51C52.799 59.8503 49.4164 69.719 48.7949 79.919C48.2521 89.0282 49.7546 98.315 53.5699 106.591C57.8808 116.129 64.9764 124.34 73.8103 129.675C78.9393 132.803 84.5167 135.219 90.3537 136.513C95.1759 137.596 100.116 138.089 105.048 138.081C116.88 137.685 128.672 134.33 138.788 127.937C153.632 118.764 165.306 103.819 169.64 86.4661C170.915 81.6408 171.308 76.6456 171.741 71.683C174.187 80.0564 174.502 88.9635 173.377 97.5956C171.843 110.002 167.052 121.883 159.91 131.978C152.704 142.195 143.17 150.673 132.259 156.476C119.059 163.532 103.75 166.377 88.9849 164.373C85.736 164.025 82.4871 163.451 79.3799 162.417C69.6804 159.847 60.8386 154.27 53.8374 146.971C45.7191 138.452 40.4407 127.291 38.2223 115.636C35.8545 103.229 36.9794 90.2002 41.1408 78.3268Z"/><path fill="#fff" d="M114.121 158.41C118.602 157.059 123.697 159.157 126.129 163.092C129.342 167.892 128.329 174.974 123.769 178.583C120.013 181.81 113.986 181.802 110.23 178.583C105.742 175.022 104.681 168.083 107.743 163.29C109.178 160.953 111.474 159.149 114.121 158.41Z"/></svg>