<svg width="50" height="50" viewBox="0 0 50 50" fill="none" xmlns="http://www.w3.org/2000/svg">
<rect width="50" height="50" rx="25" fill="white"/>
<path d="M34.8401 32.7157C37.6581 33.5374 37.9595 35.8396 32.6551 39.213C29.7262 41.0756 26.1533 42.4521 22.9677 41.9015C19.7821 41.3508 16.95 39.5665 14.9539 36.8526C12.9578 34.1387 11.9212 30.663 12.0207 27.0178C12.1203 23.3727 13.3498 19.7835 15.4998 16.8619C17.6499 13.9403 20.5874 11.8671 23.8118 10.9954C27.0362 10.1238 30.5605 9.90683 32.9604 12.2588V12.2588C35.1609 14.1367 34.101 17.4082 31.8638 19.1678L29.4561 21.0615C28.6965 21.659 27.7604 21.9827 26.7923 21.9827V21.9827C24.385 21.9827 22.4537 23.9441 22.4537 26.3888L22.4537 27.7756C22.4537 30.6326 24.4965 33.1574 27.3029 32.9984C30.3885 32.8236 32.9424 32.1623 34.8401 32.7157Z" fill="#4E54C8"/>
<path d="M25.7718 20.0067C31.3999 21.4654 30.8776 33.0291 25.091 33.2307C24.1309 33.2641 23.2311 33.179 22.6086 33.0176C19.9724 32.3344 18.5435 28.8679 19.417 25.275C20.2905 21.6821 23.1357 19.3234 25.7718 20.0067V20.0067Z" fill="white"/>
<path d="M25.301 22.8864C25.1482 22.2796 25.6102 21.6847 26.2327 21.7473C27.7247 21.8973 28.0588 22.2911 28.592 22.2199C29.1286 22.1482 29.7222 22.3935 29.7222 22.9348V22.9348C29.7222 23.3091 29.4189 23.6124 29.0447 23.6124H26.2326C25.7924 23.6124 25.4086 23.3132 25.301 22.8864V22.8864Z" fill="white"/>
<path d="M26.182 22.951C26.2405 22.4046 27.0586 22.137 27.5547 22.3733C27.9765 22.5742 28.4956 22.6962 29.0906 22.5901C29.3055 22.5517 29.5323 22.6189 29.6632 22.7935V22.7935C29.9164 23.1311 29.6755 23.6128 29.2535 23.6128H26.7767C26.4212 23.6128 26.1441 23.3045 26.182 22.951V22.951Z" fill="white"/>
<path d="M34.5994 13.7321C33.3531 11.1873 36.2013 12.2351 37.9933 13.0766C38.8187 13.4641 39.3046 14.3133 39.2948 15.2248L39.2735 17.2216C39.2716 17.4014 39.1312 17.5489 38.9518 17.5597L38.5259 17.5852C38.1301 17.609 34.7739 14.0885 34.5994 13.7321V13.7321Z" fill="white"/>
</svg>
