<svg width="345" height="263" viewBox="0 0 345 263" fill="none" xmlns="http://www.w3.org/2000/svg">
<path d="M334.072 144.367C334.072 144.556 334.072 144.746 334.072 144.932C334.034 148.194 333.817 151.449 333.42 154.695C333.422 154.715 333.422 154.734 333.42 154.754C333.389 155.024 333.354 155.29 333.319 155.56C333.26 156.016 333.197 156.469 333.127 156.925C332.315 162.474 330.972 167.952 329.111 173.297V173.297C326.618 180.521 323.094 187.429 318.625 193.853C317.25 195.818 315.786 197.719 314.233 199.557C313.403 200.531 312.557 201.483 311.683 202.419C311.069 203.075 310.445 203.72 309.808 204.355L309.411 204.746C306.063 208.018 302.454 211.072 298.612 213.882C292.342 218.51 285.59 222.535 278.731 226.269C278.341 226.483 277.948 226.694 277.554 226.89C277.526 226.907 277.497 226.923 277.467 226.936C268.145 231.954 258.478 236.482 248.518 240.108C237.615 244.087 226.356 246.981 214.804 248.246C198.703 250.008 182.407 248.575 166.403 246.112C153.093 244.076 139.945 241.279 127.039 237.738L124.914 237.146C123.813 236.834 122.713 236.515 121.615 236.191C114.98 234.237 108.419 232.066 101.933 229.678C85.6416 223.704 70.0786 216.264 55.486 207.475C53.6281 206.362 51.7969 205.225 49.9924 204.063C47.4703 202.446 44.9783 200.782 42.5166 199.07L40.9978 198.022C34.5554 193.53 28.5195 188.595 22.9459 183.262C15.4492 175.999 9.04288 167.805 4.83123 158.451C4.16702 156.981 3.55856 155.483 3.00583 153.957L2.95358 153.805C2.67489 153.029 2.4171 152.254 2.18022 151.448C1.83186 150.294 1.52647 149.126 1.26404 147.943C1.2083 147.717 1.15953 147.49 1.11425 147.261C0.28163 143.281 -0.0861052 139.235 0.016917 135.187C0.104043 131.641 0.57063 128.11 1.41035 124.642V124.642C2.26982 121.048 3.59429 117.554 5.35725 114.231V114.231C6.95043 111.243 8.98037 108.455 11.3943 105.941V105.941C13.0905 104.183 14.9982 102.596 17.083 101.208C20.8627 98.702 25.0534 96.9559 29.3974 95.5757C31.4388 94.9244 33.5081 94.3538 35.5878 93.8234C37.0613 93.4451 38.5418 93.0853 40.0154 92.7317L44.3629 91.6866C47.1498 91.0104 49.9366 90.3157 52.6817 89.5652C60.1644 87.5307 67.4974 85.0681 74.2799 81.3961C75.3529 80.8161 76.4467 80.1803 77.5406 79.498C78.934 78.6358 80.3065 77.6992 81.6651 76.6881C83.0376 75.6646 84.3823 74.5698 85.6643 73.4099C85.8628 73.23 86.0579 73.0501 86.253 72.8672C87.2981 71.8871 88.3118 70.8605 89.2524 69.7937C89.7122 69.2726 90.1581 68.7423 90.5831 68.2026C91.1718 67.4552 91.7292 66.6953 92.2448 65.9138C94.8296 62.006 96.425 57.695 96.2369 53.1515C96.2094 52.4029 96.1338 51.6563 96.0105 50.9153C95.5576 48.1768 95.1222 45.5034 94.8017 42.8889C93.457 32.0743 94.0249 22.2676 103.141 13.0533C114.477 1.59975 132.268 -0.73562 148.463 0.179298C195.286 2.8155 237.911 26.6158 275.37 54.9503C278.609 57.3983 281.81 59.8795 284.97 62.3937C285.767 63.0264 286.565 63.6632 287.364 64.3042C293.286 69.0524 299.117 73.9775 304.548 79.253C304.987 79.681 305.426 80.109 305.858 80.5401C306.123 80.8068 306.391 81.0704 306.652 81.3402C308.345 83.046 309.988 84.7931 311.581 86.5816C315.849 91.3296 319.618 96.4167 322.84 101.779C327.774 110.193 331.115 119.275 332.727 128.659V128.659C333.333 132.066 333.732 135.5 333.922 138.946C333.981 139.96 334.019 140.977 334.04 141.992C334.04 142.317 334.04 142.64 334.04 142.965C334.075 143.437 334.075 143.896 334.072 144.367Z" fill="#6C63FF"/>
<path opacity="0.1" d="M109.537 68.2311H84.7553C83.326 68.2311 82.167 69.2629 82.167 70.5354V73.9904C82.167 75.2629 83.326 76.2948 84.7553 76.2948H109.537C110.967 76.2948 112.126 75.2629 112.126 73.9904V70.5354C112.126 69.2629 110.967 68.2311 109.537 68.2311Z" fill="white"/>
<path opacity="0.1" d="M140.89 76.2948H116.108C114.679 76.2948 113.52 77.3266 113.52 78.5991V82.0541C113.52 83.3266 114.679 84.3585 116.108 84.3585H140.89C142.32 84.3585 143.478 83.3266 143.478 82.0541V78.5991C143.478 77.3266 142.32 76.2948 140.89 76.2948Z" fill="white"/>
<path opacity="0.1" d="M172.242 84.3585H147.46C146.031 84.3585 144.872 85.3904 144.872 86.6629V90.1178C144.872 91.3904 146.031 92.4222 147.46 92.4222H172.242C173.672 92.4222 174.83 91.3904 174.83 90.1178V86.6629C174.83 85.3904 173.672 84.3585 172.242 84.3585Z" fill="white"/>
<path opacity="0.1" d="M109.537 56.1356H84.7553C83.326 56.1356 82.167 57.1673 82.167 58.44V61.8949C82.167 63.1675 83.326 64.1993 84.7553 64.1993H109.537C110.967 64.1993 112.126 63.1675 112.126 61.8949V58.44C112.126 57.1673 110.967 56.1356 109.537 56.1356Z" fill="white"/>
<path opacity="0.1" d="M140.89 64.1993H116.108C114.679 64.1993 113.52 65.2312 113.52 66.5037V69.9587C113.52 71.2312 114.679 72.263 116.108 72.263H140.89C142.32 72.263 143.478 71.2312 143.478 69.9587V66.5037C143.478 65.2312 142.32 64.1993 140.89 64.1993Z" fill="white"/>
<path opacity="0.1" d="M172.242 72.2629H147.46C146.031 72.2629 144.872 73.2948 144.872 74.5673V78.0223C144.872 79.2948 146.031 80.3266 147.46 80.3266H172.242C173.672 80.3266 174.83 79.2948 174.83 78.0223V74.5673C174.83 73.2948 173.672 72.2629 172.242 72.2629Z" fill="white"/>
<path opacity="0.1" d="M207.078 68.2311H182.296C180.867 68.2311 179.708 69.2629 179.708 70.5354V73.9904C179.708 75.2629 180.867 76.2948 182.296 76.2948H207.078C208.508 76.2948 209.666 75.2629 209.666 73.9904V70.5354C209.666 69.2629 208.508 68.2311 207.078 68.2311Z" fill="white"/>
<path opacity="0.1" d="M238.43 76.2948H213.648C212.219 76.2948 211.06 77.3266 211.06 78.5991V82.0541C211.06 83.3266 212.219 84.3585 213.648 84.3585H238.43C239.86 84.3585 241.018 83.3266 241.018 82.0541V78.5991C241.018 77.3266 239.86 76.2948 238.43 76.2948Z" fill="white"/>
<path opacity="0.1" d="M269.782 84.3585H245C243.571 84.3585 242.412 85.3904 242.412 86.6629V90.1178C242.412 91.3904 243.571 92.4222 245 92.4222H269.782C271.212 92.4222 272.37 91.3904 272.37 90.1178V86.6629C272.37 85.3904 271.212 84.3585 269.782 84.3585Z" fill="white"/>
<path opacity="0.1" d="M207.078 56.1356H182.296C180.867 56.1356 179.708 57.1673 179.708 58.44V61.8949C179.708 63.1675 180.867 64.1993 182.296 64.1993H207.078C208.508 64.1993 209.666 63.1675 209.666 61.8949V58.44C209.666 57.1673 208.508 56.1356 207.078 56.1356Z" fill="white"/>
<path opacity="0.1" d="M238.43 64.1993H213.648C212.219 64.1993 211.06 65.2312 211.06 66.5037V69.9587C211.06 71.2312 212.219 72.263 213.648 72.263H238.43C239.86 72.263 241.018 71.2312 241.018 69.9587V66.5037C241.018 65.2312 239.86 64.1993 238.43 64.1993Z" fill="white"/>
<path opacity="0.1" d="M269.782 72.2629H245C243.571 72.2629 242.412 73.2948 242.412 74.5673V78.0223C242.412 79.2948 243.571 80.3266 245 80.3266H269.782C271.212 80.3266 272.37 79.2948 272.37 78.0223V74.5673C272.37 73.2948 271.212 72.2629 269.782 72.2629Z" fill="white"/>
<path opacity="0.1" d="M109.537 40.0083H84.7553C83.326 40.0083 82.167 41.04 82.167 42.3127V45.7676C82.167 47.0403 83.326 48.072 84.7553 48.072H109.537C110.967 48.072 112.126 47.0403 112.126 45.7676V42.3127C112.126 41.04 110.967 40.0083 109.537 40.0083Z" fill="white"/>
<path opacity="0.1" d="M140.89 48.0719H116.108C114.679 48.0719 113.52 49.1036 113.52 50.3763V53.8312C113.52 55.1039 114.679 56.1356 116.108 56.1356H140.89C142.32 56.1356 143.478 55.1039 143.478 53.8312V50.3763C143.478 49.1036 142.32 48.0719 140.89 48.0719Z" fill="white"/>
<path opacity="0.1" d="M172.242 56.1356H147.46C146.031 56.1356 144.872 57.1673 144.872 58.44V61.8949C144.872 63.1675 146.031 64.1993 147.46 64.1993H172.242C173.672 64.1993 174.83 63.1675 174.83 61.8949V58.44C174.83 57.1673 173.672 56.1356 172.242 56.1356Z" fill="white"/>
<path opacity="0.1" d="M109.537 27.9127H84.7553C83.326 27.9127 82.167 28.9444 82.167 30.2171V33.672C82.167 34.9447 83.326 35.9764 84.7553 35.9764H109.537C110.967 35.9764 112.126 34.9447 112.126 33.672V30.2171C112.126 28.9444 110.967 27.9127 109.537 27.9127Z" fill="white"/>
<path opacity="0.1" d="M140.89 35.9764H116.108C114.679 35.9764 113.52 37.0081 113.52 38.2808V41.7358C113.52 43.0084 114.679 44.0401 116.108 44.0401H140.89C142.32 44.0401 143.478 43.0084 143.478 41.7358V38.2808C143.478 37.0081 142.32 35.9764 140.89 35.9764Z" fill="white"/>
<path opacity="0.1" d="M172.242 44.04H147.46C146.031 44.04 144.872 45.0717 144.872 46.3444V49.7994C144.872 51.072 146.031 52.1037 147.46 52.1037H172.242C173.672 52.1037 174.83 51.072 174.83 49.7994V46.3444C174.83 45.0717 173.672 44.04 172.242 44.04Z" fill="white"/>
<path opacity="0.1" d="M207.078 40.0083H182.296C180.867 40.0083 179.708 41.04 179.708 42.3127V45.7676C179.708 47.0403 180.867 48.072 182.296 48.072H207.078C208.508 48.072 209.666 47.0403 209.666 45.7676V42.3127C209.666 41.04 208.508 40.0083 207.078 40.0083Z" fill="white"/>
<path opacity="0.1" d="M238.43 48.0719H213.648C212.219 48.0719 211.06 49.1036 211.06 50.3763V53.8312C211.06 55.1039 212.219 56.1356 213.648 56.1356H238.43C239.86 56.1356 241.018 55.1039 241.018 53.8312V50.3763C241.018 49.1036 239.86 48.0719 238.43 48.0719Z" fill="white"/>
<path opacity="0.1" d="M269.782 56.1356H245C243.571 56.1356 242.412 57.1673 242.412 58.44V61.8949C242.412 63.1675 243.571 64.1993 245 64.1993H269.782C271.212 64.1993 272.37 63.1675 272.37 61.8949V58.44C272.37 57.1673 271.212 56.1356 269.782 56.1356Z" fill="white"/>
<path opacity="0.1" d="M207.078 27.9127H182.296C180.867 27.9127 179.708 28.9444 179.708 30.2171V33.672C179.708 34.9447 180.867 35.9764 182.296 35.9764H207.078C208.508 35.9764 209.666 34.9447 209.666 33.672V30.2171C209.666 28.9444 208.508 27.9127 207.078 27.9127Z" fill="white"/>
<path opacity="0.1" d="M238.43 35.9764H213.648C212.219 35.9764 211.06 37.0081 211.06 38.2808V41.7358C211.06 43.0084 212.219 44.0401 213.648 44.0401H238.43C239.86 44.0401 241.018 43.0084 241.018 41.7358V38.2808C241.018 37.0081 239.86 35.9764 238.43 35.9764Z" fill="white"/>
<path opacity="0.1" d="M269.782 44.04H245C243.571 44.04 242.412 45.0717 242.412 46.3444V49.7994C242.412 51.072 243.571 52.1037 245 52.1037H269.782C271.212 52.1037 272.37 51.072 272.37 49.7994V46.3444C272.37 45.0717 271.212 44.04 269.782 44.04Z" fill="white"/>
<path opacity="0.1" d="M109.537 211.827H84.7553C83.326 211.827 82.167 212.859 82.167 214.131V217.586C82.167 218.859 83.326 219.89 84.7553 219.89H109.537C110.967 219.89 112.126 218.859 112.126 217.586V214.131C112.126 212.859 110.967 211.827 109.537 211.827Z" fill="white"/>
<path opacity="0.1" d="M140.89 219.89H116.108C114.679 219.89 113.52 220.922 113.52 222.195V225.65C113.52 226.922 114.679 227.954 116.108 227.954H140.89C142.32 227.954 143.478 226.922 143.478 225.65V222.195C143.478 220.922 142.32 219.89 140.89 219.89Z" fill="white"/>
<path opacity="0.1" d="M172.242 227.954H147.46C146.031 227.954 144.872 228.986 144.872 230.258V233.713C144.872 234.986 146.031 236.018 147.46 236.018H172.242C173.672 236.018 174.83 234.986 174.83 233.713V230.258C174.83 228.986 173.672 227.954 172.242 227.954Z" fill="white"/>
<path opacity="0.1" d="M109.537 199.731H84.7553C83.326 199.731 82.167 200.763 82.167 202.036V205.491C82.167 206.763 83.326 207.795 84.7553 207.795H109.537C110.967 207.795 112.126 206.763 112.126 205.491V202.036C112.126 200.763 110.967 199.731 109.537 199.731Z" fill="white"/>
<path opacity="0.1" d="M140.89 207.795H116.108C114.679 207.795 113.52 208.827 113.52 210.099V213.554C113.52 214.827 114.679 215.858 116.108 215.858H140.89C142.32 215.858 143.478 214.827 143.478 213.554V210.099C143.478 208.827 142.32 207.795 140.89 207.795Z" fill="white"/>
<path opacity="0.1" d="M172.242 215.858H147.46C146.031 215.858 144.872 216.89 144.872 218.163V221.618C144.872 222.89 146.031 223.922 147.46 223.922H172.242C173.672 223.922 174.83 222.89 174.83 221.618V218.163C174.83 216.89 173.672 215.858 172.242 215.858Z" fill="white"/>
<path opacity="0.1" d="M207.078 211.827H182.296C180.867 211.827 179.708 212.859 179.708 214.131V217.586C179.708 218.859 180.867 219.89 182.296 219.89H207.078C208.508 219.89 209.666 218.859 209.666 217.586V214.131C209.666 212.859 208.508 211.827 207.078 211.827Z" fill="white"/>
<path opacity="0.1" d="M238.43 219.89H213.648C212.219 219.89 211.06 220.922 211.06 222.195V225.65C211.06 226.922 212.219 227.954 213.648 227.954H238.43C239.86 227.954 241.018 226.922 241.018 225.65V222.195C241.018 220.922 239.86 219.89 238.43 219.89Z" fill="white"/>
<path opacity="0.1" d="M269.782 227.954H245C243.571 227.954 242.412 228.986 242.412 230.258V233.713C242.412 234.986 243.571 236.018 245 236.018H269.782C271.212 236.018 272.37 234.986 272.37 233.713V230.258C272.37 228.986 271.212 227.954 269.782 227.954Z" fill="white"/>
<path opacity="0.1" d="M207.078 199.731H182.296C180.867 199.731 179.708 200.763 179.708 202.036V205.491C179.708 206.763 180.867 207.795 182.296 207.795H207.078C208.508 207.795 209.666 206.763 209.666 205.491V202.036C209.666 200.763 208.508 199.731 207.078 199.731Z" fill="white"/>
<path opacity="0.1" d="M238.43 207.795H213.648C212.219 207.795 211.06 208.827 211.06 210.099V213.554C211.06 214.827 212.219 215.858 213.648 215.858H238.43C239.86 215.858 241.018 214.827 241.018 213.554V210.099C241.018 208.827 239.86 207.795 238.43 207.795Z" fill="white"/>
<path opacity="0.1" d="M269.782 215.858H245C243.571 215.858 242.412 216.89 242.412 218.163V221.618C242.412 222.89 243.571 223.922 245 223.922H269.782C271.212 223.922 272.37 222.89 272.37 221.618V218.163C272.37 216.89 271.212 215.858 269.782 215.858Z" fill="white"/>
<path opacity="0.1" d="M109.537 183.604H84.7553C83.326 183.604 82.167 184.636 82.167 185.908V189.363C82.167 190.636 83.326 191.667 84.7553 191.667H109.537C110.967 191.667 112.126 190.636 112.126 189.363V185.908C112.126 184.636 110.967 183.604 109.537 183.604Z" fill="white"/>
<path opacity="0.1" d="M140.89 191.667H116.108C114.679 191.667 113.52 192.699 113.52 193.972V197.427C113.52 198.699 114.679 199.731 116.108 199.731H140.89C142.32 199.731 143.478 198.699 143.478 197.427V193.972C143.478 192.699 142.32 191.667 140.89 191.667Z" fill="white"/>
<path opacity="0.1" d="M172.242 199.731H147.46C146.031 199.731 144.872 200.763 144.872 202.036V205.491C144.872 206.763 146.031 207.795 147.46 207.795H172.242C173.672 207.795 174.83 206.763 174.83 205.491V202.036C174.83 200.763 173.672 199.731 172.242 199.731Z" fill="white"/>
<path opacity="0.1" d="M109.537 171.508H84.7553C83.326 171.508 82.167 172.54 82.167 173.813V177.268C82.167 178.54 83.326 179.572 84.7553 179.572H109.537C110.967 179.572 112.126 178.54 112.126 177.268V173.813C112.126 172.54 110.967 171.508 109.537 171.508Z" fill="white"/>
<path opacity="0.1" d="M140.89 179.572H116.108C114.679 179.572 113.52 180.604 113.52 181.876V185.331C113.52 186.604 114.679 187.636 116.108 187.636H140.89C142.32 187.636 143.478 186.604 143.478 185.331V181.876C143.478 180.604 142.32 179.572 140.89 179.572Z" fill="white"/>
<path opacity="0.1" d="M172.242 187.635H147.46C146.031 187.635 144.872 188.667 144.872 189.94V193.395C144.872 194.667 146.031 195.699 147.46 195.699H172.242C173.672 195.699 174.83 194.667 174.83 193.395V189.94C174.83 188.667 173.672 187.635 172.242 187.635Z" fill="white"/>
<path opacity="0.1" d="M207.078 183.604H182.296C180.867 183.604 179.708 184.636 179.708 185.908V189.363C179.708 190.636 180.867 191.667 182.296 191.667H207.078C208.508 191.667 209.666 190.636 209.666 189.363V185.908C209.666 184.636 208.508 183.604 207.078 183.604Z" fill="white"/>
<path opacity="0.1" d="M238.43 191.667H213.648C212.219 191.667 211.06 192.699 211.06 193.972V197.427C211.06 198.699 212.219 199.731 213.648 199.731H238.43C239.86 199.731 241.018 198.699 241.018 197.427V193.972C241.018 192.699 239.86 191.667 238.43 191.667Z" fill="white"/>
<path opacity="0.1" d="M269.782 199.731H245C243.571 199.731 242.412 200.763 242.412 202.036V205.491C242.412 206.763 243.571 207.795 245 207.795H269.782C271.212 207.795 272.37 206.763 272.37 205.491V202.036C272.37 200.763 271.212 199.731 269.782 199.731Z" fill="white"/>
<path opacity="0.1" d="M207.078 171.508H182.296C180.867 171.508 179.708 172.54 179.708 173.813V177.268C179.708 178.54 180.867 179.572 182.296 179.572H207.078C208.508 179.572 209.666 178.54 209.666 177.268V173.813C209.666 172.54 208.508 171.508 207.078 171.508Z" fill="white"/>
<path opacity="0.1" d="M238.43 179.572H213.648C212.219 179.572 211.06 180.604 211.06 181.876V185.331C211.06 186.604 212.219 187.636 213.648 187.636H238.43C239.86 187.636 241.018 186.604 241.018 185.331V181.876C241.018 180.604 239.86 179.572 238.43 179.572Z" fill="white"/>
<path opacity="0.1" d="M269.782 187.635H245C243.571 187.635 242.412 188.667 242.412 189.94V193.395C242.412 194.667 243.571 195.699 245 195.699H269.782C271.212 195.699 272.37 194.667 272.37 193.395V189.94C272.37 188.667 271.212 187.635 269.782 187.635Z" fill="white"/>
<path opacity="0.1" d="M182.669 263C267.033 263 335.424 258.001 335.424 251.835C335.424 245.669 267.033 240.67 182.669 240.67C98.3043 240.67 29.9136 245.669 29.9136 251.835C29.9136 258.001 98.3043 263 182.669 263Z" fill="#1BB978"/>
<path d="M44.1194 85.8472C58.524 91.4049 66.801 102.905 66.801 102.905C66.801 102.905 51.7205 105.386 37.3125 99.8315C22.9044 94.2768 14.6309 82.7737 14.6309 82.7737C14.6309 82.7737 29.7113 80.2895 44.1194 85.8472Z" fill="#1BB978"/>
<path d="M88.3259 64.5094C92.7814 57.9964 100.369 54.895 100.369 54.895C100.369 54.895 100.717 62.3198 96.2755 68.8142C91.8339 75.3085 84.2292 78.4068 84.2292 78.4068C84.2292 78.4068 83.867 70.9852 88.3259 64.5094Z" fill="#1BB978"/>
<path d="M55.5733 71.4777C58.7608 81.6069 67.5464 88.2749 67.5464 88.2749C67.5464 88.2749 71.1659 78.5148 67.9784 68.3824C64.7909 58.2501 56.0018 51.5852 56.0018 51.5852C56.0018 51.5852 52.3824 61.3453 55.5733 71.4777Z" fill="#46455B"/>
<path d="M307.481 71.0225H58.5517C57.1645 71.0225 56.04 72.0236 56.04 73.2586V181.988C56.04 183.223 57.1645 184.224 58.5517 184.224H307.481C308.869 184.224 309.993 183.223 309.993 181.988V73.2586C309.993 72.0236 308.869 71.0225 307.481 71.0225Z" fill="#3F3D56"/>
<path opacity="0.1" d="M56.04 177.401H309.993V181.988C309.993 182.581 309.728 183.15 309.257 183.569C308.786 183.988 308.148 184.224 307.481 184.224H58.5517C57.8856 184.224 57.2468 183.988 56.7758 183.569C56.3048 183.15 56.04 182.581 56.04 181.988V177.401Z" fill="black"/>
<path d="M243.15 245.167C242.272 245.657 241.269 245.933 240.363 246.364C239.458 246.795 238.576 247.443 238.318 248.336C238.222 248.613 238.238 248.912 238.364 249.18C238.589 249.503 238.934 249.747 239.339 249.868C241.179 250.596 243.166 250.981 245.18 251.002C247.193 251.022 249.189 250.677 251.047 249.986C251.701 249.706 252.376 249.468 253.068 249.273C253.92 249.118 254.787 249.039 255.656 249.037C256.57 248.99 257.479 248.886 258.377 248.727C258.828 248.682 259.256 248.524 259.61 248.271C259.933 247.94 260.127 247.524 260.164 247.086C260.576 244.67 259.955 242.204 258.422 240.176C258.229 239.892 257.97 239.648 257.663 239.46C257.288 239.288 256.875 239.189 256.454 239.172C254.712 238.982 252.887 238.635 251.128 238.598C249.866 238.573 249.232 239.106 248.341 239.879C246.498 241.519 245.421 243.904 243.15 245.167Z" fill="#323444"/>
<path d="M268.821 244.937C268.821 246.457 269.026 248.067 270.061 249.279C270.534 249.804 271.107 250.25 271.754 250.597C273.942 251.838 276.84 252.294 279.146 251.243C279.519 251.094 279.837 250.855 280.066 250.554C280.414 250.014 280.23 249.341 280.035 248.746L276.697 238.449C274.541 238.744 271.371 238.952 269.455 239.925C268.065 240.63 268.821 243.579 268.821 244.937Z" fill="#323444"/>
<path d="M241.192 181.535C240.99 182.102 240.259 182.366 239.858 182.844C239.388 183.405 239.437 184.183 239.607 184.866C239.818 185.872 240.349 186.803 241.137 187.548C241.536 187.918 242.03 188.196 242.575 188.361C243.12 188.527 243.702 188.573 244.272 188.498C245.394 188.308 246.362 187.424 246.4 186.41C246.38 185.949 246.269 185.494 246.073 185.067L243.697 178.951C243.687 178.908 243.668 178.867 243.639 178.831C243.61 178.795 243.573 178.766 243.53 178.744C243.44 178.726 243.346 178.74 243.269 178.784C242.708 179.02 241.583 179.268 241.255 179.786C240.928 180.304 241.429 180.974 241.192 181.535Z" fill="#FBB3B2"/>
<path d="M240.081 181.228C240.948 181.107 241.708 180.655 242.52 180.357C243.331 180.059 244.348 179.944 245.031 180.441C245.226 180.583 245.414 180.779 245.669 180.776C245.323 179.259 244.8 177.779 244.108 176.359C244.084 176.291 244.036 176.231 243.972 176.189C243.877 176.154 243.771 176.154 243.676 176.189L241.332 176.735C240.464 176.936 240.363 176.874 240.429 177.634C240.447 177.972 240.642 181.228 240.081 181.228Z" fill="#323444"/>
<path d="M239.824 137.064C239.475 137.541 239.475 138.137 239.475 138.698C239.475 141.443 239.507 144.203 239.963 146.92C240.071 147.571 240.207 148.222 240.276 148.88C240.356 149.795 240.372 150.714 240.325 151.631L239.977 163.571C239.935 165.032 239.851 166.601 238.838 167.749C238.531 168.134 238.386 168.603 238.43 169.073C238.695 172.069 239.252 175.04 239.806 178.002C240.698 177.644 241.672 177.479 242.65 177.52C243.627 177.562 244.579 177.809 245.429 178.241C247.187 173.321 248.158 168.205 248.317 163.044C248.397 160.504 248.275 157.949 248.714 155.439C249.449 151.215 249.149 146.883 248.609 142.634C248.439 141.288 248.076 139.901 247.108 138.859C246.191 137.948 244.97 137.321 243.624 137.073C242.335 136.772 241.182 137.082 239.824 137.064Z" fill="#5B5583"/>
<path opacity="0.1" d="M239.824 137.064C239.475 137.541 239.475 138.137 239.475 138.698C239.475 141.443 239.507 144.203 239.963 146.92C240.071 147.571 240.207 148.222 240.276 148.88C240.356 149.795 240.372 150.714 240.325 151.631L239.977 163.571C239.935 165.032 239.851 166.601 238.838 167.749C238.531 168.134 238.386 168.603 238.43 169.073C238.695 172.069 239.252 175.04 239.806 178.002C240.698 177.644 241.672 177.479 242.65 177.52C243.627 177.562 244.579 177.809 245.429 178.241C247.187 173.321 248.158 168.205 248.317 163.044C248.397 160.504 248.275 157.949 248.714 155.439C249.449 151.215 249.149 146.883 248.609 142.634C248.439 141.288 248.076 139.901 247.108 138.859C246.191 137.948 244.97 137.321 243.624 137.073C242.335 136.772 241.182 137.082 239.824 137.064Z" fill="black"/>
<path d="M244.08 171.691C241.744 182.35 243.02 193.387 247.745 203.4C248.153 204.141 248.44 204.931 248.595 205.745C248.787 207.264 247.999 208.725 247.55 210.195C246.505 213.539 247.108 217.099 247.777 220.52C248.055 221.946 248.342 223.372 248.637 224.797C248.926 226.186 249.205 227.696 248.48 228.956C249.104 231.269 249.473 233.561 250.097 235.875C250.163 236.058 250.183 236.252 250.156 236.442C250.03 236.745 249.809 237.009 249.518 237.202C249.054 237.622 248.72 238.142 248.549 238.711C248.379 239.281 248.378 239.88 248.546 240.449C250.138 239.432 252.357 239.789 254.176 240.449C255.994 241.11 257.785 242 259.75 242C259.464 239.947 259.189 237.792 260.039 235.866C260.533 234.749 261.404 233.695 261.38 232.501C261.356 231.431 260.62 230.475 260.443 229.418C260.377 228.76 260.405 228.097 260.526 227.445C260.993 223.649 260.464 219.816 259.934 216.026C259.874 215.278 259.677 214.545 259.349 213.855C259.102 213.408 258.732 212.98 258.739 212.481C258.739 211.901 259.265 211.43 259.46 210.877C259.809 209.86 259.168 208.477 260.133 207.847C262.676 206.185 261.7 202.215 261.645 199.408C261.601 196.987 261.484 194.568 261.296 192.151C262.897 196.159 263.552 200.419 263.219 204.662C263.108 206.052 262.902 207.512 263.512 208.796C263.979 209.783 264.905 210.595 265.156 211.64C265.313 212.286 265.201 212.952 265.236 213.61C265.271 214.267 265.522 214.984 266.159 215.316C266.208 218.305 266.508 221.503 266.56 224.493C266.526 226.021 266.666 227.549 266.978 229.052C267.134 229.53 267.221 230.024 267.236 230.522C267.157 231.146 266.972 231.756 266.685 232.33C266.078 233.93 265.92 235.639 266.223 237.306C266.527 238.974 267.284 240.55 268.427 241.898C269.249 240.598 270.963 239.91 272.635 239.801C274.307 239.693 275.959 240.068 277.579 240.446C277.331 238.634 277.736 236.799 278.735 235.205C279.003 234.846 279.209 234.453 279.345 234.039C279.533 233.251 279.094 232.466 278.857 231.688C278.47 230.447 278.606 229.111 278.697 227.814C279.001 223.472 278.785 219.114 278.052 214.813C277.939 213.966 277.716 213.133 277.387 212.332C277.262 212.047 277.108 211.774 277.004 211.485C276.839 210.968 276.746 210.435 276.725 209.897L276.324 204.935C276.042 201.459 277.324 198.025 278.22 194.632C278.62 193.113 279.056 191.596 279.324 190.051C279.69 187.949 279.749 185.799 280.285 183.725C280.766 181.864 281.633 180.049 281.815 178.142C282.093 175.186 280.714 172.33 279.376 169.619C278.819 168.503 276.711 168.615 275.356 168.416C265.745 167.011 255.622 167.002 246.557 170.168C245.62 170.514 244.776 171.033 244.08 171.691Z" fill="#3C354C"/>
<path d="M251.009 116.645L252.075 120.336C252.365 121.182 252.526 122.059 252.552 122.944C252.564 123.266 252.483 123.586 252.319 123.874C252.143 124.111 251.919 124.315 251.657 124.476C250.929 124.969 250.424 126.12 249.591 126.461C250.02 127.125 250.612 126.693 251.385 127.025C252.747 127.615 253.995 128.461 255.472 128.753C256.865 129.026 258.328 128.768 259.711 128.443C261.672 127.968 263.623 127.314 265.201 126.169C266.779 125.025 267.678 124.014 267.671 122.206C265.929 122.389 264.379 120.822 263.609 119.414C263.342 118.879 263.146 118.318 263.024 117.743L262.09 114.086C261.073 114.285 260.244 114.933 259.272 115.271C258.3 115.609 257.151 115.64 256.071 115.683C254.154 115.761 252.248 115.981 250.372 116.341C250.114 116.387 249.79 116.533 249.853 116.757" fill="#FBB3B2"/>
<path opacity="0.1" d="M251.009 116.645L252.075 120.336C252.365 121.182 252.526 122.059 252.552 122.944C252.564 123.266 252.483 123.586 252.319 123.874C252.143 124.111 251.919 124.315 251.657 124.476C250.929 124.969 250.424 126.12 249.591 126.461C250.02 127.125 250.612 126.693 251.385 127.025C252.747 127.615 253.995 128.461 255.472 128.753C256.865 129.026 258.328 128.768 259.711 128.443C261.672 127.968 263.623 127.314 265.201 126.169C266.779 125.025 267.678 124.014 267.671 122.206C265.929 122.389 264.379 120.822 263.609 119.414C263.342 118.879 263.146 118.318 263.024 117.743L262.09 114.086C261.073 114.285 260.244 114.933 259.272 115.271C258.3 115.609 257.151 115.64 256.071 115.683C254.154 115.761 252.248 115.981 250.372 116.341C250.114 116.387 249.79 116.533 249.853 116.757" fill="black"/>
<path d="M255.587 118.678C260.681 118.678 264.811 115.002 264.811 110.466C264.811 105.93 260.681 102.253 255.587 102.253C250.492 102.253 246.362 105.93 246.362 110.466C246.362 115.002 250.492 118.678 255.587 118.678Z" fill="#FBB3B2"/>
<path d="M258.126 124.004C258.619 123.056 259.331 122.21 260.216 121.523C261.516 120.509 263.292 119.687 263.599 118.174L266.414 121.092C266.566 121.228 266.685 121.39 266.762 121.57C266.797 121.738 266.792 121.911 266.747 122.077C266.701 122.244 266.616 122.4 266.497 122.534C265.8 123.524 264.703 124.231 263.665 124.947C261.286 126.625 259.007 128.414 256.841 130.306C256.745 130.405 256.617 130.474 256.475 130.505C256.34 130.508 256.208 130.475 256.095 130.409C254.226 129.535 252.571 128.337 251.229 126.885C251.128 126.777 251.002 126.653 250.838 126.662C250.74 126.678 250.649 126.72 250.577 126.783C249.64 127.465 248.616 128.281 247.414 128.176C248.971 127.18 249.853 125.518 250.18 123.834C250.245 123.257 250.378 122.689 250.577 122.137C250.68 121.861 250.858 121.612 251.095 121.412C251.332 121.212 251.621 121.067 251.936 120.99C251.176 122.022 251.695 123.486 252.716 124.321C253.708 125.07 254.897 125.583 256.172 125.812C257.356 126.011 257.705 124.817 258.126 124.004Z" fill="#323444"/>
<path d="M246.125 172.535C247.438 172.823 248.682 173.313 249.957 173.676C252.281 174.324 254.726 174.553 257.151 174.349C257.897 174.334 258.623 174.129 259.241 173.757C259.405 173.639 259.554 173.499 259.729 173.391C260.02 173.235 260.336 173.119 260.666 173.046C263.86 172.156 266.535 170.237 269.131 168.357C269.214 168.295 269.308 168.218 269.301 168.118C269.29 168.051 269.253 167.989 269.197 167.942L267.831 166.546C264.25 167.089 260.582 166.884 256.949 166.803C256.203 166.774 255.455 166.792 254.712 166.856C253.995 166.93 253.287 167.092 252.58 167.228C249.894 167.749 247.149 167.948 244.429 168.289C244.238 168.301 244.054 168.352 243.889 168.438C243.774 168.517 243.676 168.613 243.6 168.723L242.645 169.917C242.275 170.319 242.002 170.785 241.844 171.285C241.621 172.215 242.088 172.525 242.976 172.404C244.025 172.268 245.095 172.312 246.125 172.535Z" fill="#323444"/>
<path d="M256.802 128.886C255.737 127.914 254.529 127.074 253.211 126.389C252.678 126.088 252.088 125.878 251.469 125.769C251.158 125.714 250.837 125.721 250.528 125.788C250.22 125.856 249.933 125.983 249.685 126.16C249.375 126.405 249.18 126.746 248.881 127.003C248.504 127.285 248.071 127.503 247.606 127.645C246.02 128.249 244.517 129.011 243.126 129.919C242.367 130.391 241.684 130.952 241.095 131.587C239.517 133.386 239.28 135.833 239.322 138.116C239.353 139.704 241.064 140.882 242.241 142.07C243.345 143.239 244.345 144.483 245.23 145.792C245.864 146.685 246.526 147.653 246.446 148.716C246.379 149.588 245.808 150.407 245.899 151.275C245.93 151.585 246.042 151.87 246.073 152.171C246.136 152.792 245.86 153.412 245.791 154.032C245.697 154.91 246.017 155.781 246.035 156.665C246.022 157.27 245.935 157.872 245.777 158.461C245.108 161.296 244.268 164.146 244.439 167.039L242.509 167.35C242.692 167.509 242.83 167.705 242.912 167.921C242.994 168.136 243.018 168.366 242.982 168.592C242.946 168.817 242.85 169.032 242.703 169.219C242.556 169.406 242.362 169.559 242.136 169.666C245.15 170.563 248.407 170.11 251.601 170.107C254.245 170.107 256.879 170.417 259.52 170.373C262.16 170.33 264.884 169.905 267.061 168.575C267.654 168.215 268.197 167.793 268.821 167.48C269.656 167.094 270.556 166.833 271.486 166.704C273.208 166.412 274.958 166.273 276.711 166.289C277.568 166.289 278.502 166.32 279.184 165.861C279.937 165.352 280.128 164.431 280.229 163.597C280.33 162.716 280.393 161.832 280.411 160.948C280.44 160.26 280.399 159.571 280.289 158.889C280.184 158.39 280.048 157.897 279.881 157.413L278.568 153.294C278.024 151.594 278.78 149.73 278.94 147.969C278.979 147.553 278.986 147.069 278.627 146.803C278.498 146.707 278.32 146.641 278.279 146.493C278.26 146.422 278.258 146.348 278.272 146.277C278.286 146.205 278.317 146.137 278.362 146.077C279.059 144.836 280.104 143.742 281.059 142.622C282.662 140.658 284.15 138.622 285.518 136.522C285.089 132.126 283.01 127.988 279.616 124.773C278.92 124.1 278.122 123.455 277.146 123.151C276.509 122.978 275.848 122.883 275.182 122.869C272.451 122.705 269.608 122.559 267.229 121.337C267.058 121.232 266.865 121.159 266.661 121.123C266.135 121.07 265.752 121.532 265.41 121.898C264.532 122.829 263.24 123.362 262.104 124.048C259.986 125.329 258.332 127.09 256.802 128.886Z" fill="#5B5583"/>
<path d="M285.754 137.789C286.298 139.321 286.246 140.959 286.423 142.556C286.528 143.52 286.718 144.475 286.991 145.413C287.115 145.928 287.339 146.42 287.653 146.867C287.966 147.277 288.416 147.608 288.614 148.07C288.723 148.383 288.771 148.711 288.757 149.038L288.799 151.178C288.889 152.312 288.695 153.45 288.231 154.509L286.73 158.575C285.918 160.777 285.086 163.013 283.622 164.93C283.416 165.254 283.104 165.515 282.727 165.677C282.432 165.747 282.13 165.788 281.825 165.801C281.294 165.886 280.812 166.132 280.463 166.498C280.114 166.864 279.919 167.327 279.912 167.808C279.564 167.354 279.129 166.959 278.627 166.639L275.572 164.468C274.527 163.711 273.436 162.942 272.168 162.504C273.874 162.03 275.388 161.126 276.527 159.9C277.666 158.675 278.381 157.181 278.585 155.601C278.584 155.13 278.703 154.666 278.934 154.242C279.188 153.876 279.658 153.597 279.693 153.166C279.735 152.623 279.045 152.214 279.045 151.671C279.045 151.311 279.345 151.014 279.477 150.676C279.601 150.258 279.601 149.819 279.477 149.401L279.056 147.317C279.031 147.108 278.96 146.906 278.846 146.721C278.689 146.545 278.514 146.381 278.324 146.231C277.599 145.509 277.92 144.37 278.324 143.48C279.252 141.504 280.448 139.637 281.884 137.92C282.396 137.343 282.869 136.74 283.302 136.115C283.671 135.544 283.755 134.753 284.145 134.254C284.647 135.426 285.326 136.583 285.754 137.789Z" fill="#5B5583"/>
<path d="M272.061 162.632C271.905 162.735 271.771 162.861 271.664 163.004C271.253 163.463 270.706 163.81 270.085 164.006C270.434 164.23 270.751 164.45 271.078 164.676C273.501 166.342 275.72 168.231 277.697 170.311C277.917 169.614 279.23 169.663 279.55 168.996C279.626 168.806 279.65 168.602 279.62 168.401C279.554 167.356 279.386 166.319 279.118 165.3C279.013 164.775 278.775 164.279 278.422 163.848C277.934 163.324 277.175 163.073 276.45 162.856C275.353 162.514 273.175 162.034 272.061 162.632Z" fill="#323444"/>
<path d="M267.706 165.07C266.661 165.759 265.745 166.621 264.571 167.092C263.742 167.427 262.798 167.573 262.073 168.072C262.467 168.845 263.491 169.245 264.442 169.214C265.394 169.13 266.306 168.833 267.093 168.348C267.717 168.007 268.448 167.61 269.128 167.849C269.232 168.32 268.779 168.764 268.779 169.242C268.779 169.719 269.225 170.067 269.664 170.318C271.754 171.518 274.443 171.419 276.934 171.279C277.077 171.284 277.218 171.247 277.335 171.174C277.389 171.118 277.43 171.053 277.456 170.982C277.481 170.912 277.491 170.838 277.485 170.764C277.516 170.274 277.53 169.787 277.533 169.297C277.604 168.902 277.546 168.497 277.367 168.131C277.188 167.764 276.896 167.45 276.523 167.226C275.172 166.191 273.714 165.272 272.169 164.481C270.636 163.69 269.082 164.158 267.706 165.07Z" fill="#FBB3B2"/>
<path d="M258.827 107.033C257.28 107.198 256.155 108.274 256.311 109.443C256.468 110.612 257.848 111.419 259.394 111.251C260.941 111.084 262.066 110.011 261.91 108.845C261.753 107.678 260.373 106.869 258.827 107.033ZM259.353 110.929C258.043 111.068 256.876 110.383 256.74 109.397C256.604 108.41 257.562 107.498 258.868 107.359C260.175 107.219 261.345 107.905 261.481 108.891C261.617 109.877 260.659 110.789 259.353 110.929Z" fill="#3C354C"/>
<path d="M251.288 107.839C249.741 108.003 248.616 109.08 248.773 110.246C248.93 111.412 250.309 112.221 251.856 112.057C253.403 111.892 254.528 110.816 254.371 109.647C254.214 108.478 252.835 107.675 251.288 107.839ZM251.814 111.731C250.504 111.871 249.337 111.185 249.205 110.202C249.072 109.219 250.023 108.304 251.333 108.161C252.643 108.019 253.81 108.707 253.942 109.694C254.075 110.68 253.12 111.592 251.814 111.731Z" fill="#3C354C"/>
<path d="M245.69 108.438L249.051 109.077L248.72 109.865L245.55 109.037L245.69 108.438Z" fill="#3C354C"/>
<path d="M264.428 106.434L261.328 107.765L261.861 108.46L264.721 106.986L264.428 106.434Z" fill="#3C354C"/>
<path d="M254.061 108.878L256.419 108.627L256.297 109.148L254.274 109.269L254.061 108.878Z" fill="#3C354C"/>
<path d="M249.487 108.174C249.709 107.749 249.828 107.287 249.835 106.819C249.844 106.538 249.898 106.261 249.996 105.994C250.167 105.655 250.427 105.358 250.755 105.129C251.842 104.31 253.399 103.888 254.935 103.829C256.611 103.761 258.277 104.081 259.771 104.76C260.227 104.95 260.636 105.22 260.972 105.553C261.46 106.084 261.565 106.769 262.056 107.293C262.391 107.611 262.813 107.847 263.28 107.977C263.748 108.108 264.245 108.129 264.724 108.038C264.895 107.498 264.672 106.927 264.759 106.375C264.896 105.902 265.082 105.441 265.313 104.998C265.853 103.581 265.066 101.937 263.442 101.091C262.875 100.78 262.202 100.579 261.777 100.16C261.352 99.7414 261.251 99.3072 260.959 98.8885C260.182 97.7813 258.172 97.2634 256.642 97.7751C256.162 97.9364 255.737 98.1814 255.249 98.3551C254.343 98.687 253.312 98.7459 252.316 98.8575C251.334 98.9382 250.373 99.1624 249.473 99.5212C248.613 99.8996 247.892 100.507 247.693 101.233C247.599 101.568 247.62 101.916 247.526 102.247C247.045 103.931 243.941 104.75 243.767 106.468C243.704 107.089 244.084 107.684 244.558 108.19C244.885 108.534 245.669 109.455 246.223 109.588C246.777 109.722 247.198 109.253 247.728 109.092C248.564 108.86 249.069 108.81 249.487 108.174Z" fill="#CBCEDA"/>
<path d="M288.785 217.409C288.785 232.991 299.765 245.601 313.334 245.601L288.785 217.409Z" fill="#46455B"/>
<path d="M313.334 245.603C313.334 229.845 325.589 217.095 340.732 217.095L313.334 245.603Z" fill="#1BB978"/>
<path d="M297.682 218.823C297.682 233.626 304.684 245.604 313.334 245.604L297.682 218.823Z" fill="#1BB978"/>
<path d="M313.334 245.604C313.334 225.469 327.498 209.175 345 209.175L313.334 245.604Z" fill="#46455B"/>
<path opacity="0.1" d="M312.272 250.989C315.642 250.989 318.375 250.578 318.375 250.071C318.375 249.564 315.642 249.153 312.272 249.153C308.901 249.153 306.168 249.564 306.168 250.071C306.168 250.578 308.901 250.989 312.272 250.989Z" fill="white"/>
<path d="M308.171 245.803C308.171 245.803 311.655 245.707 312.7 245.043C313.745 244.38 318.054 243.583 318.316 244.65C318.577 245.716 323.541 249.956 319.615 249.984C315.689 250.012 310.481 249.438 309.436 248.871C308.391 248.303 308.171 245.803 308.171 245.803Z" fill="#A8A8A8"/>
<path opacity="0.2" d="M319.688 249.611C315.759 249.639 310.558 249.065 309.509 248.498C308.711 248.066 308.394 246.513 308.286 245.799H308.171C308.171 245.799 308.391 248.299 309.439 248.867C310.488 249.434 315.689 250.008 319.618 249.98C320.754 249.98 321.144 249.611 321.123 249.081C320.967 249.403 320.552 249.605 319.688 249.611Z" fill="black"/>
<path d="M22.4653 226.515C22.4653 238.92 31.1987 248.944 41.9943 248.944L22.4653 226.515Z" fill="#46455B"/>
<path d="M41.9946 248.945C41.9946 236.409 51.7487 226.264 63.7914 226.264L41.9946 248.945Z" fill="#1BB978"/>
<path d="M29.5405 227.644C29.5405 239.429 35.1143 248.951 41.9943 248.951L29.5405 227.644Z" fill="#1BB978"/>
<path d="M41.9946 248.944C41.9946 232.926 53.264 219.962 67.1879 219.962L41.9946 248.944Z" fill="#46455B"/>
<path opacity="0.1" d="M41.1476 253.231C43.8296 253.231 46.0037 252.903 46.0037 252.499C46.0037 252.095 43.8296 251.767 41.1476 251.767C38.4657 251.767 36.2915 252.095 36.2915 252.499C36.2915 252.903 38.4657 253.231 41.1476 253.231Z" fill="#1BB978"/>
<path d="M37.8872 249.102C37.8872 249.102 40.6567 249.025 41.4892 248.482C42.3218 247.939 45.7531 247.319 45.9587 248.172C46.1642 249.025 50.1215 252.393 47.0037 252.414C43.8859 252.436 39.737 251.98 38.9044 251.531C38.0718 251.081 37.8872 249.102 37.8872 249.102Z" fill="#A8A8A8"/>
<path opacity="0.2" d="M47.049 252.145C43.9138 252.166 39.7823 251.711 38.9497 251.258C38.3157 250.917 38.0649 249.679 37.9778 249.112H37.8872C37.8872 249.112 38.0614 251.1 38.894 251.552C39.7265 252.005 43.8685 252.458 46.9933 252.436C47.8955 252.436 48.2091 252.145 48.1916 251.72C48.0662 251.968 47.7214 252.126 47.049 252.145Z" fill="black"/>
<path d="M238.501 114.466H198.532C197.699 114.465 196.9 114.174 196.31 113.656C195.721 113.139 195.389 112.437 195.388 111.704V94.2302C195.389 93.498 195.721 92.796 196.31 92.2782C196.9 91.7604 197.699 91.4692 198.532 91.4684H238.501C239.334 91.4692 240.133 91.7604 240.723 92.2782C241.312 92.796 241.644 93.498 241.645 94.2302C244.118 100.414 244.469 106.29 241.645 111.704C241.644 112.437 241.312 113.139 240.723 113.656C240.133 114.174 239.334 114.465 238.501 114.466V114.466Z" fill="#E6E6E6"/>
<path d="M233.765 112.777H199.808C199.1 112.777 198.421 112.529 197.92 112.089C197.419 111.649 197.138 111.053 197.137 110.431V95.5849C197.138 94.9628 197.419 94.3663 197.92 93.9264C198.421 93.4865 199.1 93.2391 199.808 93.2384H233.765C234.473 93.2391 235.152 93.4865 235.653 93.9264C236.154 94.3663 236.436 94.9627 236.436 95.5848C238.728 100.872 239.097 105.875 236.436 110.431C236.436 111.053 236.154 111.649 235.653 112.089C235.152 112.529 234.473 112.777 233.765 112.777V112.777Z" fill="white"/>
<path d="M231.934 123.619H205.01C204.218 123.62 203.458 123.345 202.897 122.854C202.336 122.363 202.02 121.696 202.019 121C202.017 120.305 202.33 119.637 202.889 119.144C203.448 118.651 204.207 118.373 204.999 118.372H231.934C232.726 118.373 233.484 118.65 234.043 119.142C234.602 119.634 234.916 120.3 234.916 120.996C234.916 121.691 234.602 122.357 234.043 122.849C233.484 123.341 232.726 123.618 231.934 123.619V123.619Z" fill="#E6E6E6"/>
<path d="M215.613 97.3844C215.341 97.3852 215.081 97.4772 214.889 97.6404C214.697 97.8035 214.589 98.0245 214.589 98.2551V107.68C214.589 107.832 214.636 107.982 214.725 108.114C214.815 108.246 214.943 108.355 215.098 108.432C215.253 108.508 215.429 108.549 215.608 108.549C215.788 108.55 215.964 108.511 216.12 108.435L225.916 103.692C226.073 103.616 226.204 103.506 226.295 103.372C226.386 103.239 226.434 103.088 226.433 102.934C226.433 102.781 226.384 102.63 226.292 102.497C226.201 102.364 226.069 102.255 225.911 102.179L216.115 97.4972C215.962 97.4235 215.789 97.3846 215.613 97.3844V97.3844Z" fill="#F00404"/>
<path d="M219.85 93.0424H218.769V42.1792H261.269V42.8904H219.85V93.0424Z" fill="#1594DB"/>
<path d="M286.397 35.9764H257.546C255.669 35.9764 253.869 36.6313 252.542 37.7971C251.215 38.9628 250.47 40.5439 250.47 42.1925C250.47 43.841 251.215 45.4221 252.542 46.5878C253.869 47.7536 255.669 48.4085 257.546 48.4085H286.397C288.273 48.4085 290.073 47.7536 291.4 46.5878C292.727 45.4221 293.473 43.841 293.473 42.1925C293.473 40.5439 292.727 38.9628 291.4 37.7971C290.073 36.6313 288.273 35.9764 286.397 35.9764V35.9764Z" fill="#1BB978"/>
<path d="M140.176 115.063L168.703 109.264L176.892 107.6C177.916 107.392 177.49 106.007 176.466 106.215L147.939 112.014L139.75 113.678C138.726 113.886 139.151 115.271 140.176 115.063H140.176Z" fill="#1594DB"/>
<path d="M169.634 99.9618L184.906 106.133C185.427 106.291 185.915 106.523 186.351 106.82C186.772 107.182 186.465 107.531 186.121 107.847C185.094 108.69 184.008 109.477 182.871 110.204L176.365 114.85C175.548 115.434 176.7 116.451 177.509 115.874L183.176 111.827L186.01 109.803C186.812 109.23 187.789 108.645 188.112 107.732C188.79 105.813 186.115 105.05 184.629 104.45L177.978 101.762L170.466 98.7268C169.519 98.3442 168.68 99.5763 169.634 99.9618V99.9618Z" fill="#1594DB"/>
<path d="M125.517 113.581H91.2958C89.7071 113.579 88.1841 113.024 87.0608 112.037C85.9375 111.051 85.3056 109.713 85.3037 108.317V88.5062C85.3056 87.1108 85.9375 85.773 87.0608 84.7862C88.1841 83.7995 89.7071 83.2444 91.2958 83.2428H125.517C127.105 83.2444 128.628 83.7995 129.752 84.7862C130.875 85.773 131.507 87.1108 131.509 88.5062V108.317C131.507 109.713 130.875 111.051 129.752 112.037C128.628 113.024 127.105 113.579 125.517 113.581V113.581Z" fill="#E6E6E6"/>
<path d="M121.756 112.514H91.9728C90.5902 112.512 89.2647 112.029 88.287 111.17C87.3094 110.312 86.7594 109.147 86.7578 107.933V90.6907C86.7594 89.4762 87.3094 88.3119 88.287 87.4531C89.2647 86.5944 90.5902 86.1113 91.9728 86.1099H121.756C123.138 86.1113 124.464 86.5944 125.442 87.4531C126.419 88.3119 126.969 89.4762 126.971 90.6907V107.933C126.969 109.147 126.419 110.312 125.442 111.17C124.464 112.029 123.138 112.512 121.756 112.514V112.514Z" fill="white"/>
<path d="M130.336 131.43H86.4265C86.1552 131.429 85.8952 131.334 85.7035 131.165C85.5119 130.997 85.4043 130.768 85.4043 130.53C85.4043 130.291 85.5119 130.063 85.7035 129.894C85.8952 129.725 86.1552 129.63 86.4265 129.63H130.336C130.608 129.63 130.868 129.725 131.059 129.894C131.251 130.063 131.359 130.291 131.359 130.53C131.359 130.768 131.251 130.997 131.059 131.165C130.868 131.334 130.608 131.429 130.336 131.43V131.43Z" fill="#E6E6E6"/>
<path d="M130.336 126.287H86.4265C86.1552 126.286 85.8952 126.191 85.7035 126.022C85.5119 125.854 85.4043 125.625 85.4043 125.387C85.4043 125.148 85.5119 124.92 85.7035 124.751C85.8952 124.582 86.1552 124.487 86.4265 124.487H130.336C130.608 124.487 130.868 124.582 131.059 124.751C131.251 124.92 131.359 125.148 131.359 125.387C131.359 125.625 131.251 125.854 131.059 126.022C130.868 126.191 130.608 126.286 130.336 126.287V126.287Z" fill="#E6E6E6"/>
<path d="M130.336 136.572H86.4264C86.1547 136.572 85.8941 136.478 85.7019 136.309C85.5098 136.14 85.4019 135.911 85.4019 135.672C85.4019 135.434 85.5098 135.205 85.7019 135.036C85.8941 134.867 86.1547 134.772 86.4264 134.772H130.336C130.608 134.772 130.869 134.867 131.061 135.036C131.253 135.205 131.361 135.434 131.361 135.672C131.361 135.911 131.253 136.14 131.061 136.309C130.869 136.478 130.608 136.572 130.336 136.572Z" fill="#E6E6E6"/>
<path d="M130.336 141.715H86.4264C86.1547 141.715 85.8941 141.62 85.7019 141.451C85.5098 141.283 85.4019 141.054 85.4019 140.815C85.4019 140.576 85.5098 140.347 85.7019 140.179C85.8941 140.01 86.1547 139.915 86.4264 139.915H130.336C130.608 139.915 130.869 140.01 131.061 140.179C131.253 140.347 131.361 140.576 131.361 140.815C131.361 141.054 131.253 141.283 131.061 141.451C130.869 141.62 130.608 141.715 130.336 141.715V141.715Z" fill="#E6E6E6"/>
<path d="M130.336 146.858H86.4264C86.1547 146.858 85.8941 146.763 85.7019 146.594C85.5098 146.425 85.4019 146.197 85.4019 145.958C85.4019 145.719 85.5098 145.49 85.7019 145.321C85.8941 145.153 86.1547 145.058 86.4264 145.058H130.336C130.608 145.058 130.869 145.153 131.061 145.321C131.253 145.49 131.361 145.719 131.361 145.958C131.361 146.197 131.253 146.425 131.061 146.594C130.869 146.763 130.608 146.858 130.336 146.858Z" fill="#E6E6E6"/>
<path d="M130.336 152.001H86.4265C86.1552 152 85.8952 151.905 85.7035 151.736C85.5119 151.568 85.4043 151.339 85.4043 151.101C85.4043 150.862 85.5119 150.634 85.7035 150.465C85.8952 150.296 86.1552 150.201 86.4265 150.201H130.336C130.608 150.201 130.868 150.296 131.059 150.465C131.251 150.634 131.359 150.862 131.359 151.101C131.359 151.339 131.251 151.568 131.059 151.736C130.868 151.905 130.608 152 130.336 152.001V152.001Z" fill="#E6E6E6"/>
<path d="M106.186 140.206H107.275V177.045H28.5317V176.088H106.186V140.206Z" fill="#1594DB"/>
<path d="M27.6297 183.32H56.48C58.3568 183.32 60.1568 182.665 61.4839 181.499C62.811 180.334 63.5565 178.753 63.5565 177.104C63.5565 175.455 62.811 173.874 61.4839 172.709C60.1568 171.543 58.3568 170.888 56.48 170.888H27.6297C25.7529 170.888 23.953 171.543 22.6259 172.709C21.2988 173.874 20.5532 175.455 20.5532 177.104C20.5532 178.753 21.2988 180.334 22.6259 181.499C23.953 182.665 25.7529 183.32 27.6297 183.32Z" fill="#1BB978"/>
<path d="M107.489 142.982C111.08 142.982 113.991 140.425 113.991 137.27C113.991 134.115 111.08 131.558 107.489 131.558C103.897 131.558 100.986 134.115 100.986 137.27C100.986 140.425 103.897 142.982 107.489 142.982Z" fill="#1BB978"/>
<path d="M141.099 138.857C150.646 140.64 148.218 140.988 157.765 142.77L165.986 144.305C167.014 144.497 167.296 143.084 166.267 142.891C156.72 141.109 159.149 140.761 149.601 138.979L141.38 137.444C140.352 137.252 140.07 138.665 141.099 138.857H141.099Z" fill="#1594DB"/>
<path d="M163.089 134.687L173.954 145.953C174.35 146.29 174.681 146.682 174.933 147.113C175.14 147.598 174.694 147.8 174.23 147.959C172.893 148.341 171.53 148.651 170.15 148.886L162.017 150.679C160.996 150.904 161.55 152.254 162.561 152.031L169.645 150.47L173.187 149.69C174.19 149.469 175.357 149.302 176.089 148.594C177.628 147.107 175.572 145.422 174.514 144.326L169.782 139.419L164.437 133.877C163.763 133.178 162.41 133.983 163.089 134.687V134.687Z" fill="#1594DB"/>
<path d="M197.54 183.799C205.891 183.799 212.662 177.852 212.662 170.516C212.662 163.18 205.891 157.233 197.54 157.233C189.188 157.233 182.418 163.18 182.418 170.516C182.418 177.852 189.188 183.799 197.54 183.799Z" fill="#E6E6E6"/>
<path d="M196.066 182.106C202.415 182.106 207.562 177.584 207.562 172.007C207.562 166.43 202.415 161.909 196.066 161.909C189.716 161.909 184.569 166.43 184.569 172.007C184.569 177.584 189.716 182.106 196.066 182.106Z" fill="white"/>
<path d="M194.003 178.921C193.742 178.921 193.485 178.867 193.251 178.765C193.017 178.662 192.814 178.513 192.658 178.329L188.532 173.498C188.4 173.342 188.303 173.166 188.248 172.978C188.193 172.79 188.181 172.594 188.212 172.402C188.243 172.21 188.317 172.025 188.43 171.858C188.542 171.691 188.691 171.545 188.867 171.429C189.044 171.312 189.245 171.228 189.459 171.179C189.673 171.131 189.896 171.12 190.114 171.148C190.333 171.175 190.544 171.24 190.734 171.339C190.924 171.438 191.09 171.568 191.223 171.723L191.224 171.725L193.923 174.886L200.855 165.752C200.977 165.59 201.135 165.451 201.318 165.343C201.502 165.235 201.708 165.159 201.925 165.121C202.141 165.083 202.365 165.083 202.581 165.12C202.798 165.158 203.005 165.233 203.189 165.34C203.373 165.448 203.531 165.587 203.654 165.748C203.777 165.909 203.862 166.091 203.905 166.281C203.948 166.472 203.949 166.668 203.905 166.858C203.862 167.049 203.777 167.23 203.654 167.391L195.403 178.263C195.254 178.459 195.053 178.622 194.818 178.736C194.582 178.85 194.319 178.914 194.05 178.92C194.034 178.92 194.019 178.921 194.003 178.921Z" fill="#1BB978"/>
<path d="M197.409 188.386H196.32V225.225H233.149V224.268H197.409V188.386Z" fill="#1594DB"/>
<path d="M246.445 225.176C246.443 223.528 245.697 221.948 244.37 220.782C243.043 219.617 241.244 218.962 239.368 218.96H210.518C208.641 218.96 206.841 219.615 205.514 220.781C204.187 221.946 203.441 223.527 203.441 225.176C203.441 226.825 204.187 228.406 205.514 229.571C206.841 230.737 208.641 231.392 210.518 231.392H239.368C241.244 231.39 243.043 230.735 244.37 229.57C245.697 228.404 246.443 226.824 246.445 225.176Z" fill="#1BB978"/>
<path d="M196.106 191.162C199.698 191.162 202.609 188.605 202.609 185.45C202.609 182.295 199.698 179.738 196.106 179.738C192.515 179.738 189.604 182.295 189.604 185.45C189.604 188.605 192.515 191.162 196.106 191.162Z" fill="#1BB978"/>
<path d="M219.349 96.7129C222.941 96.7129 225.852 94.1556 225.852 91.0009C225.852 87.8463 222.941 85.2889 219.349 85.2889C215.758 85.2889 212.847 87.8463 212.847 91.0009C212.847 94.1556 215.758 96.7129 219.349 96.7129Z" fill="#1BB978"/>
<path d="M101.593 96.4346V95.2716H100.286C100.027 95.2716 99.7774 95.1797 99.5936 95.0161C99.4099 94.8525 99.3067 94.6306 99.3067 94.3993C99.3067 94.1679 99.4099 93.9461 99.5936 93.7825C99.7774 93.6189 100.027 93.527 100.286 93.527H101.593V92.364C101.593 92.1326 101.696 91.9108 101.88 91.7472C102.063 91.5836 102.313 91.4917 102.573 91.4917C102.832 91.4917 103.082 91.5836 103.265 91.7472C103.449 91.9108 103.552 92.1326 103.552 92.364V93.527H104.859C105.118 93.527 105.368 93.6189 105.551 93.7825C105.735 93.9461 105.838 94.1679 105.838 94.3993C105.838 94.6306 105.735 94.8525 105.551 95.0161C105.368 95.1797 105.118 95.2716 104.859 95.2716H103.552V96.4346C103.552 96.6659 103.449 96.8878 103.265 97.0514C103.082 97.215 102.832 97.3069 102.573 97.3069C102.313 97.3069 102.063 97.215 101.88 97.0514C101.696 96.8878 101.593 96.6659 101.593 96.4346V96.4346ZM109.431 93.527C109.171 93.527 108.922 93.6189 108.738 93.7825C108.554 93.9461 108.451 94.1679 108.451 94.3993C108.451 94.6306 108.554 94.8525 108.738 95.0161C108.922 95.1797 109.171 95.2716 109.431 95.2716H114.003C114.263 95.2716 114.512 95.1797 114.696 95.0161C114.88 94.8525 114.983 94.6306 114.983 94.3993C114.983 94.1679 114.88 93.9461 114.696 93.7825C114.512 93.6189 114.263 93.527 114.003 93.527H109.431ZM99.5941 103.959C99.4978 104.039 99.4206 104.136 99.367 104.243C99.3135 104.35 99.2847 104.465 99.2824 104.582C99.2801 104.699 99.3043 104.816 99.3535 104.924C99.4028 105.033 99.4762 105.132 99.5692 105.214C99.6622 105.297 99.773 105.362 99.895 105.406C100.017 105.45 100.148 105.472 100.279 105.47C100.411 105.468 100.541 105.442 100.661 105.394C100.781 105.347 100.889 105.278 100.979 105.192L102.573 103.773L104.166 105.192C104.352 105.346 104.598 105.43 104.851 105.426C105.105 105.422 105.347 105.331 105.527 105.171C105.706 105.011 105.809 104.795 105.814 104.569C105.818 104.343 105.724 104.125 105.551 103.959L103.957 102.54L105.551 101.122C105.647 101.042 105.724 100.945 105.778 100.838C105.832 100.731 105.86 100.616 105.863 100.499C105.865 100.382 105.841 100.265 105.792 100.157C105.742 100.048 105.669 99.9495 105.576 99.8666C105.483 99.7838 105.372 99.7185 105.25 99.6746C105.128 99.6308 104.997 99.6092 104.866 99.6113C104.734 99.6134 104.604 99.639 104.484 99.6867C104.364 99.7343 104.256 99.8031 104.166 99.8888L102.573 101.308L100.979 99.8888C100.793 99.7347 100.547 99.6508 100.294 99.6548C100.04 99.6588 99.7976 99.7503 99.6181 99.9102C99.4386 100.07 99.3357 100.286 99.3313 100.512C99.3268 100.738 99.421 100.956 99.5941 101.122L101.188 102.54L99.5941 103.959V103.959ZM111.717 100.796C112.063 100.796 112.396 100.673 112.641 100.455C112.886 100.237 113.023 99.9414 113.023 99.6329C113.023 99.3245 112.886 99.0286 112.641 98.8105C112.396 98.5924 112.063 98.4699 111.717 98.4699C111.37 98.4699 111.038 98.5924 110.793 98.8105C110.548 99.0286 110.411 99.3245 110.411 99.6329C110.411 99.9414 110.548 100.237 110.793 100.455C111.038 100.673 111.37 100.796 111.717 100.796V100.796ZM109.104 101.087C108.844 101.087 108.595 101.179 108.411 101.342C108.228 101.506 108.124 101.728 108.124 101.959C108.124 102.19 108.228 102.412 108.411 102.576C108.595 102.739 108.844 102.831 109.104 102.831H114.33C114.589 102.831 114.839 102.739 115.022 102.576C115.206 102.412 115.309 102.19 115.309 101.959C115.309 101.728 115.206 101.506 115.022 101.342C114.839 101.179 114.589 101.087 114.33 101.087H109.104ZM113.023 104.285C113.023 104.593 112.886 104.889 112.641 105.107C112.396 105.326 112.063 105.448 111.717 105.448C111.37 105.448 111.038 105.326 110.793 105.107C110.548 104.889 110.411 104.593 110.411 104.285C110.411 103.977 110.548 103.681 110.793 103.463C111.038 103.245 111.37 103.122 111.717 103.122C112.063 103.122 112.396 103.245 112.641 103.463C112.886 103.681 113.023 103.977 113.023 104.285V104.285Z" fill="#F9A826"/>
</svg>
