<svg xmlns="http://www.w3.org/2000/svg" width="942" height="436" fill="none" viewBox="0 0 942 436"><g clip-path="url(#clip0)"><path fill="#3F3D56" d="M84.4934 414.525L83.2263 414.05C82.9478 413.945 55.2337 403.327 42.2513 379.251C29.2683 355.173 35.6254 326.184 35.6911 325.894L35.9904 324.574L37.2569 325.049C37.5354 325.154 65.2489 335.772 78.2319 359.849C91.2149 383.926 84.8578 412.915 84.7921 413.205L84.4934 414.525ZM44.3302 378.13C55.3064 398.486 77.2069 408.921 82.7558 411.303C83.8108 405.356 87.1194 381.306 76.153 360.969C65.1878 340.635 43.2786 330.184 37.7274 327.796C36.6718 333.746 33.3644 357.794 44.3302 378.13Z"/><path fill="#D0CDE1" d="M52.173 370.803C75.5042 384.839 84.4898 412.72 84.4898 412.72C84.4898 412.72 55.648 417.843 32.3168 403.806C8.98558 389.77 0 361.889 0 361.889C0 361.889 28.8418 356.766 52.173 370.803Z"/><path fill="#3F3D56" d="M798.851 5.36232H538.681V0H420.71V5.36232H159.468C157.157 5.36232 154.868 5.81753 152.733 6.70193C150.598 7.58634 148.658 8.88264 147.024 10.5168C145.39 12.151 144.093 14.091 143.209 16.2262C142.325 18.3613 141.869 20.6498 141.869 22.9608V379.213C141.869 383.88 143.724 388.357 147.024 391.657C150.324 394.957 154.8 396.812 159.468 396.812H798.851C801.162 396.812 803.45 396.356 805.585 395.472C807.72 394.588 809.661 393.291 811.295 391.657C812.929 390.023 814.225 388.083 815.11 385.948C815.994 383.813 816.449 381.524 816.449 379.213V22.9608C816.449 20.6498 815.994 18.3613 815.11 16.2262C814.225 14.091 812.929 12.151 811.295 10.5168C809.661 8.88263 807.72 7.58633 805.585 6.70192C803.45 5.81751 801.162 5.36231 798.851 5.36232V5.36232Z"/><path fill="#646ECB" d="M792.855 36.4648H165.464V390.378H792.855V36.4648Z"/><path fill="#646ECB" d="M478.623 26.811C482.177 26.811 485.058 23.93 485.058 20.3762C485.058 16.8224 482.177 13.9414 478.623 13.9414C475.069 13.9414 472.188 16.8224 472.188 20.3762C472.188 23.93 475.069 26.811 478.623 26.811Z"/><path fill="#3F3D56" d="M756.838 81.5056H727.098V51.7656H756.838V81.5056ZM728.391 80.2126H755.545V53.0587H728.391V80.2126Z"/><path fill="#3F3D56" d="M834.065 383.943H772.835V379.531C772.835 379.416 772.813 379.302 772.769 379.196C772.725 379.09 772.66 378.994 772.579 378.912C772.498 378.831 772.402 378.767 772.295 378.723C772.189 378.679 772.076 378.656 771.961 378.656H750.968C750.853 378.656 750.739 378.679 750.633 378.723C750.527 378.767 750.43 378.831 750.349 378.912C750.268 378.994 750.204 379.09 750.16 379.196C750.116 379.302 750.093 379.416 750.093 379.531V383.943H736.973V379.531C736.973 379.416 736.95 379.302 736.906 379.196C736.862 379.09 736.798 378.994 736.716 378.912C736.635 378.831 736.539 378.767 736.433 378.723C736.326 378.679 736.213 378.656 736.098 378.656H715.105C714.99 378.656 714.876 378.679 714.77 378.723C714.664 378.767 714.568 378.831 714.486 378.912C714.405 378.994 714.341 379.09 714.297 379.196C714.253 379.302 714.23 379.416 714.23 379.531V383.943H701.11V379.531C701.11 379.416 701.087 379.302 701.043 379.196C700.999 379.09 700.935 378.994 700.853 378.912C700.772 378.831 700.676 378.767 700.57 378.723C700.464 378.679 700.35 378.656 700.235 378.656H679.242C679.127 378.656 679.013 378.679 678.907 378.723C678.801 378.767 678.705 378.831 678.623 378.912C678.542 378.994 678.478 379.09 678.434 379.196C678.39 379.302 678.367 379.416 678.367 379.531V383.943H665.247V379.531C665.247 379.416 665.224 379.302 665.18 379.196C665.136 379.09 665.072 378.994 664.991 378.912C664.909 378.831 664.813 378.767 664.707 378.723C664.601 378.679 664.487 378.656 664.372 378.656H643.379C643.264 378.656 643.15 378.679 643.044 378.723C642.938 378.767 642.842 378.831 642.761 378.912C642.679 378.994 642.615 379.09 642.571 379.196C642.527 379.302 642.504 379.416 642.504 379.531V383.943H629.384V379.531C629.384 379.416 629.361 379.302 629.317 379.196C629.273 379.09 629.209 378.994 629.128 378.912C629.046 378.831 628.95 378.767 628.844 378.723C628.738 378.679 628.624 378.656 628.509 378.656H607.516C607.401 378.656 607.288 378.679 607.182 378.723C607.075 378.767 606.979 378.831 606.898 378.912C606.817 378.994 606.752 379.09 606.708 379.196C606.664 379.302 606.642 379.416 606.642 379.531V383.943H593.521V379.531C593.521 379.416 593.498 379.302 593.454 379.196C593.41 379.09 593.346 378.994 593.265 378.912C593.184 378.831 593.087 378.767 592.981 378.723C592.875 378.679 592.761 378.656 592.646 378.656H571.653C571.539 378.656 571.425 378.679 571.319 378.723C571.212 378.767 571.116 378.831 571.035 378.912C570.954 378.994 570.889 379.09 570.845 379.196C570.801 379.302 570.779 379.416 570.779 379.531V383.943H557.658V379.531C557.658 379.416 557.635 379.302 557.591 379.196C557.548 379.09 557.483 378.994 557.402 378.912C557.321 378.831 557.224 378.767 557.118 378.723C557.012 378.679 556.898 378.656 556.783 378.656H392.339C392.224 378.656 392.11 378.679 392.004 378.723C391.898 378.767 391.802 378.831 391.72 378.912C391.639 378.994 391.575 379.09 391.531 379.196C391.487 379.302 391.464 379.416 391.464 379.531V383.943H378.344V379.531C378.344 379.416 378.321 379.302 378.277 379.196C378.233 379.09 378.169 378.994 378.087 378.912C378.006 378.831 377.91 378.767 377.804 378.723C377.698 378.679 377.584 378.656 377.469 378.656H356.476C356.361 378.656 356.247 378.679 356.141 378.723C356.035 378.767 355.939 378.831 355.858 378.912C355.776 378.994 355.712 379.09 355.668 379.196C355.624 379.302 355.601 379.416 355.601 379.531V383.943H342.481V379.531C342.481 379.416 342.458 379.302 342.414 379.196C342.37 379.09 342.306 378.994 342.225 378.912C342.143 378.831 342.047 378.767 341.941 378.723C341.835 378.679 341.721 378.656 341.606 378.656H320.613C320.498 378.656 320.385 378.679 320.278 378.723C320.172 378.767 320.076 378.831 319.995 378.912C319.913 378.994 319.849 379.09 319.805 379.196C319.761 379.302 319.738 379.416 319.738 379.531V383.943H306.618V379.531C306.618 379.416 306.595 379.302 306.551 379.196C306.507 379.09 306.443 378.994 306.362 378.912C306.28 378.831 306.184 378.767 306.078 378.723C305.972 378.679 305.858 378.656 305.743 378.656H284.75C284.635 378.656 284.522 378.679 284.416 378.723C284.309 378.767 284.213 378.831 284.132 378.912C284.051 378.994 283.986 379.09 283.942 379.196C283.898 379.302 283.876 379.416 283.876 379.531V383.943H270.755V379.531C270.755 379.416 270.732 379.302 270.688 379.196C270.644 379.09 270.58 378.994 270.499 378.912C270.418 378.831 270.321 378.767 270.215 378.723C270.109 378.679 269.995 378.656 269.88 378.656H248.887C248.773 378.656 248.659 378.679 248.553 378.723C248.447 378.767 248.35 378.831 248.269 378.912C248.188 378.994 248.123 379.09 248.079 379.196C248.035 379.302 248.013 379.416 248.013 379.531V383.943H234.892V379.531C234.892 379.416 234.87 379.302 234.826 379.196C234.782 379.09 234.717 378.994 234.636 378.912C234.555 378.831 234.458 378.767 234.352 378.723C234.246 378.679 234.132 378.656 234.017 378.656H213.025C212.91 378.656 212.796 378.679 212.69 378.723C212.584 378.767 212.487 378.831 212.406 378.912C212.325 378.994 212.26 379.09 212.216 379.196C212.172 379.302 212.15 379.416 212.15 379.531V383.943H199.029V379.531C199.029 379.416 199.007 379.302 198.963 379.196C198.919 379.09 198.854 378.994 198.773 378.912C198.692 378.831 198.595 378.767 198.489 378.723C198.383 378.679 198.269 378.656 198.155 378.656H177.162C177.047 378.656 176.933 378.679 176.827 378.723C176.721 378.767 176.624 378.831 176.543 378.912C176.462 378.994 176.397 379.09 176.354 379.196C176.31 379.302 176.287 379.416 176.287 379.531V383.943H136.051C130.483 383.943 125.143 386.154 121.206 390.091C117.269 394.028 115.058 399.368 115.058 404.935V414.428C115.058 419.996 117.269 425.335 121.206 429.272C125.143 433.209 130.483 435.421 136.051 435.421H834.065C839.632 435.421 844.972 433.209 848.909 429.272C852.846 425.335 855.058 419.996 855.058 414.428V404.935C855.058 399.368 852.846 394.028 848.909 390.091C844.972 386.154 839.632 383.943 834.065 383.943V383.943Z"/><path fill="#3F3D56" d="M941.404 413.883H28.7114V416.668H941.404V413.883Z"/><path fill="#3F3D56" d="M754.072 233.672H552.072V118.672H754.072V233.672ZM554.072 231.672H752.072V120.672H554.072V231.672Z"/><path fill="#3F3D56" d="M384.072 256.672H204.072V144.672H384.072V256.672ZM206.072 254.672H382.072V146.672H206.072V254.672Z"/><path fill="#D0CDE1" d="M288.166 213.671L287.993 211.435C287.478 206.791 289.026 201.717 293.325 196.558C297.196 191.999 299.345 188.646 299.345 184.775C299.345 180.39 296.594 177.466 291.176 177.38C288.077 177.367 285.048 178.297 282.49 180.046L280.426 174.628C283.264 172.563 288.166 171.188 292.723 171.188C302.614 171.188 307.085 177.294 307.085 183.829C307.085 189.678 303.817 193.892 299.689 198.793C295.906 203.265 294.53 207.049 294.787 211.435L294.873 213.671L288.166 213.671ZM286.274 225.711C286.227 225.009 286.327 224.306 286.567 223.645C286.806 222.984 287.18 222.379 287.665 221.87C288.15 221.361 288.735 220.958 289.384 220.686C290.032 220.415 290.73 220.281 291.433 220.293C294.444 220.293 296.508 222.528 296.508 225.711C296.536 226.401 296.425 227.089 296.18 227.735C295.936 228.38 295.564 228.97 295.086 229.468C294.608 229.966 294.034 230.362 293.399 230.633C292.764 230.904 292.081 231.043 291.391 231.043C290.7 231.043 290.017 230.904 289.382 230.633C288.747 230.362 288.174 229.966 287.696 229.468C287.218 228.97 286.845 228.38 286.601 227.735C286.357 227.089 286.245 226.401 286.274 225.711V225.711Z"/><path fill="#D0CDE1" d="M647.166 188.671L646.993 186.435C646.478 181.791 648.026 176.717 652.325 171.558C656.196 166.999 658.345 163.646 658.345 159.775C658.345 155.39 655.594 152.466 650.176 152.38C647.077 152.367 644.048 153.297 641.49 155.046L639.426 149.628C642.264 147.563 647.166 146.188 651.723 146.188C661.614 146.188 666.085 152.294 666.085 158.829C666.085 164.678 662.817 168.892 658.689 173.793C654.906 178.265 653.53 182.049 653.787 186.435L653.873 188.671L647.166 188.671ZM645.274 200.711C645.227 200.009 645.327 199.306 645.567 198.645C645.806 197.984 646.18 197.379 646.665 196.87C647.15 196.361 647.735 195.958 648.384 195.686C649.032 195.415 649.73 195.281 650.433 195.293C653.444 195.293 655.508 197.528 655.508 200.711C655.536 201.401 655.425 202.089 655.18 202.735C654.936 203.38 654.564 203.97 654.086 204.468C653.608 204.966 653.034 205.362 652.399 205.633C651.764 205.904 651.081 206.043 650.391 206.043C649.7 206.043 649.017 205.904 648.382 205.633C647.747 205.362 647.174 204.966 646.696 204.468C646.218 203.97 645.845 203.38 645.601 202.735C645.357 202.089 645.245 201.401 645.274 200.711V200.711Z"/><path fill="#2F2E41" d="M482.693 347.139C530.351 347.139 568.985 308.505 568.985 260.847C568.985 213.189 530.351 174.555 482.693 174.555C435.035 174.555 396.401 213.189 396.401 260.847C396.401 308.505 435.035 347.139 482.693 347.139Z"/><path fill="#2F2E41" d="M449.365 379.018L423.568 374.348L431.935 320.484L457.731 325.154L449.365 379.018Z"/><path fill="#2F2E41" d="M509.323 334.494L483.527 329.824L475.161 376.042L500.957 380.712L509.323 334.494Z"/><path fill="#2F2E41" d="M518.198 383.229C519.094 378.794 510.232 373.263 498.405 370.876C486.579 368.488 476.265 370.148 475.37 374.583C474.475 379.018 483.336 384.549 495.163 386.936C506.99 389.324 517.303 387.664 518.198 383.229Z"/><path fill="#2F2E41" d="M464.47 381.835C465.064 377.35 455.85 372.43 443.889 370.845C431.928 369.261 421.75 371.612 421.156 376.097C420.562 380.583 429.776 385.503 441.737 387.088C453.698 388.672 463.876 386.321 464.47 381.835Z"/><path fill="#fff" d="M488.734 269.235C505.022 269.235 518.227 256.03 518.227 239.742C518.227 223.454 505.022 210.25 488.734 210.25C472.446 210.25 459.242 223.454 459.242 239.742C459.242 256.03 472.446 269.235 488.734 269.235Z"/><path fill="#3F3D56" d="M500.856 239.001C506.285 239.001 510.686 234.6 510.686 229.171C510.686 223.741 506.285 219.34 500.856 219.34C495.426 219.34 491.025 223.741 491.025 229.171C491.025 234.6 495.426 239.001 500.856 239.001Z"/><path fill="#fff" d="M414.62 166.974C413.323 135.027 440.856 107.968 476.118 106.536C511.38 105.103 541.017 129.84 542.315 161.787C543.613 193.734 519.101 200.992 483.839 202.424C448.578 203.857 415.918 198.921 414.62 166.974Z"/><path fill="#2F2E41" d="M565.398 258.332C588.625 253.008 606.099 242.781 604.427 235.489C602.756 228.198 582.572 226.603 559.346 231.927C536.119 237.251 518.645 247.477 520.317 254.769C521.988 262.06 542.172 263.656 565.398 258.332Z"/><path fill="#2F2E41" d="M396.01 286.5C419.236 281.176 436.71 270.949 435.039 263.657C433.368 256.366 413.184 254.771 389.957 260.095C366.731 265.418 349.257 275.645 350.928 282.937C352.599 290.228 372.783 291.824 396.01 286.5Z"/><path fill="#fff" d="M458.993 294.857C458.533 297.398 458.578 300.004 459.125 302.527C459.673 305.051 460.712 307.442 462.183 309.563C463.654 311.685 465.529 313.496 467.7 314.893C469.872 316.291 472.297 317.247 474.838 317.706C477.378 318.166 479.985 318.121 482.508 317.574C485.031 317.027 487.422 315.988 489.544 314.516C491.666 313.045 493.477 311.17 494.874 308.999C496.271 306.828 497.227 304.402 497.687 301.862C499.621 291.177 491.36 287.396 480.675 285.461C469.99 283.527 460.927 284.172 458.993 294.857Z"/><path fill="#D0CDE1" d="M296.422 13.1211H154.535V148.088H296.422V13.1211Z"/><path fill="#fff" d="M280.298 29.2461H170.658V113.088H280.298V29.2461Z"/><path fill="#F2F2F2" d="M230.187 122.98H170.55V126.119H230.187V122.98Z"/><path fill="#F2F2F2" d="M230.187 132.395H170.55V135.533H230.187V132.395Z"/><path fill="#3F3D56" d="M190.167 83.743C197.101 83.743 202.722 78.1219 202.722 71.1879C202.722 64.2539 197.101 58.6328 190.167 58.6328C183.233 58.6328 177.612 64.2539 177.612 71.1879C177.612 78.1219 183.233 83.743 190.167 83.743Z"/><path fill="#646ECB" d="M225.478 83.743C232.412 83.743 238.033 78.1219 238.033 71.1879C238.033 64.2539 232.412 58.6328 225.478 58.6328C218.544 58.6328 212.923 64.2539 212.923 71.1879C212.923 78.1219 218.544 83.743 225.478 83.743Z"/><path fill="#E6E6E6" d="M260.789 83.743C267.723 83.743 273.345 78.1219 273.345 71.1879C273.345 64.2539 267.723 58.6328 260.789 58.6328C253.855 58.6328 248.234 64.2539 248.234 71.1879C248.234 78.1219 253.855 83.743 260.789 83.743Z"/><path fill="#3F3D56" d="M225.478 27.2465C228.945 27.2465 231.756 24.436 231.756 20.969C231.756 17.502 228.945 14.6914 225.478 14.6914C222.011 14.6914 219.201 17.502 219.201 20.969C219.201 24.436 222.011 27.2465 225.478 27.2465Z"/><path fill="#D0CDE1" d="M363.909 274.457H222.022V409.424H363.909V274.457Z"/><path fill="#fff" d="M347.786 290.582H238.146V374.424H347.786V290.582Z"/><path fill="#646ECB" d="M300.709 304.359H262.272V342.796H300.709V304.359Z"/><path fill="#3F3D56" d="M276.986 313.973V360.646H323.659V313.973H276.986ZM321.635 358.622H279.01V315.997H321.635V358.622Z"/><path fill="#F2F2F2" d="M297.674 382.746H238.037V385.885H297.674V382.746Z"/><path fill="#3F3D56" d="M292.966 288.582C296.433 288.582 299.243 285.772 299.243 282.305C299.243 278.838 296.433 276.027 292.966 276.027C289.499 276.027 286.688 278.838 286.688 282.305C286.688 285.772 289.499 288.582 292.966 288.582Z"/><path fill="#D0CDE1" d="M733.323 234.055H591.437V369.022H733.323V234.055Z"/><path fill="#fff" d="M717.2 250.176H607.56V334.018H717.2V250.176Z"/><path fill="#3F3D56" d="M674.173 315.812H650.587V322.802H674.173V315.812Z"/><path fill="#3F3D56" d="M702.688 261.395H622.072V264.39H702.688V261.395Z"/><path fill="#3F3D56" d="M702.688 270.879H622.072V273.874H702.688V270.879Z"/><path fill="#3F3D56" d="M702.688 280.363H622.072V283.359H702.688V280.363Z"/><path fill="#3F3D56" d="M702.688 289.852H622.072V292.847H702.688V289.852Z"/><path fill="#3F3D56" d="M702.688 299.336H622.072V302.331H702.688V299.336Z"/><path fill="#F2F2F2" d="M667.088 342.34H607.451V345.479H667.088V342.34Z"/><path fill="#F2F2F2" d="M690.629 350.188H607.451V353.326H690.629V350.188Z"/><path fill="#3F3D56" d="M662.38 248.176C665.847 248.176 668.658 245.366 668.658 241.899C668.658 238.432 665.847 235.621 662.38 235.621C658.913 235.621 656.103 238.432 656.103 241.899C656.103 245.366 658.913 248.176 662.38 248.176Z"/></g><defs><clipPath id="clip0"><rect width="941.404" height="435.42" fill="#fff"/></clipPath></defs></svg>