<svg xmlns="http://www.w3.org/2000/svg" width="1659" height="1643" fill="none" viewBox="0 0 1659 1643"><rect width="1659" height="1643" fill="#646ECB" rx="149"/><path fill="#fff" d="M1209 1048C1302.5 1075 1312.5 1150.65 1136.5 1261.5C1039.32 1322.71 920.769 1367.94 815.071 1349.84C709.374 1331.75 615.404 1273.12 549.173 1183.94C482.942 1094.76 448.548 980.548 451.851 860.767C455.154 740.987 495.95 623.047 567.288 527.044C638.626 431.041 736.092 362.914 843.078 334.272C950.065 305.63 1067 298.5 1146.63 375.785C1209 428.499 1233.59 506.734 1233.59 506.734L991.499 695.312L798.016 695.312L798.016 1048C973.999 1082 1115.5 1021 1209 1048Z"/><path fill="#646ECB" d="M1014 884.864C1143.01 1057.98 890.618 1080.43 803.15 1057.98C715.683 1035.53 668.272 921.62 697.254 803.558C726.237 685.496 820.639 607.989 908.106 630.441C995.574 652.893 1042.98 766.802 1014 884.864Z"/><path fill="#646ECB" d="M909.5 671C1018.5 671 995 695.696 1051 652V738.304H924L909.5 671Z"/><path fill="#646ECB" d="M947 649.5C947 649.5 977.671 683.384 1040.5 659.5L1079 738H939L947 649.5Z"/><path fill="#646ECB" d="M1201.01 424.145C1142.31 305.451 1357.32 424.603 1357.32 424.603L1355.98 549.292L1161.77 560.829C1161.77 560.829 1259.7 542.839 1201.01 424.145Z"/></svg>