<svg xmlns="http://www.w3.org/2000/svg" width="949" height="758" fill="none" viewBox="0 0 949 758"><g clip-path="url(#clip0)"><path fill="#646ECB" d="M272.44 130H201.3C197.197 130 193.87 133.327 193.87 137.43V148.57C193.87 152.673 197.197 156 201.3 156H272.44C276.544 156 279.87 152.673 279.87 148.57V137.43C279.87 133.327 276.544 130 272.44 130Z" opacity=".1"/><path fill="#646ECB" d="M362.44 156H291.3C287.197 156 283.87 159.327 283.87 163.43V174.57C283.87 178.673 287.197 182 291.3 182H362.44C366.544 182 369.87 178.673 369.87 174.57V163.43C369.87 159.327 366.544 156 362.44 156Z" opacity=".1"/><path fill="#646ECB" d="M452.44 182H381.3C377.197 182 373.87 185.327 373.87 189.43V200.57C373.87 204.673 377.197 208 381.3 208H452.44C456.544 208 459.87 204.673 459.87 200.57V189.43C459.87 185.327 456.544 182 452.44 182Z" opacity=".1"/><path fill="#646ECB" d="M272.44 91H201.3C197.197 91 193.87 94.3265 193.87 98.43V109.57C193.87 113.673 197.197 117 201.3 117H272.44C276.544 117 279.87 113.673 279.87 109.57V98.43C279.87 94.3265 276.544 91 272.44 91Z" opacity=".1"/><path fill="#646ECB" d="M362.44 117H291.3C287.197 117 283.87 120.327 283.87 124.43V135.57C283.87 139.673 287.197 143 291.3 143H362.44C366.544 143 369.87 139.673 369.87 135.57V124.43C369.87 120.327 366.544 117 362.44 117Z" opacity=".1"/><path fill="#646ECB" d="M452.44 143H381.3C377.197 143 373.87 146.327 373.87 150.43V161.57C373.87 165.673 377.197 169 381.3 169H452.44C456.544 169 459.87 165.673 459.87 161.57V150.43C459.87 146.327 456.544 143 452.44 143Z" opacity=".1"/><path fill="#646ECB" d="M552.44 130H481.3C477.197 130 473.87 133.327 473.87 137.43V148.57C473.87 152.673 477.197 156 481.3 156H552.44C556.544 156 559.87 152.673 559.87 148.57V137.43C559.87 133.327 556.544 130 552.44 130Z" opacity=".1"/><path fill="#646ECB" d="M642.44 156H571.3C567.197 156 563.87 159.327 563.87 163.43V174.57C563.87 178.673 567.197 182 571.3 182H642.44C646.544 182 649.87 178.673 649.87 174.57V163.43C649.87 159.327 646.544 156 642.44 156Z" opacity=".1"/><path fill="#646ECB" d="M732.44 182H661.3C657.197 182 653.87 185.327 653.87 189.43V200.57C653.87 204.673 657.197 208 661.3 208H732.44C736.544 208 739.87 204.673 739.87 200.57V189.43C739.87 185.327 736.544 182 732.44 182Z" opacity=".1"/><path fill="#646ECB" d="M552.44 91H481.3C477.197 91 473.87 94.3265 473.87 98.43V109.57C473.87 113.673 477.197 117 481.3 117H552.44C556.544 117 559.87 113.673 559.87 109.57V98.43C559.87 94.3265 556.544 91 552.44 91Z" opacity=".1"/><path fill="#646ECB" d="M642.44 117H571.3C567.197 117 563.87 120.327 563.87 124.43V135.57C563.87 139.673 567.197 143 571.3 143H642.44C646.544 143 649.87 139.673 649.87 135.57V124.43C649.87 120.327 646.544 117 642.44 117Z" opacity=".1"/><path fill="#646ECB" d="M732.44 143H661.3C657.197 143 653.87 146.327 653.87 150.43V161.57C653.87 165.673 657.197 169 661.3 169H732.44C736.544 169 739.87 165.673 739.87 161.57V150.43C739.87 146.327 736.544 143 732.44 143Z" opacity=".1"/><path fill="#646ECB" d="M272.44 39H201.3C197.197 39 193.87 42.3265 193.87 46.43V57.57C193.87 61.6735 197.197 65 201.3 65H272.44C276.544 65 279.87 61.6735 279.87 57.57V46.43C279.87 42.3265 276.544 39 272.44 39Z" opacity=".1"/><path fill="#646ECB" d="M362.44 65H291.3C287.197 65 283.87 68.3265 283.87 72.43V83.57C283.87 87.6735 287.197 91 291.3 91H362.44C366.544 91 369.87 87.6735 369.87 83.57V72.43C369.87 68.3265 366.544 65 362.44 65Z" opacity=".1"/><path fill="#646ECB" d="M452.44 91H381.3C377.197 91 373.87 94.3265 373.87 98.43V109.57C373.87 113.673 377.197 117 381.3 117H452.44C456.544 117 459.87 113.673 459.87 109.57V98.43C459.87 94.3265 456.544 91 452.44 91Z" opacity=".1"/><path fill="#646ECB" d="M272.44 0H201.3C197.197 0 193.87 3.32652 193.87 7.43V18.57C193.87 22.6735 197.197 26 201.3 26H272.44C276.544 26 279.87 22.6735 279.87 18.57V7.43C279.87 3.32652 276.544 0 272.44 0Z" opacity=".1"/><path fill="#646ECB" d="M362.44 26H291.3C287.197 26 283.87 29.3265 283.87 33.43V44.57C283.87 48.6735 287.197 52 291.3 52H362.44C366.544 52 369.87 48.6735 369.87 44.57V33.43C369.87 29.3265 366.544 26 362.44 26Z" opacity=".1"/><path fill="#646ECB" d="M452.44 52H381.3C377.197 52 373.87 55.3265 373.87 59.43V70.57C373.87 74.6735 377.197 78 381.3 78H452.44C456.544 78 459.87 74.6735 459.87 70.57V59.43C459.87 55.3265 456.544 52 452.44 52Z" opacity=".1"/><path fill="#646ECB" d="M552.44 39H481.3C477.197 39 473.87 42.3265 473.87 46.43V57.57C473.87 61.6735 477.197 65 481.3 65H552.44C556.544 65 559.87 61.6735 559.87 57.57V46.43C559.87 42.3265 556.544 39 552.44 39Z" opacity=".1"/><path fill="#646ECB" d="M642.44 65H571.3C567.197 65 563.87 68.3265 563.87 72.43V83.57C563.87 87.6735 567.197 91 571.3 91H642.44C646.544 91 649.87 87.6735 649.87 83.57V72.43C649.87 68.3265 646.544 65 642.44 65Z" opacity=".1"/><path fill="#646ECB" d="M732.44 91H661.3C657.197 91 653.87 94.3265 653.87 98.43V109.57C653.87 113.673 657.197 117 661.3 117H732.44C736.544 117 739.87 113.673 739.87 109.57V98.43C739.87 94.3265 736.544 91 732.44 91Z" opacity=".1"/><path fill="#646ECB" d="M552.44 0H481.3C477.197 0 473.87 3.32652 473.87 7.43V18.57C473.87 22.6735 477.197 26 481.3 26H552.44C556.544 26 559.87 22.6735 559.87 18.57V7.43C559.87 3.32652 556.544 0 552.44 0Z" opacity=".1"/><path fill="#646ECB" d="M642.44 26H571.3C567.197 26 563.87 29.3265 563.87 33.43V44.57C563.87 48.6735 567.197 52 571.3 52H642.44C646.544 52 649.87 48.6735 649.87 44.57V33.43C649.87 29.3265 646.544 26 642.44 26Z" opacity=".1"/><path fill="#646ECB" d="M732.44 52H661.3C657.197 52 653.87 55.3265 653.87 59.43V70.57C653.87 74.6735 657.197 78 661.3 78H732.44C736.544 78 739.87 74.6735 739.87 70.57V59.43C739.87 55.3265 736.544 52 732.44 52Z" opacity=".1"/><path fill="#646ECB" d="M272.44 593H201.3C197.197 593 193.87 596.327 193.87 600.43V611.57C193.87 615.673 197.197 619 201.3 619H272.44C276.544 619 279.87 615.673 279.87 611.57V600.43C279.87 596.327 276.544 593 272.44 593Z" opacity=".1"/><path fill="#646ECB" d="M362.44 619H291.3C287.197 619 283.87 622.327 283.87 626.43V637.57C283.87 641.673 287.197 645 291.3 645H362.44C366.544 645 369.87 641.673 369.87 637.57V626.43C369.87 622.327 366.544 619 362.44 619Z" opacity=".1"/><path fill="#646ECB" d="M452.44 645H381.3C377.197 645 373.87 648.327 373.87 652.43V663.57C373.87 667.673 377.197 671 381.3 671H452.44C456.544 671 459.87 667.673 459.87 663.57V652.43C459.87 648.327 456.544 645 452.44 645Z" opacity=".1"/><path fill="#646ECB" d="M272.44 554H201.3C197.197 554 193.87 557.327 193.87 561.43V572.57C193.87 576.673 197.197 580 201.3 580H272.44C276.544 580 279.87 576.673 279.87 572.57V561.43C279.87 557.327 276.544 554 272.44 554Z" opacity=".1"/><path fill="#646ECB" d="M362.44 580H291.3C287.197 580 283.87 583.327 283.87 587.43V598.57C283.87 602.673 287.197 606 291.3 606H362.44C366.544 606 369.87 602.673 369.87 598.57V587.43C369.87 583.327 366.544 580 362.44 580Z" opacity=".1"/><path fill="#646ECB" d="M452.44 606H381.3C377.197 606 373.87 609.327 373.87 613.43V624.57C373.87 628.673 377.197 632 381.3 632H452.44C456.544 632 459.87 628.673 459.87 624.57V613.43C459.87 609.327 456.544 606 452.44 606Z" opacity=".1"/><path fill="#646ECB" d="M552.44 593H481.3C477.197 593 473.87 596.327 473.87 600.43V611.57C473.87 615.673 477.197 619 481.3 619H552.44C556.544 619 559.87 615.673 559.87 611.57V600.43C559.87 596.327 556.544 593 552.44 593Z" opacity=".1"/><path fill="#646ECB" d="M642.44 619H571.3C567.197 619 563.87 622.327 563.87 626.43V637.57C563.87 641.673 567.197 645 571.3 645H642.44C646.544 645 649.87 641.673 649.87 637.57V626.43C649.87 622.327 646.544 619 642.44 619Z" opacity=".1"/><path fill="#646ECB" d="M732.44 645H661.3C657.197 645 653.87 648.327 653.87 652.43V663.57C653.87 667.673 657.197 671 661.3 671H732.44C736.544 671 739.87 667.673 739.87 663.57V652.43C739.87 648.327 736.544 645 732.44 645Z" opacity=".1"/><path fill="#646ECB" d="M552.44 554H481.3C477.197 554 473.87 557.327 473.87 561.43V572.57C473.87 576.673 477.197 580 481.3 580H552.44C556.544 580 559.87 576.673 559.87 572.57V561.43C559.87 557.327 556.544 554 552.44 554Z" opacity=".1"/><path fill="#646ECB" d="M642.44 580H571.3C567.197 580 563.87 583.327 563.87 587.43V598.57C563.87 602.673 567.197 606 571.3 606H642.44C646.544 606 649.87 602.673 649.87 598.57V587.43C649.87 583.327 646.544 580 642.44 580Z" opacity=".1"/><path fill="#646ECB" d="M732.44 606H661.3C657.197 606 653.87 609.327 653.87 613.43V624.57C653.87 628.673 657.197 632 661.3 632H732.44C736.544 632 739.87 628.673 739.87 624.57V613.43C739.87 609.327 736.544 606 732.44 606Z" opacity=".1"/><path fill="#646ECB" d="M272.44 502H201.3C197.197 502 193.87 505.327 193.87 509.43V520.57C193.87 524.673 197.197 528 201.3 528H272.44C276.544 528 279.87 524.673 279.87 520.57V509.43C279.87 505.327 276.544 502 272.44 502Z" opacity=".1"/><path fill="#646ECB" d="M362.44 528H291.3C287.197 528 283.87 531.327 283.87 535.43V546.57C283.87 550.673 287.197 554 291.3 554H362.44C366.544 554 369.87 550.673 369.87 546.57V535.43C369.87 531.327 366.544 528 362.44 528Z" opacity=".1"/><path fill="#646ECB" d="M452.44 554H381.3C377.197 554 373.87 557.327 373.87 561.43V572.57C373.87 576.673 377.197 580 381.3 580H452.44C456.544 580 459.87 576.673 459.87 572.57V561.43C459.87 557.327 456.544 554 452.44 554Z" opacity=".1"/><path fill="#646ECB" d="M272.44 463H201.3C197.197 463 193.87 466.327 193.87 470.43V481.57C193.87 485.673 197.197 489 201.3 489H272.44C276.544 489 279.87 485.673 279.87 481.57V470.43C279.87 466.327 276.544 463 272.44 463Z" opacity=".1"/><path fill="#646ECB" d="M362.44 489H291.3C287.197 489 283.87 492.327 283.87 496.43V507.57C283.87 511.673 287.197 515 291.3 515H362.44C366.544 515 369.87 511.673 369.87 507.57V496.43C369.87 492.327 366.544 489 362.44 489Z" opacity=".1"/><path fill="#646ECB" d="M452.44 515H381.3C377.197 515 373.87 518.327 373.87 522.43V533.57C373.87 537.673 377.197 541 381.3 541H452.44C456.544 541 459.87 537.673 459.87 533.57V522.43C459.87 518.327 456.544 515 452.44 515Z" opacity=".1"/><path fill="#646ECB" d="M552.44 502H481.3C477.197 502 473.87 505.327 473.87 509.43V520.57C473.87 524.673 477.197 528 481.3 528H552.44C556.544 528 559.87 524.673 559.87 520.57V509.43C559.87 505.327 556.544 502 552.44 502Z" opacity=".1"/><path fill="#646ECB" d="M642.44 528H571.3C567.197 528 563.87 531.327 563.87 535.43V546.57C563.87 550.673 567.197 554 571.3 554H642.44C646.544 554 649.87 550.673 649.87 546.57V535.43C649.87 531.327 646.544 528 642.44 528Z" opacity=".1"/><path fill="#646ECB" d="M732.44 554H661.3C657.197 554 653.87 557.327 653.87 561.43V572.57C653.87 576.673 657.197 580 661.3 580H732.44C736.544 580 739.87 576.673 739.87 572.57V561.43C739.87 557.327 736.544 554 732.44 554Z" opacity=".1"/><path fill="#646ECB" d="M552.44 463H481.3C477.197 463 473.87 466.327 473.87 470.43V481.57C473.87 485.673 477.197 489 481.3 489H552.44C556.544 489 559.87 485.673 559.87 481.57V470.43C559.87 466.327 556.544 463 552.44 463Z" opacity=".1"/><path fill="#646ECB" d="M642.44 489H571.3C567.197 489 563.87 492.327 563.87 496.43V507.57C563.87 511.673 567.197 515 571.3 515H642.44C646.544 515 649.87 511.673 649.87 507.57V496.43C649.87 492.327 646.544 489 642.44 489Z" opacity=".1"/><path fill="#646ECB" d="M732.44 515H661.3C657.197 515 653.87 518.327 653.87 522.43V533.57C653.87 537.673 657.197 541 661.3 541H732.44C736.544 541 739.87 537.673 739.87 533.57V522.43C739.87 518.327 736.544 515 732.44 515Z" opacity=".1"/><path fill="#646ECB" d="M482.37 758C724.547 758 920.87 741.882 920.87 722C920.87 702.118 724.547 686 482.37 686C240.193 686 43.8701 702.118 43.8701 722C43.8701 741.882 240.193 758 482.37 758Z" opacity=".1"/><path fill="#646ECB" d="M84.65 186.8C126 204.72 149.76 241.8 149.76 241.8C149.76 241.8 106.47 249.8 65.11 231.89C23.75 213.98 0 176.89 0 176.89C0 176.89 43.29 168.88 84.65 186.8Z"/><path fill="#646ECB" d="M211.55 118C224.34 97 246.12 87 246.12 87C246.12 87 247.12 110.94 234.37 131.88C221.62 152.82 199.79 162.81 199.79 162.81C199.79 162.81 198.75 138.88 211.55 118Z"/><path fill="#46455B" d="M117.53 140.468C126.68 173.128 151.9 194.628 151.9 194.628C151.9 194.628 162.29 163.158 153.14 130.488C143.99 97.8181 118.76 76.3281 118.76 76.3281C118.76 76.3281 108.37 107.798 117.53 140.468Z"/><path fill="#3F3D56" d="M840.66 139H126.08C122.098 139 118.87 142.228 118.87 146.21V496.79C118.87 500.772 122.098 504 126.08 504H840.66C844.642 504 847.87 500.772 847.87 496.79V146.21C847.87 142.228 844.642 139 840.66 139Z"/><path fill="#000" d="M118.87 482H847.87V496.79C847.87 498.702 847.11 500.536 845.758 501.888C844.406 503.24 842.572 504 840.66 504H126.08C124.168 504 122.334 503.24 120.982 501.888C119.63 500.536 118.87 498.702 118.87 496.79V482Z" opacity=".1"/><path fill="#646ECB" d="M241.37 455H192.37C190.989 455 189.87 456.119 189.87 457.5V479.5C189.87 480.881 190.989 482 192.37 482H241.37C242.751 482 243.87 480.881 243.87 479.5V457.5C243.87 456.119 242.751 455 241.37 455Z"/><path fill="#646ECB" d="M293.87 478H260.87C259.766 478 258.87 478.895 258.87 480C258.87 481.105 259.766 482 260.87 482H293.87C294.975 482 295.87 481.105 295.87 480C295.87 478.895 294.975 478 293.87 478Z"/><path fill="#646ECB" d="M226.02 210.379C252.41 215.249 279.33 210.379 305.61 207.079L385.48 197.079C388.71 196.669 393.41 194.739 395.31 198.689C396.38 200.899 395.66 205.689 395.74 208.229C395.95 215.229 395.93 222.229 395.74 229.229C395.38 242.609 394.4 255.959 393.15 269.279C390.72 295.349 387.28 321.279 385.56 347.449C384.68 360.769 384.24 374.129 384.63 387.449C384.72 390.629 384.85 393.809 385.04 396.979C385.25 400.529 386.84 405.799 382.97 408.169C380.76 409.529 376.41 409.459 373.88 409.859C369.88 410.489 365.88 410.989 361.8 411.399C334.91 414.089 307.67 412.969 280.68 412.809L199.18 412.389L179.3 412.279C177.5 412.279 171.01 413.359 169.9 411.219C169.43 410.309 170.68 406.049 170.9 404.909C171.207 403.029 171.54 401.152 171.9 399.279C174.22 386.129 176.96 373.059 179.72 359.999C185.65 331.999 191.72 303.859 194.16 275.259C195.37 260.909 194.57 246.429 196.05 232.109C196.74 225.459 197.56 210.619 206.41 210.029C213.91 209.529 221.63 210.029 229.15 210.029C229.548 210.029 229.929 209.871 230.211 209.589C230.492 209.308 230.65 208.927 230.65 208.529C230.65 208.131 230.492 207.749 230.211 207.468C229.929 207.187 229.548 207.029 229.15 207.029C222.05 207.029 214.94 206.839 207.84 206.979C203.12 207.069 199.84 208.189 197.59 212.529C191.84 223.669 192.43 238.529 192.25 250.689C191.82 279.799 187.35 308.289 181.53 336.759C178.6 351.089 175.44 365.369 172.53 379.709C171.16 386.559 169.85 393.429 168.65 400.319C168.09 403.599 165.26 410.829 167.75 413.839C170.24 416.849 177.9 415.229 181.33 415.249L205.19 415.389L250.91 415.649C280.45 415.819 310.09 416.649 339.62 415.779C353.72 415.359 368.62 414.779 382.35 411.409C386.44 410.409 388.41 408.529 388.57 404.169C388.81 397.409 387.71 390.439 387.57 383.649C386.57 325.549 400.22 268.259 398.82 210.139C398.73 206.189 400.22 196.229 395.9 193.839C393.96 192.759 391.44 193.349 389.4 193.589C385.5 194.039 381.61 194.589 377.71 195.049L327.06 201.369C310.87 203.369 294.69 205.529 278.47 207.369C261.3 209.369 243.96 210.559 226.85 207.369C224.96 207.019 224.15 209.909 226.05 210.259L226.02 210.379Z"/><path fill="#646ECB" d="M194.18 245.728L394 235.928C395.93 235.828 395.94 232.828 394 232.928L194.18 242.728C192.26 242.818 192.25 245.818 194.18 245.728Z"/><path fill="#646ECB" d="M255.74 220.999C255.181 221.591 254.775 222.311 254.558 223.095C254.341 223.88 254.318 224.706 254.493 225.501C254.667 226.297 255.033 227.038 255.559 227.659C256.085 228.281 256.754 228.765 257.51 229.069C260.2 230.299 263.36 229.269 266.03 228.599C270.03 227.599 274.03 226.709 278.14 225.979C287.085 224.395 296.146 223.552 305.23 223.459C309.37 223.409 313.48 223.599 317.62 223.779C320.62 223.899 323.85 224.139 326.39 222.279C329.29 220.159 330.23 216.019 327.39 213.439C323.39 209.789 314.77 211.909 310.15 212.289C293.386 213.681 276.73 216.167 260.29 219.729C258.41 220.129 259.2 223.029 261.09 222.619C271.937 220.279 282.867 218.399 293.88 216.979C299.293 216.312 304.717 215.749 310.15 215.289C312.71 215.079 315.27 214.889 317.83 214.739C318.83 214.679 319.89 214.569 320.91 214.599C324.08 214.669 324.45 214.099 322.55 217.929C320.86 221.319 321.4 220.929 318.47 220.819C317.23 220.819 315.99 220.679 314.75 220.619C312.21 220.512 309.67 220.455 307.13 220.449C301.723 220.449 296.33 220.709 290.95 221.229C286.39 221.669 281.84 222.289 277.33 223.089C274.51 223.589 271.71 224.169 268.92 224.809C267.69 225.099 266.45 225.399 265.22 225.709C264.63 225.869 264.03 226.009 263.44 226.159C261.253 226.919 259.39 225.919 257.85 223.159C259.19 221.769 257.08 219.639 255.73 221.039L255.74 220.999Z"/><path fill="#646ECB" d="M291.96 263.681C277.49 263.121 261.86 267.031 252.33 278.681C244.87 287.791 240.62 303.421 248.52 313.681C257.01 324.681 275.63 322.741 286.86 318.051C298.74 313.051 311.74 302.741 315.31 289.841C319.76 273.731 305.31 261.551 290.26 261.371C288.33 261.371 288.33 264.371 290.26 264.371C298.84 264.471 307.26 268.151 311.26 276.141C315.45 284.561 311.84 293.401 306.26 300.141C297.32 310.871 283.34 318.961 269.1 318.731C260.55 318.601 251.1 315.671 248.45 306.651C246.27 299.341 247.93 291.351 251.73 284.871C259.95 270.871 276.68 266.131 292.02 266.731C293.95 266.801 293.95 263.801 292.02 263.731L291.96 263.681Z"/><path fill="#646ECB" d="M277.59 285.901C276.973 285.673 276.308 285.604 275.658 285.701C275.007 285.798 274.392 286.059 273.869 286.458C273.346 286.857 272.932 287.382 272.667 287.984C272.401 288.586 272.292 289.246 272.35 289.901C272.65 293.801 276.95 294.901 280.18 294.671C282.97 294.431 286.23 293.401 285.25 289.911C285.07 289.293 284.758 288.722 284.337 288.235C283.916 287.749 283.395 287.358 282.81 287.091C281.915 286.736 280.945 286.616 279.99 286.741C279.62 286.741 276.23 287.981 277.67 286.491L275.31 286.181C275.572 286.439 275.773 286.753 275.897 287.099C276.022 287.445 276.067 287.815 276.03 288.181C276.035 288.443 276.107 288.698 276.24 288.923C276.373 289.148 276.562 289.335 276.789 289.465C277.016 289.595 277.272 289.664 277.534 289.665C277.795 289.666 278.052 289.599 278.28 289.471C278.623 289.328 279 289.282 279.367 289.341C279.734 289.399 280.078 289.559 280.359 289.802C280.641 290.045 280.849 290.362 280.96 290.717C281.072 291.072 281.082 291.451 280.99 291.811C280.91 292.158 280.954 292.521 281.115 292.838C281.277 293.155 281.545 293.405 281.872 293.544C282.2 293.682 282.566 293.701 282.905 293.596C283.245 293.491 283.537 293.27 283.73 292.971C284.73 291.171 285.94 287.591 284.44 285.711C283.44 284.441 281.51 284.821 280.31 285.561C279.569 286.085 278.88 286.678 278.25 287.331C277.04 288.401 276.25 288.901 276.7 286.851C277.45 283.121 281.01 280.151 284.26 278.661L282.06 276.971C280.907 281.306 278.844 285.345 276.01 288.821L278.57 289.881C278.497 288.508 278.85 287.146 279.581 285.981C280.311 284.816 281.383 283.904 282.65 283.371H281.18L281.96 284.651C281.67 286.541 284.56 287.351 284.85 285.441C285.23 282.971 283.67 279.761 280.78 280.971C277.33 282.411 275.54 286.361 275.61 289.881C275.61 291.081 277.31 292.011 278.18 290.951C281.36 287.088 283.682 282.591 284.99 277.761C285.06 277.475 285.044 277.174 284.946 276.896C284.848 276.618 284.67 276.375 284.436 276.195C284.202 276.016 283.921 275.909 283.627 275.887C283.333 275.865 283.038 275.929 282.78 276.071C279.784 277.425 277.253 279.63 275.5 282.411C274.28 284.411 272.75 287.531 273.99 289.831C274.193 290.199 274.468 290.523 274.797 290.785C275.126 291.046 275.504 291.239 275.908 291.354C276.313 291.468 276.736 291.501 277.154 291.451C277.571 291.401 277.974 291.268 278.34 291.061C279.265 290.513 280.109 289.84 280.85 289.061C281.22 288.731 281.63 288.161 282.12 288.061C282.56 287.761 282.54 287.931 282.05 288.591C282.044 289.627 281.742 290.64 281.18 291.511L283.92 292.661C284.167 291.727 284.138 290.742 283.837 289.825C283.536 288.907 282.976 288.096 282.224 287.49C281.472 286.884 280.56 286.509 279.6 286.409C278.639 286.31 277.67 286.491 276.81 286.931L279.07 288.231C279.117 286.959 278.718 285.71 277.94 284.701C277.822 284.507 277.662 284.341 277.471 284.217C277.281 284.092 277.065 284.012 276.839 283.983C276.614 283.953 276.385 283.974 276.168 284.045C275.952 284.116 275.754 284.234 275.59 284.391C274.07 285.981 273.78 288.731 275.69 290.201C277.12 291.291 277.82 290.201 279.39 289.951C284.72 289.261 281.61 291.661 279.73 291.741C278.889 291.831 278.039 291.77 277.22 291.561C275.133 290.854 275.003 289.944 276.83 288.831C278.62 289.561 279.39 286.661 277.63 285.941L277.59 285.901Z"/><path fill="#646ECB" d="M275.18 291.381C276.41 295.381 271.33 296.701 268.92 298.081C267.229 299.03 265.754 300.321 264.59 301.871C262.07 305.251 261.13 309.551 260.3 313.601C259.92 315.491 262.81 316.291 263.2 314.401C263.657 311.425 264.508 308.523 265.73 305.771C267.53 302.191 270.11 300.991 273.47 299.151C276.83 297.311 279.26 294.461 278.07 290.581C277.51 288.741 274.61 289.531 275.18 291.381V291.381Z"/><path fill="#646ECB" d="M280.18 289.371C279.465 289.47 278.812 289.832 278.349 290.387C277.887 290.942 277.648 291.65 277.68 292.371C277.68 293.561 278.47 294.321 279.01 295.271C280.292 297.215 281.27 299.343 281.91 301.581C282.39 303.731 282.86 307.581 281.74 309.581C279.67 313.291 275.93 312.581 272.74 312.581C269.74 312.581 267.42 313.581 267.52 309.401C267.58 307.051 269.22 304.671 270.52 302.821L267.78 302.461C268.358 305.515 268.663 308.614 268.69 311.721C268.69 313.111 270.82 313.881 271.48 312.471C273.088 309.089 274.364 305.559 275.29 301.931L272.34 301.531L272.86 309.131C272.869 309.455 272.982 309.768 273.182 310.024C273.382 310.279 273.66 310.463 273.973 310.548C274.286 310.633 274.618 310.615 274.92 310.497C275.222 310.379 275.478 310.166 275.65 309.891C276 309.505 276.257 309.043 276.4 308.541C276.5 308.071 275.58 304.901 275.21 306.031L278.15 306.431L278.36 299.211L275.36 299.611C275.994 301.647 276.185 303.795 275.92 305.911C275.73 307.581 278.54 307.961 278.92 306.311L280.8 296.611L278.06 296.961C278.711 298.303 278.891 299.825 278.57 301.281C278.35 303.201 281.35 303.181 281.57 301.281C281.825 299.29 281.506 297.267 280.65 295.451C280.498 295.201 280.277 295 280.012 294.873C279.748 294.747 279.453 294.7 279.163 294.738C278.872 294.776 278.599 294.898 278.377 295.088C278.154 295.279 277.992 295.53 277.91 295.811L276.02 305.511L278.97 305.911C279.27 303.527 279.041 301.107 278.3 298.821C278.2 298.477 277.98 298.18 277.679 297.984C277.379 297.788 277.018 297.706 276.663 297.753C276.307 297.8 275.98 297.973 275.741 298.241C275.502 298.508 275.367 298.852 275.36 299.211L275.15 306.431C275.15 308.181 277.58 308.431 278.1 306.831L278.26 306.341C278.329 306.086 278.331 305.817 278.264 305.561C278.197 305.305 278.065 305.07 277.88 304.881C274.77 301.501 274.14 306.881 273.06 308.371L275.86 309.131L275.34 301.531C275.23 299.911 272.83 299.411 272.39 301.131C271.545 304.514 270.373 307.806 268.89 310.961L271.69 311.721C271.658 308.345 271.323 304.978 270.69 301.661C270.43 300.281 268.62 300.341 267.95 301.301C265.95 304.181 262.49 310.471 265.16 313.921C267.49 316.921 274.82 315.761 277.95 315.571C282.89 315.291 284.68 312.161 285.22 307.501C285.477 305.27 285.352 303.011 284.85 300.821C284.58 299.641 281.85 292.161 281.03 292.311C282.93 291.961 282.12 289.061 280.23 289.411L280.18 289.371Z"/><path fill="#646ECB" d="M274.37 296.111L266.18 306.921L268.77 308.431L274.77 299.751L272.03 298.591L269.04 310.001C268.959 310.347 269.004 310.711 269.165 311.028C269.326 311.345 269.595 311.595 269.922 311.733C270.25 311.872 270.615 311.891 270.955 311.786C271.295 311.681 271.587 311.46 271.78 311.161C273.141 308.906 274.668 306.757 276.35 304.731L273.85 303.271C273.179 305.854 271.884 308.234 270.08 310.201L272.59 311.661C272.744 310.279 273.111 308.93 273.68 307.661C274.45 305.931 272.01 304.401 271.09 306.141C270.244 307.726 269.278 309.244 268.2 310.681L270.94 311.041L271.55 308.191L268.81 307.831L269.25 310.331C269.322 310.582 269.459 310.811 269.646 310.994C269.833 311.177 270.064 311.308 270.317 311.375C270.57 311.441 270.836 311.441 271.089 311.373C271.342 311.306 271.573 311.174 271.76 310.991C274.296 308.366 276.33 305.299 277.76 301.941H275.18C275.858 303.191 276.334 304.541 276.59 305.941C276.95 307.741 279.34 307.071 279.53 305.541C279.959 302.191 280.18 298.818 280.19 295.441H277.19V301.731C277.19 303.361 279.86 303.841 280.14 302.131C280.338 300.614 280.838 299.152 281.61 297.831H278.98C279.614 298.853 279.959 300.028 279.98 301.231C279.98 301.629 280.138 302.01 280.419 302.292C280.701 302.573 281.082 302.731 281.48 302.731C281.878 302.731 282.259 302.573 282.541 302.292C282.822 302.01 282.98 301.629 282.98 301.231L283.36 299.231H280.47C280.76 301.001 281.86 310.971 277.95 309.801C277.29 309.641 277.1 309.681 277.38 309.911L278.27 308.011L280.36 303.581L277.56 302.821C277.74 304.881 277.93 307.821 276.69 309.581C275.69 311.011 272.61 311.581 271.04 310.741C270.003 310.002 269.118 309.072 268.43 308.001L266.38 310.001C268.04 311.211 270.73 314.181 272.87 314.351C274.5 314.481 275.87 313.131 276.94 312.051C278.581 310.355 279.861 308.343 280.702 306.138C281.542 303.932 281.926 301.579 281.83 299.221C281.83 298.823 281.672 298.442 281.391 298.16C281.109 297.879 280.728 297.721 280.33 297.721C279.932 297.721 279.551 297.879 279.269 298.16C278.988 298.442 278.83 298.823 278.83 299.221V302.641C278.83 303.039 278.988 303.42 279.269 303.702C279.551 303.983 279.932 304.141 280.33 304.141C280.728 304.141 281.109 303.983 281.391 303.702C281.672 303.42 281.83 303.039 281.83 302.641V294.251C281.83 293.853 281.672 293.472 281.391 293.19C281.109 292.909 280.728 292.751 280.33 292.751C279.932 292.751 279.551 292.909 279.269 293.19C278.988 293.472 278.83 293.853 278.83 294.251C278.825 296.262 278.651 298.269 278.31 300.251L281.26 300.651C281.025 298.262 280.915 295.862 280.93 293.461C280.925 293.102 280.792 292.756 280.554 292.487C280.315 292.217 279.988 292.043 279.632 291.994C279.276 291.946 278.914 292.027 278.613 292.223C278.312 292.418 278.09 292.716 277.99 293.061C277.54 294.971 276.99 296.851 276.46 298.721L279.2 298.361L278.99 297.561C278.85 295.651 275.85 295.641 275.99 297.561C276.023 298.371 276.235 299.163 276.61 299.881C277.19 301.101 279 300.671 279.35 299.521C279.92 297.641 280.43 295.761 280.88 293.861L277.93 293.461C277.915 295.862 278.025 298.262 278.26 300.651C278.41 302.191 280.89 302.851 281.2 301.051C281.599 298.792 281.81 296.504 281.83 294.211H278.83V302.601H281.83V299.181H278.83C279.006 302.953 277.696 306.644 275.18 309.461C274.79 309.904 274.369 310.318 273.92 310.701C273.21 311.381 272.56 311.281 271.99 310.391C270.57 309.801 269.1 308.281 267.86 307.391C266.62 306.501 264.92 308.261 265.8 309.441C268.1 312.501 271.53 315.911 275.8 314.441C280.29 312.851 280.9 306.771 280.56 302.771C280.45 301.441 278.46 300.541 277.77 302.021C276.77 304.131 275.77 306.231 274.77 308.351C274.42 309.091 273.77 310.111 273.87 310.991C274.2 313.241 276.93 312.871 278.61 312.741C285.12 312.251 284.09 303.021 283.34 298.381C283.09 296.841 280.85 297.081 280.45 298.381C280.132 299.294 279.967 300.254 279.96 301.221H282.96C282.851 299.501 282.37 297.826 281.55 296.311C281.416 296.087 281.226 295.902 280.999 295.774C280.772 295.645 280.516 295.577 280.255 295.577C279.994 295.577 279.738 295.645 279.511 295.774C279.284 295.902 279.094 296.087 278.96 296.311C278.066 297.855 277.462 299.549 277.18 301.311L280.18 301.711V295.421C280.18 295.023 280.022 294.642 279.741 294.36C279.459 294.079 279.078 293.921 278.68 293.921C278.282 293.921 277.901 294.079 277.619 294.36C277.338 294.642 277.18 295.023 277.18 295.421C277.17 298.798 276.949 302.171 276.52 305.521L279.47 305.121C279.131 303.486 278.554 301.909 277.76 300.441C277.626 300.217 277.436 300.032 277.209 299.904C276.982 299.775 276.726 299.707 276.465 299.707C276.204 299.707 275.948 299.775 275.721 299.904C275.494 300.032 275.304 300.217 275.17 300.441C273.866 303.573 271.991 306.435 269.64 308.881L272.15 309.541L271.71 307.041C271.48 305.711 269.6 305.671 268.97 306.681C268.473 307.433 268.136 308.279 267.979 309.166C267.823 310.054 267.85 310.964 268.06 311.841C268.31 313.261 270.11 313.111 270.8 312.201C271.878 310.767 272.844 309.253 273.69 307.671L271.1 306.151C270.408 307.645 269.937 309.232 269.7 310.861C269.52 312.181 271.09 313.561 272.21 312.321C274.36 309.969 275.916 307.137 276.75 304.061C277.12 302.701 275.24 301.411 274.24 302.601C272.4 304.806 270.729 307.146 269.24 309.601L271.98 310.761L275.03 299.391C275.111 299.045 275.066 298.681 274.905 298.364C274.743 298.047 274.475 297.797 274.148 297.658C273.82 297.52 273.454 297.501 273.115 297.606C272.775 297.711 272.483 297.932 272.29 298.231L266.29 306.921C265.17 308.531 267.74 309.921 268.88 308.431L277.04 297.631C278.2 296.091 275.6 294.631 274.45 296.111H274.37Z"/><path fill="#646ECB" d="M401.95 332.202C413.95 324.862 423.49 313.912 434.09 304.752C445.59 294.822 457.66 285.572 470.09 276.812C494.23 259.812 519.58 244.602 544.91 229.432C545.238 229.224 545.473 228.897 545.565 228.52C545.657 228.142 545.6 227.744 545.404 227.409C545.208 227.073 544.89 226.826 544.516 226.721C544.143 226.615 543.743 226.658 543.4 226.842C518.07 242.012 492.71 257.192 468.57 274.222C457.18 282.222 446.06 290.702 435.4 299.702C423.8 309.502 413.47 321.702 400.4 329.612C398.75 330.612 400.26 333.212 401.91 332.202H401.95Z"/><path fill="#646ECB" d="M583.64 182.848C570.64 184.168 556.64 187.478 548.64 198.848C541.73 208.628 541.88 225.689 548.37 235.729C555.74 247.139 570.8 247.548 582.5 243.858C594.2 240.168 606.31 233.698 606.2 219.718C606.14 212.218 603.43 204.408 600.44 197.608C597.86 191.738 593.29 186.609 586.37 187.259C584.46 187.439 584.44 190.439 586.37 190.259C595.64 189.399 598.62 200.408 600.82 207.358C602.82 213.848 604.67 221.529 601.53 227.979C598.39 234.429 590.82 237.718 584.35 240.078C577.35 242.618 569.66 244.168 562.35 242.078C547.87 238.028 543.87 219.678 548.04 206.658C552.84 191.658 569.84 187.248 583.69 185.848C585.59 185.658 585.61 182.658 583.69 182.848H583.64Z"/><path fill="#646ECB" d="M603.64 298.848C590.64 300.168 576.64 303.478 568.64 314.848C561.73 324.628 561.88 341.689 568.37 351.729C575.74 363.139 590.8 363.548 602.5 359.858C614.2 356.168 626.31 349.698 626.2 335.718C626.14 328.218 623.43 320.408 620.44 313.608C617.86 307.738 613.29 302.609 606.37 303.259C604.46 303.439 604.44 306.439 606.37 306.259C615.64 305.399 618.62 316.408 620.82 323.358C622.82 329.848 624.67 337.529 621.53 343.979C618.39 350.429 610.82 353.718 604.35 356.078C597.35 358.618 589.66 360.168 582.35 358.078C567.87 354.028 563.87 335.678 568.04 322.658C572.84 307.658 589.84 303.248 603.69 301.848C605.59 301.658 605.61 298.658 603.69 298.848H603.64Z"/><path fill="#646ECB" d="M564.03 212.059L573.5 222.859C573.687 223.04 573.919 223.169 574.171 223.235C574.423 223.3 574.688 223.299 574.939 223.231C575.191 223.164 575.421 223.032 575.607 222.85C575.793 222.667 575.928 222.44 576 222.189C578 216.929 577.62 211.479 578.09 205.949C578.608 200.233 580.043 194.639 582.34 189.379C586.954 178.711 594.776 169.746 604.72 163.729C606.37 162.729 604.86 160.129 603.21 161.139C593.405 167.043 585.539 175.684 580.58 185.999C578.152 191.019 576.468 196.365 575.58 201.869C574.58 208.359 575.49 215.159 573.09 221.389L575.6 220.719L566.18 209.939C564.9 208.489 562.79 210.619 564.06 212.059H564.03Z"/><path fill="#646ECB" d="M406.78 343.889C458.36 342.316 509.953 341.983 561.56 342.889C563.49 342.889 563.49 339.889 561.56 339.889C509.967 338.969 458.373 339.303 406.78 340.889C404.85 340.949 404.84 343.949 406.78 343.889Z"/><path fill="#646ECB" d="M572.34 314.31C589.972 321.23 606.933 329.752 623.01 339.77C624.65 340.77 626.16 338.2 624.52 337.18C608.232 327.039 591.046 318.416 573.18 311.42C571.39 310.71 570.61 313.61 572.39 314.31H572.34Z"/><path fill="#646ECB" d="M604.36 300.722C586.48 321.566 576.122 347.814 574.95 375.252C574.87 377.182 577.87 377.182 577.95 375.252C579.086 348.602 589.132 323.104 606.48 302.842C607.73 301.382 605.62 299.252 604.36 300.722Z"/><path fill="#646ECB" d="M204.41 333.002L316.18 331.542L329.03 331.372C331.34 331.372 333.65 331.292 335.96 331.282C339.21 331.282 341.4 333.982 341.34 337.282C341.19 344.282 336.79 344.032 331.03 344.282L317.14 344.912L260.58 347.402C250.45 347.852 240.31 348.402 230.18 348.752C221.04 349.032 203.66 346.052 207.72 332.752C208.28 330.902 205.39 330.112 204.82 331.952C202.82 338.492 206.36 345.132 212.06 348.562C220.15 353.422 230.81 351.772 239.74 351.372L309.18 348.222L326.04 347.472C330.36 347.272 336.37 348.152 340.34 346.142C345 343.792 345.82 334.462 342.88 330.532C341.37 328.532 339.25 328.352 336.88 328.262C330.66 328.022 324.33 328.432 318.1 328.512L283.48 328.972L204.37 329.972C202.44 329.972 202.44 332.972 204.37 332.972L204.41 333.002Z"/><path fill="#323444" d="M655.99 700.499C653.47 702.079 650.59 702.969 647.99 704.359C645.39 705.749 642.86 707.839 642.12 710.719C641.844 711.613 641.89 712.576 642.25 713.439C642.897 714.482 643.887 715.267 645.05 715.659C650.332 718.005 656.037 719.248 661.816 719.314C667.595 719.379 673.326 718.265 678.66 716.039C680.537 715.137 682.475 714.368 684.46 713.739C686.905 713.24 689.394 712.986 691.89 712.979C694.513 712.826 697.123 712.492 699.7 711.979C700.996 711.835 702.223 711.325 703.24 710.509C704.168 709.44 704.725 708.1 704.83 706.689C706.014 698.898 704.229 690.947 699.83 684.409C699.276 683.493 698.533 682.705 697.65 682.099C696.574 681.543 695.39 681.226 694.18 681.169C689.18 680.559 683.94 679.439 678.89 679.319C675.27 679.239 673.45 680.959 670.89 683.449C665.6 688.739 662.51 696.429 655.99 700.499Z"/><path fill="#323444" d="M729.68 699.76C729.68 704.66 730.27 709.85 733.24 713.76C734.598 715.451 736.243 716.889 738.1 718.01C744.38 722.01 752.7 723.48 759.32 720.09C760.39 719.61 761.304 718.841 761.96 717.87C762.96 716.13 762.43 713.96 761.87 712.04L752.29 678.84C746.1 679.79 737 680.46 731.5 683.6C727.51 685.87 729.68 695.38 729.68 699.76Z"/><path fill="#FBB3B2" d="M650.37 495.329C649.79 497.159 647.69 498.009 646.54 499.549C645.19 501.359 645.33 503.869 645.82 506.069C646.425 509.313 647.949 512.315 650.21 514.718C651.357 515.909 652.773 516.808 654.339 517.34C655.904 517.873 657.574 518.023 659.21 517.779C662.43 517.169 665.21 514.319 665.32 511.049C665.262 509.561 664.944 508.096 664.38 506.718L657.56 486.999C657.532 486.859 657.475 486.727 657.392 486.612C657.309 486.496 657.203 486.4 657.08 486.329C656.823 486.271 656.553 486.318 656.33 486.459C654.72 487.219 651.49 488.019 650.55 489.689C649.61 491.359 651.05 493.519 650.37 495.329Z"/><path fill="#323444" d="M647.18 494.341C649.67 493.951 651.85 492.491 654.18 491.531C656.51 490.571 659.43 490.201 661.39 491.801C661.95 492.261 662.49 492.891 663.22 492.881C662.227 487.991 660.726 483.218 658.74 478.641C658.67 478.421 658.534 478.229 658.35 478.091C658.078 477.98 657.773 477.98 657.5 478.091L650.77 479.851C648.28 480.501 647.99 480.301 648.18 482.751C648.23 483.841 648.79 494.341 647.18 494.341Z"/><path fill="#5B5583" d="M646.44 351.939C645.44 353.479 645.44 355.399 645.44 357.209C645.44 366.059 645.53 374.959 646.84 383.719C647.15 385.819 647.54 387.919 647.74 390.039C647.967 392.99 648.014 395.952 647.88 398.909L646.88 437.409C646.76 442.119 646.52 447.179 643.61 450.879C642.728 452.119 642.313 453.632 642.44 455.149C643.2 464.809 644.8 474.389 646.39 483.939C648.95 482.784 651.747 482.252 654.553 482.385C657.358 482.519 660.092 483.315 662.53 484.709C667.576 468.844 670.366 452.35 670.82 435.709C671.05 427.519 670.7 419.279 671.96 411.189C674.07 397.569 673.21 383.599 671.66 369.899C671.17 365.559 670.13 361.089 667.35 357.729C664.718 354.789 661.214 352.77 657.35 351.969C653.65 350.999 650.34 351.999 646.44 351.939Z"/><path fill="#000" d="M646.44 351.939C645.44 353.479 645.44 355.399 645.44 357.209C645.44 366.059 645.53 374.959 646.84 383.719C647.15 385.819 647.54 387.919 647.74 390.039C647.967 392.99 648.014 395.952 647.88 398.909L646.88 437.409C646.76 442.119 646.52 447.179 643.61 450.879C642.728 452.119 642.313 453.632 642.44 455.149C643.2 464.809 644.8 474.389 646.39 483.939C648.95 482.784 651.747 482.252 654.553 482.385C657.358 482.519 660.092 483.315 662.53 484.709C667.576 468.844 670.366 452.35 670.82 435.709C671.05 427.519 670.7 419.279 671.96 411.189C674.07 397.569 673.21 383.599 671.66 369.899C671.17 365.559 670.13 361.089 667.35 357.729C664.718 354.789 661.214 352.77 657.35 351.969C653.65 350.999 650.34 351.999 646.44 351.939Z" opacity=".1"/><path fill="#3C354C" d="M658.66 463.59C651.953 497.959 655.615 533.546 669.18 565.83C670.352 568.22 671.174 570.766 671.62 573.39C672.17 578.29 669.91 583 668.62 587.74C665.62 598.52 667.35 610 669.27 621.03C670.07 625.63 670.894 630.226 671.74 634.82C672.57 639.3 673.37 644.17 671.29 648.23C673.08 655.69 674.14 663.08 675.93 670.54C676.12 671.13 676.178 671.755 676.1 672.37C675.739 673.346 675.104 674.197 674.27 674.82C672.936 676.172 671.977 677.849 671.488 679.685C670.999 681.521 670.996 683.453 671.48 685.29C676.05 682.01 682.42 683.16 687.64 685.29C692.86 687.42 698 690.29 703.64 690.29C702.82 683.67 702.03 676.72 704.47 670.51C705.89 666.91 708.39 663.51 708.32 659.66C708.25 656.21 706.14 653.13 705.63 649.72C705.441 647.598 705.521 645.461 705.87 643.36C707.21 631.12 705.69 618.76 704.17 606.54C703.998 604.13 703.431 601.765 702.49 599.54C701.78 598.1 700.72 596.72 700.74 595.11C700.74 593.24 702.25 591.72 702.81 589.94C703.81 586.66 701.97 582.2 704.74 580.17C712.04 574.81 709.24 562.01 709.08 552.96C708.954 545.153 708.62 537.353 708.08 529.56C712.676 542.483 714.556 556.217 713.6 569.9C713.28 574.38 712.69 579.09 714.44 583.23C715.78 586.41 718.44 589.03 719.16 592.4C719.61 594.48 719.29 596.63 719.39 598.75C719.49 600.87 720.21 603.18 722.04 604.25C722.18 613.89 723.04 624.2 723.19 633.84C723.093 638.768 723.495 643.693 724.39 648.54C724.839 650.081 725.088 651.675 725.13 653.28C724.905 655.292 724.372 657.259 723.55 659.11C721.807 664.27 721.352 669.778 722.223 675.155C723.095 680.532 725.267 685.614 728.55 689.96C730.91 685.77 735.83 683.55 740.63 683.2C745.43 682.85 750.17 684.06 754.82 685.28C754.109 679.437 755.272 673.519 758.14 668.38C758.909 667.221 759.499 665.954 759.89 664.62C760.43 662.08 759.17 659.55 758.49 657.04C757.38 653.04 757.77 648.73 758.03 644.55C758.903 630.55 758.283 616.498 756.18 602.63C755.856 599.898 755.215 597.213 754.27 594.63C753.91 593.71 753.47 592.83 753.17 591.9C752.698 590.232 752.43 588.512 752.37 586.78L751.22 570.78C750.41 559.57 754.09 548.5 756.66 537.56C757.81 532.66 759.06 527.77 759.83 522.79C760.88 516.01 761.05 509.08 762.59 502.39C763.97 496.39 766.46 490.54 766.98 484.39C767.78 474.86 763.82 465.65 759.98 456.91C758.38 453.31 752.33 453.67 748.44 453.03C720.85 448.5 691.79 448.47 665.77 458.68C663.079 459.795 660.656 461.468 658.66 463.59V463.59Z"/><path fill="#FBB3B2" d="M678.55 286.102L681.61 298.002C682.442 300.731 682.903 303.559 682.98 306.412C683.012 307.452 682.781 308.484 682.31 309.412C681.806 310.174 681.161 310.832 680.41 311.352C678.32 312.942 676.87 316.652 674.48 317.752C675.71 319.892 677.41 318.502 679.63 319.572C683.54 321.472 687.12 324.202 691.36 325.142C695.36 326.022 699.56 325.192 703.53 324.142C709.16 322.612 714.76 320.502 719.29 316.812C723.82 313.122 726.4 309.862 726.38 304.032C721.38 304.622 716.93 299.572 714.72 295.032C713.954 293.306 713.39 291.497 713.04 289.642L710.36 277.852C707.44 278.492 705.06 280.582 702.27 281.672C699.48 282.762 696.18 282.862 693.08 283.002C687.577 283.252 682.105 283.961 676.72 285.122C675.98 285.272 675.05 285.742 675.23 286.462"/><path fill="#000" d="M678.55 286.102L681.61 298.002C682.442 300.731 682.903 303.559 682.98 306.412C683.012 307.452 682.781 308.484 682.31 309.412C681.806 310.174 681.161 310.832 680.41 311.352C678.32 312.942 676.87 316.652 674.48 317.752C675.71 319.892 677.41 318.502 679.63 319.572C683.54 321.472 687.12 324.202 691.36 325.142C695.36 326.022 699.56 325.192 703.53 324.142C709.16 322.612 714.76 320.502 719.29 316.812C723.82 313.122 726.4 309.862 726.38 304.032C721.38 304.622 716.93 299.572 714.72 295.032C713.954 293.306 713.39 291.497 713.04 289.642L710.36 277.852C707.44 278.492 705.06 280.582 702.27 281.672C699.48 282.762 696.18 282.862 693.08 283.002C687.577 283.252 682.105 283.961 676.72 285.122C675.98 285.272 675.05 285.742 675.23 286.462" opacity=".1"/><path fill="#FBB3B2" d="M691.69 292.659C706.314 292.659 718.17 280.804 718.17 266.179C718.17 251.555 706.314 239.699 691.69 239.699C677.065 239.699 665.21 251.555 665.21 266.179C665.21 280.804 677.065 292.659 691.69 292.659Z"/><path fill="#323444" d="M698.98 309.831C700.396 306.773 702.44 304.047 704.98 301.831C708.71 298.561 713.81 295.911 714.69 291.031L722.77 300.441C723.209 300.878 723.55 301.403 723.77 301.981C723.872 302.524 723.857 303.082 723.726 303.618C723.595 304.155 723.351 304.657 723.01 305.091C721.01 308.281 717.86 310.561 714.88 312.871C708.05 318.282 701.51 324.05 695.29 330.151C695.016 330.47 694.649 330.693 694.24 330.791C693.854 330.802 693.473 330.694 693.15 330.481C687.783 327.663 683.033 323.801 679.18 319.121C678.89 318.771 678.53 318.371 678.06 318.401C677.777 318.453 677.515 318.589 677.31 318.791C674.62 320.991 671.68 323.621 668.23 323.281C672.7 320.071 675.23 314.711 676.17 309.281C676.356 307.423 676.738 305.589 677.31 303.811C677.606 302.922 678.117 302.119 678.797 301.474C679.477 300.828 680.306 300.36 681.21 300.111C679.03 303.441 680.52 308.161 683.45 310.851C686.297 313.268 689.71 314.923 693.37 315.661C696.77 316.301 697.77 312.451 698.98 309.831Z"/><path fill="#323444" d="M664.53 466.31C668.3 467.24 671.87 468.82 675.53 469.99C682.201 472.079 689.221 472.817 696.18 472.16C698.322 472.113 700.405 471.45 702.18 470.25C702.65 469.87 703.08 469.42 703.58 469.07C704.416 468.568 705.323 468.194 706.27 467.96C715.44 465.09 723.12 458.9 730.57 452.84C730.81 452.64 731.08 452.39 731.06 452.07C731.026 451.852 730.92 451.652 730.76 451.5L726.84 447C716.56 448.75 706.03 448.09 695.6 447.83C693.459 447.735 691.313 447.792 689.18 448C687.12 448.24 685.09 448.76 683.06 449.2C675.35 450.88 667.47 451.52 659.66 452.62C659.114 452.66 658.584 452.824 658.11 453.1C657.781 453.355 657.5 453.666 657.28 454.02L654.54 457.87C653.477 459.165 652.693 460.667 652.24 462.28C651.6 465.28 652.94 466.28 655.49 465.89C658.502 465.449 661.572 465.592 664.53 466.31Z"/><path fill="#5B5583" d="M695.18 325.571C692.121 322.436 688.653 319.728 684.87 317.521C683.342 316.55 681.646 315.872 679.87 315.521C678.976 315.344 678.055 315.366 677.17 315.583C676.286 315.801 675.46 316.21 674.75 316.781C673.86 317.571 673.3 318.671 672.44 319.501C671.358 320.41 670.117 321.112 668.78 321.571C664.228 323.516 659.913 325.975 655.92 328.901C653.743 330.423 651.782 332.233 650.09 334.281C645.56 340.081 644.88 347.971 645 355.331C645.09 360.451 650 364.251 653.38 368.081C656.55 371.85 659.419 375.862 661.96 380.081C663.78 382.961 665.68 386.081 665.45 389.511C665.26 392.321 663.62 394.961 663.88 397.761C663.97 398.761 664.29 399.681 664.38 400.651C664.56 402.651 663.77 404.651 663.57 406.651C663.3 409.481 664.22 412.291 664.27 415.141C664.233 417.092 663.985 419.033 663.53 420.931C661.61 430.071 659.2 439.261 659.69 448.591L654.15 449.591C654.675 450.105 655.071 450.736 655.307 451.432C655.543 452.128 655.611 452.869 655.507 453.597C655.403 454.324 655.129 455.017 654.707 455.618C654.285 456.22 653.728 456.714 653.08 457.061C661.73 459.951 671.08 458.491 680.25 458.481C687.84 458.481 695.4 459.481 702.98 459.341C710.56 459.201 718.38 457.831 724.63 453.541C726.33 452.381 727.89 451.021 729.68 450.011C732.078 448.768 734.661 447.924 737.33 447.511C742.273 446.568 747.298 446.119 752.33 446.171C754.79 446.171 757.47 446.271 759.43 444.791C761.59 443.151 762.14 440.181 762.43 437.491C762.72 434.651 762.9 431.801 762.95 428.951C763.034 426.731 762.917 424.509 762.6 422.311C762.3 420.703 761.909 419.114 761.43 417.551L757.66 404.271C756.1 398.791 758.27 392.781 758.73 387.101C758.84 385.761 758.86 384.201 757.83 383.341C757.46 383.031 756.95 382.821 756.83 382.341C756.776 382.113 756.77 381.876 756.811 381.646C756.852 381.415 756.94 381.196 757.07 381.001C759.07 377.001 762.07 373.471 764.81 369.861C769.412 363.528 773.684 356.963 777.61 350.191C776.381 336.019 770.413 322.675 760.67 312.311C758.67 310.141 756.38 308.061 753.58 307.081C751.75 306.522 749.853 306.216 747.94 306.171C740.1 305.641 731.94 305.171 725.11 301.231C724.62 300.891 724.065 300.656 723.48 300.541C721.97 300.371 720.87 301.861 719.89 303.041C717.37 306.041 713.66 307.761 710.4 309.971C704.32 314.101 699.57 319.781 695.18 325.571Z"/><path fill="#5B5583" d="M778.29 354.279C779.85 359.219 779.7 364.499 780.21 369.649C780.512 372.757 781.057 375.836 781.84 378.859C782.197 380.52 782.84 382.107 783.74 383.549C784.64 384.869 785.93 385.939 786.5 387.429C786.812 388.438 786.95 389.493 786.91 390.549L787.03 397.449C787.287 401.105 786.73 404.773 785.4 408.189L781.09 421.299C778.76 428.399 776.37 435.609 772.17 441.789C771.578 442.835 770.682 443.676 769.6 444.199C768.753 444.423 767.885 444.557 767.01 444.599C765.485 444.871 764.103 445.666 763.101 446.846C762.099 448.027 761.54 449.52 761.52 451.069C760.519 449.607 759.271 448.331 757.83 447.299L749.06 440.299C746.06 437.859 742.93 435.379 739.29 433.969C744.186 432.44 748.532 429.523 751.802 425.571C755.072 421.62 757.124 416.804 757.71 411.709C757.707 410.192 758.049 408.694 758.71 407.329C759.44 406.149 760.79 405.249 760.89 403.859C761.01 402.109 759.03 400.789 759.03 399.039C759.03 397.879 759.89 396.919 760.27 395.829C760.625 394.482 760.625 393.066 760.27 391.719L759.06 384.999C758.989 384.326 758.785 383.673 758.46 383.079C758.007 382.509 757.505 381.981 756.96 381.499C754.88 379.169 755.8 375.499 756.96 372.629C759.624 366.258 763.056 360.237 767.18 354.699C768.648 352.839 770.007 350.896 771.25 348.879C772.31 347.039 772.55 344.489 773.67 342.879C775.11 346.659 777.06 350.389 778.29 354.279Z"/><path fill="#323444" d="M738.98 434.381C738.534 434.712 738.148 435.118 737.84 435.581C736.662 437.06 735.092 438.179 733.31 438.811C734.31 439.531 735.22 440.241 736.16 440.971C743.115 446.342 749.484 452.433 755.16 459.141C755.79 456.891 759.56 457.051 760.48 454.901C760.697 454.286 760.765 453.628 760.68 452.981C760.489 449.613 760.007 446.267 759.24 442.981C758.937 441.29 758.253 439.689 757.24 438.301C755.84 436.611 753.66 435.801 751.58 435.101C748.43 434.001 742.18 432.451 738.98 434.381Z"/><path fill="#FBB3B2" d="M726.48 442.241C723.48 444.461 720.85 447.241 717.48 448.761C715.1 449.841 712.39 450.311 710.31 451.921C711.44 454.411 714.38 455.701 717.11 455.601C719.843 455.333 722.462 454.373 724.72 452.811C726.51 451.711 728.61 450.431 730.56 451.201C730.86 452.721 729.56 454.151 729.56 455.691C729.56 457.231 730.84 458.351 732.1 459.161C738.1 463.031 745.82 462.711 752.97 462.261C753.38 462.277 753.784 462.157 754.12 461.921C754.275 461.74 754.393 461.531 754.467 461.304C754.54 461.078 754.569 460.839 754.55 460.601C754.64 459.021 754.68 457.451 754.69 455.871C754.892 454.597 754.727 453.292 754.213 452.109C753.699 450.926 752.859 449.914 751.79 449.191C747.91 445.856 743.725 442.893 739.29 440.341C734.89 437.791 730.43 439.301 726.48 442.241Z"/><path fill="#3C354C" d="M700.99 255.111C696.55 255.641 693.32 259.111 693.77 262.881C694.22 266.651 698.18 269.251 702.62 268.711C707.06 268.171 710.29 264.711 709.84 260.951C709.39 257.191 705.43 254.581 700.99 255.111ZM702.5 267.671C698.74 268.121 695.39 265.911 695 262.731C694.61 259.551 697.36 256.611 701.11 256.161C704.86 255.711 708.22 257.921 708.61 261.101C709 264.281 706.25 267.221 702.5 267.671V267.671Z"/><path fill="#3C354C" d="M679.35 257.709C674.91 258.239 671.68 261.709 672.13 265.469C672.58 269.229 676.54 271.839 680.98 271.309C685.42 270.779 688.65 267.309 688.2 263.539C687.75 259.769 683.79 257.179 679.35 257.709ZM680.86 270.259C677.1 270.709 673.75 268.499 673.37 265.329C672.99 262.159 675.72 259.209 679.48 258.749C683.24 258.289 686.59 260.509 686.97 263.689C687.35 266.869 684.61 269.809 680.86 270.259Z"/><path fill="#3C354C" d="M663.28 259.641L672.93 261.701L671.98 264.241L662.88 261.571L663.28 259.641Z"/><path fill="#3C354C" d="M717.07 253.18L708.17 257.47L709.7 259.71L717.91 254.96L717.07 253.18Z"/><path fill="#3C354C" d="M687.31 261.06L694.08 260.25L693.73 261.93L687.92 262.32L687.31 261.06Z"/><path fill="#CBCEDA" d="M674.18 258.79C674.817 257.42 675.158 255.931 675.18 254.42C675.204 253.516 675.359 252.62 675.64 251.76C676.132 250.668 676.879 249.711 677.82 248.97C680.94 246.33 685.41 244.97 689.82 244.78C694.629 244.559 699.412 245.592 703.7 247.78C705.01 248.394 706.183 249.264 707.15 250.34C708.55 252.05 708.85 254.26 710.26 255.95C711.222 256.975 712.433 257.735 713.775 258.155C715.117 258.576 716.545 258.643 717.92 258.35C718.41 256.61 717.77 254.77 718.02 252.99C718.414 251.465 718.946 249.978 719.61 248.55C721.16 243.98 718.9 238.68 714.24 235.95C712.61 234.95 710.68 234.3 709.46 232.95C708.24 231.6 707.95 230.2 707.11 228.85C704.88 225.28 699.11 223.61 694.72 225.26C693.34 225.78 692.12 226.57 690.72 227.13C688.12 228.2 685.16 228.39 682.3 228.75C679.481 229.01 676.724 229.733 674.14 230.89C671.67 232.11 669.6 234.07 669.03 236.41C668.76 237.49 668.82 238.61 668.55 239.68C667.17 245.11 658.26 247.75 657.76 253.29C657.58 255.29 658.67 257.21 660.03 258.84C660.97 259.95 663.22 262.92 664.81 263.35C666.4 263.78 667.61 262.27 669.13 261.75C671.53 261 672.98 260.84 674.18 258.79Z"/><path fill="#46455B" d="M786.99 611C786.99 661.24 818.51 701.9 857.46 701.9Z"/><path fill="#646ECB" d="M857.46 701.908C857.46 651.098 892.64 609.988 936.11 609.988Z"/><path fill="#646ECB" d="M812.53 615.559C812.53 663.289 832.63 701.909 857.46 701.909Z"/><path fill="#46455B" d="M857.46 701.909C857.46 636.989 898.12 584.449 948.36 584.449Z"/><path fill="#646ECB" d="M854.41 719.272C864.086 719.272 871.93 717.946 871.93 716.312C871.93 714.677 864.086 713.352 854.41 713.352C844.734 713.352 836.89 714.677 836.89 716.312C836.89 717.946 844.734 719.272 854.41 719.272Z" opacity=".1"/><path fill="#A8A8A8" d="M842.64 702.552C842.64 702.552 852.64 702.242 855.64 700.102C858.64 697.962 871.01 695.392 871.76 698.832C872.51 702.272 886.76 715.942 875.49 716.032C864.22 716.122 849.27 714.272 846.27 712.442C843.27 710.612 842.64 702.552 842.64 702.552Z"/><path fill="#000" d="M875.7 714.829C864.42 714.919 849.49 713.069 846.48 711.239C844.19 709.849 843.28 704.839 842.97 702.539H842.64C842.64 702.539 843.27 710.599 846.28 712.429C849.29 714.259 864.22 716.109 875.5 716.019C878.76 716.019 879.88 714.829 879.82 713.119C879.37 714.159 878.18 714.809 875.7 714.829Z" opacity=".2"/><path fill="#46455B" d="M22.49 640.359C22.49 680.359 47.56 712.679 78.55 712.679Z"/><path fill="#646ECB" d="M78.55 712.681C78.55 672.261 106.55 639.551 141.12 639.551Z"/><path fill="#646ECB" d="M42.8 644C42.8 682 58.8 712.7 78.55 712.7Z"/><path fill="#46455B" d="M78.55 712.68C78.55 661.03 110.9 619.23 150.87 619.23Z"/><path fill="#646ECB" d="M76.1199 726.501C83.8188 726.501 90.0599 725.445 90.0599 724.141C90.0599 722.838 83.8188 721.781 76.1199 721.781C68.4211 721.781 62.1799 722.838 62.1799 724.141C62.1799 725.445 68.4211 726.501 76.1199 726.501Z" opacity=".1"/><path fill="#A8A8A8" d="M66.76 713.189C66.76 713.189 74.71 712.939 77.1 711.189C79.49 709.439 89.34 707.439 89.93 710.189C90.52 712.939 101.88 723.799 92.93 723.869C83.98 723.939 72.07 722.469 69.68 721.019C67.29 719.569 66.76 713.189 66.76 713.189Z"/><path fill="#000" d="M93.06 722.999C84.06 723.069 72.2 721.599 69.81 720.139C67.99 719.039 67.27 715.049 67.02 713.219H66.76C66.76 713.219 67.26 719.629 69.65 721.089C72.04 722.549 83.93 724.009 92.9 723.939C95.49 723.939 96.39 722.999 96.34 721.629C95.98 722.429 94.99 722.939 93.06 722.999Z" opacity=".2"/></g><defs><clipPath id="clip0"><rect width="948.37" height="758" fill="#fff"/></clipPath></defs></svg>