<svg width="1541" height="1416" viewBox="0 0 1541 1416" fill="none" xmlns="http://www.w3.org/2000/svg">
<ellipse cx="770.157" cy="707.691" rx="666.51" ry="392.316" transform="rotate(-35.7297 770.157 707.691)" fill="white"/>
<g clip-path="url(#clip0)">
<path opacity="0.1" d="M634.708 507.727H579.949C576.79 507.727 574.23 510.202 574.23 513.255V521.544C574.23 524.597 576.79 527.072 579.949 527.072H634.708C637.867 527.072 640.428 524.597 640.428 521.544V513.255C640.428 510.202 637.867 507.727 634.708 507.727Z" fill="#1594DB"/>
<path opacity="0.1" d="M703.985 527.074H649.226C646.067 527.074 643.507 529.549 643.507 532.603V540.891C643.507 543.945 646.067 546.42 649.226 546.42H703.985C707.144 546.42 709.704 543.945 709.704 540.891V532.603C709.704 529.549 707.144 527.074 703.985 527.074Z" fill="#1594DB"/>
<path opacity="0.1" d="M773.262 546.418H718.503C715.344 546.418 712.783 548.893 712.783 551.946V560.235C712.783 563.288 715.344 565.764 718.503 565.764H773.262C776.421 565.764 778.981 563.288 778.981 560.235V551.946C778.981 548.893 776.421 546.418 773.262 546.418Z" fill="#1594DB"/>
<path opacity="0.1" d="M634.708 478.711H579.949C576.79 478.711 574.23 481.186 574.23 484.239V492.528C574.23 495.581 576.79 498.057 579.949 498.057H634.708C637.867 498.057 640.428 495.581 640.428 492.528V484.239C640.428 481.186 637.867 478.711 634.708 478.711Z" fill="#1594DB"/>
<path opacity="0.1" d="M703.985 498.055H649.226C646.067 498.055 643.507 500.53 643.507 503.583V511.872C643.507 514.925 646.067 517.4 649.226 517.4H703.985C707.144 517.4 709.704 514.925 709.704 511.872V503.583C709.704 500.53 707.144 498.055 703.985 498.055Z" fill="#1594DB"/>
<path opacity="0.1" d="M773.262 517.402H718.503C715.344 517.402 712.783 519.877 712.783 522.931V531.22C712.783 534.273 715.344 536.748 718.503 536.748H773.262C776.421 536.748 778.981 534.273 778.981 531.22V522.931C778.981 519.877 776.421 517.402 773.262 517.402Z" fill="#1594DB"/>
<path opacity="0.1" d="M850.236 507.727H795.477C792.318 507.727 789.758 510.202 789.758 513.255V521.544C789.758 524.597 792.318 527.072 795.477 527.072H850.236C853.395 527.072 855.955 524.597 855.955 521.544V513.255C855.955 510.202 853.395 507.727 850.236 507.727Z" fill="#1594DB"/>
<path opacity="0.1" d="M919.513 527.074H864.753C861.595 527.074 859.034 529.549 859.034 532.603V540.891C859.034 543.945 861.595 546.42 864.753 546.42H919.513C922.672 546.42 925.232 543.945 925.232 540.891V532.603C925.232 529.549 922.672 527.074 919.513 527.074Z" fill="#1594DB"/>
<path opacity="0.1" d="M988.79 546.418H934.03C930.872 546.418 928.311 548.893 928.311 551.946V560.235C928.311 563.288 930.872 565.764 934.03 565.764H988.79C991.948 565.764 994.509 563.288 994.509 560.235V551.946C994.509 548.893 991.948 546.418 988.79 546.418Z" fill="#1594DB"/>
<path opacity="0.1" d="M850.236 478.711H795.477C792.318 478.711 789.758 481.186 789.758 484.239V492.528C789.758 495.581 792.318 498.057 795.477 498.057H850.236C853.395 498.057 855.955 495.581 855.955 492.528V484.239C855.955 481.186 853.395 478.711 850.236 478.711Z" fill="#1594DB"/>
<path opacity="0.1" d="M919.513 498.055H864.753C861.595 498.055 859.034 500.53 859.034 503.583V511.872C859.034 514.925 861.595 517.4 864.753 517.4H919.513C922.672 517.4 925.232 514.925 925.232 511.872V503.583C925.232 500.53 922.672 498.055 919.513 498.055Z" fill="#1594DB"/>
<path opacity="0.1" d="M988.79 517.402H934.03C930.872 517.402 928.311 519.877 928.311 522.931V531.22C928.311 534.273 930.872 536.748 934.03 536.748H988.79C991.948 536.748 994.509 534.273 994.509 531.22V522.931C994.509 519.877 991.948 517.402 988.79 517.402Z" fill="#1594DB"/>
<path opacity="0.1" d="M634.708 440.02H579.949C576.79 440.02 574.23 442.495 574.23 445.548V453.837C574.23 456.89 576.79 459.365 579.949 459.365H634.708C637.867 459.365 640.428 456.89 640.428 453.837V445.548C640.428 442.495 637.867 440.02 634.708 440.02Z" fill="#1594DB"/>
<path opacity="0.1" d="M703.985 459.363H649.226C646.067 459.363 643.507 461.838 643.507 464.892V473.181C643.507 476.234 646.067 478.709 649.226 478.709H703.985C707.144 478.709 709.704 476.234 709.704 473.181V464.892C709.704 461.838 707.144 459.363 703.985 459.363Z" fill="#1594DB"/>
<path opacity="0.1" d="M773.262 478.711H718.503C715.344 478.711 712.783 481.186 712.783 484.239V492.528C712.783 495.581 715.344 498.057 718.503 498.057H773.262C776.421 498.057 778.981 495.581 778.981 492.528V484.239C778.981 481.186 776.421 478.711 773.262 478.711Z" fill="#1594DB"/>
<path opacity="0.1" d="M634.708 411H579.949C576.79 411 574.23 413.475 574.23 416.528V424.817C574.23 427.871 576.79 430.346 579.949 430.346H634.708C637.867 430.346 640.428 427.871 640.428 424.817V416.528C640.428 413.475 637.867 411 634.708 411Z" fill="#1594DB"/>
<path opacity="0.1" d="M703.985 430.344H649.226C646.067 430.344 643.507 432.819 643.507 435.872V444.161C643.507 447.214 646.067 449.689 649.226 449.689H703.985C707.144 449.689 709.704 447.214 709.704 444.161V435.872C709.704 432.819 707.144 430.344 703.985 430.344Z" fill="#1594DB"/>
<path opacity="0.1" d="M773.262 449.691H718.503C715.344 449.691 712.783 452.167 712.783 455.22V463.509C712.783 466.562 715.344 469.037 718.503 469.037H773.262C776.421 469.037 778.981 466.562 778.981 463.509V455.22C778.981 452.167 776.421 449.691 773.262 449.691Z" fill="#1594DB"/>
<path opacity="0.1" d="M850.236 440.02H795.477C792.318 440.02 789.758 442.495 789.758 445.548V453.837C789.758 456.89 792.318 459.365 795.477 459.365H850.236C853.395 459.365 855.955 456.89 855.955 453.837V445.548C855.955 442.495 853.395 440.02 850.236 440.02Z" fill="#1594DB"/>
<path opacity="0.1" d="M919.513 459.363H864.753C861.595 459.363 859.034 461.838 859.034 464.892V473.181C859.034 476.234 861.595 478.709 864.753 478.709H919.513C922.672 478.709 925.232 476.234 925.232 473.181V464.892C925.232 461.838 922.672 459.363 919.513 459.363Z" fill="#1594DB"/>
<path opacity="0.1" d="M988.79 478.711H934.03C930.872 478.711 928.311 481.186 928.311 484.239V492.528C928.311 495.581 930.872 498.057 934.03 498.057H988.79C991.948 498.057 994.509 495.581 994.509 492.528V484.239C994.509 481.186 991.948 478.711 988.79 478.711Z" fill="#1594DB"/>
<path opacity="0.1" d="M850.236 411H795.477C792.318 411 789.758 413.475 789.758 416.528V424.817C789.758 427.871 792.318 430.346 795.477 430.346H850.236C853.395 430.346 855.955 427.871 855.955 424.817V416.528C855.955 413.475 853.395 411 850.236 411Z" fill="#1594DB"/>
<path opacity="0.1" d="M919.513 430.344H864.753C861.595 430.344 859.034 432.819 859.034 435.872V444.161C859.034 447.214 861.595 449.689 864.753 449.689H919.513C922.672 449.689 925.232 447.214 925.232 444.161V435.872C925.232 432.819 922.672 430.344 919.513 430.344Z" fill="#1594DB"/>
<path opacity="0.1" d="M988.79 449.691H934.03C930.872 449.691 928.311 452.167 928.311 455.22V463.509C928.311 466.562 930.872 469.037 934.03 469.037H988.79C991.948 469.037 994.509 466.562 994.509 463.509V455.22C994.509 452.167 991.948 449.691 988.79 449.691Z" fill="#1594DB"/>
<path opacity="0.1" d="M634.708 852.23H579.949C576.79 852.23 574.23 854.706 574.23 857.759V866.048C574.23 869.101 576.79 871.576 579.949 871.576H634.708C637.867 871.576 640.428 869.101 640.428 866.048V857.759C640.428 854.706 637.867 852.23 634.708 852.23Z" fill="#1594DB"/>
<path opacity="0.1" d="M703.985 871.574H649.226C646.067 871.574 643.507 874.049 643.507 877.103V885.391C643.507 888.445 646.067 890.92 649.226 890.92H703.985C707.144 890.92 709.704 888.445 709.704 885.391V877.103C709.704 874.049 707.144 871.574 703.985 871.574Z" fill="#1594DB"/>
<path opacity="0.1" d="M773.262 890.922H718.503C715.344 890.922 712.783 893.397 712.783 896.45V904.739C712.783 907.792 715.344 910.268 718.503 910.268H773.262C776.421 910.268 778.981 907.792 778.981 904.739V896.45C778.981 893.397 776.421 890.922 773.262 890.922Z" fill="#1594DB"/>
<path opacity="0.1" d="M634.708 823.211H579.949C576.79 823.211 574.23 825.686 574.23 828.739V837.028C574.23 840.081 576.79 842.557 579.949 842.557H634.708C637.867 842.557 640.428 840.081 640.428 837.028V828.739C640.428 825.686 637.867 823.211 634.708 823.211Z" fill="#1594DB"/>
<path opacity="0.1" d="M703.985 842.555H649.226C646.067 842.555 643.507 845.03 643.507 848.083V856.372C643.507 859.425 646.067 861.9 649.226 861.9H703.985C707.144 861.9 709.704 859.425 709.704 856.372V848.083C709.704 845.03 707.144 842.555 703.985 842.555Z" fill="#1594DB"/>
<path opacity="0.1" d="M773.262 861.902H718.503C715.344 861.902 712.783 864.377 712.783 867.431V875.72C712.783 878.773 715.344 881.248 718.503 881.248H773.262C776.421 881.248 778.981 878.773 778.981 875.72V867.431C778.981 864.377 776.421 861.902 773.262 861.902Z" fill="#1594DB"/>
<path opacity="0.1" d="M850.236 852.23H795.477C792.318 852.23 789.758 854.706 789.758 857.759V866.048C789.758 869.101 792.318 871.576 795.477 871.576H850.236C853.395 871.576 855.955 869.101 855.955 866.048V857.759C855.955 854.706 853.395 852.23 850.236 852.23Z" fill="#1594DB"/>
<path opacity="0.1" d="M919.513 871.574H864.753C861.595 871.574 859.034 874.049 859.034 877.103V885.391C859.034 888.445 861.595 890.92 864.753 890.92H919.513C922.672 890.92 925.232 888.445 925.232 885.391V877.103C925.232 874.049 922.672 871.574 919.513 871.574Z" fill="#1594DB"/>
<path opacity="0.1" d="M988.79 890.922H934.03C930.872 890.922 928.311 893.397 928.311 896.45V904.739C928.311 907.792 930.872 910.268 934.03 910.268H988.79C991.948 910.268 994.509 907.792 994.509 904.739V896.45C994.509 893.397 991.948 890.922 988.79 890.922Z" fill="#1594DB"/>
<path opacity="0.1" d="M850.236 823.211H795.477C792.318 823.211 789.758 825.686 789.758 828.739V837.028C789.758 840.081 792.318 842.557 795.477 842.557H850.236C853.395 842.557 855.955 840.081 855.955 837.028V828.739C855.955 825.686 853.395 823.211 850.236 823.211Z" fill="#1594DB"/>
<path opacity="0.1" d="M919.513 842.555H864.753C861.595 842.555 859.034 845.03 859.034 848.083V856.372C859.034 859.425 861.595 861.9 864.753 861.9H919.513C922.672 861.9 925.232 859.425 925.232 856.372V848.083C925.232 845.03 922.672 842.555 919.513 842.555Z" fill="#1594DB"/>
<path opacity="0.1" d="M988.79 861.902H934.03C930.872 861.902 928.311 864.377 928.311 867.431V875.72C928.311 878.773 930.872 881.248 934.03 881.248H988.79C991.948 881.248 994.509 878.773 994.509 875.72V867.431C994.509 864.377 991.948 861.902 988.79 861.902Z" fill="#1594DB"/>
<path opacity="0.1" d="M634.708 784.52H579.949C576.79 784.52 574.23 786.995 574.23 790.048V798.337C574.23 801.39 576.79 803.865 579.949 803.865H634.708C637.867 803.865 640.428 801.39 640.428 798.337V790.048C640.428 786.995 637.867 784.52 634.708 784.52Z" fill="#1594DB"/>
<path opacity="0.1" d="M703.985 803.867H649.226C646.067 803.867 643.507 806.342 643.507 809.396V817.684C643.507 820.738 646.067 823.213 649.226 823.213H703.985C707.144 823.213 709.704 820.738 709.704 817.684V809.396C709.704 806.342 707.144 803.867 703.985 803.867Z" fill="#1594DB"/>
<path opacity="0.1" d="M773.262 823.211H718.503C715.344 823.211 712.783 825.686 712.783 828.739V837.028C712.783 840.081 715.344 842.557 718.503 842.557H773.262C776.421 842.557 778.981 840.081 778.981 837.028V828.739C778.981 825.686 776.421 823.211 773.262 823.211Z" fill="#1594DB"/>
<path opacity="0.1" d="M634.708 755.5H579.949C576.79 755.5 574.23 757.975 574.23 761.028V769.317C574.23 772.37 576.79 774.846 579.949 774.846H634.708C637.867 774.846 640.428 772.37 640.428 769.317V761.028C640.428 757.975 637.867 755.5 634.708 755.5Z" fill="#1594DB"/>
<path opacity="0.1" d="M703.985 774.848H649.226C646.067 774.848 643.507 777.323 643.507 780.376V788.665C643.507 791.718 646.067 794.193 649.226 794.193H703.985C707.144 794.193 709.704 791.718 709.704 788.665V780.376C709.704 777.323 707.144 774.848 703.985 774.848Z" fill="#1594DB"/>
<path opacity="0.1" d="M773.262 794.191H718.503C715.344 794.191 712.783 796.667 712.783 799.72V808.009C712.783 811.062 715.344 813.537 718.503 813.537H773.262C776.421 813.537 778.981 811.062 778.981 808.009V799.72C778.981 796.667 776.421 794.191 773.262 794.191Z" fill="#1594DB"/>
<path opacity="0.1" d="M850.236 784.52H795.477C792.318 784.52 789.758 786.995 789.758 790.048V798.337C789.758 801.39 792.318 803.865 795.477 803.865H850.236C853.395 803.865 855.955 801.39 855.955 798.337V790.048C855.955 786.995 853.395 784.52 850.236 784.52Z" fill="#1594DB"/>
<path opacity="0.1" d="M919.513 803.867H864.753C861.595 803.867 859.034 806.342 859.034 809.396V817.684C859.034 820.738 861.595 823.213 864.753 823.213H919.513C922.672 823.213 925.232 820.738 925.232 817.684V809.396C925.232 806.342 922.672 803.867 919.513 803.867Z" fill="#1594DB"/>
<path opacity="0.1" d="M988.79 823.211H934.03C930.872 823.211 928.311 825.686 928.311 828.739V837.028C928.311 840.081 930.872 842.557 934.03 842.557H988.79C991.948 842.557 994.509 840.081 994.509 837.028V828.739C994.509 825.686 991.948 823.211 988.79 823.211Z" fill="#1594DB"/>
<path opacity="0.1" d="M850.236 755.5H795.477C792.318 755.5 789.758 757.975 789.758 761.028V769.317C789.758 772.37 792.318 774.846 795.477 774.846H850.236C853.395 774.846 855.955 772.37 855.955 769.317V761.028C855.955 757.975 853.395 755.5 850.236 755.5Z" fill="#1594DB"/>
<path opacity="0.1" d="M919.513 774.848H864.753C861.595 774.848 859.034 777.323 859.034 780.376V788.665C859.034 791.718 861.595 794.193 864.753 794.193H919.513C922.672 794.193 925.232 791.718 925.232 788.665V780.376C925.232 777.323 922.672 774.848 919.513 774.848Z" fill="#1594DB"/>
<path opacity="0.1" d="M988.79 794.191H934.03C930.872 794.191 928.311 796.667 928.311 799.72V808.009C928.311 811.062 930.872 813.537 934.03 813.537H988.79C991.948 813.537 994.509 811.062 994.509 808.009V799.72C994.509 796.667 991.948 794.191 988.79 794.191Z" fill="#1594DB"/>
<path opacity="0.1" d="M796.3 974.998C982.714 974.998 1133.83 963.006 1133.83 948.212C1133.83 933.418 982.714 921.426 796.3 921.426C609.887 921.426 458.769 933.418 458.769 948.212C458.769 963.006 609.887 974.998 796.3 974.998Z" fill="#1594DB"/>
<path d="M490.159 549.991C521.987 563.324 540.277 590.914 540.277 590.914C540.277 590.914 506.954 596.867 475.118 583.54C443.281 570.214 425 542.617 425 542.617C425 542.617 458.322 536.657 490.159 549.991Z" fill="#1594DB"/>
<path d="M587.839 498.8C597.684 483.175 614.449 475.734 614.449 475.734C614.449 475.734 615.219 493.547 605.404 509.128C595.59 524.709 578.787 532.142 578.787 532.142C578.787 532.142 577.986 514.336 587.839 498.8Z" fill="#1594DB"/>
<path d="M515.468 515.517C522.511 539.818 541.924 555.816 541.924 555.816C541.924 555.816 549.921 532.4 542.878 508.091C535.835 483.783 516.415 467.793 516.415 467.793C516.415 467.793 508.417 491.209 515.468 515.517Z" fill="#46455B"/>
<path d="M1072.09 514.426H522.049C518.984 514.426 516.499 516.828 516.499 519.79V780.644C516.499 783.607 518.984 786.009 522.049 786.009H1072.09C1075.16 786.009 1077.64 783.607 1077.64 780.644V519.79C1077.64 516.828 1075.16 514.426 1072.09 514.426Z" fill="#3F3D56"/>
<path opacity="0.1" d="M516.499 769.637H1077.64V780.641C1077.64 782.064 1077.06 783.429 1076.02 784.435C1074.97 785.441 1073.56 786.006 1072.09 786.006H522.049C520.577 786.006 519.166 785.441 518.125 784.435C517.084 783.429 516.499 782.064 516.499 780.641V769.637Z" fill="black"/>
<path d="M610.793 749.547H573.075C572.012 749.547 571.151 750.38 571.151 751.407V767.776C571.151 768.804 572.012 769.637 573.075 769.637H610.793C611.855 769.637 612.717 768.804 612.717 767.776V751.407C612.717 750.38 611.855 749.547 610.793 749.547Z" fill="#1594DB"/>
<path d="M651.204 766.664H625.803C624.952 766.664 624.263 767.33 624.263 768.152C624.263 768.974 624.952 769.64 625.803 769.64H651.204C652.054 769.64 652.743 768.974 652.743 768.152C652.743 767.33 652.054 766.664 651.204 766.664Z" fill="#1594DB"/>
<path d="M598.977 567.536C619.291 571.159 640.012 567.536 660.241 565.08L721.72 557.64C724.206 557.334 727.824 555.898 729.287 558.838C730.11 560.482 729.556 564.046 729.618 565.936C729.779 571.144 729.764 576.353 729.618 581.561C729.341 591.517 728.586 601.45 727.624 611.361C725.753 630.759 723.106 650.052 721.782 669.524C721.104 679.435 720.766 689.376 721.066 699.287C721.135 701.653 721.235 704.019 721.381 706.378C721.543 709.019 722.767 712.94 719.788 714.704C718.087 715.716 714.739 715.664 712.791 715.961C709.712 716.43 706.633 716.802 703.493 717.107C682.794 719.109 661.826 718.275 641.051 718.156L578.317 717.844L563.015 717.762C561.629 717.762 556.634 718.566 555.779 716.973C555.417 716.296 556.38 713.126 556.549 712.278C556.785 710.879 557.042 709.483 557.319 708.089C559.104 698.305 561.214 688.58 563.338 678.862C567.903 658.029 572.575 637.091 574.453 615.81C575.384 605.133 574.769 594.359 575.908 583.704C576.439 578.756 577.07 567.714 583.882 567.275C589.655 566.903 595.598 567.275 601.386 567.275C601.693 567.275 601.986 567.158 602.203 566.948C602.419 566.739 602.541 566.455 602.541 566.159C602.541 565.863 602.419 565.579 602.203 565.37C601.986 565.161 601.693 565.043 601.386 565.043C595.921 565.043 590.448 564.902 584.983 565.006C581.35 565.073 578.825 565.906 577.093 569.135C572.667 577.424 573.121 588.481 572.983 597.529C572.652 619.188 569.211 640.387 564.731 661.57C562.476 672.233 560.044 682.858 557.804 693.528C556.749 698.625 555.741 703.736 554.817 708.863C554.386 711.303 552.208 716.683 554.124 718.923C556.041 721.162 561.937 719.957 564.577 719.972L582.943 720.076L618.136 720.269C640.874 720.396 663.689 721.014 686.42 720.366C697.273 720.054 708.742 719.622 719.311 717.115C722.459 716.371 723.975 714.972 724.099 711.728C724.283 706.698 723.437 701.512 723.329 696.459C722.559 653.229 733.066 610.602 731.988 567.357C731.919 564.418 733.066 557.007 729.741 555.229C728.247 554.425 726.308 554.864 724.737 555.043C721.735 555.378 718.741 555.787 715.739 556.129L676.752 560.832C664.29 562.32 651.835 563.927 639.35 565.296C626.134 566.784 612.786 567.67 599.616 565.296C598.161 565.036 597.538 567.186 599 567.446L598.977 567.536Z" fill="#1594DB"/>
<path d="M574.468 593.838L728.278 586.547C729.764 586.472 729.772 584.24 728.278 584.314L574.468 591.606C572.991 591.673 572.983 593.905 574.468 593.838Z" fill="#1594DB"/>
<path d="M621.854 575.439C621.424 575.879 621.111 576.415 620.944 576.999C620.777 577.583 620.759 578.197 620.894 578.789C621.028 579.381 621.31 579.932 621.714 580.395C622.119 580.857 622.635 581.217 623.216 581.443C625.287 582.359 627.719 581.592 629.774 581.094C632.853 580.35 635.932 579.687 639.096 579.144C645.982 577.966 652.956 577.339 659.948 577.269C663.135 577.232 666.299 577.373 669.485 577.507C671.795 577.597 674.281 577.775 676.236 576.391C678.468 574.814 679.192 571.733 677.006 569.814C673.927 567.098 667.292 568.675 663.735 568.958C650.831 569.994 638.011 571.843 625.356 574.494C623.909 574.791 624.517 576.949 625.972 576.644C634.321 574.903 642.734 573.504 651.212 572.448C655.379 571.952 659.553 571.532 663.735 571.19C665.706 571.034 667.677 570.893 669.647 570.781C670.417 570.736 671.233 570.654 672.018 570.677C674.458 570.729 674.743 570.305 673.28 573.154C671.979 575.677 672.395 575.387 670.14 575.305C669.185 575.305 668.231 575.201 667.276 575.156C665.321 575.077 663.366 575.034 661.411 575.03C657.249 575.03 653.098 575.223 648.956 575.61C645.446 575.937 641.944 576.399 638.473 576.994C636.302 577.366 634.147 577.797 631.999 578.274C631.052 578.489 630.098 578.713 629.151 578.943C628.697 579.062 628.235 579.167 627.781 579.278C626.098 579.844 624.663 579.1 623.478 577.046C624.509 576.012 622.885 574.427 621.846 575.469L621.854 575.439Z" fill="#1594DB"/>
<path d="M649.734 607.195C638.596 606.779 626.565 609.688 619.229 618.356C613.487 625.135 610.215 636.764 616.296 644.399C622.831 652.583 637.164 651.14 645.808 647.65C654.953 643.93 664.959 636.258 667.707 626.66C671.133 614.673 660.01 605.61 648.425 605.477C646.94 605.477 646.94 607.709 648.425 607.709C655.03 607.783 661.511 610.521 664.59 616.466C667.815 622.731 665.036 629.309 660.741 634.324C653.86 642.308 643.099 648.327 632.137 648.156C625.556 648.059 618.282 645.879 616.242 639.168C614.564 633.729 615.842 627.784 618.767 622.962C625.094 612.545 637.972 609.018 649.78 609.465C651.266 609.517 651.266 607.285 649.78 607.233L649.734 607.195Z" fill="#1594DB"/>
<path d="M638.673 623.728C638.198 623.558 637.686 623.506 637.185 623.579C636.684 623.651 636.211 623.845 635.808 624.142C635.405 624.439 635.087 624.83 634.883 625.278C634.678 625.726 634.595 626.216 634.639 626.704C634.87 629.606 638.18 630.424 640.666 630.253C642.814 630.075 645.323 629.308 644.569 626.711C644.43 626.252 644.19 625.826 643.866 625.464C643.542 625.102 643.141 624.812 642.691 624.613C642.002 624.349 641.255 624.259 640.52 624.353C640.235 624.353 637.626 625.275 638.734 624.167L636.918 623.936C637.119 624.128 637.274 624.362 637.37 624.619C637.466 624.877 637.5 625.152 637.472 625.424C637.475 625.619 637.531 625.809 637.633 625.976C637.736 626.144 637.881 626.283 638.056 626.379C638.23 626.476 638.428 626.527 638.629 626.528C638.83 626.529 639.028 626.479 639.204 626.384C639.468 626.277 639.758 626.244 640.04 626.287C640.323 626.331 640.588 626.45 640.804 626.63C641.021 626.811 641.181 627.047 641.267 627.311C641.353 627.575 641.361 627.857 641.29 628.125C641.228 628.383 641.262 628.654 641.386 628.889C641.51 629.125 641.717 629.311 641.969 629.414C642.221 629.517 642.503 629.531 642.764 629.453C643.026 629.375 643.251 629.211 643.399 628.988C644.169 627.649 645.1 624.985 643.945 623.586C643.176 622.641 641.69 622.924 640.766 623.475C640.196 623.865 639.665 624.306 639.181 624.792C638.249 625.588 637.641 625.96 637.988 624.435C638.565 621.659 641.305 619.449 643.807 618.341L642.113 617.083C641.226 620.308 639.638 623.314 637.456 625.9L639.427 626.689C639.371 625.667 639.643 624.654 640.205 623.787C640.767 622.92 641.592 622.242 642.568 621.845H641.436L642.036 622.798C641.813 624.204 644.038 624.807 644.261 623.385C644.553 621.548 643.353 619.159 641.128 620.059C638.473 621.131 637.095 624.07 637.149 626.689C637.149 627.582 638.457 628.274 639.127 627.485C641.575 624.61 643.362 621.265 644.369 617.671C644.422 617.458 644.41 617.234 644.335 617.027C644.259 616.82 644.123 616.639 643.942 616.506C643.762 616.373 643.546 616.293 643.319 616.277C643.093 616.26 642.866 616.308 642.668 616.414C640.362 617.421 638.413 619.062 637.064 621.131C636.125 622.619 634.947 624.941 635.902 626.652C636.058 626.926 636.269 627.167 636.523 627.361C636.776 627.556 637.067 627.7 637.378 627.785C637.69 627.87 638.015 627.894 638.337 627.857C638.658 627.82 638.968 627.721 639.25 627.567C639.962 627.159 640.612 626.658 641.182 626.079C641.467 625.833 641.782 625.409 642.16 625.335C642.498 625.112 642.483 625.238 642.106 625.729C642.101 626.5 641.868 627.254 641.436 627.902L643.545 628.758C643.735 628.063 643.713 627.33 643.481 626.647C643.25 625.964 642.818 625.361 642.239 624.91C641.66 624.459 640.959 624.18 640.219 624.106C639.48 624.032 638.734 624.167 638.072 624.494L639.812 625.461C639.848 624.515 639.541 623.585 638.942 622.835C638.851 622.69 638.728 622.567 638.581 622.474C638.435 622.382 638.268 622.322 638.095 622.3C637.921 622.278 637.745 622.294 637.578 622.347C637.412 622.399 637.26 622.487 637.133 622.604C635.963 623.787 635.74 625.833 637.21 626.927C638.311 627.738 638.85 626.927 640.058 626.741C644.161 626.228 641.767 628.014 640.32 628.073C639.673 628.14 639.018 628.095 638.388 627.939C636.782 627.413 636.682 626.736 638.088 625.908C639.465 626.451 640.058 624.293 638.703 623.757L638.673 623.728Z" fill="#1594DB"/>
<path d="M636.817 627.803C637.764 630.78 633.854 631.762 631.999 632.789C630.697 633.494 629.562 634.455 628.666 635.609C626.726 638.124 626.003 641.323 625.364 644.336C625.071 645.743 627.296 646.338 627.596 644.932C627.948 642.717 628.603 640.558 629.543 638.51C630.929 635.847 632.915 634.954 635.501 633.585C638.088 632.216 639.958 630.095 639.042 627.208C638.611 625.839 636.379 626.427 636.817 627.803Z" fill="#1594DB"/>
<path d="M640.666 626.309C640.116 626.382 639.613 626.652 639.257 627.065C638.901 627.478 638.718 628.004 638.742 628.541C638.742 629.426 639.35 629.992 639.766 630.699C640.752 632.145 641.505 633.728 641.998 635.394C642.367 636.993 642.729 639.858 641.867 641.346C640.274 644.107 637.395 643.578 634.939 643.578C632.63 643.578 630.844 644.322 630.921 641.212C630.968 639.464 632.23 637.693 633.231 636.316L631.122 636.048C631.566 638.32 631.801 640.626 631.822 642.938C631.822 643.973 633.462 644.546 633.97 643.496C635.207 640.98 636.189 638.354 636.902 635.654L634.632 635.356L635.032 641.011C635.038 641.253 635.125 641.485 635.28 641.675C635.434 641.865 635.647 642.002 635.888 642.065C636.129 642.129 636.385 642.116 636.617 642.028C636.85 641.94 637.047 641.782 637.179 641.577C637.449 641.289 637.646 640.946 637.757 640.572C637.834 640.223 637.125 637.864 636.841 638.705L639.104 639.002L639.265 633.63L636.956 633.928C637.444 635.443 637.591 637.041 637.387 638.615C637.241 639.858 639.404 640.141 639.696 638.913L641.144 631.696L639.034 631.956C639.536 632.954 639.674 634.087 639.427 635.17C639.258 636.599 641.567 636.584 641.736 635.17C641.932 633.689 641.687 632.184 641.028 630.833C640.911 630.646 640.741 630.497 640.537 630.403C640.334 630.308 640.107 630.273 639.883 630.302C639.66 630.33 639.449 630.421 639.278 630.563C639.107 630.704 638.982 630.891 638.919 631.1L637.464 638.318L639.735 638.615C639.966 636.842 639.79 635.041 639.219 633.34C639.142 633.084 638.973 632.863 638.741 632.717C638.51 632.571 638.232 632.51 637.959 632.545C637.685 632.58 637.433 632.709 637.249 632.908C637.066 633.107 636.961 633.363 636.956 633.63L636.795 639.002C636.795 640.304 638.665 640.49 639.065 639.3L639.188 638.935C639.242 638.745 639.243 638.545 639.191 638.355C639.14 638.164 639.038 637.99 638.896 637.849C636.502 635.334 636.017 639.337 635.186 640.446L637.341 641.011L636.941 635.356C636.856 634.151 635.009 633.779 634.67 635.059C634.019 637.576 633.117 640.025 631.976 642.373L634.131 642.938C634.106 640.426 633.849 637.921 633.361 635.453C633.161 634.426 631.768 634.471 631.252 635.185C629.713 637.328 627.05 642.008 629.105 644.575C630.898 646.808 636.54 645.944 638.95 645.803C642.752 645.595 644.13 643.266 644.546 639.798C644.744 638.138 644.648 636.457 644.261 634.828C644.053 633.95 641.952 628.385 641.321 628.496C642.783 628.236 642.16 626.078 640.705 626.338L640.666 626.309Z" fill="#1594DB"/>
<path d="M636.194 631.323L629.89 639.367L631.884 640.49L636.502 634.032L634.393 633.169L632.091 641.658C632.029 641.916 632.063 642.187 632.188 642.423C632.312 642.658 632.518 642.844 632.77 642.947C633.022 643.051 633.304 643.064 633.566 642.987C633.827 642.909 634.052 642.744 634.2 642.521C635.248 640.844 636.424 639.245 637.718 637.737L635.794 636.651C635.277 638.573 634.281 640.343 632.892 641.807L634.824 642.893C634.942 641.865 635.225 640.861 635.663 639.917C636.256 638.63 634.377 637.492 633.669 638.786C633.018 639.965 632.274 641.095 631.445 642.164L633.554 642.432L634.023 640.312L631.914 640.044L632.253 641.904C632.309 642.091 632.414 642.261 632.558 642.397C632.702 642.533 632.88 642.631 633.075 642.68C633.269 642.73 633.474 642.73 633.669 642.68C633.864 642.63 634.041 642.531 634.185 642.395C636.137 640.442 637.703 638.16 638.803 635.661H636.818C637.34 636.592 637.706 637.596 637.903 638.637C638.18 639.977 640.02 639.478 640.166 638.34C640.497 635.847 640.666 633.338 640.674 630.825H638.365V635.505C638.365 636.718 640.42 637.075 640.635 635.803C640.788 634.674 641.173 633.586 641.767 632.603H639.743C640.23 633.364 640.496 634.238 640.512 635.133C640.512 635.429 640.634 635.713 640.851 635.922C641.067 636.131 641.361 636.249 641.667 636.249C641.973 636.249 642.267 636.131 642.483 635.922C642.7 635.713 642.822 635.429 642.822 635.133L643.114 633.645H640.89C641.113 634.962 641.959 642.38 638.95 641.51C638.442 641.39 638.295 641.42 638.511 641.591L639.196 640.178L640.805 636.881L638.65 636.316C638.788 637.849 638.934 640.036 637.98 641.346C637.21 642.41 634.839 642.834 633.631 642.209C632.833 641.659 632.151 640.967 631.622 640.17L630.044 641.658C631.322 642.559 633.392 644.769 635.039 644.895C636.294 644.992 637.349 643.987 638.172 643.184C639.436 641.922 640.421 640.425 641.068 638.784C641.715 637.143 642.01 635.392 641.936 633.637C641.936 633.341 641.815 633.057 641.598 632.848C641.382 632.639 641.088 632.521 640.782 632.521C640.476 632.521 640.182 632.639 639.965 632.848C639.749 633.057 639.627 633.341 639.627 633.637V636.182C639.627 636.478 639.749 636.762 639.965 636.971C640.182 637.181 640.476 637.298 640.782 637.298C641.088 637.298 641.382 637.181 641.598 636.971C641.815 636.762 641.936 636.478 641.936 636.182V629.939C641.936 629.643 641.815 629.359 641.598 629.15C641.382 628.941 641.088 628.823 640.782 628.823C640.476 628.823 640.182 628.941 639.965 629.15C639.749 629.359 639.627 629.643 639.627 629.939C639.623 631.436 639.489 632.929 639.227 634.404L641.498 634.701C641.317 632.924 641.232 631.138 641.244 629.352C641.24 629.084 641.137 628.827 640.954 628.627C640.771 628.426 640.519 628.296 640.245 628.26C639.971 628.224 639.692 628.284 639.46 628.43C639.228 628.576 639.058 628.797 638.981 629.054C638.634 630.475 638.211 631.874 637.803 633.265L639.912 632.997L639.75 632.402C639.643 630.981 637.333 630.974 637.441 632.402C637.466 633.005 637.629 633.594 637.918 634.128C638.365 635.036 639.758 634.716 640.027 633.861C640.466 632.462 640.859 631.063 641.205 629.649L638.934 629.352C638.923 631.138 639.008 632.924 639.188 634.701C639.304 635.847 641.213 636.338 641.451 634.999C641.759 633.318 641.921 631.616 641.936 629.91H639.627V636.152H641.936V633.608H639.627C639.763 636.414 638.754 639.161 636.818 641.257C636.518 641.586 636.193 641.895 635.848 642.179C635.301 642.685 634.801 642.611 634.362 641.949C633.269 641.51 632.138 640.379 631.183 639.716C630.229 639.054 628.92 640.364 629.597 641.242C631.368 643.519 634.008 646.056 637.295 644.962C640.751 643.779 641.221 639.255 640.959 636.279C640.874 635.289 639.342 634.619 638.811 635.721C638.041 637.291 637.272 638.853 636.502 640.431C636.233 640.981 635.732 641.74 635.809 642.395C636.063 644.069 638.165 643.794 639.458 643.697C644.469 643.332 643.676 636.465 643.099 633.012C642.906 631.866 641.182 632.045 640.874 633.012C640.63 633.692 640.502 634.406 640.497 635.125H642.806C642.722 633.846 642.352 632.6 641.721 631.472C641.618 631.306 641.471 631.168 641.297 631.072C641.122 630.977 640.925 630.926 640.724 630.926C640.523 630.926 640.326 630.977 640.151 631.072C639.977 631.168 639.83 631.306 639.727 631.472C639.039 632.621 638.574 633.882 638.357 635.192L640.666 635.49V630.81C640.666 630.514 640.545 630.23 640.328 630.021C640.112 629.811 639.818 629.694 639.512 629.694C639.205 629.694 638.912 629.811 638.695 630.021C638.479 630.23 638.357 630.514 638.357 630.81C638.349 633.323 638.18 635.833 637.849 638.325L640.12 638.027C639.859 636.811 639.415 635.638 638.803 634.545C638.7 634.379 638.554 634.241 638.379 634.145C638.205 634.05 638.007 633.999 637.807 633.999C637.606 633.999 637.409 634.05 637.234 634.145C637.059 634.241 636.913 634.379 636.81 634.545C635.806 636.875 634.363 639.005 632.553 640.825L634.485 641.316L634.147 639.456C633.97 638.466 632.522 638.437 632.037 639.188C631.655 639.748 631.395 640.377 631.275 641.037C631.154 641.698 631.176 642.375 631.337 643.027C631.529 644.084 632.915 643.972 633.446 643.295C634.276 642.228 635.019 641.102 635.671 639.925L633.677 638.794C633.145 639.905 632.782 641.086 632.599 642.298C632.461 643.28 633.669 644.307 634.531 643.385C636.186 641.634 637.384 639.527 638.026 637.239C638.311 636.227 636.864 635.267 636.094 636.152C634.678 637.793 633.391 639.534 632.245 641.361L634.354 642.224L636.702 633.764C636.764 633.506 636.73 633.235 636.606 633C636.482 632.764 636.275 632.578 636.023 632.475C635.771 632.372 635.489 632.358 635.228 632.436C634.966 632.514 634.741 632.678 634.593 632.901L629.975 639.367C629.112 640.565 631.091 641.599 631.968 640.49L638.249 632.454C639.142 631.308 637.141 630.222 636.256 631.323H636.194Z" fill="#1594DB"/>
<path d="M734.398 658.179C743.635 652.718 750.978 644.57 759.137 637.754C767.989 630.366 777.28 623.483 786.848 616.965C805.429 604.316 824.942 592.999 844.44 581.712C844.693 581.557 844.873 581.314 844.944 581.033C845.015 580.752 844.971 580.456 844.82 580.206C844.67 579.957 844.425 579.773 844.137 579.694C843.849 579.616 843.541 579.648 843.278 579.785C823.78 591.072 804.259 602.367 785.678 615.038C776.91 620.991 768.351 627.3 760.145 633.997C751.216 641.289 743.265 650.366 733.205 656.252C731.934 656.996 733.097 658.931 734.367 658.179H734.398Z" fill="#1594DB"/>
<path d="M874.252 547.053C864.245 548.035 853.469 550.498 847.311 558.958C841.992 566.235 842.108 578.929 847.103 586.399C852.776 594.889 864.368 595.194 873.374 592.449C882.38 589.703 891.702 584.889 891.617 574.487C891.571 568.906 889.485 563.095 887.184 558.036C885.198 553.668 881.68 549.851 876.353 550.335C874.883 550.469 874.868 552.701 876.353 552.567C883.489 551.927 885.783 560.119 887.476 565.29C889.016 570.119 890.44 575.834 888.023 580.633C885.606 585.432 879.779 587.88 874.798 589.636C869.41 591.526 863.491 592.679 857.864 591.124C846.718 588.111 843.639 574.457 846.849 564.769C850.544 553.609 863.63 550.327 874.29 549.286C875.753 549.144 875.768 546.912 874.29 547.053H874.252Z" fill="#1594DB"/>
<path d="M889.647 633.362C879.64 634.344 868.864 636.807 862.706 645.267C857.387 652.544 857.502 665.238 862.498 672.708C868.171 681.198 879.763 681.503 888.769 678.757C897.775 676.012 907.097 671.198 907.012 660.796C906.966 655.215 904.88 649.404 902.579 644.344C900.593 639.977 897.075 636.16 891.748 636.643C890.278 636.777 890.263 639.009 891.748 638.875C898.884 638.236 901.178 646.428 902.871 651.599C904.411 656.428 905.835 662.142 903.418 666.941C901.001 671.741 895.174 674.189 890.193 675.945C884.805 677.835 878.886 678.988 873.259 677.433C862.113 674.419 859.034 660.766 862.244 651.078C865.939 639.917 879.024 636.636 889.685 635.594C891.148 635.453 891.163 633.221 889.685 633.362H889.647Z" fill="#1594DB"/>
<path d="M859.157 568.785L866.447 576.82C866.591 576.955 866.769 577.051 866.963 577.1C867.157 577.148 867.361 577.147 867.555 577.097C867.749 577.047 867.926 576.949 868.069 576.813C868.212 576.678 868.316 576.508 868.371 576.322C869.911 572.408 869.618 568.353 869.98 564.238C870.379 559.986 871.484 555.823 873.251 551.909C876.803 543.972 882.824 537.301 890.478 532.824C891.748 532.08 890.586 530.145 889.316 530.897C881.769 535.29 875.714 541.719 871.897 549.394C870.028 553.129 868.732 557.107 868.048 561.203C867.278 566.032 867.979 571.091 866.131 575.727L868.063 575.228L860.812 567.207C859.827 566.128 858.203 567.713 859.181 568.785H859.157Z" fill="#1594DB"/>
<path d="M738.116 666.877C777.819 665.706 817.532 665.458 857.256 666.132C858.742 666.132 858.742 663.9 857.256 663.9C817.543 663.216 777.829 663.464 738.116 664.644C736.63 664.689 736.622 666.921 738.116 666.877Z" fill="#1594DB"/>
<path d="M865.554 644.866C879.127 650.015 892.182 656.356 904.557 663.81C905.819 664.554 906.982 662.641 905.719 661.883C893.181 654.337 879.953 647.921 866.201 642.715C864.823 642.187 864.222 644.345 865.593 644.866H865.554Z" fill="#1594DB"/>
<path d="M890.201 634.755C876.438 650.265 868.465 669.795 867.563 690.21C867.501 691.646 869.811 691.646 869.872 690.21C870.747 670.381 878.48 651.409 891.833 636.333C892.795 635.246 891.171 633.662 890.201 634.755Z" fill="#1594DB"/>
<path d="M582.343 658.774L668.377 657.687L678.268 657.561C680.046 657.561 681.824 657.501 683.602 657.494C686.104 657.494 687.79 659.503 687.744 661.958C687.628 667.167 684.241 666.981 679.808 667.167L669.116 667.635L625.579 669.488C617.782 669.823 609.977 670.232 602.179 670.493C595.144 670.701 581.766 668.484 584.891 658.588C585.322 657.211 583.097 656.623 582.658 657.992C581.119 662.859 583.844 667.799 588.231 670.351C594.459 673.967 602.664 672.74 609.538 672.442L662.989 670.098L675.967 669.54C679.292 669.391 683.918 670.046 686.974 668.551C690.561 666.802 691.192 659.86 688.929 656.936C687.767 655.448 686.135 655.314 684.311 655.247C679.523 655.068 674.65 655.373 669.855 655.433L643.206 655.775L582.312 656.519C580.826 656.519 580.826 658.751 582.312 658.751L582.343 658.774Z" fill="#1594DB"/>
<path d="M929.943 932.218C928.003 933.394 925.786 934.056 923.785 935.09C921.784 936.125 919.836 937.68 919.267 939.823C919.054 940.488 919.09 941.204 919.367 941.846C919.865 942.622 920.627 943.207 921.522 943.498C925.588 945.244 929.979 946.169 934.427 946.218C938.876 946.266 943.287 945.437 947.393 943.781C948.838 943.11 950.33 942.538 951.857 942.07C953.74 941.699 955.656 941.509 957.577 941.504C959.596 941.39 961.605 941.142 963.588 940.76C964.586 940.653 965.531 940.273 966.313 939.666C967.027 938.871 967.456 937.874 967.537 936.824C968.448 931.027 967.075 925.111 963.688 920.246C963.262 919.565 962.69 918.979 962.01 918.527C961.182 918.114 960.271 917.878 959.339 917.836C955.491 917.382 951.457 916.548 947.57 916.459C944.784 916.399 943.383 917.679 941.412 919.532C937.34 923.468 934.962 929.19 929.943 932.218Z" fill="#323444"/>
<path d="M986.665 931.667C986.665 935.313 987.119 939.175 989.405 942.084C990.451 943.342 991.717 944.413 993.146 945.247C997.98 948.223 1004.38 949.317 1009.48 946.794C1010.3 946.437 1011.01 945.865 1011.51 945.142C1012.28 943.848 1011.87 942.233 1011.44 940.804L1004.07 916.102C999.304 916.808 992.3 917.307 988.066 919.643C984.995 921.332 986.665 928.408 986.665 931.667Z" fill="#323444"/>
<path d="M925.617 779.558C925.17 780.92 923.554 781.552 922.669 782.698C921.63 784.045 921.737 785.912 922.115 787.549C922.581 789.963 923.753 792.197 925.494 793.985C926.377 794.871 927.467 795.54 928.672 795.936C929.877 796.332 931.163 796.444 932.421 796.262C934.9 795.808 937.04 793.688 937.125 791.255C937.08 790.148 936.835 789.058 936.401 788.033L931.151 773.36C931.13 773.256 931.086 773.158 931.022 773.072C930.959 772.986 930.877 772.914 930.782 772.861C930.584 772.819 930.376 772.854 930.205 772.958C928.965 773.524 926.479 774.119 925.755 775.362C925.032 776.604 926.14 778.211 925.617 779.558Z" fill="#FBB3B2"/>
<path d="M923.161 778.821C925.078 778.531 926.756 777.444 928.55 776.73C930.343 776.016 932.591 775.74 934.1 776.931C934.531 777.273 934.946 777.742 935.508 777.734C934.744 774.096 933.588 770.545 932.06 767.139C932.006 766.976 931.901 766.833 931.76 766.73C931.55 766.647 931.315 766.647 931.105 766.73L925.925 768.039C924.008 768.523 923.785 768.374 923.931 770.197C923.97 771.008 924.401 778.821 923.161 778.821Z" fill="#323444"/>
<path d="M922.592 672.865C921.822 674.011 921.822 675.439 921.822 676.786C921.822 683.371 921.891 689.993 922.9 696.511C923.138 698.074 923.439 699.636 923.593 701.213C923.767 703.409 923.803 705.613 923.7 707.813L922.931 736.46C922.838 739.964 922.654 743.729 920.414 746.482C919.734 747.405 919.415 748.531 919.513 749.659C920.098 756.847 921.33 763.975 922.553 771.081C924.524 770.222 926.677 769.826 928.836 769.925C930.996 770.025 933.1 770.617 934.977 771.654C938.861 759.85 941.009 747.577 941.358 735.195C941.535 729.101 941.266 722.97 942.236 716.95C943.86 706.816 943.198 696.422 942.005 686.228C941.628 682.999 940.827 679.673 938.687 677.173C936.662 674.985 933.964 673.483 930.99 672.887C928.142 672.165 925.594 672.909 922.592 672.865Z" fill="#5B5583"/>
<path opacity="0.1" d="M922.592 672.865C921.822 674.011 921.822 675.439 921.822 676.786C921.822 683.371 921.891 689.993 922.9 696.511C923.138 698.074 923.439 699.636 923.593 701.213C923.767 703.409 923.803 705.613 923.7 707.813L922.931 736.46C922.838 739.964 922.654 743.729 920.414 746.482C919.734 747.405 919.415 748.531 919.513 749.659C920.098 756.847 921.33 763.975 922.553 771.081C924.524 770.222 926.677 769.826 928.836 769.925C930.996 770.025 933.1 770.617 934.977 771.654C938.861 759.85 941.009 747.577 941.358 735.195C941.535 729.101 941.266 722.97 942.236 716.95C943.86 706.816 943.198 696.422 942.005 686.228C941.628 682.999 940.827 679.673 938.687 677.173C936.662 674.985 933.964 673.483 930.99 672.887C928.142 672.165 925.594 672.909 922.592 672.865Z" fill="black"/>
<path d="M931.998 755.94C926.836 781.512 929.654 807.992 940.096 832.013C940.998 833.791 941.63 835.685 941.974 837.638C942.397 841.284 940.658 844.788 939.665 848.315C937.356 856.336 938.687 864.878 940.165 873.085C940.781 876.508 941.415 879.928 942.066 883.345C942.705 886.679 943.321 890.302 941.72 893.323C943.098 898.874 943.914 904.373 945.292 909.923C945.438 910.363 945.482 910.827 945.422 911.285C945.145 912.011 944.656 912.645 944.014 913.108C942.987 914.114 942.249 915.362 941.872 916.728C941.496 918.094 941.494 919.531 941.866 920.898C945.384 918.458 950.287 919.313 954.305 920.898C958.323 922.483 962.28 924.619 966.621 924.619C965.99 919.693 965.382 914.522 967.26 909.901C968.353 907.222 970.277 904.693 970.224 901.828C970.17 899.261 968.545 896.969 968.153 894.432C968.007 892.853 968.069 891.263 968.338 889.7C969.369 880.592 968.199 871.396 967.029 862.303C966.897 860.51 966.46 858.751 965.736 857.095C965.189 856.023 964.373 854.997 964.389 853.799C964.389 852.407 965.551 851.276 965.982 849.952C966.752 847.511 965.336 844.193 967.468 842.682C973.087 838.694 970.932 829.17 970.809 822.436C970.711 816.628 970.454 810.824 970.039 805.025C973.577 814.641 975.023 824.86 974.288 835.041C974.041 838.374 973.587 841.879 974.934 844.959C975.966 847.325 978.013 849.275 978.567 851.782C978.914 853.33 978.668 854.93 978.745 856.507C978.822 858.085 979.376 859.803 980.784 860.599C980.892 867.772 981.554 875.444 981.67 882.616C981.595 886.283 981.904 889.948 982.593 893.554C982.939 894.701 983.13 895.887 983.163 897.081C982.989 898.578 982.579 900.041 981.947 901.419C980.605 905.258 980.254 909.357 980.925 913.357C981.596 917.358 983.268 921.14 985.795 924.373C987.612 921.256 991.399 919.604 995.094 919.343C998.789 919.083 1002.44 919.983 1006.02 920.891C1005.47 916.544 1006.36 912.14 1008.57 908.316C1009.16 907.454 1009.62 906.511 1009.92 905.519C1010.33 903.629 1009.36 901.746 1008.84 899.879C1007.99 896.902 1008.29 893.695 1008.49 890.585C1009.16 880.169 1008.68 869.713 1007.06 859.394C1006.81 857.362 1006.32 855.364 1005.59 853.442C1005.32 852.757 1004.98 852.102 1004.75 851.41C1004.38 850.169 1004.18 848.89 1004.13 847.601L1003.25 835.696C1002.62 827.355 1005.45 819.118 1007.43 810.978C1008.32 807.332 1009.28 803.693 1009.87 799.988C1010.68 794.943 1010.81 789.787 1012 784.809C1013.06 780.345 1014.98 775.992 1015.38 771.416C1015.99 764.325 1012.94 757.472 1009.99 750.969C1008.76 748.29 1004.1 748.558 1001.11 748.082C979.868 744.712 957.5 744.689 937.471 752.286C935.4 753.116 933.534 754.361 931.998 755.94Z" fill="#3C354C"/>
<path d="M947.308 623.877L949.664 632.731C950.304 634.762 950.659 636.867 950.718 638.989C950.743 639.763 950.565 640.53 950.203 641.221C949.815 641.788 949.318 642.278 948.74 642.664C947.131 643.847 946.015 646.608 944.175 647.426C945.122 649.019 946.431 647.984 948.14 648.781C951.149 650.194 953.905 652.226 957.169 652.925C960.248 653.58 963.481 652.962 966.536 652.181C970.87 651.043 975.181 649.473 978.668 646.727C982.154 643.981 984.14 641.556 984.125 637.218C980.276 637.657 976.851 633.899 975.15 630.521C974.56 629.237 974.126 627.891 973.857 626.511L971.794 617.738C969.546 618.214 967.714 619.77 965.567 620.581C963.419 621.392 960.879 621.466 958.493 621.57C954.257 621.756 950.045 622.284 945.9 623.148C945.33 623.259 944.614 623.609 944.753 624.145" fill="#FBB3B2"/>
<path opacity="0.1" d="M947.308 623.877L949.664 632.731C950.304 634.762 950.659 636.867 950.718 638.989C950.743 639.763 950.565 640.53 950.203 641.221C949.815 641.788 949.318 642.278 948.74 642.664C947.131 643.847 946.015 646.608 944.175 647.426C945.122 649.019 946.431 647.984 948.14 648.781C951.149 650.194 953.905 652.226 957.169 652.925C960.248 653.58 963.481 652.962 966.536 652.181C970.87 651.043 975.181 649.473 978.668 646.727C982.154 643.981 984.14 641.556 984.125 637.218C980.276 637.657 976.851 633.899 975.15 630.521C974.56 629.237 974.126 627.891 973.857 626.511L971.794 617.738C969.546 618.214 967.714 619.77 965.567 620.581C963.419 621.392 960.879 621.466 958.493 621.57C954.257 621.756 950.045 622.284 945.9 623.148C945.33 623.259 944.614 623.609 944.753 624.145" fill="black"/>
<path d="M957.423 628.757C968.68 628.757 977.805 619.936 977.805 609.054C977.805 598.173 968.68 589.352 957.423 589.352C946.166 589.352 937.04 598.173 937.04 609.054C937.04 619.936 946.166 628.757 957.423 628.757Z" fill="#FBB3B2"/>
<path d="M963.034 641.535C964.124 639.26 965.698 637.231 967.653 635.583C970.524 633.15 974.449 631.178 975.127 627.547L981.346 634.549C981.684 634.873 981.947 635.264 982.116 635.694C982.194 636.098 982.183 636.513 982.082 636.912C981.981 637.311 981.793 637.685 981.531 638.008C979.992 640.382 977.567 642.078 975.273 643.797C970.015 647.823 964.982 652.115 960.194 656.655C959.983 656.891 959.7 657.058 959.386 657.131C959.088 657.139 958.795 657.058 958.546 656.9C954.415 654.803 950.759 651.93 947.793 648.448C947.57 648.187 947.293 647.89 946.931 647.912C946.713 647.951 946.512 648.052 946.354 648.202C944.283 649.839 942.02 651.796 939.365 651.543C942.805 649.154 944.753 645.166 945.476 641.126C945.619 639.743 945.913 638.379 946.354 637.056C946.582 636.394 946.975 635.797 947.499 635.317C948.022 634.836 948.66 634.488 949.356 634.303C947.678 636.781 948.825 640.293 951.08 642.294C953.271 644.092 955.898 645.323 958.716 645.873C961.333 646.349 962.103 643.485 963.034 641.535Z" fill="#323444"/>
<path d="M936.516 757.965C939.418 758.657 942.166 759.833 944.984 760.704C950.118 762.258 955.522 762.807 960.879 762.318C962.528 762.283 964.131 761.79 965.497 760.897C965.859 760.614 966.19 760.28 966.575 760.019C967.219 759.646 967.917 759.367 968.646 759.193C975.704 757.058 981.616 752.452 987.35 747.943C987.535 747.794 987.743 747.608 987.727 747.37C987.701 747.208 987.62 747.059 987.496 746.946L984.479 743.598C976.566 744.9 968.461 744.409 960.432 744.215C958.784 744.144 957.133 744.187 955.491 744.342C953.905 744.52 952.342 744.907 950.78 745.235C944.845 746.485 938.78 746.961 932.768 747.779C932.347 747.809 931.939 747.931 931.575 748.136C931.321 748.326 931.105 748.558 930.936 748.821L928.827 751.686C928.008 752.649 927.405 753.767 927.056 754.967C926.564 757.199 927.595 757.943 929.558 757.653C931.877 757.325 934.239 757.431 936.516 757.965Z" fill="#323444"/>
<path d="M960.109 653.243C957.754 650.911 955.085 648.896 952.173 647.253C950.997 646.531 949.692 646.027 948.324 645.765C947.636 645.634 946.927 645.65 946.246 645.812C945.565 645.974 944.93 646.278 944.383 646.703C943.698 647.291 943.267 648.109 942.605 648.727C941.772 649.403 940.817 649.925 939.788 650.267C936.284 651.714 932.963 653.544 929.889 655.721C928.214 656.854 926.704 658.2 925.401 659.724C921.914 664.04 921.391 669.91 921.483 675.387C921.553 679.196 925.332 682.024 927.934 684.873C930.374 687.678 932.582 690.663 934.538 693.802C935.939 695.945 937.402 698.266 937.225 700.819C937.078 702.909 935.816 704.874 936.016 706.957C936.085 707.701 936.332 708.386 936.401 709.107C936.54 710.596 935.932 712.084 935.778 713.572C935.57 715.678 936.278 717.768 936.316 719.889C936.288 721.341 936.097 722.785 935.747 724.197C934.269 730.998 932.414 737.836 932.791 744.778L928.527 745.522C928.931 745.905 929.236 746.374 929.417 746.892C929.598 747.41 929.651 747.961 929.571 748.503C929.491 749.044 929.28 749.559 928.955 750.007C928.631 750.455 928.202 750.822 927.703 751.08C934.361 753.23 941.558 752.144 948.617 752.137C954.459 752.137 960.278 752.881 966.113 752.777C971.948 752.672 977.967 751.653 982.778 748.461C984.087 747.598 985.287 746.586 986.665 745.834C988.511 744.91 990.5 744.282 992.554 743.974C996.359 743.273 1000.23 742.939 1004.1 742.977C1005.99 742.977 1008.06 743.052 1009.56 741.95C1011.23 740.73 1011.65 738.52 1011.87 736.519C1012.1 734.406 1012.24 732.285 1012.27 730.164C1012.34 728.513 1012.25 726.86 1012.01 725.224C1011.77 724.028 1011.47 722.845 1011.1 721.682L1008.2 711.801C1007 707.723 1008.67 703.252 1009.03 699.025C1009.11 698.028 1009.13 696.868 1008.33 696.228C1008.05 695.997 1007.66 695.841 1007.56 695.484C1007.52 695.314 1007.52 695.138 1007.55 694.967C1007.58 694.795 1007.65 694.632 1007.75 694.487C1009.29 691.51 1011.6 688.884 1013.71 686.198C1017.25 681.486 1020.54 676.601 1023.56 671.562C1022.61 661.017 1018.02 651.089 1010.52 643.377C1008.98 641.762 1007.22 640.215 1005.06 639.485C1003.65 639.07 1002.19 638.842 1000.72 638.808C994.686 638.414 988.405 638.064 983.147 635.133C982.77 634.88 982.343 634.705 981.893 634.619C980.73 634.493 979.884 635.601 979.129 636.479C977.19 638.712 974.334 639.991 971.825 641.636C967.145 644.709 963.488 648.935 960.109 653.243Z" fill="#5B5583"/>
<path d="M1024.08 674.607C1025.28 678.283 1025.17 682.212 1025.56 686.044C1025.79 688.356 1026.21 690.647 1026.81 692.896C1027.09 694.133 1027.58 695.313 1028.28 696.386C1028.97 697.368 1029.96 698.164 1030.4 699.273C1030.64 700.024 1030.75 700.809 1030.72 701.595L1030.81 706.729C1031.01 709.449 1030.58 712.178 1029.56 714.72L1026.24 724.474C1024.44 729.757 1022.6 735.122 1019.37 739.72C1018.92 740.499 1018.23 741.124 1017.39 741.514C1016.74 741.68 1016.07 741.78 1015.4 741.811C1014.23 742.013 1013.16 742.605 1012.39 743.483C1011.62 744.362 1011.19 745.473 1011.17 746.625C1010.4 745.537 1009.44 744.588 1008.33 743.82L1001.58 738.612C999.274 736.796 996.864 734.951 994.062 733.902C997.831 732.764 1001.18 730.594 1003.69 727.653C1006.21 724.713 1007.79 721.13 1008.24 717.339C1008.24 716.21 1008.5 715.096 1009.01 714.08C1009.57 713.202 1010.61 712.532 1010.69 711.498C1010.78 710.196 1009.26 709.214 1009.26 707.912C1009.26 707.049 1009.92 706.334 1010.21 705.523C1010.48 704.521 1010.48 703.467 1010.21 702.465L1009.28 697.465C1009.23 696.964 1009.07 696.478 1008.82 696.036C1008.47 695.613 1008.08 695.219 1007.66 694.861C1006.06 693.127 1006.77 690.396 1007.66 688.261C1009.71 683.521 1012.36 679.041 1015.53 674.92C1016.66 673.536 1017.71 672.09 1018.66 670.589C1019.48 669.22 1019.66 667.323 1020.53 666.125C1021.63 668.938 1023.14 671.713 1024.08 674.607Z" fill="#5B5583"/>
<path d="M993.824 734.205C993.48 734.452 993.183 734.754 992.946 735.098C992.039 736.199 990.831 737.031 989.459 737.501C990.229 738.037 990.93 738.565 991.653 739.109C997.007 743.105 1001.91 747.637 1006.28 752.628C1006.76 750.954 1009.67 751.073 1010.37 749.473C1010.54 749.016 1010.59 748.526 1010.53 748.045C1010.38 745.538 1010.01 743.049 1009.42 740.604C1009.19 739.346 1008.66 738.155 1007.88 737.122C1006.8 735.864 1005.12 735.262 1003.52 734.741C1001.1 733.922 996.287 732.769 993.824 734.205Z" fill="#323444"/>
<path d="M984.202 740.056C981.893 741.707 979.868 743.776 977.274 744.907C975.442 745.711 973.356 746.06 971.755 747.258C972.625 749.111 974.888 750.071 976.989 749.996C979.093 749.797 981.109 749.082 982.847 747.92C984.225 747.102 985.842 746.15 987.343 746.722C987.573 747.853 986.573 748.917 986.573 750.063C986.573 751.209 987.558 752.042 988.528 752.645C993.146 755.525 999.089 755.287 1004.59 754.952C1004.91 754.963 1005.22 754.874 1005.48 754.699C1005.6 754.564 1005.69 754.408 1005.74 754.24C1005.8 754.071 1005.82 753.893 1005.81 753.717C1005.88 752.541 1005.91 751.373 1005.92 750.197C1006.07 749.249 1005.94 748.278 1005.55 747.398C1005.15 746.517 1004.51 745.764 1003.68 745.227C1000.7 742.745 997.476 740.54 994.062 738.642C990.676 736.745 987.242 737.868 984.202 740.056Z" fill="#FBB3B2"/>
<path d="M964.581 600.816C961.164 601.211 958.677 603.793 959.024 606.598C959.37 609.403 962.418 611.338 965.836 610.936C969.254 610.534 971.74 607.96 971.393 605.162C971.047 602.364 967.999 600.422 964.581 600.816ZM965.744 610.162C962.849 610.497 960.271 608.852 959.971 606.486C959.67 604.12 961.787 601.933 964.674 601.598C967.56 601.263 970.146 602.907 970.447 605.273C970.747 607.64 968.63 609.827 965.744 610.162Z" fill="#3C354C"/>
<path d="M947.924 602.754C944.506 603.149 942.02 605.731 942.367 608.528C942.713 611.326 945.761 613.268 949.179 612.874C952.596 612.479 955.083 609.897 954.736 607.092C954.39 604.287 951.342 602.36 947.924 602.754ZM949.086 612.092C946.192 612.427 943.614 610.783 943.321 608.424C943.029 606.065 945.13 603.87 948.024 603.528C950.918 603.186 953.497 604.838 953.79 607.204C954.082 609.57 951.973 611.757 949.086 612.092Z" fill="#3C354C"/>
<path d="M935.554 604.188L942.982 605.72L942.251 607.61L935.246 605.624L935.554 604.188Z" fill="#3C354C"/>
<path d="M976.959 599.383L970.108 602.575L971.286 604.242L977.605 600.707L976.959 599.383Z" fill="#3C354C"/>
<path d="M954.051 605.247L959.262 604.645L958.993 605.895L954.521 606.185L954.051 605.247Z" fill="#3C354C"/>
<path d="M943.944 603.557C944.435 602.537 944.697 601.429 944.714 600.305C944.732 599.632 944.852 598.965 945.068 598.326C945.447 597.513 946.022 596.801 946.746 596.25C949.148 594.285 952.589 593.274 955.983 593.132C959.685 592.968 963.367 593.737 966.667 595.364C967.675 595.821 968.578 596.469 969.323 597.269C970.4 598.542 970.631 600.186 971.717 601.443C972.457 602.206 973.389 602.772 974.422 603.084C975.455 603.397 976.554 603.447 977.613 603.229C977.99 601.934 977.497 600.565 977.69 599.241C977.993 598.106 978.403 597 978.914 595.937C980.107 592.537 978.367 588.593 974.78 586.562C973.526 585.818 972.04 585.334 971.101 584.33C970.162 583.325 969.939 582.284 969.292 581.279C967.575 578.623 963.134 577.38 959.755 578.608C958.693 578.995 957.754 579.583 956.676 579.999C954.675 580.796 952.396 580.937 950.195 581.205C948.025 581.399 945.903 581.937 943.914 582.797C942.012 583.705 940.419 585.163 939.98 586.904C939.772 587.708 939.819 588.541 939.611 589.337C938.549 593.378 931.69 595.342 931.305 599.464C931.167 600.952 932.006 602.381 933.053 603.594C933.776 604.42 935.508 606.63 936.732 606.949C937.956 607.269 938.887 606.146 940.057 605.759C941.905 605.201 943.021 605.082 943.944 603.557Z" fill="#CBCEDA"/>
<path d="M1030.78 865.621C1030.78 903.003 1055.04 933.256 1085.02 933.256L1030.78 865.621Z" fill="#46455B"/>
<path d="M1085.02 933.265C1085.02 895.46 1112.1 864.871 1145.56 864.871L1085.02 933.265Z" fill="#1594DB"/>
<path d="M1050.44 869.016C1050.44 904.53 1065.91 933.265 1085.02 933.265L1050.44 869.016Z" fill="#1594DB"/>
<path d="M1085.02 933.265C1085.02 884.96 1116.32 845.867 1154.99 845.867L1085.02 933.265Z" fill="#46455B"/>
<path opacity="0.1" d="M1082.68 946.182C1090.12 946.182 1096.16 945.196 1096.16 943.98C1096.16 942.763 1090.12 941.777 1082.68 941.777C1075.23 941.777 1069.19 942.763 1069.19 943.98C1069.19 945.196 1075.23 946.182 1082.68 946.182Z" fill="#1594DB"/>
<path d="M1073.62 933.74C1073.62 933.74 1081.31 933.51 1083.62 931.917C1085.93 930.325 1095.45 928.413 1096.03 930.972C1096.61 933.532 1107.58 943.703 1098.9 943.77C1090.23 943.837 1078.72 942.461 1076.41 941.099C1074.1 939.737 1073.62 933.74 1073.62 933.74Z" fill="#A8A8A8"/>
<path opacity="0.2" d="M1099.06 942.879C1090.38 942.946 1078.89 941.569 1076.57 940.208C1074.81 939.173 1074.11 935.446 1073.87 933.734H1073.62C1073.62 933.734 1074.1 939.732 1076.42 941.093C1078.73 942.455 1090.23 943.831 1098.91 943.764C1101.42 943.764 1102.28 942.879 1102.23 941.607C1101.89 942.38 1100.97 942.864 1099.06 942.879Z" fill="black"/>
<path d="M442.312 887.469C442.312 917.231 461.609 941.279 485.463 941.279L442.312 887.469Z" fill="#46455B"/>
<path d="M485.463 941.281C485.463 911.205 507.016 886.867 533.626 886.867L485.463 941.281Z" fill="#1594DB"/>
<path d="M457.945 890.176C457.945 918.45 470.261 941.293 485.463 941.293L457.945 890.176Z" fill="#1594DB"/>
<path d="M485.463 941.279C485.463 902.848 510.364 871.746 541.131 871.746L485.463 941.279Z" fill="#46455B"/>
<path opacity="0.1" d="M483.593 951.563C489.519 951.563 494.323 950.777 494.323 949.807C494.323 948.837 489.519 948.051 483.593 948.051C477.667 948.051 472.863 948.837 472.863 949.807C472.863 950.777 477.667 951.563 483.593 951.563Z" fill="#1594DB"/>
<path d="M476.388 941.66C476.388 941.66 482.507 941.474 484.347 940.171C486.187 938.869 493.769 937.381 494.223 939.427C494.677 941.474 503.421 949.554 496.532 949.606C489.643 949.658 480.475 948.564 478.636 947.486C476.796 946.407 476.388 941.66 476.388 941.66Z" fill="#A8A8A8"/>
<path opacity="0.2" d="M496.632 948.957C489.704 949.009 480.575 947.915 478.736 946.829C477.335 946.01 476.781 943.041 476.588 941.68H476.388C476.388 941.68 476.773 946.449 478.612 947.536C480.452 948.622 489.604 949.708 496.509 949.656C498.503 949.656 499.195 948.957 499.157 947.937C498.88 948.533 498.118 948.912 496.632 948.957Z" fill="black"/>
</g>
<defs>
<clipPath id="clip0">
<rect width="730" height="564" fill="white" transform="translate(425 411)"/>
</clipPath>
</defs>
</svg>
