<svg width="375" height="257" viewBox="0 0 375 257" fill="none" xmlns="http://www.w3.org/2000/svg">
<path d="M273.986 188.495H66.1195C64.2674 188.493 62.4917 187.829 61.182 186.65C59.8724 185.47 59.1357 183.871 59.1335 182.203V29.7585C59.1357 28.0904 59.8724 26.4911 61.182 25.3116C62.4917 24.132 64.2674 23.4685 66.1195 23.4666H273.986C275.838 23.4685 277.614 24.132 278.923 25.3116C280.233 26.4911 280.97 28.0904 280.972 29.7585V182.203C280.97 183.871 280.233 185.47 278.923 186.65C277.614 187.829 275.838 188.493 273.986 188.495Z" fill="#262626"/>
<path d="M70.8327 27.9451C69.0486 27.9469 67.3382 28.5861 66.0766 29.7224C64.8151 30.8586 64.1055 32.3992 64.1035 34.0061V177.959C64.1056 179.566 64.8153 181.106 66.0768 182.242C67.3383 183.378 69.0487 184.017 70.8327 184.019H213.109C229.784 184.002 245.77 178.029 257.561 167.409C269.352 156.79 275.984 142.391 276.003 127.373V34.0061C276.001 32.3992 275.291 30.8586 274.03 29.7224C272.768 28.5861 271.058 27.9469 269.274 27.9451L70.8327 27.9451Z" fill="white"/>
<path d="M236.081 92.687H198.39C197.604 92.6862 196.851 92.4046 196.295 91.904C195.739 91.4033 195.426 90.7245 195.425 90.0165V73.1204C195.426 72.4124 195.739 71.7336 196.295 71.233C196.851 70.7323 197.604 70.4507 198.39 70.45H236.081C236.867 70.4507 237.621 70.7323 238.177 71.233C238.733 71.7336 239.045 72.4124 239.046 73.1204C241.379 79.0996 241.71 84.7809 239.046 90.0166C239.045 90.7246 238.733 91.4034 238.177 91.904C237.621 92.4046 236.867 92.6862 236.081 92.687V92.687Z" fill="#E6E6E6"/>
<path d="M231.616 91.054H199.594C198.926 91.0534 198.286 90.8141 197.813 90.3888C197.341 89.9634 197.075 89.3867 197.075 88.7852V74.4302C197.075 73.8287 197.341 73.252 197.813 72.8266C198.286 72.4013 198.926 72.162 199.594 72.1614H231.616C232.284 72.162 232.924 72.4013 233.397 72.8266C233.869 73.252 234.135 73.8287 234.135 74.4302C236.296 79.5426 236.644 84.3802 234.135 88.7852C234.135 89.3867 233.869 89.9634 233.397 90.3888C232.924 90.8141 232.284 91.0534 231.616 91.054V91.054Z" fill="white"/>
<path d="M229.889 101.538H204.499C203.752 101.539 203.035 101.272 202.506 100.798C201.977 100.323 201.679 99.678 201.678 99.0052C201.676 98.3325 201.972 97.6869 202.499 97.2102C203.026 96.7335 203.741 96.4649 204.488 96.4634H229.889C230.635 96.4647 231.35 96.7325 231.878 97.2082C232.405 97.6839 232.701 98.3285 232.701 99.0005C232.701 99.6726 232.405 100.317 231.878 100.793C231.35 101.269 230.635 101.536 229.889 101.538V101.538Z" fill="#E6E6E6"/>
<path d="M214.497 76.1704C214.241 76.1712 213.996 76.2602 213.815 76.4179C213.634 76.5757 213.532 76.7894 213.532 77.0123V86.1256C213.532 86.2728 213.576 86.4174 213.66 86.5449C213.745 86.6725 213.866 86.7785 214.012 86.8525C214.158 86.9264 214.324 86.9656 214.493 86.9662C214.662 86.9668 214.828 86.9287 214.975 86.8558L224.214 82.2693C224.362 82.1957 224.485 82.0891 224.571 81.9604C224.657 81.8317 224.702 81.6855 224.701 81.5368C224.701 81.388 224.655 81.2421 224.568 81.1138C224.482 80.9855 224.358 80.8795 224.209 80.8066L214.971 76.2795C214.827 76.2082 214.663 76.1706 214.497 76.1704V76.1704Z" fill="#F00404"/>
<path d="M238.171 77.7406C238.271 78.2116 238.486 78.657 238.799 79.0454C239.111 79.4338 239.515 79.7557 239.98 79.9884C240.446 80.2212 240.963 80.3591 241.494 80.3925C242.026 80.4259 242.559 80.354 243.056 80.1818L258.084 95.9272L259.986 90.1147L245.087 75.7093C244.711 74.9762 244.049 74.393 243.227 74.0702C242.405 73.7473 241.48 73.7073 240.627 73.9577C239.775 74.2081 239.054 74.7315 238.601 75.4287C238.148 76.1259 237.995 76.9485 238.171 77.7406L238.171 77.7406Z" fill="#FFB8B8"/>
<path d="M298.736 252.086H293.763L291.397 234.809H298.737L298.736 252.086Z" fill="#FFB6B6"/>
<path d="M298.603 250.623L293.293 248.677L293.141 248.621L290.209 250.623C288.554 250.623 286.967 251.215 285.796 252.269C284.626 253.324 283.968 254.753 283.968 256.244V256.427H300.003V250.623H298.603Z" fill="#2F2E41"/>
<path d="M334.213 252.086H329.24L326.874 234.809H334.214L334.213 252.086Z" fill="#FFB6B6"/>
<path d="M334.081 250.623L328.771 248.677L328.619 248.621L325.687 250.623C324.032 250.623 322.444 251.215 321.274 252.269C320.103 253.324 319.446 254.753 319.445 256.244V256.427H335.48V250.623H334.081Z" fill="#2F2E41"/>
<path d="M322.476 148.915C322.476 148.915 328.714 154.76 328.714 159.562C328.714 164.365 327.154 170.959 328.714 172.402C330.273 173.845 332.222 175.601 329.883 177.708C327.544 179.815 326.374 180.868 327.934 182.273C329.493 183.677 328.714 208.257 328.714 208.257L336.901 241.263H326.586L313.509 208.257L310 180.868L298.653 207.203L299.906 241.546L289.123 241.263L284.659 204.745C284.659 204.745 291.287 170.008 290.117 169.117C288.948 168.227 290.117 166.43 290.117 166.43L293.236 153.128L322.476 148.915Z" fill="#2F2E41"/>
<path d="M310.263 107.474C310.263 107.474 312.384 99.9463 302.613 97.788C292.841 95.6298 264.909 92.857 264.909 92.857L250.792 79.366L246.009 85.6224L261.834 103.334L299.329 110.27L310.263 107.474Z" fill="#3F3D56"/>
<path d="M248.334 85.1612C248.772 84.6496 249.115 84.0773 249.349 83.4665L251.374 78.9863L250.848 78.9666C250.121 78.8433 249.373 78.8599 248.654 79.0152C247.934 79.1705 247.259 79.461 246.673 79.8676C246.087 80.2743 245.602 80.7879 245.252 81.3749C244.902 81.9618 244.693 82.6088 244.639 83.2735C244.573 83.8485 244.688 84.4286 244.97 84.9477C245.114 85.205 245.324 85.428 245.582 85.5983C245.839 85.7687 246.139 85.8816 246.454 85.9279C246.813 85.9451 247.171 85.8845 247.498 85.7511C247.825 85.6176 248.112 85.4153 248.334 85.1612V85.1612Z" fill="#E6E6E6"/>
<path d="M291.246 154.922L290.076 162.558C290.076 162.558 292.415 164.821 293.585 164.538C294.755 164.255 299.043 162.609 299.043 162.609C299.043 162.609 304.111 165.104 306.84 165.387C309.569 165.669 323.994 163.973 324.384 163.124C324.774 162.276 329.305 158.954 329.305 158.954L327.503 149.266L291.246 154.922Z" fill="#E6E6E6"/>
<path d="M329.23 128.208C329.23 128.208 328.239 135.572 329.019 136.249C329.799 136.923 328.239 141.19 326.68 143.999C325.12 146.808 327.849 147.159 327.849 149.266C327.849 151.373 329.019 159.098 329.019 159.098C329.019 159.098 316.933 159.8 314.984 158.044C313.035 156.288 309.916 157.693 305.627 161.556C301.339 165.418 292.025 162.258 290.076 160.502C288.126 158.746 291.592 152.426 292.762 151.201C293.932 149.975 291.635 151.394 290.466 147.51C289.296 143.627 291.592 143.999 293.542 142.243C295.491 140.487 293.542 137.327 291.982 134.167C290.423 131.007 291.592 107.481 291.592 101.863C291.592 96.2445 300.169 95.5422 300.169 95.5422L303.565 91.6973L306.06 88.8707L310.949 88.6951L311.078 88.6916L315.807 88.5195L318.103 90.9283L323.171 96.2445L329.019 97.2979C333.697 98.7024 332.528 107.481 332.528 107.481L329.23 128.208Z" fill="#3F3D56"/>
<path d="M310.708 87.1719C316.243 87.1719 320.729 83.1308 320.729 78.1459C320.729 73.161 316.243 69.1199 310.708 69.1199C305.173 69.1199 300.687 73.161 300.687 78.1459C300.687 83.1308 305.173 87.1719 310.708 87.1719Z" fill="#FFB6B6"/>
<path d="M322.327 75.1096C319.571 73.5871 319.924 69.6062 317.268 68.216C315.948 67.5307 314.464 67.1427 312.942 67.0851C311.419 67.0276 309.904 67.3021 308.525 67.8853C306.654 67.1645 304.413 67.7397 302.917 69.0413C301.42 70.3429 300.61 72.2631 300.372 74.1941C300.199 76.1343 300.354 78.0868 300.83 79.9853C300.979 79.2225 301.128 78.4598 301.276 77.697L309.177 76.1418C308.477 76.7078 307.778 77.2737 307.078 77.8397C310.656 78.5733 314.411 78.0445 317.569 76.362C321.008 77.7507 320.385 80.8694 317.366 85.0083C318.536 86.7639 325.468 76.8444 322.327 75.1096Z" fill="#2F2E41"/>
<path d="M318.103 90.9284C318.08 90.9448 318.057 90.96 318.033 90.9741C317.207 91.4177 316.261 91.6485 315.3 91.6412C314.041 91.7358 312.792 91.3829 311.818 90.658C311.308 90.2226 309.276 91.1426 307.943 91.6517C306.545 92.1738 304.976 92.1901 303.565 91.6974L306.06 88.8707L310.172 88.0496H311.199L315.807 88.5196L318.103 90.9284Z" fill="#E6E6E6"/>
<path d="M218.363 71.9836H217.336V5.84912H257.713V6.7738H218.363V71.9836Z" fill="#3F3D56"/>
<path d="M289.115 0H261.908C260.138 0 258.441 0.633241 257.189 1.76041C255.938 2.88759 255.235 4.41636 255.235 6.01042C255.235 7.60448 255.938 9.13326 257.189 10.2604C258.441 11.3876 260.138 12.0208 261.908 12.0208H289.115C290.885 12.0208 292.582 11.3876 293.833 10.2604C295.085 9.13326 295.788 7.60448 295.788 6.01042C295.788 4.41636 295.085 2.88759 293.833 1.76041C292.582 0.633241 290.885 0 289.115 0V0Z" fill="#1BB978"/>
<path d="M143.359 93.2643L170.261 87.6575L177.983 86.048C178.949 85.8467 178.547 84.5074 177.581 84.7088L150.679 90.3157L142.958 91.9251C141.992 92.1264 142.393 93.4657 143.359 93.2643H143.359Z" fill="#1594DB"/>
<path d="M171.138 78.6625L185.54 84.6291C186.031 84.7822 186.492 85.0067 186.903 85.2936C187.3 85.6443 187.011 85.9816 186.686 86.287C185.717 87.1023 184.693 87.8633 183.621 88.5658L177.485 93.0585C176.715 93.6225 177.802 94.6066 178.565 94.0479L183.909 90.1349L186.581 88.1784C187.338 87.6241 188.259 87.0585 188.564 86.1754C189.203 84.3203 186.68 83.5827 185.279 83.0019L179.007 80.4036L171.923 77.4683C171.03 77.0983 170.239 78.2897 171.138 78.6625V78.6625Z" fill="#1594DB"/>
<path d="M369.876 124.084C367.311 122.518 364.194 121.936 361.147 121.738C357.685 121.568 354.214 121.572 350.752 121.749C347.155 121.877 343.566 122.112 339.983 122.452C336.407 122.793 332.845 123.24 329.298 123.793C326.122 124.238 322.98 124.857 319.888 125.648C316.961 126.377 314.205 127.576 311.75 129.187C309.596 130.646 307.94 132.62 306.969 134.885C306.016 137.009 305.854 139.355 306.507 141.569C306.855 142.644 307.451 143.642 308.256 144.496C309.187 145.433 310.289 146.219 311.515 146.819C314.06 148.128 316.944 148.915 319.246 150.591C319.853 151.029 320.406 151.525 320.896 152.069C321.229 152.49 321.689 152.816 322.222 153.009C322.727 153.167 323.273 153.188 323.79 153.068C324.308 152.948 324.775 152.692 325.132 152.334C325.593 151.766 325.977 151.15 326.277 150.5L327.491 148.39C327.573 148.205 327.674 148.028 327.795 147.862C327.886 147.765 327.723 147.864 327.754 147.839C327.771 147.824 327.807 147.825 327.826 147.814C327.927 147.769 328.032 147.732 328.14 147.705C329.263 147.32 330.391 146.946 331.525 146.584C335.708 145.242 339.942 144.004 344.242 143.001C346.455 142.467 348.699 142.044 350.965 141.735C353.899 141.358 356.877 141.402 359.825 141.145C362.998 140.868 366.272 140.289 368.994 138.715C371.244 137.484 372.977 135.615 373.923 133.402C374.333 132.347 374.473 131.222 374.334 130.112C373.98 127.599 372.158 125.477 369.876 124.084Z" fill="#E6E6E6"/>
<path d="M364.625 125.496C362.307 124.081 359.49 123.555 356.737 123.376C353.608 123.223 350.472 123.226 347.343 123.386C344.093 123.502 340.849 123.714 337.612 124.021C334.38 124.33 331.161 124.733 327.955 125.233C325.086 125.635 322.246 126.195 319.452 126.909C316.807 127.568 314.316 128.652 312.099 130.107C310.152 131.426 308.655 133.21 307.777 135.257C306.916 137.176 306.77 139.296 307.36 141.296C307.675 142.268 308.213 143.17 308.941 143.941C309.782 144.788 310.778 145.498 311.886 146.041C314.186 147.224 316.792 147.935 318.872 149.45C319.42 149.846 319.92 150.294 320.363 150.785C320.664 151.166 321.08 151.46 321.561 151.634C322.018 151.778 322.511 151.797 322.979 151.688C323.447 151.579 323.869 151.349 324.191 151.025C324.608 150.511 324.955 149.955 325.226 149.367L326.323 147.46C326.397 147.294 326.489 147.134 326.598 146.984C326.68 146.895 326.533 146.986 326.561 146.962C326.576 146.95 326.608 146.95 326.626 146.94C326.716 146.899 326.811 146.866 326.909 146.842C327.924 146.493 328.944 146.156 329.968 145.829C333.748 144.615 337.574 143.497 341.46 142.591C343.46 142.108 345.488 141.726 347.536 141.446C350.187 141.106 352.879 141.146 355.542 140.913C358.41 140.663 361.369 140.14 363.828 138.718C365.861 137.605 367.428 135.916 368.282 133.916C368.652 132.963 368.779 131.947 368.654 130.943C368.334 128.673 366.687 126.755 364.625 125.496Z" fill="white"/>
<path d="M359.769 128.053L321.988 134.329C321.88 134.348 321.769 134.347 321.661 134.327C321.553 134.306 321.451 134.267 321.36 134.211C321.269 134.156 321.191 134.084 321.131 134.001C321.071 133.918 321.03 133.826 321.009 133.728C320.989 133.631 320.99 133.531 321.013 133.434C321.036 133.337 321.08 133.245 321.142 133.163C321.204 133.082 321.284 133.012 321.376 132.958C321.468 132.904 321.571 132.867 321.68 132.849L321.684 132.848L359.466 126.572C359.574 126.554 359.685 126.556 359.792 126.576C359.9 126.597 360.001 126.636 360.092 126.692C360.182 126.748 360.26 126.82 360.319 126.903C360.379 126.986 360.42 127.079 360.44 127.176C360.46 127.273 360.458 127.373 360.435 127.47C360.412 127.566 360.369 127.658 360.306 127.739C360.244 127.821 360.165 127.89 360.072 127.944C359.98 127.998 359.877 128.035 359.769 128.053V128.053Z" fill="#E6E6E6"/>
<path d="M360.7 132.597L322.919 138.873C322.811 138.892 322.7 138.891 322.592 138.871C322.484 138.851 322.382 138.812 322.291 138.756C322.2 138.7 322.123 138.629 322.062 138.546C322.002 138.463 321.961 138.37 321.941 138.273C321.92 138.175 321.922 138.075 321.944 137.978C321.967 137.881 322.011 137.789 322.073 137.708C322.135 137.626 322.215 137.556 322.307 137.502C322.399 137.448 322.502 137.411 322.611 137.393L322.615 137.393L360.397 131.116C360.505 131.099 360.616 131.1 360.723 131.121C360.831 131.141 360.932 131.181 361.023 131.237C361.113 131.293 361.19 131.364 361.25 131.447C361.31 131.53 361.351 131.623 361.371 131.72C361.391 131.818 361.389 131.917 361.366 132.014C361.343 132.111 361.299 132.202 361.237 132.284C361.175 132.365 361.096 132.435 361.003 132.489C360.911 132.542 360.808 132.579 360.7 132.597V132.597Z" fill="#E6E6E6"/>
<path d="M328.252 142.686L323.849 143.418C323.631 143.453 323.407 143.41 323.225 143.296C323.043 143.183 322.918 143.009 322.878 142.814C322.838 142.618 322.886 142.415 323.011 142.251C323.136 142.087 323.328 141.974 323.546 141.937L327.949 141.206C328.166 141.17 328.391 141.214 328.573 141.327C328.755 141.44 328.88 141.614 328.92 141.81C328.96 142.006 328.912 142.208 328.787 142.373C328.662 142.537 328.469 142.65 328.252 142.686V142.686Z" fill="#E6E6E6"/>
<path d="M325.062 161.58C326.992 161.259 328.268 159.591 327.912 157.853C327.556 156.115 325.703 154.965 323.773 155.286C321.844 155.607 320.568 157.275 320.924 159.013C321.28 160.751 323.132 161.9 325.062 161.58Z" fill="#D1D3D4"/>
<path d="M129.535 91.8312H97.2634C95.7653 91.8296 94.3291 91.2929 93.2698 90.3388C92.2105 89.3847 91.6146 88.0911 91.6128 86.7418V67.5859C91.6146 66.2366 92.2105 64.9431 93.2698 63.989C94.3291 63.0349 95.7653 62.4982 97.2634 62.4966H129.535C131.033 62.4982 132.469 63.0349 133.528 63.989C134.588 64.9431 135.184 66.2366 135.185 67.5859V86.7419C135.184 88.0912 134.588 89.3847 133.528 90.3388C132.469 91.2929 131.033 91.8296 129.535 91.8312V91.8312Z" fill="#E6E6E6"/>
<path d="M125.988 90.799H97.9022C96.5984 90.7976 95.3484 90.3305 94.4265 89.5001C93.5045 88.6697 92.9859 87.5439 92.9844 86.3696V69.6979C92.9859 68.5236 93.5045 67.3978 94.4265 66.5674C95.3484 65.737 96.5984 65.2699 97.9022 65.2686H125.988C127.292 65.2699 128.542 65.737 129.464 66.5674C130.386 67.3978 130.905 68.5236 130.906 69.6979V86.3696C130.905 87.5439 130.386 88.6698 129.464 89.5001C128.542 90.3305 127.292 90.7976 125.988 90.799V90.799Z" fill="white"/>
<path d="M134.08 109.089H92.6717C92.4159 109.089 92.1707 108.997 91.99 108.834C91.8092 108.671 91.7078 108.45 91.7078 108.219C91.7078 107.989 91.8092 107.768 91.99 107.604C92.1707 107.441 92.4159 107.349 92.6717 107.349H134.08C134.336 107.349 134.581 107.441 134.762 107.604C134.942 107.768 135.044 107.989 135.044 108.219C135.044 108.45 134.942 108.671 134.762 108.834C134.581 108.997 134.336 109.089 134.08 109.089V109.089Z" fill="#E6E6E6"/>
<path d="M134.08 104.117H92.6717C92.4159 104.116 92.1707 104.024 91.99 103.861C91.8092 103.698 91.7078 103.477 91.7078 103.246C91.7078 103.016 91.8092 102.795 91.99 102.632C92.1707 102.469 92.4159 102.377 92.6717 102.376H134.08C134.336 102.377 134.581 102.469 134.762 102.632C134.942 102.795 135.044 103.016 135.044 103.246C135.044 103.477 134.942 103.698 134.762 103.861C134.581 104.024 134.336 104.116 134.08 104.117V104.117Z" fill="#E6E6E6"/>
<path d="M134.08 114.062H92.6718C92.4155 114.062 92.1697 113.97 91.9886 113.807C91.8074 113.644 91.7056 113.423 91.7056 113.192C91.7056 112.961 91.8074 112.74 91.9886 112.576C92.1697 112.413 92.4155 112.322 92.6718 112.322H134.08C134.336 112.322 134.582 112.413 134.763 112.576C134.944 112.74 135.046 112.961 135.046 113.192C135.046 113.423 134.944 113.644 134.763 113.807C134.582 113.97 134.336 114.062 134.08 114.062Z" fill="#E6E6E6"/>
<path d="M134.08 119.035H92.6718C92.4155 119.035 92.1697 118.943 91.9886 118.78C91.8074 118.617 91.7056 118.395 91.7056 118.164C91.7056 117.934 91.8074 117.712 91.9886 117.549C92.1697 117.386 92.4155 117.294 92.6718 117.294H134.08C134.336 117.294 134.582 117.386 134.763 117.549C134.944 117.712 135.046 117.934 135.046 118.164C135.046 118.395 134.944 118.617 134.763 118.78C134.582 118.943 134.336 119.035 134.08 119.035V119.035Z" fill="#E6E6E6"/>
<path d="M134.08 124.007H92.6718C92.4155 124.007 92.1697 123.916 91.9886 123.752C91.8074 123.589 91.7056 123.368 91.7056 123.137C91.7056 122.906 91.8074 122.685 91.9886 122.522C92.1697 122.359 92.4155 122.267 92.6718 122.267H134.08C134.336 122.267 134.582 122.359 134.763 122.522C134.944 122.685 135.046 122.906 135.046 123.137C135.046 123.368 134.944 123.589 134.763 123.752C134.582 123.916 134.336 124.007 134.08 124.007Z" fill="#E6E6E6"/>
<path d="M134.08 128.98H92.6717C92.4159 128.979 92.1707 128.888 91.99 128.724C91.8092 128.561 91.7078 128.34 91.7078 128.11C91.7078 127.879 91.8092 127.658 91.99 127.495C92.1707 127.332 92.4159 127.24 92.6717 127.24H134.08C134.336 127.24 134.581 127.332 134.762 127.495C134.942 127.658 135.044 127.879 135.044 128.11C135.044 128.34 134.942 128.561 134.762 128.724C134.581 128.888 134.336 128.979 134.08 128.98V128.98Z" fill="#E6E6E6"/>
<path d="M111.306 117.576H112.332V153.196H38.0754V152.271H111.306V117.576Z" fill="#3F3D56"/>
<path d="M6.67331 159.045H33.8799C35.6498 159.045 37.3471 158.412 38.5986 157.285C39.8501 156.157 40.5532 154.629 40.5532 153.035C40.5532 151.441 39.8501 149.912 38.5986 148.785C37.3471 147.657 35.6498 147.024 33.8799 147.024H6.67331C4.90344 147.024 3.20606 147.657 1.95457 148.785C0.703082 149.912 0 151.441 0 153.035C0 154.629 0.703082 156.157 1.95457 157.285C3.20606 158.412 4.90344 159.045 6.67331 159.045Z" fill="#1BB978"/>
<path d="M112.534 120.26C115.921 120.26 118.666 117.787 118.666 114.737C118.666 111.687 115.921 109.214 112.534 109.214C109.147 109.214 106.402 111.687 106.402 114.737C106.402 117.787 109.147 120.26 112.534 120.26Z" fill="#1BB978"/>
<path d="M144.229 116.272C153.233 117.995 150.942 118.331 159.946 120.055L167.698 121.539C168.668 121.724 168.934 120.358 167.963 120.172C158.96 118.449 161.25 118.112 152.247 116.389L144.495 114.905C143.525 114.719 143.259 116.086 144.229 116.272H144.229Z" fill="#1594DB"/>
<path d="M164.966 112.239L175.213 123.133C175.586 123.459 175.898 123.837 176.135 124.254C176.331 124.723 175.91 124.919 175.473 125.072C174.212 125.441 172.927 125.741 171.625 125.969L163.955 127.702C162.992 127.919 163.515 129.225 164.468 129.009L171.149 127.5L174.489 126.745C175.435 126.532 176.536 126.37 177.226 125.686C178.676 124.249 176.738 122.619 175.74 121.559L171.278 116.815L166.238 111.456C165.602 110.78 164.326 111.558 164.966 112.239V112.239Z" fill="#1594DB"/>
<path d="M197.454 159.727C205.33 159.727 211.715 153.976 211.715 146.883C211.715 139.789 205.33 134.039 197.454 134.039C189.578 134.039 183.194 139.789 183.194 146.883C183.194 153.976 189.578 159.727 197.454 159.727Z" fill="#E6E6E6"/>
<path d="M196.064 158.089C202.052 158.089 206.906 153.718 206.906 148.325C206.906 142.932 202.052 138.561 196.064 138.561C190.077 138.561 185.223 142.932 185.223 148.325C185.223 153.718 190.077 158.089 196.064 158.089Z" fill="white"/>
<path d="M194.119 155.01C193.873 155.01 193.63 154.958 193.41 154.859C193.189 154.76 192.998 154.616 192.85 154.438L188.96 149.766C188.835 149.616 188.744 149.445 188.692 149.263C188.64 149.082 188.629 148.893 188.658 148.707C188.687 148.521 188.757 148.342 188.863 148.181C188.969 148.019 189.109 147.878 189.276 147.766C189.443 147.653 189.632 147.571 189.834 147.524C190.036 147.478 190.246 147.467 190.452 147.494C190.658 147.52 190.857 147.583 191.036 147.679C191.215 147.774 191.372 147.9 191.497 148.051L191.498 148.052L194.043 151.108L200.58 142.276C200.696 142.12 200.844 141.986 201.017 141.881C201.19 141.776 201.385 141.704 201.589 141.667C201.794 141.63 202.004 141.629 202.209 141.666C202.413 141.702 202.608 141.774 202.781 141.879C202.955 141.983 203.104 142.117 203.22 142.273C203.336 142.429 203.416 142.604 203.457 142.788C203.498 142.972 203.498 143.162 203.457 143.346C203.416 143.53 203.336 143.705 203.22 143.861L195.439 154.373C195.298 154.564 195.109 154.72 194.887 154.831C194.665 154.942 194.417 155.003 194.163 155.009C194.149 155.009 194.134 155.01 194.119 155.01Z" fill="#1BB978"/>
<path d="M330.612 160.114C331.071 159.871 331.465 159.54 331.767 159.145C332.069 158.75 332.271 158.299 332.358 157.826C332.446 157.353 332.418 156.868 332.275 156.406C332.132 155.944 331.879 155.516 331.532 155.151L342.983 137.13L336.264 137.459L326.173 154.922C325.532 155.487 325.143 156.244 325.08 157.05C325.017 157.855 325.285 158.654 325.832 159.294C326.379 159.934 327.168 160.371 328.049 160.522C328.93 160.673 329.842 160.528 330.612 160.114H330.612Z" fill="#FFB8B8"/>
<path d="M317.715 96.9469C317.715 96.9469 329.842 93.4356 332.961 101.863C336.08 110.29 346.565 133.114 346.565 133.114L335.3 153.831L330.232 148.915L335.648 134.518L320.054 113.45L317.715 96.9469Z" fill="#3F3D56"/>
<path d="M335.686 151.715C335.321 151.159 334.858 150.659 334.315 150.237L330.445 146.883L330.23 147.315C329.834 147.878 329.574 148.509 329.467 149.169C329.36 149.828 329.41 150.501 329.612 151.142C329.814 151.783 330.164 152.378 330.639 152.889C331.115 153.4 331.704 153.814 332.37 154.105C332.938 154.374 333.579 154.493 334.219 154.449C334.538 154.424 334.845 154.332 335.117 154.179C335.388 154.027 335.615 153.818 335.78 153.571C335.931 153.278 336.001 152.956 335.984 152.633C335.968 152.31 335.866 151.995 335.686 151.715V151.715Z" fill="#E6E6E6"/>
<path d="M197.331 164.162H196.304V199.782H231.035V198.857H197.331V164.162Z" fill="#3F3D56"/>
<path d="M269.11 199.621C269.108 198.027 268.405 196.499 267.153 195.372C265.902 194.246 264.206 193.612 262.437 193.61H235.23C233.46 193.61 231.763 194.244 230.511 195.371C229.26 196.498 228.557 198.027 228.557 199.621C228.557 201.215 229.26 202.744 230.511 203.871C231.763 204.998 233.46 205.631 235.23 205.631H262.437C264.206 205.63 265.902 204.996 267.153 203.869C268.405 202.742 269.108 201.214 269.11 199.621Z" fill="#1BB978"/>
<path d="M196.102 166.846C199.489 166.846 202.235 164.373 202.235 161.323C202.235 158.273 199.489 155.8 196.102 155.8C192.716 155.8 189.97 158.273 189.97 161.323C189.97 164.373 192.716 166.846 196.102 166.846Z" fill="#1BB978"/>
<path d="M218.021 75.521C221.408 75.521 224.154 73.0482 224.154 69.9979C224.154 66.9476 221.408 64.4749 218.021 64.4749C214.635 64.4749 211.889 66.9476 211.889 69.9979C211.889 73.0482 214.635 75.521 218.021 75.521Z" fill="#1BB978"/>
<path d="M107.045 75.4123V74.0924H105.776C105.524 74.0924 105.282 73.9881 105.103 73.8024C104.925 73.6167 104.825 73.3649 104.825 73.1024C104.825 72.8398 104.925 72.588 105.103 72.4024C105.282 72.2167 105.524 72.1124 105.776 72.1124H107.045V70.7925C107.045 70.5299 107.145 70.2781 107.324 70.0924C107.502 69.9068 107.744 69.8025 107.996 69.8025C108.249 69.8025 108.491 69.9068 108.669 70.0924C108.848 70.2781 108.948 70.5299 108.948 70.7925V72.1124H110.216C110.469 72.1124 110.711 72.2167 110.889 72.4024C111.068 72.588 111.168 72.8398 111.168 73.1024C111.168 73.3649 111.068 73.6167 110.889 73.8024C110.711 73.9881 110.469 74.0924 110.216 74.0924H108.948V75.4123C108.948 75.6749 108.848 75.9267 108.669 76.1123C108.491 76.298 108.249 76.4023 107.996 76.4023C107.744 76.4023 107.502 76.298 107.324 76.1123C107.145 75.9267 107.045 75.6749 107.045 75.4123V75.4123ZM114.657 72.1124C114.404 72.1124 114.162 72.2167 113.984 72.4024C113.805 72.588 113.705 72.8398 113.705 73.1024C113.705 73.3649 113.805 73.6167 113.984 73.8024C114.162 73.9881 114.404 74.0924 114.657 74.0924H119.097C119.349 74.0924 119.591 73.9881 119.77 73.8024C119.948 73.6167 120.048 73.3649 120.048 73.1024C120.048 72.8398 119.948 72.588 119.77 72.4024C119.591 72.2167 119.349 72.1124 119.097 72.1124H114.657ZM105.104 83.9525C105.01 84.0431 104.935 84.1524 104.883 84.2738C104.831 84.3952 104.803 84.5263 104.801 84.6593C104.799 84.7922 104.822 84.9242 104.87 85.0475C104.918 85.1708 104.989 85.2827 105.08 85.3767C105.17 85.4707 105.278 85.5449 105.396 85.5946C105.515 85.6444 105.642 85.6689 105.769 85.6665C105.897 85.6642 106.023 85.6351 106.14 85.581C106.256 85.5269 106.362 85.4489 106.449 85.3516L107.996 83.7413L109.544 85.3516C109.724 85.5265 109.963 85.6217 110.21 85.6172C110.456 85.6126 110.691 85.5087 110.866 85.3274C111.04 85.146 111.14 84.9013 111.144 84.6448C111.148 84.3883 111.057 84.1401 110.889 83.9525L109.341 82.3421L110.889 80.7318C110.982 80.6411 111.057 80.5318 111.109 80.4104C111.161 80.289 111.189 80.1579 111.192 80.0249C111.194 79.892 111.17 79.76 111.122 79.6367C111.075 79.5134 111.003 79.4015 110.913 79.3075C110.823 79.2135 110.715 79.1394 110.597 79.0896C110.478 79.0398 110.351 79.0153 110.223 79.0177C110.096 79.02 109.97 79.0491 109.853 79.1032C109.736 79.1573 109.631 79.2353 109.544 79.3326L107.996 80.9429L106.449 79.3326C106.268 79.1577 106.03 79.0625 105.783 79.0671C105.537 79.0716 105.302 79.1755 105.127 79.3569C104.953 79.5382 104.853 79.7829 104.849 80.0394C104.844 80.2959 104.936 80.5441 105.104 80.7318L106.652 82.3421L105.104 83.9525V83.9525ZM116.877 80.3622C117.213 80.3622 117.536 80.2231 117.774 79.9756C118.012 79.728 118.145 79.3923 118.145 79.0422C118.145 78.6921 118.012 78.3564 117.774 78.1089C117.536 77.8613 117.213 77.7222 116.877 77.7222C116.54 77.7222 116.218 77.8613 115.98 78.1089C115.742 78.3564 115.608 78.6921 115.608 79.0422C115.608 79.3923 115.742 79.728 115.98 79.9756C116.218 80.2231 116.54 80.3622 116.877 80.3622V80.3622ZM114.34 80.6922C114.087 80.6922 113.845 80.7965 113.667 80.9821C113.488 81.1678 113.388 81.4196 113.388 81.6821C113.388 81.9447 113.488 82.1965 113.667 82.3821C113.845 82.5678 114.087 82.6721 114.34 82.6721H119.414C119.666 82.6721 119.908 82.5678 120.087 82.3821C120.265 82.1965 120.366 81.9447 120.366 81.6821C120.366 81.4196 120.265 81.1678 120.087 80.9821C119.908 80.7965 119.666 80.6922 119.414 80.6922H114.34ZM118.145 84.322C118.145 84.6721 118.012 85.0079 117.774 85.2554C117.536 85.5029 117.213 85.642 116.877 85.642C116.54 85.642 116.218 85.5029 115.98 85.2554C115.742 85.0079 115.608 84.6721 115.608 84.322C115.608 83.972 115.742 83.6362 115.98 83.3887C116.218 83.1411 116.54 83.0021 116.877 83.0021C117.213 83.0021 117.536 83.1411 117.774 83.3887C118.012 83.6362 118.145 83.972 118.145 84.322V84.322Z" fill="#F9A826"/>
</svg>
