<svg xmlns="http://www.w3.org/2000/svg" width="220" height="56" fill="none" viewBox="0 0 220 56"><path fill="#fff" d="M0 5C0 2.23858 2.23858 0 5 0H215C217.761 0 220 2.23858 220 5V51C220 53.7614 217.761 56 215 56H5C2.23857 56 0 53.7614 0 51V5Z"/><path fill="#636CFF" d="M55.0454 43.7828C38.9452 44.2601 41.2366 15.4089 56.7941 15.4089C72.4722 15.4089 71.5677 43.3056 55.0454 43.7828ZM56.6132 37.7089C60.4724 37.7957 61.7387 30.8974 61.9196 27.7303C62.1005 24.5632 60.7136 20.1379 57.0353 20.2246C53.357 20.3114 51.367 27.0795 51.4876 29.6826C51.6685 33.0233 52.6937 37.6221 56.6132 37.7089ZM79.2258 40.3988L70.7234 40.1385L72.7737 14.2808L77.8992 14.1507L87.0648 27.9038L89.6577 13.5433L95.0848 14.7581L92.3713 37.9258L86.9442 38.4465L77.8992 24.3462L79.2258 40.3988ZM106.904 40.3988L98.4013 40.1385L100.452 14.2808L105.577 14.1507L114.743 27.9038L117.336 13.5433L122.763 14.7581L120.049 37.9258L114.622 38.4465L105.577 24.3462L106.904 40.3988ZM143.385 43.8696L126.923 43.6527L126.079 17.5781L142.179 16.0596L141.998 20.9622H132.772V29.2488L140.491 28.7715L140.913 33.7175L133.074 33.6307L132.652 39.9216L143.988 39.6179L143.385 43.8696ZM171.184 42.1342C160.933 50.334 147.425 47.7309 147.305 32.4159C147.184 19.2702 161.355 14.0639 169.797 20.0077L167.264 23.9558C163.948 21.5262 154.782 23.6955 154.058 32.2857C153.395 39.8782 161.114 44.5204 166.782 38.056L171.184 42.1342ZM193.615 15.3221L193.073 20.4416L186.862 20.6151L187.284 42.221L178.179 43.3056L179.867 20.7886L173.294 20.9622L173.475 16.1898L193.615 15.3221ZM197.897 32.6762V8.12013L206.459 7.68628L202.359 32.5461L197.897 32.6762ZM199.344 42.1342C195.123 42.1342 195.304 36.1036 199.766 36.1036C204.168 36.1036 206.339 42.1342 199.344 42.1342Z"/><path fill="#636CFF" d="M38.0253 38.1192C41.2882 39.0214 41.6372 41.5493 35.4953 45.2535C32.1039 47.2987 27.9669 48.8101 24.2783 48.2055C20.5897 47.6009 17.3104 45.6417 14.9991 42.6617C12.6878 39.6817 11.4876 35.8653 11.6028 31.8627C11.7181 27.8602 13.1418 23.9191 15.6313 20.7111C18.1208 17.5031 21.5221 15.2266 25.2556 14.2695C28.9892 13.3124 33.0699 13.0742 35.8487 15.6567C38.0253 17.4182 38.8836 20.0325 38.8836 20.0325L30.4351 26.3339L23.6831 26.3339L23.6831 38.1192C29.8244 39.2553 34.7624 37.217 38.0253 38.1192Z"/><path fill="#fff" d="M31.2204 32.666C35.7226 38.4508 26.9146 39.201 23.8622 38.4508C20.8099 37.7005 19.1553 33.8942 20.1668 29.9491C21.1782 26.0039 24.4726 23.414 27.5249 24.1642C30.5773 24.9145 32.2318 28.7208 31.2204 32.666Z"/><path fill="#fff" d="M27.4074 25.5278C31.4017 25.5278 30.5405 26.5684 32.5926 24.7273V28.3637H27.9388L27.4074 25.5278Z"/><path fill="#fff" d="M29.1852 24.7273C29.1852 24.7273 30.3211 26.1195 32.6481 25.1382L34.0741 28.3637H28.8889L29.1852 24.7273Z"/><path fill="#fff" d="M37.7465 17.2703C35.6983 13.304 43.2016 17.2856 43.2016 17.2856L43.1547 21.4521L36.3774 21.8377C36.3774 21.8377 39.7946 21.2365 37.7465 17.2703Z"/></svg>