<svg xmlns="http://www.w3.org/2000/svg" width="114" height="113" fill="none" viewBox="0 0 114 113"><rect width="110" height="110" y="2.977" fill="#fff"/><path fill="#1BB978" d="M89.4997 2.99858L109.999 2.98056L109.999 23.0108L109.999 35.0108L77.4994 3.00136L89.4997 2.99858Z" opacity=".75"/><path fill="#1BB978" d="M80.4996 2.97625L110 29.9763L110 44.4763L69 2.97654L80.4996 2.97625Z"/><path fill="#fff" d="M105.126 5.56V12.802L104.48 20.69H99.754L99.108 12.802V5.56H105.126ZM102.1 22.594C103.12 22.594 103.925 22.8433 104.514 23.342C105.103 23.8407 105.398 24.5433 105.398 25.45C105.398 26.334 105.103 27.0253 104.514 27.524C103.925 28.0227 103.12 28.272 102.1 28.272C101.08 28.272 100.275 28.0227 99.686 27.524C99.1193 27.0253 98.836 26.334 98.836 25.45C98.836 24.5433 99.1193 23.8407 99.686 23.342C100.275 22.8433 101.08 22.594 102.1 22.594Z"/></svg>