<svg xmlns="http://www.w3.org/2000/svg" width="114" height="113" fill="none" viewBox="0 0 114 113"><rect width="110" height="110" y="3" fill="#fff"/><path fill="#6C63FF" d="M89.5004 2.995L110 3.00019L110 23.0072L110 35.0072L77.5002 2.99778L89.5004 2.995Z" opacity=".75"/><path fill="#6C63FF" d="M80.4996 2.99968L110 29.9997L110 44.4997L69 2.99998L80.4996 2.99968Z"/><path fill="#fff" d="M100.472 5.22C102.127 5.22 103.611 5.458 104.926 5.934C106.263 6.38733 107.306 7.07867 108.054 8.008C108.825 8.93733 109.21 10.0933 109.21 11.476C109.21 12.8813 108.915 14.026 108.326 14.91C107.759 15.794 106.977 16.4627 105.98 16.916C105.005 17.3693 103.929 17.664 102.75 17.8L102.41 20.724H97.31L97.344 15.556C99.4067 15.3747 100.857 15.012 101.696 14.468C102.557 13.9013 102.988 13.1647 102.988 12.258C102.988 11.5327 102.75 10.966 102.274 10.558C101.798 10.1273 101.061 9.912 100.064 9.912C98.092 9.912 96.9587 11.0567 96.664 13.346L91.088 11.408C91.36 10.2293 91.87 9.17533 92.618 8.246C93.366 7.31667 94.386 6.58 95.678 6.036C96.97 5.492 98.568 5.22 100.472 5.22ZM99.962 22.526C100.982 22.526 101.775 22.7867 102.342 23.308C102.931 23.8067 103.226 24.498 103.226 25.382C103.226 26.2887 102.931 27.0027 102.342 27.524C101.775 28.0227 100.982 28.272 99.962 28.272C98.9193 28.272 98.1033 28.0227 97.514 27.524C96.9473 27.0027 96.664 26.2887 96.664 25.382C96.664 24.498 96.9473 23.8067 97.514 23.308C98.1033 22.7867 98.9193 22.526 99.962 22.526Z"/></svg>