<svg xmlns="http://www.w3.org/2000/svg" width="360" height="360" fill="none" viewBox="0 0 360 360"><rect width="360" height="360" fill="#fff"/><path fill="#fff" d="M274 24H85C68.4315 24 55 37.4315 55 54V139C55 155.569 68.4315 169 85 169H274C290.569 169 304 155.569 304 139V54C304 37.4315 290.569 24 274 24Z"/><path fill="#4E54C8" d="M283.2 50.1001C283.2 42.092 276.708 35.6001 268.7 35.6001C260.692 35.6001 254.2 42.092 254.2 50.1001C254.2 58.1082 260.692 64.6001 268.7 64.6001C276.708 64.6001 283.2 58.1082 283.2 50.1001Z" opacity=".5"/><path fill="#C4C4C4" d="M136.912 63.875L218.432 169H55L136.912 63.875Z" opacity=".5"/><path fill="#E1DFDF" d="M239.018 90.1562L295.481 169H182.554L239.018 90.1562Z"/><path fill="#C4C4C4" d="M136.908 63.875L219.143 117.887L199.813 145.075L136.908 63.875Z"/><path fill="#C4C4C4" d="M239.129 90.3374L304 138.912V169H295.482L239.129 90.3374Z"/><rect width="319" height="137" x="18" y="205" fill="#1BB978"/><path fill="#fff" d="M191.325 220.359L188.542 293.821H169.719L166.936 220.359H191.325ZM166.276 316.6C166.276 313.328 167.448 310.569 169.792 308.323C172.136 306.077 175.236 304.954 179.094 304.954C182.902 304.954 185.954 306.077 188.249 308.323C190.593 310.569 191.765 313.328 191.765 316.6C191.765 319.92 190.593 322.703 188.249 324.949C185.954 327.146 182.902 328.245 179.094 328.245C175.236 328.245 172.136 327.146 169.792 324.949C167.448 322.703 166.276 319.92 166.276 316.6Z"/></svg>