<svg width="360" height="360" viewBox="0 0 360 360" fill="none" xmlns="http://www.w3.org/2000/svg">
<rect width="360" height="360" fill="white"/>
<rect x="24" y="21" width="311" height="143" fill="#6C63FF"/>
<path d="M185.19 114.821H165.342C165.342 110.476 165.659 106.691 166.294 103.469C166.978 100.197 168.101 97.2676 169.663 94.6797C171.226 92.043 173.325 89.5283 175.962 87.1357C178.257 85.1338 180.259 83.2539 181.968 81.4961C183.677 79.6895 184.995 77.834 185.923 75.9297C186.851 74.0254 187.314 71.9502 187.314 69.7041C187.314 67.0186 186.899 64.8213 186.069 63.1123C185.288 61.3545 184.116 60.0361 182.554 59.1572C181.04 58.2295 179.136 57.7656 176.841 57.7656C174.937 57.7656 173.154 58.2051 171.494 59.084C169.834 59.9141 168.491 61.2324 167.466 63.0391C166.44 64.8457 165.879 67.2139 165.781 70.1436H142.783C142.93 63.1611 144.517 57.4482 147.544 53.0049C150.571 48.5127 154.624 45.2168 159.702 43.1172C164.829 40.9688 170.542 39.8945 176.841 39.8945C183.823 39.8945 189.805 40.9932 194.785 43.1904C199.814 45.3877 203.647 48.6348 206.284 52.9316C208.97 57.2285 210.312 62.4775 210.312 68.6787C210.312 72.9268 209.507 76.6621 207.896 79.8848C206.284 83.0586 204.136 86.0371 201.45 88.8203C198.765 91.5547 195.786 94.4111 192.515 97.3896C189.731 99.8799 187.827 102.468 186.802 105.153C185.776 107.79 185.239 111.013 185.19 114.821ZM162.705 137.233C162.705 133.962 163.877 131.203 166.221 128.957C168.613 126.711 171.714 125.588 175.522 125.588C179.331 125.588 182.407 126.711 184.751 128.957C187.095 131.203 188.267 133.962 188.267 137.233C188.267 140.554 187.095 143.337 184.751 145.583C182.407 147.78 179.331 148.879 175.522 148.879C171.714 148.879 168.613 147.78 166.221 145.583C163.877 143.337 162.705 140.554 162.705 137.233Z" fill="white"/>
<rect x="20" y="197" width="319" height="137" fill="#1BB978"/>
<path d="M193.325 212.359L190.542 285.821H171.719L168.936 212.359H193.325ZM168.276 308.6C168.276 305.328 169.448 302.569 171.792 300.323C174.136 298.077 177.236 296.954 181.094 296.954C184.902 296.954 187.954 298.077 190.249 300.323C192.593 302.569 193.765 305.328 193.765 308.6C193.765 311.92 192.593 314.703 190.249 316.949C187.954 319.146 184.902 320.245 181.094 320.245C177.236 320.245 174.136 319.146 171.792 316.949C169.448 314.703 168.276 311.92 168.276 308.6Z" fill="white"/>
</svg>
