<svg xmlns="http://www.w3.org/2000/svg" width="360" height="360" fill="none" viewBox="0 0 360 360"><rect width="360" height="360" fill="#fff"/><path fill="#fff" d="M274 197H85C68.4315 197 55 210.431 55 227V312C55 328.569 68.4315 342 85 342H274C290.569 342 304 328.569 304 312V227C304 210.431 290.569 197 274 197Z"/><path fill="#4E54C8" d="M283.2 223.1C283.2 215.092 276.708 208.6 268.7 208.6C260.692 208.6 254.2 215.092 254.2 223.1C254.2 231.108 260.692 237.6 268.7 237.6C276.708 237.6 283.2 231.108 283.2 223.1Z" opacity=".5"/><path fill="#C4C4C4" d="M136.912 236.875L218.432 342H55L136.912 236.875Z" opacity=".5"/><path fill="#E1DFDF" d="M239.018 263.156L295.481 342H182.554L239.018 263.156Z"/><path fill="#C4C4C4" d="M136.908 236.875L219.143 290.887L199.813 318.075L136.908 236.875Z"/><path fill="#C4C4C4" d="M239.129 263.337L304 311.912V342H295.482L239.129 263.337Z"/><rect width="311" height="143" x="27" y="21" fill="#6C63FF"/><path fill="#fff" d="M188.19 114.821H168.342C168.342 110.476 168.659 106.691 169.294 103.469C169.978 100.197 171.101 97.2676 172.663 94.6797C174.226 92.043 176.325 89.5283 178.962 87.1357C181.257 85.1338 183.259 83.2539 184.968 81.4961C186.677 79.6895 187.995 77.834 188.923 75.9297C189.851 74.0254 190.314 71.9502 190.314 69.7041C190.314 67.0186 189.899 64.8213 189.069 63.1123C188.288 61.3545 187.116 60.0361 185.554 59.1572C184.04 58.2295 182.136 57.7656 179.841 57.7656C177.937 57.7656 176.154 58.2051 174.494 59.084C172.834 59.9141 171.491 61.2324 170.466 63.0391C169.44 64.8457 168.879 67.2139 168.781 70.1436H145.783C145.93 63.1611 147.517 57.4482 150.544 53.0049C153.571 48.5127 157.624 45.2168 162.702 43.1172C167.829 40.9688 173.542 39.8945 179.841 39.8945C186.823 39.8945 192.805 40.9932 197.785 43.1904C202.814 45.3877 206.647 48.6348 209.284 52.9316C211.97 57.2285 213.312 62.4775 213.312 68.6787C213.312 72.9268 212.507 76.6621 210.896 79.8848C209.284 83.0586 207.136 86.0371 204.45 88.8203C201.765 91.5547 198.786 94.4111 195.515 97.3896C192.731 99.8799 190.827 102.468 189.802 105.153C188.776 107.79 188.239 111.013 188.19 114.821ZM165.705 137.233C165.705 133.962 166.877 131.203 169.221 128.957C171.613 126.711 174.714 125.588 178.522 125.588C182.331 125.588 185.407 126.711 187.751 128.957C190.095 131.203 191.267 133.962 191.267 137.233C191.267 140.554 190.095 143.337 187.751 145.583C185.407 147.78 182.331 148.879 178.522 148.879C174.714 148.879 171.613 147.78 169.221 145.583C166.877 143.337 165.705 140.554 165.705 137.233Z"/></svg>