<svg width="934" height="638" viewBox="0 0 934 638" fill="none" xmlns="http://www.w3.org/2000/svg">
<g clip-path="url(#clip0_435_49)">
<path d="M276.039 102C304.205 102 327.039 79.1665 327.039 51C327.039 22.8335 304.205 0 276.039 0C247.872 0 225.039 22.8335 225.039 51C225.039 79.1665 247.872 102 276.039 102Z" fill="#FF6584"/>
<path d="M368.074 11.8704C343.357 8.52949 315.139 21.8891 308.733 45.994C307.118 41.7081 304.183 38.0465 300.351 35.538C296.52 33.0295 291.99 31.8041 287.416 32.0388C282.842 32.2735 278.461 33.9562 274.906 36.8437C271.351 39.7312 268.806 43.6741 267.639 48.1027L270.469 50.1293C323.436 61.5836 378.266 61.3357 431.128 49.403C413.935 31.334 392.791 15.2113 368.074 11.8704Z" fill="#F0F0F0"/>
<path d="M262.074 79.8704C237.357 76.5295 209.139 89.8891 202.733 113.994C201.118 109.708 198.183 106.046 194.351 103.538C190.52 101.03 185.99 99.8041 181.416 100.039C176.842 100.274 172.461 101.956 168.906 104.844C165.351 107.731 162.806 111.674 161.639 116.103L164.469 118.129C217.436 129.584 272.266 129.336 325.128 117.403C307.935 99.334 286.791 83.2113 262.074 79.8704Z" fill="#F0F0F0"/>
<path d="M450.76 216.257C442.394 202.421 432.48 187.647 416.955 183.129C398.976 177.897 380.507 188.291 364.841 198.548C317.991 229.222 272.873 262.464 229.694 298.122L229.742 298.659C263.358 296.341 296.974 294.023 330.59 291.705C354.878 290.03 380 288.124 401.464 276.634C409.608 272.274 417.548 266.451 426.777 266.045C438.243 265.541 448.242 273.549 456.099 281.916C502.576 331.408 516.026 407.093 568.169 450.576C535.289 369.488 496.03 291.137 450.76 216.257V216.257Z" fill="#F2F2F2"/>
<path d="M736.45 636.041C731.31 629.551 729.21 628.031 724.14 621.481C682.86 568.091 644.06 512.897 607.74 455.901C583.07 417.191 559.623 377.737 537.4 337.541C526.82 318.431 516.53 299.171 506.53 279.761C498.77 264.711 491.183 249.571 483.77 234.341C481.65 229.991 479.59 225.621 477.54 221.241C472.71 210.941 467.97 200.591 462.88 190.431C457.08 178.851 450.02 166.711 439.37 158.931C434.523 155.245 428.727 153.014 422.66 152.501C413.99 151.941 405.99 155.521 398.47 159.431C343.45 188.121 291.94 224.091 245.35 265.021C198.641 306.042 156.89 352.387 120.95 403.111C119.85 404.681 117.25 403.181 118.36 401.601C122.73 395.42 127.187 389.307 131.73 383.261C188.223 308.127 257.491 243.515 336.37 192.381C349.64 183.781 363.16 175.584 376.93 167.791C383.87 163.861 390.84 159.981 397.93 156.341C404.88 152.771 412.26 149.561 420.2 149.441C447.22 149.021 461.21 179.621 470.82 200.211C473.84 206.691 476.896 213.151 479.99 219.591C491.68 244.041 503.82 268.267 516.41 292.271C524.18 307.091 532.12 321.824 540.23 336.471C565.47 382.081 592.296 426.767 620.71 470.531C658.35 528.501 695.69 579.711 738.57 633.921C739.75 635.421 737.64 637.561 736.45 636.041Z" fill="#E4E4E4"/>
<path d="M242.68 249.911C241.11 248.161 239.55 246.411 237.97 244.661C225.51 230.881 212.14 217.261 195.03 209.361C186.871 205.475 177.965 203.41 168.93 203.311C159.59 203.341 150.46 205.791 141.83 209.221C137.75 210.851 133.76 212.701 129.83 214.671C125.34 216.931 120.93 219.341 116.54 221.771C108.3 226.331 100.166 231.091 92.14 236.051C76.1698 245.921 60.6997 256.544 45.7298 267.921C37.9696 273.821 30.3695 279.914 22.9296 286.201C16.0096 292.041 9.22968 298.037 2.58971 304.191C1.16979 305.501 -0.950291 303.381 0.469589 302.071C2.21959 300.441 3.98958 298.821 5.75958 297.221C10.7596 292.701 15.8397 288.267 20.9998 283.921C30.4095 275.981 40.0628 268.347 49.9598 261.021C65.35 249.621 81.2699 238.994 97.7196 229.141C105.94 224.221 114.273 219.507 122.72 215.001C125.27 213.641 127.85 212.311 130.46 211.051C136.382 208.063 142.535 205.559 148.86 203.561C157.819 200.662 167.298 199.731 176.65 200.831C185.679 202.144 194.379 205.154 202.29 209.701C219.09 219.091 232.119 233.611 244.8 247.781C246.08 249.221 243.97 251.351 242.68 249.911Z" fill="#E4E4E4"/>
<path d="M586.903 392.708L627.16 377.984L647.148 370.673C653.657 368.293 660.151 365.582 666.881 363.877C672.83 362.37 678.876 362.123 684.741 364.105C689.917 366.02 694.654 368.957 698.672 372.74C702.777 376.52 706.596 380.599 710.099 384.943C714.45 390.173 718.738 395.457 723.044 400.724C740.819 422.461 758.477 444.293 776.019 466.219C793.56 488.145 810.984 510.164 828.291 532.276C845.64 554.442 862.87 576.7 879.981 599.052C882.077 601.79 884.171 604.529 886.263 607.27C887.419 608.784 890.026 607.292 888.854 605.756C871.617 583.18 854.26 560.696 836.783 538.305C819.263 515.86 801.622 493.51 783.86 471.256C766.098 449.002 748.216 426.844 730.214 404.783C725.729 399.287 721.237 393.797 716.738 388.313C712.942 383.687 709.189 379.012 705.026 374.706C697.384 366.803 687.837 359.818 676.409 359.629C669.69 359.517 663.187 361.65 656.944 363.908C650.214 366.343 643.5 368.823 636.778 371.281L596.24 386.108L586.106 389.815C584.307 390.473 585.084 393.373 586.903 392.708V392.708Z" fill="#E4E4E4"/>
<path d="M189.732 226.7C169.274 216.186 143.075 218.245 124.276 231.381C160.134 237.567 195.6 245.845 230.491 256.171C216.002 247.68 204.668 234.377 189.732 226.7Z" fill="#F2F2F2"/>
<path d="M124.075 231.345L120.137 234.546C121.469 233.425 122.854 232.375 124.276 231.381C124.209 231.369 124.142 231.356 124.075 231.345Z" fill="#F2F2F2"/>
<path d="M697.156 392.855C693.193 388.031 688.909 382.981 682.982 381.021L677.448 381.24C719.573 455.677 776.467 520.72 844.637 572.376C795.476 512.536 746.316 452.695 697.156 392.855Z" fill="#F2F2F2"/>
<path d="M285.049 581.268C287.305 563.125 298.549 545.248 315.852 539.344C309.028 558.018 309.03 578.505 315.857 597.178C318.515 604.37 322.221 612.093 319.721 619.341C318.164 623.851 314.358 627.302 310.103 629.46C305.847 631.617 301.125 632.646 296.461 633.653L295.543 634.412C288.14 617.695 282.792 599.411 285.049 581.268Z" fill="#1BB978"/>
<path d="M316.024 539.687C305.947 550.977 299.684 565.156 298.125 580.208C297.732 583.443 297.851 586.719 298.477 589.917C299.189 593.012 300.716 595.86 302.9 598.165C304.894 600.355 307.187 602.365 308.613 605.001C309.323 606.362 309.737 607.857 309.829 609.389C309.921 610.921 309.688 612.455 309.145 613.89C307.886 617.502 305.404 620.446 302.876 623.241C300.07 626.344 297.106 629.522 295.914 633.636C295.769 634.135 295.004 633.881 295.148 633.384C297.224 626.226 304.171 622.161 307.485 615.715C309.031 612.707 309.68 609.214 308.23 606.039C306.963 603.263 304.6 601.188 302.563 598.988C300.399 596.771 298.811 594.057 297.938 591.084C297.15 587.929 296.905 584.663 297.213 581.426C297.79 574.126 299.512 566.963 302.315 560.198C305.47 552.46 309.927 545.318 315.491 539.083C315.835 538.697 316.366 539.304 316.024 539.687L316.024 539.687Z" fill="white"/>
<path d="M298.342 575.332C295.852 574.728 293.658 573.258 292.152 571.185C290.646 569.112 289.925 566.571 290.119 564.016C290.161 563.499 290.966 563.539 290.924 564.056C290.739 566.435 291.411 568.802 292.817 570.729C294.224 572.657 296.273 574.018 298.595 574.567C299.099 574.687 298.844 575.451 298.342 575.332Z" fill="white"/>
<path d="M301.744 597.187C306.241 594.502 309.561 590.221 311.041 585.196C311.187 584.698 311.952 584.952 311.806 585.449C310.256 590.674 306.792 595.123 302.106 597.907C301.659 598.172 301.299 597.451 301.744 597.187V597.187Z" fill="white"/>
<path d="M306.218 553.223C307.133 553.658 308.141 553.858 309.153 553.807C310.164 553.756 311.147 553.454 312.013 552.929C312.456 552.658 312.816 553.38 312.375 553.649C311.416 554.224 310.33 554.556 309.213 554.615C308.095 554.675 306.981 554.459 305.966 553.988C305.866 553.952 305.784 553.879 305.737 553.784C305.689 553.69 305.679 553.581 305.709 553.479C305.743 553.378 305.816 553.295 305.911 553.247C306.006 553.199 306.117 553.19 306.218 553.223V553.223Z" fill="white"/>
<path d="M368.595 571.75C368.323 571.927 368.051 572.104 367.779 572.287C364.135 574.684 360.691 577.372 357.482 580.326C357.231 580.55 356.979 580.781 356.734 581.013C349.08 588.212 342.828 596.769 338.298 606.25C336.498 610.025 334.988 613.931 333.782 617.934C332.115 623.463 330.749 629.591 327.45 634.113C327.111 634.589 326.743 635.043 326.348 635.473H296.54C296.473 635.439 296.405 635.412 296.337 635.378L295.146 635.432C295.194 635.222 295.248 635.004 295.296 634.793C295.323 634.671 295.357 634.548 295.385 634.426C295.405 634.344 295.425 634.263 295.439 634.188C295.446 634.161 295.453 634.134 295.459 634.113C295.473 634.038 295.494 633.97 295.507 633.902C295.806 632.685 296.115 631.468 296.432 630.25C296.432 630.243 296.432 630.244 296.439 630.237C298.768 620.938 302.192 611.948 306.64 603.455C306.776 603.204 306.912 602.945 307.061 602.694C309.121 598.934 311.484 595.35 314.128 591.976C315.581 590.133 317.127 588.364 318.759 586.678C322.985 582.328 327.868 578.67 333.231 575.837C343.922 570.193 356.299 568.03 367.724 571.478C368.017 571.566 368.303 571.655 368.595 571.75Z" fill="#1BB978"/>
<path d="M368.528 572.128C353.684 575.076 340.147 582.626 329.84 593.706C327.578 596.052 325.701 598.739 324.276 601.67C322.981 604.569 322.485 607.763 322.842 610.918C323.115 613.867 323.735 616.852 323.287 619.816C323.035 621.33 322.465 622.773 321.616 624.052C320.767 625.33 319.657 626.414 318.36 627.234C315.18 629.36 311.425 630.216 307.725 630.926C303.616 631.714 299.336 632.467 295.907 635.034C295.491 635.345 295.033 634.682 295.448 634.371C301.414 629.906 309.409 630.843 315.936 627.691C318.981 626.22 321.602 623.823 322.356 620.415C323.016 617.435 322.378 614.356 322.076 611.372C321.684 608.299 322.05 605.176 323.142 602.277C324.413 599.284 326.184 596.528 328.379 594.129C333.235 588.648 338.922 583.965 345.232 580.251C352.411 575.973 360.269 572.954 368.466 571.325C368.973 571.224 369.032 572.028 368.528 572.128H368.528Z" fill="white"/>
<path d="M332.949 589.943C331.325 587.961 330.458 585.467 330.503 582.905C330.549 580.343 331.503 577.88 333.196 575.957C333.54 575.569 334.159 576.086 333.815 576.474C332.235 578.262 331.346 580.556 331.308 582.942C331.271 585.327 332.088 587.648 333.611 589.484C333.942 589.884 333.277 590.34 332.949 589.943V589.943Z" fill="white"/>
<path d="M322.506 609.441C327.714 610.005 332.942 608.585 337.149 605.465C337.566 605.155 338.024 605.818 337.608 606.127C333.224 609.366 327.78 610.832 322.362 610.234C321.846 610.177 321.993 609.384 322.506 609.441H322.506Z" fill="white"/>
<path d="M352.548 577.032C353.017 577.93 353.701 578.697 354.54 579.265C355.378 579.833 356.345 580.184 357.352 580.286C357.869 580.337 357.722 581.129 357.208 581.079C356.096 580.961 355.029 580.572 354.101 579.947C353.173 579.321 352.413 578.478 351.886 577.491C351.829 577.402 351.807 577.295 351.826 577.191C351.845 577.086 351.903 576.993 351.988 576.93C352.076 576.87 352.184 576.847 352.289 576.866C352.394 576.885 352.487 576.945 352.548 577.032V577.032Z" fill="white"/>
<path d="M517.787 459.399C513.05 460.917 507.928 460.702 503.336 458.792C498.743 456.883 494.979 453.402 492.715 448.973C492.26 448.076 493.634 447.327 494.089 448.226C496.19 452.354 499.696 455.595 503.977 457.365C508.257 459.134 513.029 459.316 517.431 457.876C518.388 457.564 518.738 459.089 517.787 459.399V459.399Z" fill="white"/>
<path d="M508.463 414.803C510.418 414.598 512.292 413.91 513.915 412.802C515.539 411.693 516.862 410.199 517.765 408.453C518.226 407.556 519.551 408.388 519.094 409.278C518.087 411.203 516.624 412.851 514.833 414.08C513.042 415.309 510.977 416.08 508.819 416.327C508.618 416.367 508.408 416.329 508.234 416.221C508.059 416.112 507.933 415.941 507.88 415.743C507.833 415.541 507.869 415.329 507.978 415.153C508.088 414.977 508.262 414.852 508.463 414.803Z" fill="white"/>
<path d="M609.307 407.366C610.992 408.38 612.902 408.958 614.865 409.051C616.829 409.143 618.785 408.746 620.557 407.896C621.465 407.457 622.023 408.919 621.121 409.355C619.159 410.286 616.998 410.721 614.828 410.624C612.658 410.526 610.545 409.899 608.674 408.797C608.489 408.708 608.345 408.551 608.271 408.36C608.197 408.168 608.198 407.956 608.275 407.765C608.36 407.576 608.516 407.428 608.709 407.354C608.902 407.279 609.117 407.284 609.307 407.366V407.366Z" fill="white"/>
<path d="M725.514 520.131L781.058 477.961L808.131 505.035L717.646 566.955L725.514 520.131Z" fill="#3F3D56"/>
<path d="M673.71 636.245H483.708L490.372 614.653C531.674 599.702 508.474 567.565 547.762 547.921C643.857 499.874 681.059 356.495 666.987 299.817L729.96 297.155C729.96 297.155 816.926 544.125 673.71 636.245Z" fill="#3F3D56"/>
<path d="M835.917 534.748C830.242 539.739 822.981 542.555 815.425 542.697C807.869 542.838 800.507 540.295 794.649 535.52L794.526 535.419L794.522 535.26C794.452 532.615 794.04 529.99 793.295 527.45C793.257 529.278 792.991 531.094 792.501 532.856L792.342 533.449L791.915 533.008C791.547 532.628 791.19 532.242 790.855 531.861C788.884 529.624 787.233 527.124 785.95 524.433C779.806 511.797 770.903 500.701 759.9 491.964C757.935 490.366 756.108 488.607 754.435 486.705C747.37 478.667 743.397 468.376 743.227 457.676C743.058 446.976 746.703 436.564 753.509 428.306C760.316 420.048 769.84 414.483 780.376 412.606C790.912 410.73 801.772 412.666 811.011 418.066L811.293 418.231L811.147 418.522C810.077 420.743 808.664 422.782 806.959 424.562C809.303 423.297 811.47 421.73 813.408 419.903L813.613 419.71L813.845 419.87C816.88 421.97 819.647 424.433 822.084 427.204L822.346 427.505C824.206 429.633 826.494 431.344 829.06 432.529C831.626 433.713 834.413 434.343 837.239 434.378C841.85 434.455 846.389 435.531 850.545 437.53C854.7 439.53 858.373 442.405 861.311 445.96C864.249 449.514 866.382 453.663 867.563 458.121C868.744 462.578 868.946 467.239 868.154 471.781L868.118 471.992L867.913 472.055C864.33 473.285 860.531 473.759 856.755 473.447C859.908 474.82 863.266 475.661 866.694 475.936L867.136 475.971L866.996 476.393C865.21 481.754 862.032 486.546 857.788 490.276L857.666 490.382C857.623 490.419 857.581 490.457 857.538 490.495C854.375 493.219 851.787 496.546 849.928 500.283C848.068 504.02 846.973 508.091 846.707 512.256C846.496 516.535 845.434 520.728 843.581 524.591C841.728 528.453 839.123 531.906 835.917 534.748Z" fill="#1BB978"/>
<path opacity="0.15" d="M841.729 524.485C841.672 525.635 841.552 526.781 841.37 527.918C844.482 523.139 846.272 517.622 846.559 511.927C846.601 511.055 846.693 510.187 846.816 509.322C843.792 513.829 842.036 519.066 841.729 524.485V524.485Z" fill="black"/>
<path opacity="0.15" d="M851.778 485.675C854.314 486.774 856.984 487.529 859.72 487.921C860.774 486.809 861.746 485.622 862.63 484.37C859.139 485.538 855.446 485.982 851.778 485.675V485.675Z" fill="black"/>
<path opacity="0.15" d="M863.482 475.19C863.764 477.95 863.688 480.734 863.254 483.475C864.769 481.171 865.977 478.679 866.848 476.064L866.989 475.642L866.546 475.607C865.518 475.519 864.495 475.38 863.482 475.19V475.19Z" fill="black"/>
<path opacity="0.15" d="M860.527 444.885C857.588 441.55 853.986 438.864 849.951 436.998C845.916 435.133 841.537 434.128 837.092 434.049C834.266 434.014 831.479 433.384 828.913 432.199C826.347 431.015 824.059 429.303 822.199 427.176L821.936 426.875C819.499 424.103 816.732 421.64 813.697 419.541L813.465 419.381L813.261 419.574C811.323 421.401 809.155 422.967 806.812 424.233C808.516 422.452 809.929 420.414 810.999 418.193L811.145 417.902L810.864 417.737C804.739 414.152 797.853 412.066 790.768 411.65C783.684 411.233 776.601 412.497 770.097 415.338C763.594 418.18 757.855 422.519 753.348 428.001C748.841 433.483 745.694 439.953 744.163 446.883C747.111 441.705 751.057 437.163 755.772 433.522C760.488 429.88 765.879 427.21 771.634 425.667C777.389 424.124 783.393 423.739 789.298 424.533C795.203 425.328 800.891 427.286 806.034 430.295L806.315 430.46L806.169 430.751C805.099 432.972 803.686 435.01 801.982 436.791C804.325 435.525 806.493 433.959 808.431 432.132L808.635 431.939L808.867 432.099C811.902 434.198 814.669 436.661 817.106 439.432L817.369 439.734C819.229 441.861 821.517 443.573 824.083 444.757C826.649 445.941 829.436 446.571 832.262 446.606C839.651 446.731 846.769 449.415 852.4 454.201C858.032 458.987 861.829 465.578 863.144 472.85C864.706 472.57 866.25 472.195 867.765 471.725L867.971 471.663L868.007 471.452C868.836 466.747 868.594 461.914 867.299 457.315C866.004 452.715 863.69 448.467 860.527 444.885V444.885Z" fill="black"/>
<path d="M927.751 313.412C927.748 337.746 919.116 361.291 903.39 379.86C887.663 398.43 865.86 410.82 841.859 414.829L841.351 414.912L840.958 414.584C834.414 409.127 827.191 404.542 819.468 400.943C823.807 404.921 827.631 409.427 830.849 414.357L831.944 416.002L829.971 416.097C828.268 416.18 826.576 416.222 824.942 416.222C815.343 416.23 805.788 414.905 796.553 412.285C754.6 400.349 709.55 398.308 662.653 406.218C654.612 407.57 646.472 408.249 638.318 408.249C558.356 408.249 493.302 343.181 493.302 263.203C493.259 232.71 502.842 202.981 520.687 178.254C538.531 153.527 563.726 135.064 592.68 125.496L593.677 125.166L594.071 126.139C597.165 133.448 599.088 141.199 599.769 149.107C601.692 140.75 602.515 132.178 602.218 123.607L602.187 122.703L603.067 122.482C614.597 119.608 626.435 118.156 638.318 118.158L639.605 118.163C648.705 118.19 657.709 116.299 666.029 112.613C674.349 108.927 681.799 103.529 687.893 96.771C697.885 85.7883 710.139 77.1007 723.809 71.3059C737.48 65.511 752.244 62.7464 767.085 63.2023C781.926 63.6581 796.493 67.3236 809.782 73.9466C823.071 80.5696 834.768 89.9929 844.068 101.568L844.501 102.104L844.215 102.732C838.208 115.971 831.664 125.616 823.853 132.67C833.877 127.967 843.052 121.637 851.006 113.934L852.033 112.939L852.753 114.175C861.919 129.894 866.745 147.766 866.738 165.962L866.737 166.481C866.736 166.664 866.736 166.848 866.736 167.031C866.736 194.866 877.499 221.248 896.316 239.495C906.213 249.102 914.092 260.589 919.49 273.282C924.888 285.975 927.696 299.619 927.751 313.412V313.412Z" fill="#1BB978"/>
<g opacity="0.15">
<path opacity="0.15" d="M802.061 70.4524C798.517 76.3351 794.155 81.6853 789.108 86.343C796.335 82.9499 803.13 78.7031 809.347 73.6934C806.962 72.5186 804.533 71.4383 802.061 70.4524Z" fill="black"/>
<path opacity="0.15" d="M861.571 193.168C867.163 198.594 872.122 204.635 876.354 211.177C869.985 197.333 866.703 182.27 866.736 167.031C866.736 166.848 866.736 166.664 866.737 166.481L866.738 165.962C866.745 147.766 861.919 129.894 852.753 114.175L852.033 112.939L851.006 113.934C845.338 119.413 839.044 124.206 832.255 128.213C834.005 153.243 844.455 176.571 861.571 193.168Z" fill="black"/>
<path opacity="0.15" d="M831.993 119.635L831.992 120.154C831.991 120.337 831.991 120.522 831.991 120.705C831.991 121.714 832.009 122.72 832.037 123.726C836.879 117.212 840.964 110.169 844.215 102.732L844.501 102.104L844.068 101.568C838.644 94.8187 832.396 88.7756 825.469 83.5801C829.782 95.1118 831.992 107.324 831.993 119.635V119.635Z" fill="black"/>
<path opacity="0.15" d="M896.316 239.495C891.37 234.684 886.975 229.337 883.213 223.553C889.951 237.908 893.273 253.629 892.92 269.483C892.566 285.337 888.546 300.893 881.175 314.934C873.803 328.974 863.281 341.117 850.432 350.411C837.583 359.705 822.756 365.897 807.113 368.502L806.606 368.585L806.213 368.258C799.669 362.8 792.446 358.215 784.722 354.616C789.062 358.594 792.886 363.101 796.104 368.03L797.198 369.676L795.226 369.771C793.523 369.853 791.831 369.895 790.197 369.895C780.598 369.903 771.043 368.578 761.808 365.959C719.855 354.023 674.805 351.982 627.908 359.892C619.867 361.243 611.727 361.922 603.573 361.922C568.031 361.949 533.726 348.867 507.227 325.181C518.981 350.01 537.538 370.995 560.743 385.699C583.948 400.403 610.847 408.222 638.318 408.249C646.472 408.249 654.612 407.57 662.653 406.218C709.55 398.308 754.6 400.349 796.553 412.285C805.788 414.905 815.342 416.23 824.942 416.222C826.576 416.222 828.268 416.18 829.971 416.097L831.943 416.002L830.849 414.357C827.631 409.427 823.807 404.921 819.468 400.943C827.191 404.542 834.414 409.127 840.958 414.584L841.351 414.912L841.859 414.829C860.642 411.704 878.188 403.421 892.538 390.905C906.888 378.388 917.478 362.131 923.126 343.946C928.774 325.761 929.258 306.365 924.524 287.921C919.79 269.477 910.024 252.711 896.316 239.495V239.495Z" fill="black"/>
</g>
<path d="M412.473 287.395C406.939 281.432 404.069 272.484 407.011 264.9C411.419 272.571 418.397 278.435 426.712 281.456C429.923 282.609 433.614 283.558 435.367 286.485C436.38 288.378 436.629 290.587 436.06 292.658C435.488 294.704 434.655 296.67 433.583 298.505L433.579 299.035C425.765 296.771 418.007 293.357 412.473 287.395Z" fill="#6C63FF"/>
<path d="M687.345 460.348C681.811 454.385 678.941 445.437 681.883 437.853C686.291 445.524 693.269 451.388 701.584 454.409C704.795 455.562 708.486 456.511 710.239 459.438C711.252 461.331 711.501 463.54 710.932 465.611C710.36 467.658 709.527 469.623 708.455 471.458L708.451 471.988C700.637 469.724 692.879 466.31 687.345 460.348Z" fill="#1BB978"/>
<path d="M816.957 571.974C813.091 564.817 812.552 555.436 817.298 548.829C819.646 557.358 824.935 564.782 832.229 569.788C835.049 571.708 838.386 573.55 839.351 576.822C839.858 578.909 839.546 581.11 838.477 582.972C837.411 584.811 836.113 586.505 834.616 588.014L834.479 588.526C827.481 584.378 820.823 579.132 816.957 571.974Z" fill="#1BB978"/>
<path d="M910.383 433.766C906.517 426.609 905.977 417.227 910.724 410.621C913.072 419.15 918.361 426.574 925.655 431.58C928.475 433.5 931.812 435.342 932.777 438.614C933.284 440.7 932.971 442.902 931.903 444.764C930.837 446.603 929.539 448.297 928.042 449.805L927.905 450.318C920.907 446.17 914.249 440.924 910.383 433.766Z" fill="#1BB978"/>
<path d="M299.642 487.042C295.776 479.884 295.237 470.503 299.983 463.897C302.331 472.426 307.62 479.85 314.914 484.855C317.734 486.776 321.071 488.617 322.036 491.89C322.543 493.976 322.231 496.178 321.162 498.04C320.096 499.878 318.798 501.573 317.301 503.081L317.164 503.593C310.166 499.446 303.508 494.2 299.642 487.042Z" fill="#1BB978"/>
<path d="M648.727 555.588C652.084 528.591 668.816 501.991 694.563 493.205C684.409 520.993 684.411 551.476 694.569 579.262C698.525 589.964 704.04 601.455 700.318 612.241C698.003 618.952 692.338 624.086 686.007 627.297C679.675 630.508 672.647 632.038 665.708 633.537L664.342 634.667C653.326 609.792 645.369 582.585 648.727 555.588Z" fill="#1BB978"/>
<path d="M694.818 493.716C679.825 510.516 670.505 531.613 668.185 554.011C667.6 558.824 667.777 563.699 668.71 568.457C669.768 573.062 672.04 577.3 675.291 580.73C678.257 583.989 681.669 586.98 683.791 590.903C684.848 592.927 685.464 595.152 685.601 597.432C685.737 599.711 685.39 601.994 684.583 604.13C682.709 609.504 679.015 613.885 675.255 618.044C671.079 622.661 666.669 627.391 664.894 633.512C664.679 634.253 663.541 633.876 663.756 633.136C666.844 622.486 677.182 616.437 682.112 606.845C684.413 602.369 685.378 597.172 683.222 592.448C681.336 588.316 677.82 585.229 674.788 581.956C671.569 578.656 669.206 574.618 667.906 570.195C666.734 565.5 666.369 560.64 666.828 555.822C667.687 544.961 670.249 534.302 674.419 524.236C679.115 512.721 685.746 502.095 694.025 492.816C694.538 492.242 695.328 493.145 694.818 493.716V493.716Z" fill="white"/>
<path d="M668.507 546.755C664.802 545.856 661.537 543.668 659.296 540.584C657.055 537.5 655.983 533.719 656.272 529.917C656.333 529.148 657.531 529.207 657.47 529.977C657.194 533.517 658.193 537.038 660.286 539.906C662.379 542.774 665.428 544.8 668.883 545.617C669.634 545.795 669.253 546.933 668.507 546.755Z" fill="white"/>
<path d="M673.569 579.276C680.26 575.28 685.2 568.909 687.403 561.433C687.621 560.692 688.76 561.069 688.542 561.809C686.235 569.585 681.081 576.204 674.108 580.347C673.443 580.741 672.907 579.668 673.569 579.276V579.276Z" fill="white"/>
<path d="M680.227 513.857C681.588 514.504 683.088 514.802 684.593 514.726C686.098 514.65 687.561 514.201 688.849 513.419C689.509 513.017 690.044 514.09 689.389 514.49C687.961 515.347 686.345 515.841 684.683 515.929C683.02 516.017 681.361 515.697 679.851 514.996C679.703 514.942 679.581 514.833 679.511 514.692C679.44 514.552 679.425 514.389 679.47 514.238C679.52 514.088 679.628 513.963 679.77 513.892C679.912 513.821 680.076 513.808 680.227 513.857V513.857Z" fill="white"/>
<path d="M773.044 541.425C772.639 541.688 772.234 541.951 771.829 542.225C766.407 545.79 761.283 549.79 756.508 554.186C756.134 554.52 755.759 554.864 755.395 555.208C744.005 565.92 734.703 578.654 727.961 592.762C725.284 598.378 723.037 604.19 721.242 610.147C718.762 618.374 716.728 627.492 711.82 634.221C711.316 634.929 710.768 635.605 710.181 636.245H665.827C665.726 636.195 665.625 636.154 665.523 636.104L663.752 636.185C663.824 635.871 663.904 635.547 663.975 635.233C664.016 635.051 664.066 634.869 664.107 634.687C664.137 634.566 664.167 634.444 664.188 634.333C664.198 634.292 664.208 634.252 664.218 634.221C664.238 634.11 664.269 634.009 664.289 633.908C664.734 632.096 665.193 630.285 665.665 628.474C665.665 628.463 665.665 628.463 665.675 628.453C669.308 614.66 674.125 601.05 680.854 588.602C681.057 588.228 681.259 587.843 681.482 587.469C684.546 581.875 688.063 576.542 691.996 571.521C694.159 568.778 696.459 566.147 698.888 563.638C705.176 557.165 712.442 551.722 720.422 547.507C736.33 539.108 754.747 535.89 771.748 541.02C772.183 541.152 772.609 541.283 773.044 541.425Z" fill="#1BB978"/>
<path d="M772.944 541.988C750.857 546.375 730.714 557.609 715.376 574.096C712.011 577.586 709.217 581.585 707.098 585.946C705.17 590.26 704.433 595.012 704.963 599.708C705.369 604.096 706.293 608.537 705.626 612.948C705.25 615.2 704.403 617.348 703.14 619.25C701.876 621.152 700.225 622.766 698.294 623.985C693.562 627.148 687.976 628.422 682.469 629.479C676.356 630.651 669.987 631.772 664.884 635.591C664.266 636.054 663.584 635.068 664.201 634.606C673.079 627.961 684.976 629.356 694.687 624.665C699.219 622.477 703.118 618.909 704.241 613.838C705.223 609.404 704.274 604.823 703.824 600.383C703.24 595.81 703.785 591.164 705.41 586.849C707.301 582.395 709.936 578.295 713.202 574.725C720.428 566.57 728.891 559.601 738.281 554.075C748.963 547.708 760.655 543.216 772.852 540.792C773.607 540.643 773.694 541.839 772.944 541.988V541.988Z" fill="white"/>
<path d="M720.002 568.496C717.586 565.547 716.296 561.835 716.363 558.023C716.431 554.211 717.851 550.547 720.371 547.686C720.883 547.108 721.804 547.877 721.291 548.455C718.94 551.115 717.617 554.528 717.562 558.078C717.506 561.628 718.721 565.081 720.988 567.814C721.48 568.408 720.491 569.087 720.002 568.496V568.496Z" fill="white"/>
<path d="M704.464 597.51C712.213 598.348 719.993 596.236 726.253 591.593C726.873 591.132 727.555 592.119 726.936 592.578C720.412 597.398 712.311 599.58 704.25 598.69C703.482 598.604 703.7 597.425 704.464 597.51V597.51Z" fill="white"/>
<path d="M749.167 549.285C749.864 550.621 750.882 551.763 752.13 552.608C753.378 553.453 754.816 553.975 756.315 554.127C757.084 554.203 756.865 555.382 756.101 555.307C754.445 555.131 752.858 554.553 751.477 553.622C750.097 552.691 748.965 551.437 748.181 549.968C748.096 549.836 748.064 549.676 748.092 549.521C748.12 549.366 748.206 549.227 748.333 549.134C748.464 549.044 748.625 549.009 748.781 549.038C748.937 549.066 749.076 549.155 749.167 549.285V549.285Z" fill="white"/>
<path d="M423.592 559.289L386.779 531.34L368.836 549.283L428.807 590.322L423.592 559.289Z" fill="#3F3D56"/>
<path d="M457.926 636.245H583.852L579.436 621.935C552.062 612.026 567.438 590.726 541.4 577.707C477.711 545.863 453.055 450.837 462.381 413.273L420.645 411.508C420.645 411.508 363.007 575.191 457.926 636.245Z" fill="#3F3D56"/>
<path d="M343.269 554.07C343.093 551.309 342.367 548.611 341.135 546.134C339.902 543.658 338.187 541.452 336.091 539.647C336.062 539.622 336.034 539.597 336.005 539.572L335.925 539.502C333.112 537.03 331.006 533.854 329.822 530.301L329.729 530.021L330.023 529.998C332.294 529.816 334.52 529.258 336.61 528.348C334.107 528.555 331.589 528.241 329.215 527.425L329.078 527.384L329.055 527.244C328.53 524.234 328.663 521.145 329.446 518.191C330.229 515.236 331.643 512.487 333.59 510.131C335.537 507.775 337.971 505.869 340.725 504.544C343.48 503.219 346.488 502.506 349.544 502.455C351.417 502.432 353.264 502.014 354.965 501.229C356.665 500.444 358.182 499.31 359.414 497.9L359.589 497.7C361.204 495.863 363.037 494.231 365.049 492.84L365.203 492.734L365.338 492.861C366.623 494.072 368.059 495.11 369.612 495.949C368.483 494.769 367.546 493.418 366.837 491.946L366.74 491.753L366.927 491.644C373.05 488.065 380.248 486.782 387.231 488.025C394.214 489.269 400.526 492.957 405.037 498.431C409.548 503.904 411.964 510.804 411.852 517.896C411.739 524.988 409.106 531.808 404.424 537.135C403.315 538.396 402.104 539.562 400.802 540.621C393.509 546.411 387.609 553.765 383.537 562.14C382.686 563.924 381.592 565.581 380.286 567.063C380.064 567.316 379.827 567.571 379.583 567.823L379.3 568.115L379.195 567.722C378.87 566.555 378.693 565.351 378.669 564.14C378.175 565.823 377.902 567.563 377.856 569.316L377.853 569.421L377.771 569.488C374.735 571.966 371.069 573.552 367.184 574.069C363.299 574.585 359.346 574.012 355.768 572.413C352.19 570.813 349.126 568.252 346.919 565.013C344.712 561.774 343.448 557.985 343.269 554.07V554.07Z" fill="#1BB978"/>
<path opacity="0.15" d="M346.568 562.174C346.606 562.936 346.686 563.696 346.806 564.45C344.744 561.283 343.557 557.626 343.367 553.852C343.339 553.274 343.279 552.698 343.197 552.125C345.201 555.112 346.365 558.583 346.568 562.174V562.174Z" fill="black"/>
<path opacity="0.15" d="M339.909 536.453C338.228 537.181 336.458 537.681 334.645 537.941C333.947 537.204 333.302 536.417 332.716 535.588C335.03 536.362 337.477 536.656 339.909 536.453V536.453Z" fill="black"/>
<path opacity="0.15" d="M332.152 529.503C331.964 531.332 332.015 533.178 332.302 534.994C331.298 533.467 330.498 531.816 329.92 530.082L329.827 529.803L330.121 529.78C330.802 529.722 331.48 529.629 332.152 529.503V529.503Z" fill="black"/>
<path opacity="0.15" d="M334.11 509.418C336.058 507.208 338.445 505.428 341.12 504.191C343.794 502.955 346.696 502.289 349.642 502.236C351.515 502.213 353.362 501.796 355.063 501.011C356.764 500.226 358.28 499.092 359.513 497.681L359.687 497.482C361.302 495.645 363.136 494.013 365.147 492.621L365.301 492.515L365.437 492.643C366.721 493.854 368.158 494.892 369.711 495.731C368.581 494.551 367.645 493.2 366.935 491.728L366.839 491.535L367.025 491.426C371.085 489.05 375.648 487.667 380.344 487.391C385.039 487.115 389.734 487.952 394.044 489.836C398.354 491.719 402.158 494.595 405.145 498.228C408.132 501.861 410.218 506.149 411.232 510.742C409.278 507.311 406.663 504.301 403.538 501.887C400.413 499.474 396.839 497.704 393.025 496.682C389.211 495.659 385.232 495.403 381.318 495.93C377.405 496.456 373.635 497.754 370.226 499.748L370.04 499.858L370.136 500.051C370.846 501.523 371.782 502.874 372.912 504.054C371.359 503.215 369.922 502.177 368.638 500.966L368.502 500.838L368.348 500.944C366.337 502.335 364.503 503.968 362.888 505.805L362.714 506.004C361.481 507.414 359.965 508.549 358.264 509.334C356.563 510.118 354.716 510.536 352.843 510.559C347.946 510.642 343.229 512.421 339.496 515.593C335.764 518.764 333.247 523.133 332.376 527.952C331.34 527.767 330.318 527.518 329.313 527.207L329.177 527.166L329.153 527.026C328.603 523.907 328.764 520.705 329.622 517.656C330.48 514.608 332.014 511.792 334.11 509.418V509.418Z" fill="black"/>
<path d="M310.39 373.293C322.861 361.2 329.995 343.715 329.995 325.267C329.995 325.145 329.995 325.023 329.994 324.902L329.994 324.558C329.989 312.498 333.187 300.654 339.262 290.235L339.74 289.416L340.42 290.076C345.692 295.181 351.773 299.377 358.416 302.493C353.239 297.818 348.902 291.426 344.921 282.652L344.732 282.235L345.019 281.88C351.182 274.208 358.934 267.963 367.742 263.574C376.55 259.184 386.204 256.755 396.04 256.453C405.876 256.15 415.661 257.983 424.722 261.823C433.782 265.664 441.903 271.422 448.526 278.701C452.565 283.18 457.502 286.758 463.017 289.2C468.531 291.643 474.498 292.897 480.53 292.879L481.382 292.875C489.258 292.874 497.104 293.837 504.746 295.741L505.329 295.887L505.308 296.487C505.111 302.167 505.657 307.849 506.931 313.387C507.383 308.146 508.658 303.009 510.708 298.165L510.969 297.52L511.63 297.739C533.306 304.932 551.713 319.606 563.556 339.133C575.399 358.66 579.905 381.766 576.265 404.312C572.626 426.858 561.08 447.373 543.695 462.182C526.31 476.992 504.22 485.129 481.382 485.137C475.978 485.137 470.583 484.687 465.254 483.792C434.172 478.549 404.315 479.902 376.51 487.812C370.389 489.549 364.057 490.427 357.694 490.421C356.612 490.421 355.49 490.394 354.362 490.339L353.054 490.276L353.78 489.186C355.912 485.918 358.447 482.931 361.323 480.295C356.204 482.68 351.417 485.719 347.08 489.336L346.82 489.553L346.483 489.498C334.034 487.427 322.405 481.938 312.894 473.642C303.383 465.347 296.365 454.572 292.621 442.519C288.878 430.467 288.557 417.612 291.695 405.388C294.833 393.164 301.305 382.052 310.39 373.293V373.293Z" fill="#1BB978"/>
<g opacity="0.15">
<path opacity="0.15" d="M372.858 261.258C375.208 265.156 378.098 268.702 381.443 271.789C376.653 269.54 372.15 266.726 368.03 263.406C369.61 262.627 371.22 261.911 372.858 261.258Z" fill="black"/>
<path opacity="0.15" d="M333.418 342.589C329.712 346.185 326.425 350.189 323.62 354.525C327.841 345.35 330.017 335.366 329.995 325.267C329.995 325.145 329.995 325.023 329.994 324.902L329.993 324.558C329.988 312.498 333.187 300.654 339.262 290.235L339.739 289.416L340.42 290.076C344.176 293.707 348.348 296.883 352.847 299.539C351.687 316.128 344.761 331.589 333.418 342.589Z" fill="black"/>
<path opacity="0.15" d="M353.021 293.854L353.022 294.198C353.022 294.319 353.022 294.442 353.022 294.563C353.022 295.232 353.01 295.899 352.992 296.565C349.783 292.248 347.075 287.58 344.921 282.652L344.731 282.235L345.018 281.88C348.613 277.407 352.754 273.402 357.345 269.958C354.486 277.601 353.022 285.695 353.021 293.854Z" fill="black"/>
<path opacity="0.15" d="M310.39 373.293C313.668 370.104 316.581 366.56 319.074 362.727C314.608 372.241 312.406 382.66 312.641 393.168C312.875 403.675 315.539 413.986 320.425 423.291C325.31 432.597 332.284 440.645 340.8 446.804C349.316 452.964 359.143 457.068 369.51 458.794L369.847 458.849L370.107 458.632C374.444 455.016 379.232 451.977 384.35 449.591C381.474 452.228 378.94 455.214 376.807 458.482L376.082 459.572L377.389 459.635C378.518 459.69 379.639 459.718 380.722 459.718C387.084 459.723 393.416 458.845 399.537 457.109C427.342 449.198 457.2 447.845 488.281 453.088C493.611 453.984 499.005 454.434 504.41 454.433C527.966 454.451 550.702 445.781 568.265 430.082C560.474 446.538 548.175 460.447 532.796 470.192C517.417 479.937 499.589 485.119 481.382 485.137C475.978 485.137 470.583 484.687 465.253 483.792C434.172 478.549 404.314 479.902 376.51 487.812C370.389 489.549 364.056 490.427 357.694 490.421C356.611 490.421 355.49 490.394 354.361 490.339L353.054 490.276L353.779 489.186C355.912 485.918 358.446 482.931 361.322 480.295C356.204 482.68 351.416 485.719 347.079 489.336L346.819 489.553L346.482 489.498C334.033 487.427 322.405 481.938 312.894 473.642C303.383 465.347 296.364 454.572 292.621 442.519C288.878 430.467 288.557 417.612 291.694 405.388C294.832 393.164 301.305 382.052 310.39 373.293V373.293Z" fill="black"/>
</g>
<path d="M48.464 562.61C37.4521 562.609 26.7975 558.703 18.3943 551.586C9.99118 544.469 4.38419 534.603 2.57022 523.741L2.53272 523.511L2.68091 523.334C5.15046 520.373 7.22548 517.104 8.85404 513.609C7.05395 515.573 5.01458 517.303 2.78372 518.759L2.03916 519.255L1.99622 518.362C1.95872 517.591 1.93996 516.825 1.93996 516.086C1.93621 511.742 2.53569 507.418 3.72125 503.239C9.12258 484.255 10.0462 463.868 6.46668 442.646C5.85504 439.007 5.54772 435.324 5.5479 431.634C5.5534 416.041 11.1095 400.958 21.2212 389.088C31.333 377.217 45.3401 369.334 60.7343 366.849C76.1285 364.364 91.9046 367.44 105.238 375.527C118.571 383.613 128.59 396.181 133.501 410.981L133.65 411.433L133.21 411.611C129.902 413.011 126.395 413.881 122.816 414.189C126.598 415.059 130.477 415.432 134.356 415.298L134.765 415.284L134.865 415.682C136.165 420.899 136.822 426.257 136.822 431.634L136.819 432.216C136.807 436.334 137.663 440.409 139.331 444.174C140.999 447.939 143.441 451.31 146.5 454.068C151.47 458.59 155.401 464.134 158.023 470.321C160.646 476.507 161.897 483.188 161.691 489.904C161.484 496.62 159.826 503.212 156.828 509.226C153.831 515.24 149.567 520.533 144.329 524.741L144.086 524.937L143.802 524.808C137.811 522.089 133.446 519.128 130.255 515.593C132.383 520.129 135.247 524.282 138.733 527.881L139.184 528.345L138.624 528.671C131.511 532.819 123.423 535.003 115.189 535L114.954 534.999C114.871 534.999 114.788 534.999 114.705 534.999C108.623 534.935 102.59 536.086 96.9593 538.384C91.3284 540.683 86.2131 544.083 81.9137 548.385C77.5661 552.864 72.3678 556.429 66.6238 558.872C60.8798 561.314 54.7058 562.585 48.464 562.61V562.61Z" fill="#1BB978"/>
<path d="M31.9996 635.914C31.7976 635.914 31.6025 635.84 31.45 635.708C31.2975 635.575 31.1979 635.392 31.1694 635.192C31.1337 634.942 27.6395 609.741 30.7777 576.249C33.6759 545.317 42.9829 500.765 70.8633 464.176C70.9301 464.088 71.0135 464.014 71.1089 463.958C71.2042 463.903 71.3095 463.867 71.4189 463.852C71.5282 463.837 71.6394 463.844 71.7461 463.872C71.8528 463.9 71.9529 463.949 72.0406 464.016C72.1284 464.083 72.2021 464.166 72.2576 464.262C72.313 464.357 72.3492 464.463 72.3639 464.572C72.3786 464.681 72.3716 464.792 72.3433 464.899C72.3151 465.006 72.266 465.106 72.1991 465.193C44.5595 501.467 35.3275 545.692 32.4498 576.405C29.3298 609.703 32.7966 634.707 32.832 634.956C32.8488 635.075 32.8399 635.196 32.8058 635.312C32.7717 635.427 32.7132 635.534 32.6343 635.625C32.5554 635.715 32.4579 635.788 32.3484 635.838C32.2389 635.888 32.12 635.914 31.9996 635.914V635.914Z" fill="#3F3D56"/>
<path d="M45.937 512.557C45.7596 512.557 45.5868 512.501 45.4432 512.397C45.2997 512.293 45.1928 512.146 45.1379 511.978C45.083 511.809 45.0829 511.627 45.1377 511.458C45.1925 511.29 45.2992 511.143 45.4427 511.038C53.3869 505.661 61.969 501.292 70.9913 498.033C85.0869 492.872 106.521 488.194 128.588 495.217C128.693 495.25 128.791 495.304 128.876 495.375C128.96 495.446 129.03 495.533 129.081 495.631C129.132 495.729 129.163 495.836 129.172 495.946C129.182 496.056 129.169 496.167 129.136 496.272C129.102 496.378 129.048 496.475 128.977 496.56C128.906 496.644 128.819 496.713 128.72 496.764C128.622 496.815 128.515 496.845 128.405 496.854C128.295 496.864 128.184 496.851 128.079 496.817C106.464 489.938 85.4183 494.539 71.5687 499.61C62.6914 502.814 54.247 507.109 46.4299 512.397C46.2867 512.501 46.1142 512.557 45.937 512.557V512.557Z" fill="#3F3D56"/>
<path d="M135.938 477.713C136.908 477.449 137.808 476.975 138.574 476.326C139.341 475.676 139.956 474.866 140.376 473.953C140.796 473.04 141.011 472.046 141.005 471.041C140.999 470.036 140.773 469.044 140.343 468.136L155.157 419.836L144.261 417.676L130.711 465.02C129.233 465.845 128.109 467.182 127.552 468.78C126.994 470.377 127.042 472.124 127.687 473.689C128.331 475.253 129.527 476.527 131.048 477.269C132.568 478.01 134.308 478.169 135.938 477.713V477.713Z" fill="#FFB6B6"/>
<path d="M156.021 405.725C154.448 405.101 152.717 404.996 151.081 405.425V405.435C150.529 405.567 149.995 405.765 149.491 406.025C148.937 406.297 148.42 406.636 147.951 407.035C146.935 407.878 146.15 408.965 145.671 410.195L138.451 422.775C138.243 423.132 138.116 423.53 138.078 423.941C138.04 424.352 138.092 424.766 138.231 425.155C138.366 425.546 138.585 425.903 138.871 426.202C139.158 426.5 139.506 426.733 139.891 426.885L141.451 427.495L148.861 430.405L151.591 431.485L153.431 432.205C153.815 432.357 154.228 432.424 154.641 432.401C155.053 432.379 155.456 432.267 155.822 432.074C156.188 431.881 156.507 431.612 156.759 431.284C157.011 430.956 157.189 430.578 157.281 430.175L160.541 416.085C161.312 414.111 161.269 411.913 160.422 409.971C159.574 408.029 157.992 406.502 156.021 405.725V405.725Z" fill="#3F3D56"/>
<path d="M177.492 623.065H185.036L188.626 593.969H177.492V623.065Z" fill="#FFB6B6"/>
<path d="M173.511 636.135H178.92L179.886 631.028L182.359 636.135H196.707C197.394 636.135 198.064 635.915 198.618 635.508C199.172 635.1 199.581 634.526 199.786 633.87C199.991 633.213 199.98 632.508 199.756 631.858C199.532 631.208 199.105 630.646 198.539 630.256L187.082 622.343V617.179L175.03 617.899L173.511 636.135Z" fill="#2F2E41"/>
<path d="M104.13 608.098L110.618 611.946L128.548 588.751L118.972 583.072L104.13 608.098Z" fill="#FFB6B6"/>
<path d="M94.0386 617.309L98.6915 620.069L102.127 616.168L101.649 621.823L113.99 629.141C114.581 629.492 115.27 629.645 115.954 629.577C116.638 629.509 117.283 629.224 117.794 628.764C118.305 628.303 118.655 627.692 118.794 627.018C118.933 626.344 118.853 625.644 118.565 625.019L112.747 612.369L115.38 607.927L104.648 602.399L94.0386 617.309Z" fill="#2F2E41"/>
<path d="M180.859 437.027L184.525 460.396L149.7 460.855L154.283 438.402L180.859 437.027Z" fill="#FFB6B6"/>
<path d="M184.659 460.101L194.606 484.224L195.33 548.734L186.842 610.327H177.449L173.6 549.738L164.134 508.28L154.798 551.64L125.77 594.082H111.505L137.73 547.313L140.765 496.366C140.765 496.366 138.874 474.754 148.555 462L150.912 455.192L184.659 460.101Z" fill="#2F2E41"/>
<path d="M185.141 415.505C185.121 415.295 185.091 415.075 185.051 414.865C184.298 409.823 181.578 405.284 177.487 402.242C173.396 399.201 168.266 397.904 163.221 398.635C158.482 399.345 154.166 401.759 151.081 405.425V405.435C150.921 405.625 150.771 405.825 150.621 406.025C150.351 406.365 150.101 406.725 149.861 407.085C147.693 410.36 146.577 414.219 146.661 418.145V418.155C146.692 419.668 146.904 421.172 147.291 422.635C147.957 425.194 148.481 427.788 148.861 430.405C149.121 432.065 149.321 433.695 149.471 435.285C149.561 436.085 149.631 436.875 149.691 437.645V437.655C149.991 441.465 150.091 444.885 150.181 447.535C150.221 448.975 150.261 450.175 150.331 451.095C150.332 451.156 150.339 451.216 150.351 451.275C150.427 451.893 150.693 452.473 151.111 452.935C151.162 453 151.219 453.06 151.281 453.115C151.724 453.514 152.26 453.796 152.841 453.935C153.041 453.975 153.246 453.995 153.451 453.995H153.511L159.341 451.275L163.941 449.135L179.551 441.855C180.19 441.842 180.811 441.634 181.329 441.259C181.847 440.883 182.239 440.359 182.451 439.755V439.745C182.471 439.665 182.501 439.585 182.521 439.495C183.361 436.185 184.851 432.635 185.381 426.925C185.451 426.105 185.511 425.255 185.541 424.345V424.335C185.628 421.386 185.495 418.434 185.141 415.505Z" fill="#3F3D56"/>
<path d="M163.461 395.473C171.593 395.473 178.186 388.881 178.186 380.749C178.186 372.617 171.593 366.024 163.461 366.024C155.329 366.024 148.737 372.617 148.737 380.749C148.737 388.881 155.329 395.473 163.461 395.473Z" fill="#FFB6B6"/>
<path d="M147.741 403.635C144.639 403.639 141.666 404.873 139.472 407.066C137.279 409.26 136.045 412.233 136.041 415.335V439.585C136.04 442.311 136.992 444.952 138.732 447.05C140.473 449.148 142.892 450.572 145.571 451.075H145.581C146.293 451.208 147.016 451.275 147.741 451.275H163.941V403.635H147.741Z" fill="#6C63FF"/>
<path d="M147.951 406.025V423.715C147.951 424.256 148.166 424.775 148.548 425.158C148.931 425.54 149.45 425.755 149.991 425.755C150.532 425.755 151.051 425.54 151.433 425.158C151.816 424.775 152.031 424.256 152.031 423.715V406.025H147.951Z" fill="#3F3D56"/>
<path d="M156.941 435.285H145.081C144.742 435.285 144.408 435.352 144.095 435.482C143.783 435.612 143.499 435.802 143.26 436.042C143.022 436.281 142.832 436.566 142.704 436.879C142.575 437.192 142.51 437.527 142.511 437.865V444.955C142.51 445.638 142.78 446.293 143.262 446.776C143.744 447.26 144.398 447.533 145.081 447.535H156.941C157.625 447.533 158.28 447.261 158.763 446.778C159.247 446.294 159.519 445.639 159.521 444.955V437.865C159.521 437.526 159.454 437.191 159.324 436.878C159.195 436.565 159.005 436.28 158.765 436.041C158.526 435.801 158.241 435.611 157.928 435.481C157.615 435.352 157.28 435.285 156.941 435.285V435.285Z" fill="#3F3D56"/>
<path d="M178.85 433.042C182.084 428.937 183.791 423.835 183.679 418.61C183.679 408.103 177.421 399.556 169.729 399.556C165.599 399.556 161.708 402.024 159.054 406.327L160.213 407.042C162.613 403.149 166.082 400.917 169.729 400.917C176.671 400.917 182.318 408.854 182.318 418.61C182.432 423.513 180.838 428.304 177.811 432.162L178.85 433.042Z" fill="#6C63FF"/>
<path d="M210.937 468.619C211.382 467.718 211.624 466.731 211.646 465.726C211.669 464.721 211.47 463.724 211.065 462.804C210.66 461.884 210.058 461.065 209.302 460.402C208.546 459.74 207.654 459.252 206.689 458.972L180.358 415.856L171.515 422.58L197.97 464.116C197.607 465.768 197.863 467.497 198.689 468.973C199.516 470.45 200.855 471.572 202.453 472.127C204.051 472.682 205.798 472.632 207.362 471.985C208.925 471.339 210.197 470.141 210.937 468.619Z" fill="#FFB6B6"/>
<path d="M189.501 421.115L185.051 414.865L182.671 411.525L181.121 409.345C180.634 408.385 179.957 407.535 179.131 406.845C177.721 405.665 175.946 405.006 174.107 404.981C172.268 404.956 170.477 405.565 169.035 406.707C167.593 407.848 166.588 409.452 166.19 411.248C165.792 413.043 166.026 414.921 166.851 416.565L171.471 430.315C171.604 430.706 171.82 431.065 172.104 431.365C172.388 431.666 172.733 431.902 173.117 432.057C173.5 432.213 173.912 432.284 174.325 432.267C174.738 432.249 175.142 432.143 175.511 431.955L177.001 431.195L179.351 429.995L181.461 428.925H181.471L185.381 426.925L186.711 426.255L188.471 425.355C188.838 425.165 189.161 424.898 189.416 424.573C189.672 424.248 189.855 423.872 189.952 423.47C190.05 423.068 190.06 422.65 189.982 422.243C189.904 421.837 189.74 421.452 189.501 421.115V421.115Z" fill="#3F3D56"/>
<path d="M885.331 637.11H2.85939C2.73841 637.111 2.61853 637.087 2.50664 637.041C2.39475 636.995 2.29304 636.927 2.20735 636.842C2.12166 636.757 2.05367 636.655 2.00728 636.543C1.96089 636.432 1.93701 636.312 1.93701 636.191C1.93701 636.07 1.96089 635.95 2.00728 635.838C2.05367 635.727 2.12166 635.625 2.20735 635.54C2.29304 635.454 2.39475 635.387 2.50664 635.341C2.61853 635.295 2.73841 635.271 2.85939 635.272H885.331C885.574 635.272 885.808 635.368 885.981 635.541C886.153 635.713 886.25 635.947 886.25 636.191C886.25 636.435 886.153 636.669 885.981 636.841C885.808 637.013 885.574 637.11 885.331 637.11Z" fill="#CCCCCC"/>
<path d="M469.642 560.042C465.776 552.884 465.237 543.503 469.983 536.897C472.331 545.426 477.62 552.85 484.914 557.855C487.735 559.776 491.071 561.617 492.036 564.89C492.543 566.976 492.231 569.178 491.162 571.04C490.096 572.878 488.798 574.573 487.301 576.081L487.164 576.593C480.166 572.446 473.508 567.2 469.642 560.042Z" fill="#1BB978"/>
<path d="M232.642 379.042C228.776 371.884 228.237 362.503 232.983 355.897C235.331 364.426 240.62 371.85 247.914 376.855C250.734 378.776 254.071 380.617 255.036 383.89C255.543 385.976 255.231 388.178 254.162 390.04C253.096 391.878 251.798 393.573 250.301 395.081L250.164 395.593C243.166 391.446 236.508 386.2 232.642 379.042Z" fill="#1BB978"/>
<path d="M154.481 368.735V368.745C154.482 369.386 154.401 370.024 154.238 370.643C154.212 370.752 154.181 370.866 154.145 370.974V370.98C153.798 372.086 153.199 373.097 152.396 373.933C151.593 374.77 150.607 375.409 149.515 375.8C149.355 375.862 149.19 375.914 149.024 375.961C148.675 376.062 148.319 376.134 147.959 376.178C147.635 376.224 147.308 376.246 146.981 376.245C146.725 376.246 146.47 376.234 146.215 376.209C145.62 376.149 145.035 376.015 144.472 375.811C144.384 375.785 144.298 375.754 144.214 375.717C144.171 375.702 144.13 375.685 144.09 375.666C143.151 375.273 142.303 374.694 141.595 373.963C140.887 373.232 140.336 372.365 139.973 371.415C139.611 370.464 139.446 369.45 139.487 368.433C139.529 367.417 139.777 366.42 140.215 365.502L140.221 365.497C140.588 364.727 141.087 364.027 141.695 363.428C143.098 362.028 144.999 361.243 146.981 361.245C147.079 361.243 147.178 361.247 147.276 361.255C148.417 361.303 149.533 361.609 150.538 362.151C151.544 362.693 152.413 363.457 153.079 364.385C153.656 365.185 154.068 366.092 154.29 367.054C154.416 367.605 154.481 368.169 154.481 368.735V368.735Z" fill="#2F2E41"/>
<path d="M145.826 364.186C145.166 361.701 143.741 359.487 141.753 357.857C139.765 356.227 137.314 355.264 134.747 355.105C132.181 354.946 129.63 355.598 127.456 356.97C125.281 358.342 123.594 360.364 122.632 362.748C121.021 366.745 121.612 371.28 120.647 375.479C119.674 379.292 117.477 382.681 114.394 385.127C111.31 387.572 107.51 388.939 103.575 389.017L118.173 394.899C119.731 395.696 121.479 396.05 123.225 395.922C125.765 395.492 127.532 393.066 128.248 390.591C128.963 388.116 128.905 385.488 129.358 382.952C129.946 379.836 131.285 376.911 133.258 374.429C135.232 371.948 137.78 369.985 140.684 368.711C142.327 368.008 144.154 367.479 145.316 366.121C146.478 364.763 146.413 362.202 144.729 361.603" fill="#2F2E41"/>
<path d="M169.481 364.245C167.501 359.918 162.276 360.799 157.552 361.369C155.193 361.733 152.959 362.667 151.042 364.089C149.125 365.512 147.584 367.38 146.552 369.532C144.533 373.894 144.147 378.836 145.465 383.458C146.171 386.607 147.858 389.45 150.282 391.579C152.777 393.586 164.505 398.331 165.481 394.245C164.26 399.575 166.716 398.741 170.35 402.827C172.233 397.172 173.115 386.517 174.998 380.862L175.848 378.308C176.445 376.514 177.043 374.717 177.475 372.875C178.017 370.563 178.226 367.91 176.789 366.018C175.352 364.127 171.733 364.053 171.007 366.315" fill="#2F2E41"/>
<path d="M167.11 382.252L166.481 378.245C166.909 373.262 166.21 365.335 169.481 364.245L171.481 366.245C170.216 366.667 167.81 374.119 167.11 382.252Z" fill="#FCC73E"/>
</g>
<defs>
<clipPath id="clip0_435_49">
<rect width="933.039" height="637.11" fill="white"/>
</clipPath>
</defs>
</svg>
