<svg xmlns="http://www.w3.org/2000/svg" width="1175" height="857" fill="none" viewBox="0 0 1175 857"><g clip-path="url(#clip0_72_207)"><path fill="#6C63FF" d="M1035.99 465.488C1035.99 466.098 1035.99 466.708 1035.99 467.308C1035.88 477.828 1035.26 488.321 1034.12 498.788C1034.12 498.851 1034.12 498.915 1034.12 498.978C1034.03 499.848 1033.93 500.708 1033.83 501.578C1033.66 503.048 1033.48 504.508 1033.28 505.978C1030.95 523.871 1027.09 541.532 1021.75 558.768V558.768C1014.59 582.059 1004.48 604.334 991.649 625.048C987.702 631.381 983.499 637.511 979.039 643.438C976.659 646.578 974.229 649.648 971.719 652.668C969.959 654.781 968.165 656.861 966.339 658.908L965.199 660.168C955.587 670.721 945.227 680.567 934.199 689.628C916.199 704.548 896.819 717.528 877.129 729.568C876.009 730.258 874.879 730.938 873.749 731.568C873.67 731.625 873.586 731.676 873.499 731.718C846.739 747.898 818.989 762.498 790.399 774.188C759.099 787.018 726.779 796.348 693.619 800.428C647.399 806.108 600.619 801.488 554.679 793.548C516.471 786.983 478.727 777.965 441.679 766.548L435.579 764.638C432.419 763.631 429.262 762.605 426.109 761.558C407.062 755.258 388.229 748.258 369.609 740.558C322.844 721.297 278.168 697.309 236.279 668.968C230.945 665.381 225.689 661.715 220.509 657.968C213.269 652.755 206.115 647.388 199.049 641.868L194.689 638.488C176.195 624.007 158.868 608.095 142.869 590.898C121.349 567.478 102.959 541.058 90.8686 510.898C88.9619 506.158 87.2152 501.328 85.6286 496.408L85.4786 495.918C84.6786 493.418 83.9386 490.918 83.2586 488.318C82.2586 484.598 81.3819 480.831 80.6286 477.018C80.4686 476.288 80.3286 475.558 80.1986 474.818C77.8084 461.985 76.7528 448.939 77.0486 435.888C77.2987 424.453 78.6381 413.069 81.0486 401.888V401.888C83.5158 390.298 87.3178 379.033 92.3786 368.318V368.318C96.952 358.683 102.779 349.695 109.709 341.588V341.588C114.578 335.92 120.054 330.803 126.039 326.328C136.889 318.248 148.919 312.618 161.389 308.168C167.249 306.068 173.189 304.228 179.159 302.518C183.389 301.298 187.639 300.138 191.869 298.998L204.349 295.628C212.349 293.448 220.349 291.208 228.229 288.788C249.709 282.228 270.759 274.288 290.229 262.448C293.309 260.578 296.449 258.528 299.589 256.328C303.589 253.548 307.529 250.528 311.429 247.268C315.369 243.968 319.229 240.438 322.909 236.698C323.479 236.118 324.039 235.538 324.599 234.948C327.599 231.788 330.509 228.478 333.209 225.038C334.529 223.358 335.809 221.648 337.029 219.908C338.719 217.498 340.319 215.048 341.799 212.528C349.219 199.928 353.799 186.028 353.259 171.378C353.18 168.964 352.963 166.557 352.609 164.168C351.309 155.338 350.059 146.718 349.139 138.288C345.279 103.418 346.909 71.7981 373.079 42.0881C405.619 5.15812 456.689 -2.37188 503.179 0.578116C637.589 9.07812 759.949 85.8181 867.479 177.178C876.779 185.071 885.965 193.071 895.039 201.178C897.325 203.218 899.615 205.271 901.909 207.338C918.909 222.648 935.649 238.528 951.239 255.538C952.499 256.918 953.759 258.298 954.999 259.688C955.759 260.548 956.529 261.398 957.279 262.268C962.139 267.768 966.855 273.401 971.429 279.168C983.68 294.477 994.498 310.88 1003.75 328.168C1017.91 355.3 1027.5 384.584 1032.13 414.838V414.838C1033.87 425.825 1035.01 436.898 1035.56 448.008C1035.73 451.278 1035.84 454.558 1035.9 457.828C1035.9 458.878 1035.9 459.918 1035.9 460.968C1036 462.488 1036 463.968 1035.99 465.488Z"/><path fill="#262626" d="M834.024 628.56H201.271C195.633 628.553 190.228 626.341 186.241 622.407C182.254 618.474 180.012 613.141 180.005 607.578V99.234C180.012 93.6713 182.254 88.3384 186.241 84.405C190.228 80.4716 195.633 78.259 201.271 78.2525H834.024C839.662 78.259 845.068 80.4716 849.054 84.405C853.041 88.3384 855.283 93.6713 855.29 99.234V607.578C855.283 613.141 853.041 618.474 849.054 622.407C845.068 626.341 839.662 628.553 834.024 628.56Z"/><path fill="#fff" d="M215.618 93.1867C210.187 93.1929 204.98 95.3244 201.14 99.1134C197.3 102.902 195.14 108.04 195.134 113.398V593.427C195.14 598.785 197.3 603.922 201.141 607.71C204.981 611.499 210.187 613.63 215.618 613.636H648.713C699.471 613.58 748.134 593.66 784.026 558.248C819.918 522.836 840.107 474.822 840.164 424.742V113.398C840.158 108.04 837.998 102.902 834.158 99.1134C830.318 95.3244 825.111 93.193 819.68 93.1868L215.618 93.1867Z"/><path fill="#E6E6E6" d="M718.641 309.077H603.907C601.515 309.074 599.22 308.135 597.528 306.466C595.836 304.797 594.884 302.533 594.882 300.172V243.83C594.884 241.469 595.836 239.205 597.528 237.536C599.22 235.866 601.515 234.927 603.907 234.925H718.641C721.033 234.927 723.328 235.866 725.02 237.536C726.712 239.205 727.663 241.469 727.666 243.83C734.766 263.768 735.774 282.713 727.666 300.172C727.663 302.533 726.712 304.797 725.02 306.466C723.328 308.135 721.033 309.074 718.641 309.077V309.077Z"/><path fill="#fff" d="M705.049 303.632H607.571C605.538 303.63 603.589 302.832 602.152 301.413C600.714 299.995 599.906 298.072 599.903 296.066V248.198C599.906 246.192 600.714 244.269 602.152 242.85C603.589 241.432 605.538 240.634 607.571 240.632H705.049C707.082 240.634 709.031 241.432 710.469 242.85C711.906 244.269 712.715 246.192 712.717 248.198C719.296 265.245 720.354 281.377 712.717 296.066C712.715 298.072 711.906 299.995 710.469 301.413C709.031 302.832 707.082 303.63 705.049 303.632V303.632Z"/><path fill="#E6E6E6" d="M699.792 338.591H622.503C620.229 338.594 618.047 337.706 616.437 336.123C614.826 334.539 613.919 332.389 613.915 330.146C613.911 327.903 614.81 325.75 616.414 324.16C618.018 322.571 620.197 321.675 622.471 321.67H699.792C702.063 321.674 704.24 322.567 705.845 324.154C707.449 325.74 708.35 327.889 708.35 330.13C708.35 332.371 707.449 334.521 705.845 336.107C704.24 337.693 702.063 338.587 699.792 338.591V338.591Z"/><path fill="#F00404" d="M652.939 254C652.16 254.003 651.413 254.299 650.862 254.825C650.312 255.351 650.002 256.064 650 256.807V287.197C650 287.688 650.135 288.17 650.392 288.595C650.648 289.021 651.017 289.374 651.462 289.621C651.907 289.867 652.412 289.998 652.926 290C653.441 290.002 653.947 289.875 654.394 289.632L682.516 274.338C682.968 274.092 683.343 273.737 683.604 273.308C683.865 272.878 684.001 272.391 684 271.895C683.999 271.399 683.859 270.912 683.596 270.484C683.333 270.057 682.955 269.703 682.502 269.46L654.381 254.364C653.941 254.126 653.445 254.001 652.939 254V254Z"/><path fill="#F2F2F2" d="M1115.88 788.387C1114.11 786.167 1111.71 784.521 1108.98 783.661C1106.25 782.801 1103.33 782.767 1100.58 783.563L1099.98 783.739L1094.59 804.489C1093.79 801.396 1092.06 794.415 1090.97 787.581L1090.88 787.016L1090.34 787.248C1084.71 789.704 1079.42 792.852 1074.59 796.618C1066.03 803.392 1059.07 811.924 1054.19 821.62C1049.31 831.316 1046.62 841.944 1046.33 852.766L1046.32 853.164L1046.31 853.414L1047.02 853.164L1062.33 847.766C1069.11 848.356 1075.93 847.444 1082.3 845.099C1088.68 842.754 1094.44 839.034 1099.17 834.211C1105.36 827.776 1109.6 819.498 1113.7 811.489C1114.9 809.155 1116.13 806.748 1117.39 804.433C1118.79 801.916 1119.4 799.042 1119.13 796.181C1118.86 793.321 1117.73 790.606 1115.88 788.387V788.387Z"/><path fill="#FFB8B8" d="M725.001 259.236C725.308 260.807 725.961 262.292 726.913 263.587C727.865 264.882 729.093 265.956 730.51 266.732C731.928 267.508 733.501 267.968 735.119 268.079C736.736 268.191 738.359 267.951 739.872 267.377L785.617 319.882L791.409 300.499L746.056 252.463C744.91 250.018 742.895 248.073 740.393 246.997C737.89 245.92 735.075 245.787 732.479 246.622C729.884 247.457 727.689 249.202 726.311 251.527C724.932 253.852 724.466 256.595 725.001 259.236L725.001 259.236Z"/><path fill="#FFB6B6" d="M909.365 840.613H894.226L887.024 783H909.368L909.365 840.613Z"/><path fill="#2F2E41" d="M908.961 835.734L892.797 829.247L892.334 829.06L883.41 835.734C878.371 835.735 873.539 837.71 869.976 841.226C866.413 844.741 864.411 849.509 864.41 854.48V855.089H913.221V835.734H908.961Z"/><path fill="#FFB6B6" d="M1017.36 840.613H1002.22L995.019 783H1017.36L1017.36 840.613Z"/><path fill="#2F2E41" d="M1016.95 835.734L1000.79 829.247L1000.33 829.06L991.404 835.734C986.365 835.735 981.533 837.71 977.97 841.226C974.407 844.741 972.405 849.509 972.404 854.48V855.089H1021.22V835.734H1016.95Z"/><path fill="#2F2E41" d="M981.63 496.576C981.63 496.576 1000.62 516.066 1000.62 532.081C1000.62 548.095 995.871 570.084 1000.62 574.897C1005.37 579.71 1011.3 585.564 1004.18 592.59C997.058 599.615 993.498 603.128 998.245 607.811C1002.99 612.495 1000.62 694.458 1000.62 694.458L1025.54 804.523H994.142L954.335 694.458L943.654 603.128L909.112 690.945L912.926 805.468L880.102 804.523L866.515 682.749C866.515 682.749 886.689 566.913 883.129 563.944C879.569 560.975 883.129 554.982 883.129 554.982L892.623 510.626L981.63 496.576Z"/><path fill="#3F3D56" d="M944.453 358.386C944.453 358.386 950.91 333.284 921.165 326.087C891.42 318.89 806.393 309.644 806.393 309.644L763.423 264.656L748.862 285.519L797.033 344.58L911.17 367.711L944.453 358.386Z"/><path fill="#E6E6E6" d="M755.938 283.981C757.273 282.275 758.317 280.367 759.03 278.33L765.192 263.39L763.592 263.324C761.379 262.913 759.102 262.969 756.912 263.486C754.722 264.004 752.667 264.973 750.882 266.329C749.098 267.685 747.624 269.398 746.557 271.355C745.491 273.312 744.855 275.47 744.693 277.686C744.49 279.604 744.839 281.538 745.699 283.269C746.137 284.127 746.775 284.871 747.56 285.439C748.345 286.007 749.256 286.384 750.217 286.538C751.309 286.595 752.398 286.393 753.394 285.948C754.389 285.503 755.262 284.829 755.938 283.981V283.981Z"/><path fill="#E6E6E6" d="M886.563 516.608L883.003 542.072C883.003 542.072 890.123 549.617 893.684 548.674C897.244 547.731 910.298 542.241 910.298 542.241C910.298 542.241 925.726 550.56 934.033 551.503C942.341 552.446 986.251 546.788 987.437 543.958C988.624 541.129 1002.42 530.054 1002.42 530.054L996.931 497.746L886.563 516.608Z"/><path fill="#3F3D56" d="M1002.19 427.527C1002.19 427.527 999.175 452.081 1001.55 454.341C1003.92 456.589 999.175 470.816 994.428 480.183C989.681 489.55 997.988 490.721 997.988 497.746C997.988 504.772 1001.55 530.532 1001.55 530.532C1001.55 530.532 964.759 532.874 958.825 527.019C952.892 521.165 943.397 525.848 930.343 538.728C917.289 551.608 888.937 541.07 883.004 535.215C877.07 529.361 887.62 508.285 891.18 504.198C894.741 500.112 887.751 504.842 884.19 491.892C880.63 478.942 887.62 480.183 893.554 474.328C899.488 468.474 893.554 457.936 888.807 447.398C884.06 436.859 887.62 358.409 887.62 339.674C887.62 320.94 913.729 318.598 913.729 318.598L924.065 305.777L931.66 296.351L946.542 295.766L946.934 295.754L961.329 295.18L968.319 303.213L983.747 320.94L1001.55 324.453C1015.79 329.136 1012.23 358.409 1012.23 358.409L1002.19 427.527Z"/><path fill="#FFB6B6" d="M945.808 290.686C962.655 290.686 976.313 277.211 976.313 260.588C976.313 243.965 962.655 230.489 945.808 230.489C928.96 230.489 915.302 243.965 915.302 260.588C915.302 277.211 928.96 290.686 945.808 290.686Z"/><path fill="#2F2E41" d="M981.178 250.463C972.788 245.386 973.863 232.111 965.778 227.475C961.76 225.19 957.242 223.896 952.608 223.704C947.974 223.512 943.362 224.428 939.163 226.372C933.469 223.969 926.647 225.887 922.092 230.227C917.537 234.568 915.07 240.971 914.344 247.41C913.819 253.88 914.289 260.391 915.74 266.721C916.193 264.178 916.645 261.634 917.098 259.091L941.147 253.905C939.017 255.792 936.888 257.679 934.76 259.567C945.651 262.013 957.079 260.25 966.694 254.639C977.163 259.27 975.266 269.67 966.075 283.471C969.636 289.326 990.738 256.248 981.178 250.463Z"/><path fill="#E6E6E6" d="M968.319 303.213C968.25 303.267 968.179 303.318 968.105 303.365C965.591 304.844 962.713 305.614 959.786 305.589C955.955 305.905 952.151 304.728 949.188 302.311C947.633 300.859 941.45 303.927 937.392 305.625C933.135 307.365 928.361 307.42 924.064 305.777L931.66 296.351L944.177 293.613H947.303L961.329 295.18L968.319 303.213Z"/><path fill="#CACACA" d="M1173.15 856.526L748.512 857C748.268 857.001 748.025 856.955 747.799 856.864C747.573 856.773 747.367 856.639 747.193 856.469C747.02 856.299 746.882 856.098 746.787 855.876C746.692 855.653 746.643 855.415 746.642 855.174C746.64 854.933 746.687 854.694 746.78 854.471C746.872 854.247 747.008 854.044 747.18 853.873C747.352 853.702 747.556 853.565 747.781 853.472C748.006 853.379 748.248 853.33 748.493 853.329H748.512L1173.15 852.855C1173.64 852.857 1174.11 853.052 1174.46 853.396C1174.81 853.74 1175 854.205 1175 854.69C1175 855.176 1174.81 855.641 1174.46 855.985C1174.11 856.329 1173.64 856.524 1173.15 856.526V856.526Z"/><path fill="#3F3D56" d="M664.704 240.038H661.579V19.5045H784.489V22.5879H664.704V240.038Z"/><path fill="#1BB978" d="M880.077 0H797.259C791.872 0 786.705 2.11162 782.895 5.87033C779.086 9.62903 776.945 14.7269 776.945 20.0425C776.945 25.3581 779.086 30.456 782.895 34.2147C786.705 37.9734 791.872 40.085 797.259 40.085H880.077C885.465 40.085 890.632 37.9734 894.441 34.2147C898.251 30.456 900.391 25.3581 900.391 20.0425C900.391 14.7269 898.251 9.62903 894.441 5.87033C890.632 2.11162 885.465 0 880.077 0V0Z"/><path fill="#1594DB" d="M436.391 311.002L518.281 292.305L541.786 286.938C544.726 286.267 543.505 281.801 540.563 282.472L458.673 301.169L435.168 306.536C432.228 307.207 433.449 311.673 436.391 311.002H436.391Z"/><path fill="#1594DB" d="M520.953 262.31L564.792 282.207C566.288 282.717 567.689 283.466 568.94 284.423C570.15 285.592 569.269 286.717 568.282 287.735C565.332 290.454 562.215 292.992 558.951 295.334L540.274 310.316C537.929 312.196 541.238 315.478 543.56 313.615L559.827 300.567L567.961 294.042C570.265 292.194 573.07 290.308 573.996 287.363C575.942 281.177 568.264 278.717 563.997 276.781L544.906 268.116L523.34 258.328C520.622 257.094 518.214 261.067 520.953 262.31V262.31Z"/><path fill="#E6E6E6" d="M1125.92 413.776C1118.11 408.551 1108.62 406.61 1099.35 405.951C1088.81 405.386 1078.24 405.398 1067.7 405.988C1056.75 406.416 1045.83 407.198 1034.92 408.333C1024.04 409.47 1013.19 410.96 1002.4 412.802C992.729 414.287 983.164 416.353 973.752 418.988C964.843 421.421 956.452 425.419 948.982 430.79C942.424 435.656 937.381 442.239 934.426 449.792C931.525 456.875 931.032 464.696 933.02 472.079C934.08 475.666 935.894 478.991 938.345 481.839C941.178 484.964 944.533 487.585 948.265 489.588C956.012 493.953 964.79 496.577 971.798 502.166C973.645 503.627 975.33 505.28 976.822 507.094C977.835 508.498 979.236 509.586 980.858 510.227C982.394 510.756 984.055 510.825 985.632 510.425C987.208 510.025 988.629 509.173 989.715 507.977C991.119 506.082 992.289 504.029 993.201 501.862L996.898 494.825C997.145 494.21 997.455 493.62 997.822 493.066C998.099 492.74 997.604 493.073 997.698 492.987C997.75 492.94 997.857 492.941 997.917 492.904C998.222 492.753 998.542 492.633 998.871 492.543C1002.29 491.256 1005.73 490.01 1009.18 488.805C1021.91 484.327 1034.8 480.199 1047.89 476.857C1054.62 475.074 1061.46 473.664 1068.35 472.633C1077.28 471.377 1086.35 471.523 1095.32 470.665C1104.98 469.741 1114.95 467.812 1123.23 462.564C1130.08 458.458 1135.36 452.226 1138.24 444.846C1139.48 441.328 1139.91 437.578 1139.49 433.875C1138.41 425.497 1132.86 418.421 1125.92 413.776Z"/><path fill="#fff" d="M1109.94 418.483C1102.88 413.762 1094.3 412.008 1085.92 411.413C1076.4 410.902 1066.85 410.913 1057.33 411.446C1047.43 411.833 1037.56 412.539 1027.71 413.565C1017.87 414.593 1008.07 415.939 998.311 417.604C989.575 418.946 980.931 420.813 972.426 423.194C964.375 425.392 956.792 429.005 950.041 433.859C944.115 438.256 939.558 444.205 936.888 451.03C934.266 457.431 933.82 464.499 935.618 471.171C936.575 474.412 938.215 477.417 940.429 479.991C942.989 482.814 946.021 485.183 949.394 486.993C956.395 490.938 964.327 493.309 970.66 498.359C972.329 499.68 973.852 501.173 975.2 502.813C976.116 504.082 977.382 505.064 978.847 505.644C980.236 506.122 981.737 506.185 983.161 505.823C984.586 505.461 985.87 504.691 986.851 503.61C988.12 501.898 989.177 500.043 990.001 498.084L993.342 491.726C993.565 491.169 993.845 490.637 994.177 490.136C994.427 489.841 993.98 490.142 994.065 490.065C994.112 490.022 994.209 490.023 994.263 489.989C994.539 489.854 994.828 489.744 995.125 489.663C998.215 488.501 1001.32 487.375 1004.44 486.285C1015.94 482.239 1027.59 478.509 1039.42 475.488C1045.51 473.877 1051.68 472.602 1057.91 471.671C1065.98 470.536 1074.18 470.668 1082.29 469.893C1091.01 469.058 1100.02 467.315 1107.51 462.572C1113.7 458.861 1118.47 453.23 1121.07 446.56C1122.19 443.382 1122.58 439.993 1122.2 436.647C1121.22 429.075 1116.21 422.681 1109.94 418.483Z"/><path fill="#E6E6E6" d="M1095.15 427.009L980.144 447.937C979.816 447.999 979.477 447.996 979.15 447.929C978.822 447.862 978.511 447.732 978.234 447.545C977.957 447.359 977.721 447.121 977.538 446.845C977.354 446.568 977.228 446.259 977.167 445.934C977.105 445.609 977.109 445.276 977.178 444.953C977.247 444.629 977.38 444.323 977.57 444.05C977.759 443.778 978.001 443.545 978.282 443.365C978.563 443.186 978.877 443.062 979.206 443.002L979.221 443L1094.23 422.071C1094.56 422.011 1094.9 422.016 1095.22 422.085C1095.55 422.153 1095.86 422.285 1096.14 422.472C1096.41 422.659 1096.65 422.898 1096.83 423.174C1097.01 423.451 1097.13 423.76 1097.19 424.084C1097.26 424.409 1097.25 424.741 1097.18 425.064C1097.11 425.386 1096.98 425.692 1096.79 425.964C1096.6 426.235 1096.36 426.467 1096.08 426.646C1095.8 426.826 1095.48 426.949 1095.15 427.009V427.009Z"/><path fill="#E6E6E6" d="M1097.99 442.163L982.977 463.092C982.648 463.154 982.31 463.151 981.982 463.084C981.655 463.016 981.343 462.886 981.067 462.7C980.79 462.514 980.554 462.275 980.371 461.999C980.187 461.722 980.061 461.413 980 461.088C979.938 460.764 979.942 460.43 980.011 460.107C980.08 459.784 980.213 459.477 980.403 459.205C980.592 458.933 980.834 458.7 981.115 458.52C981.396 458.34 981.71 458.217 982.039 458.157L982.054 458.154L1097.06 437.225C1097.39 437.166 1097.73 437.17 1098.06 437.239C1098.38 437.308 1098.69 437.439 1098.97 437.626C1099.24 437.813 1099.48 438.052 1099.66 438.329C1099.84 438.605 1099.97 438.915 1100.03 439.239C1100.09 439.563 1100.08 439.896 1100.01 440.218C1099.94 440.541 1099.81 440.846 1099.62 441.118C1099.43 441.39 1099.19 441.622 1098.91 441.801C1098.63 441.98 1098.31 442.103 1097.99 442.163V442.163Z"/><path fill="#E6E6E6" d="M999.212 475.807L985.81 478.246C985.147 478.364 984.464 478.218 983.91 477.841C983.356 477.463 982.977 476.884 982.855 476.231C982.733 475.578 982.878 474.903 983.259 474.355C983.64 473.808 984.225 473.431 984.887 473.308L998.289 470.869C998.952 470.75 999.636 470.896 1000.19 471.274C1000.74 471.651 1001.12 472.23 1001.25 472.884C1001.37 473.538 1001.22 474.213 1000.84 474.761C1000.46 475.308 999.874 475.685 999.212 475.807V475.807Z"/><path fill="#D1D3D4" d="M989.502 538.809C995.376 537.74 999.26 532.175 998.177 526.38C997.093 520.584 991.453 516.753 985.579 517.821C979.705 518.89 975.822 524.455 976.905 530.251C977.988 536.046 983.628 539.878 989.502 538.809Z"/><path fill="#E6E6E6" d="M394.309 306.223H296.074C291.514 306.217 287.142 304.428 283.917 301.246C280.692 298.065 278.878 293.751 278.873 289.252V225.374C278.878 220.874 280.692 216.561 283.917 213.379C287.142 210.198 291.514 208.408 296.074 208.403H394.309C398.869 208.408 403.241 210.198 406.466 213.379C409.69 216.561 411.504 220.874 411.51 225.374V289.252C411.504 293.751 409.69 298.065 406.466 301.246C403.241 304.428 398.869 306.217 394.309 306.223V306.223Z"/><path fill="#fff" d="M383.514 302.781H298.018C294.05 302.777 290.245 301.219 287.438 298.45C284.632 295.681 283.053 291.927 283.048 288.011V232.417C283.053 228.501 284.632 224.747 287.438 221.978C290.245 219.209 294.05 217.652 298.018 217.647H383.514C387.483 217.652 391.288 219.209 394.094 221.978C396.901 224.747 398.479 228.501 398.484 232.417V288.011C398.479 291.927 396.901 295.681 394.094 298.45C391.288 301.219 387.483 302.777 383.514 302.781V302.781Z"/><path fill="#E6E6E6" d="M408.145 363.773H282.097C281.318 363.771 280.572 363.465 280.022 362.921C279.472 362.377 279.163 361.639 279.163 360.871C279.163 360.103 279.472 359.365 280.022 358.821C280.572 358.277 281.318 357.971 282.097 357.969H408.145C408.924 357.971 409.67 358.277 410.221 358.821C410.771 359.365 411.08 360.103 411.08 360.871C411.08 361.639 410.771 362.377 410.221 362.921C409.67 363.465 408.924 363.771 408.145 363.773V363.773Z"/><path fill="#E6E6E6" d="M408.145 347.191H282.097C281.318 347.189 280.572 346.883 280.022 346.339C279.472 345.795 279.163 345.058 279.163 344.289C279.163 343.521 279.472 342.784 280.022 342.24C280.572 341.696 281.318 341.389 282.097 341.387H408.145C408.924 341.389 409.67 341.696 410.221 342.24C410.771 342.784 411.08 343.521 411.08 344.289C411.08 345.058 410.771 345.795 410.221 346.339C409.67 346.883 408.924 347.189 408.145 347.191V347.191Z"/><path fill="#E6E6E6" d="M408.145 380.355H282.097C281.317 380.355 280.569 380.049 280.017 379.505C279.466 378.961 279.156 378.223 279.156 377.453C279.156 376.683 279.466 375.945 280.017 375.401C280.569 374.857 281.317 374.551 282.097 374.551H408.145C408.925 374.551 409.673 374.857 410.225 375.401C410.777 375.945 411.086 376.683 411.086 377.453C411.086 378.223 410.777 378.961 410.225 379.505C409.673 380.049 408.925 380.355 408.145 380.355Z"/><path fill="#E6E6E6" d="M408.145 396.937H282.097C281.317 396.937 280.569 396.631 280.017 396.087C279.466 395.543 279.156 394.805 279.156 394.035C279.156 393.265 279.466 392.527 280.017 391.983C280.569 391.439 281.317 391.133 282.097 391.133H408.145C408.925 391.133 409.673 391.439 410.225 391.983C410.777 392.527 411.086 393.265 411.086 394.035C411.086 394.805 410.777 395.543 410.225 396.087C409.673 396.631 408.925 396.937 408.145 396.937V396.937Z"/><path fill="#E6E6E6" d="M408.145 413.519H282.097C281.317 413.519 280.569 413.213 280.017 412.669C279.466 412.125 279.156 411.387 279.156 410.617C279.156 409.847 279.466 409.109 280.017 408.565C280.569 408.021 281.317 407.715 282.097 407.715H408.145C408.925 407.715 409.673 408.021 410.225 408.565C410.777 409.109 411.086 409.847 411.086 410.617C411.086 411.387 410.777 412.125 410.225 412.669C409.673 413.213 408.925 413.519 408.145 413.519Z"/><path fill="#E6E6E6" d="M408.145 430.101H282.097C281.318 430.099 280.572 429.793 280.022 429.249C279.472 428.705 279.163 427.967 279.163 427.199C279.163 426.431 279.472 425.693 280.022 425.149C280.572 424.605 281.318 424.299 282.097 424.297H408.145C408.924 424.299 409.67 424.605 410.221 425.149C410.771 425.693 411.08 426.431 411.08 427.199C411.08 427.967 410.771 428.705 410.221 429.249C409.67 429.793 408.924 430.099 408.145 430.101V430.101Z"/><path fill="#3F3D56" d="M338.819 392.072H341.944V510.851H115.903V507.768H338.819V392.072Z"/><path fill="#1BB978" d="M20.3138 530.356H103.132C108.519 530.356 113.686 528.244 117.496 524.486C121.305 520.727 123.446 515.629 123.446 510.313C123.446 504.998 121.305 499.9 117.496 496.141C113.686 492.383 108.519 490.271 103.132 490.271H20.3138C14.9263 490.271 9.75938 492.383 5.94979 496.141C2.14021 499.9 0 504.998 0 510.313C0 515.629 2.14021 520.727 5.94979 524.486C9.75938 528.244 14.9263 530.356 20.3138 530.356Z"/><path fill="#1BB978" d="M342.558 401.022C352.867 401.022 361.225 392.777 361.225 382.605C361.225 372.433 352.867 364.188 342.558 364.188C332.248 364.188 323.891 372.433 323.891 382.605C323.891 392.777 332.248 401.022 342.558 401.022Z"/><path fill="#1594DB" d="M439.041 387.723C466.447 393.47 459.476 394.591 486.881 400.338L510.481 405.287C513.433 405.906 514.241 401.349 511.288 400.73C483.882 394.983 490.853 393.861 463.447 388.115L439.848 383.166C436.896 382.547 436.087 387.103 439.041 387.723H439.041Z"/><path fill="#1594DB" d="M502.164 374.275L533.355 410.602C534.491 411.689 535.44 412.952 536.164 414.342C536.759 415.906 535.478 416.558 534.147 417.069C530.308 418.3 526.396 419.299 522.433 420.059L499.086 425.838C496.155 426.563 497.746 430.918 500.649 430.199L520.984 425.166L531.151 422.649C534.032 421.936 537.382 421.398 539.484 419.117C543.899 414.323 537.997 408.89 534.961 405.354L521.378 389.534L506.034 371.664C504.1 369.411 500.215 372.006 502.164 374.275V374.275Z"/><path fill="#E6E6E6" d="M601.06 532.63C625.034 532.63 644.469 513.454 644.469 489.8C644.469 466.146 625.034 446.971 601.06 446.971C577.085 446.971 557.65 466.146 557.65 489.8C557.65 513.454 577.085 532.63 601.06 532.63Z"/><path fill="#fff" d="M596.828 527.169C615.054 527.169 629.829 512.592 629.829 494.609C629.829 476.626 615.054 462.049 596.828 462.049C578.602 462.049 563.827 476.626 563.827 494.609C563.827 512.592 578.602 527.169 596.828 527.169Z"/><path fill="#1BB978" d="M590.907 516.9C590.157 516.9 589.418 516.728 588.747 516.397C588.077 516.066 587.494 515.586 587.044 514.994L575.202 499.415C574.821 498.914 574.544 498.345 574.386 497.739C574.228 497.133 574.193 496.502 574.283 495.883C574.372 495.263 574.584 494.668 574.907 494.129C575.23 493.591 575.657 493.12 576.164 492.744C576.671 492.369 577.248 492.095 577.862 491.94C578.477 491.784 579.116 491.75 579.744 491.838C580.371 491.926 580.975 492.135 581.521 492.454C582.067 492.772 582.544 493.194 582.924 493.694L582.927 493.698L590.675 503.89L610.575 474.44C610.926 473.918 611.378 473.47 611.905 473.121C612.432 472.772 613.024 472.529 613.646 472.406C614.268 472.283 614.909 472.282 615.531 472.403C616.154 472.525 616.746 472.766 617.274 473.113C617.802 473.46 618.256 473.907 618.609 474.427C618.962 474.948 619.207 475.532 619.331 476.146C619.456 476.76 619.456 477.392 619.332 478.006C619.208 478.621 618.963 479.205 618.61 479.725L594.925 514.779C594.496 515.413 593.92 515.936 593.244 516.305C592.569 516.674 591.813 516.877 591.041 516.899C590.996 516.899 590.952 516.9 590.907 516.9Z"/><path fill="#FFB8B8" d="M1006.4 533.921C1007.79 533.111 1008.99 532.007 1009.91 530.689C1010.83 529.371 1011.45 527.87 1011.71 526.292C1011.98 524.714 1011.89 523.098 1011.46 521.557C1011.02 520.015 1010.25 518.587 1009.2 517.372L1044.05 457.278L1023.6 458.375L992.884 516.608C990.933 518.492 989.749 521.016 989.558 523.702C989.366 526.389 990.18 529.052 991.846 531.186C993.511 533.32 995.912 534.777 998.594 535.281C1001.28 535.786 1004.05 535.302 1006.4 533.921H1006.4Z"/><path fill="#3F3D56" d="M967.137 323.282C967.137 323.282 1004.05 311.573 1013.55 339.674C1023.04 367.776 1054.96 443.885 1054.96 443.885L1020.67 512.968L1005.24 496.576L1021.73 448.569L974.257 378.314L967.137 323.282Z"/><path fill="#E6E6E6" d="M1021.84 505.913C1020.73 504.058 1019.32 502.394 1017.67 500.985L1005.89 489.8L1005.23 491.242C1004.03 493.118 1003.24 495.224 1002.91 497.423C1002.59 499.623 1002.74 501.865 1003.35 504.002C1003.97 506.14 1005.03 508.126 1006.48 509.829C1007.93 511.532 1009.72 512.914 1011.75 513.885C1013.48 514.781 1015.43 515.178 1017.38 515.032C1018.35 514.948 1019.28 514.64 1020.11 514.131C1020.93 513.622 1021.63 512.927 1022.13 512.104C1022.59 511.125 1022.8 510.051 1022.75 508.974C1022.7 507.897 1022.39 506.847 1021.84 505.913V505.913Z"/><path fill="#3F3D56" d="M600.683 547.42H597.558V666.199H703.279V663.116H600.683V547.42Z"/><path fill="#1BB978" d="M819.182 665.662C819.177 660.348 817.035 655.253 813.227 651.495C809.418 647.737 804.254 645.624 798.868 645.619H716.05C710.663 645.619 705.496 647.731 701.686 651.49C697.877 655.248 695.736 660.346 695.736 665.662C695.736 670.977 697.877 676.075 701.686 679.834C705.496 683.593 710.663 685.704 716.05 685.704H798.868C804.254 685.699 809.418 683.586 813.227 679.828C817.035 676.071 819.177 670.976 819.182 665.662Z"/><path fill="#1BB978" d="M596.944 556.37C607.253 556.37 615.611 548.125 615.611 537.953C615.611 527.782 607.253 519.536 596.944 519.536C586.635 519.536 578.277 527.782 578.277 537.953C578.277 548.125 586.635 556.37 596.944 556.37Z"/><path fill="#1BB978" d="M663.667 251.835C673.976 251.835 682.333 243.589 682.333 233.417C682.333 223.246 673.976 215 663.667 215C653.357 215 645 223.246 645 233.417C645 243.589 653.357 251.835 663.667 251.835Z"/><path fill="#F9A826" d="M325.633 250.938V247.188H321.883C321.137 247.188 320.421 246.891 319.894 246.364C319.366 245.836 319.07 245.121 319.07 244.375C319.07 243.629 319.366 242.914 319.894 242.386C320.421 241.859 321.137 241.562 321.883 241.562H325.633V237.812C325.633 237.067 325.929 236.351 326.456 235.824C326.984 235.296 327.699 235 328.445 235C329.191 235 329.906 235.296 330.434 235.824C330.961 236.351 331.258 237.067 331.258 237.812V241.562H335.008C335.754 241.562 336.469 241.859 336.996 242.386C337.524 242.914 337.82 243.629 337.82 244.375C337.82 245.121 337.524 245.836 336.996 246.364C336.469 246.891 335.754 247.188 335.008 247.188H331.258V250.938C331.258 251.683 330.961 252.399 330.434 252.926C329.906 253.454 329.191 253.75 328.445 253.75C327.699 253.75 326.984 253.454 326.456 252.926C325.929 252.399 325.633 251.683 325.633 250.938V250.938ZM348.133 241.562C347.387 241.562 346.671 241.859 346.144 242.386C345.616 242.914 345.32 243.629 345.32 244.375C345.32 245.121 345.616 245.836 346.144 246.364C346.671 246.891 347.387 247.188 348.133 247.188H361.258C362.004 247.188 362.719 246.891 363.246 246.364C363.774 245.836 364.07 245.121 364.07 244.375C364.07 243.629 363.774 242.914 363.246 242.386C362.719 241.859 362.004 241.562 361.258 241.562H348.133ZM319.895 275.2C319.619 275.457 319.397 275.768 319.243 276.113C319.09 276.458 319.007 276.83 319 277.208C318.994 277.586 319.063 277.961 319.205 278.311C319.346 278.661 319.557 278.979 319.824 279.246C320.091 279.513 320.409 279.724 320.759 279.865C321.109 280.007 321.484 280.076 321.862 280.07C322.24 280.063 322.612 279.98 322.957 279.827C323.302 279.673 323.613 279.451 323.87 279.175L328.445 274.6L333.02 279.175C333.553 279.672 334.258 279.942 334.987 279.929C335.716 279.917 336.411 279.621 336.926 279.106C337.442 278.591 337.737 277.896 337.75 277.167C337.762 276.438 337.492 275.733 336.995 275.2L332.42 270.625L336.995 266.05C337.271 265.793 337.493 265.482 337.647 265.137C337.801 264.792 337.883 264.42 337.89 264.042C337.897 263.664 337.827 263.289 337.686 262.939C337.544 262.589 337.334 262.271 337.067 262.004C336.799 261.737 336.481 261.526 336.131 261.385C335.781 261.243 335.406 261.174 335.028 261.18C334.651 261.187 334.278 261.27 333.933 261.423C333.588 261.577 333.278 261.799 333.02 262.075L328.445 266.65L323.87 262.075C323.337 261.578 322.632 261.308 321.903 261.321C321.175 261.333 320.479 261.629 319.964 262.144C319.449 262.659 319.154 263.354 319.141 264.083C319.128 264.812 319.398 265.517 319.895 266.05L324.47 270.625L319.895 275.2V275.2ZM354.695 265C355.69 265 356.644 264.605 357.347 263.902C358.05 263.198 358.445 262.245 358.445 261.25C358.445 260.255 358.05 259.302 357.347 258.598C356.644 257.895 355.69 257.5 354.695 257.5C353.701 257.5 352.747 257.895 352.044 258.598C351.34 259.302 350.945 260.255 350.945 261.25C350.945 262.245 351.34 263.198 352.044 263.902C352.747 264.605 353.701 265 354.695 265V265ZM347.195 265.938C346.449 265.938 345.734 266.234 345.206 266.761C344.679 267.289 344.383 268.004 344.383 268.75C344.383 269.496 344.679 270.211 345.206 270.739C345.734 271.266 346.449 271.562 347.195 271.562H362.195C362.941 271.562 363.656 271.266 364.184 270.739C364.711 270.211 365.008 269.496 365.008 268.75C365.008 268.004 364.711 267.289 364.184 266.761C363.656 266.234 362.941 265.938 362.195 265.938H347.195ZM358.445 276.25C358.445 277.245 358.05 278.198 357.347 278.902C356.644 279.605 355.69 280 354.695 280C353.701 280 352.747 279.605 352.044 278.902C351.34 278.198 350.945 277.245 350.945 276.25C350.945 275.255 351.34 274.302 352.044 273.598C352.747 272.895 353.701 272.5 354.695 272.5C355.69 272.5 356.644 272.895 357.347 273.598C358.05 274.302 358.445 275.255 358.445 276.25V276.25Z"/></g><defs><clipPath id="clip0_72_207"><rect width="1175" height="857" fill="#fff"/></clipPath></defs></svg>